<?xml version="1.0" encoding="UTF-8"?>
<!DOCTYPE svg PUBLIC "-//W3C//DTD SVG 1.1//EN" "http://www.w3.org/Graphics/SVG/1.1/DTD/svg11.dtd">
<svg xmlns="http://www.w3.org/2000/svg" version="1.1" width="350px" height="373px" style="shape-rendering:geometricPrecision; text-rendering:geometricPrecision; image-rendering:optimizeQuality; fill-rule:evenodd; clip-rule:evenodd" xmlns:xlink="http://www.w3.org/1999/xlink">
<g><path style="opacity:0.998" fill="#3d3f93" d="M 165.5,-0.5 C 171.5,-0.5 177.5,-0.5 183.5,-0.5C 253.081,7.54347 302.915,43.2101 333,106.5C 341.751,127.124 347.251,148.457 349.5,170.5C 349.5,180.833 349.5,191.167 349.5,201.5C 343.785,260.113 317.452,306.946 270.5,342C 244.055,359.647 215.055,369.814 183.5,372.5C 177.5,372.5 171.5,372.5 165.5,372.5C 95.9585,364.47 46.1251,328.804 16,265.5C 7.17631,244.537 1.67631,222.87 -0.5,200.5C -0.5,190.833 -0.5,181.167 -0.5,171.5C 6.92827,98.2591 43.5949,45.4258 109.5,13C 127.619,5.63578 146.285,1.13578 165.5,-0.5 Z"/></g>
<g><path style="opacity:1" fill="#8c8dbf" d="M 268.5,92.5 C 278.319,91.506 288.319,91.1726 298.5,91.5C 298.802,94.0593 298.468,96.3926 297.5,98.5C 297.5,96.5 297.5,94.5 297.5,92.5C 287.833,92.5 278.167,92.5 268.5,92.5 Z"/></g>
<g><path style="opacity:1" fill="#f8f8fb" d="M 268.5,92.5 C 278.167,92.5 287.833,92.5 297.5,92.5C 297.5,94.5 297.5,96.5 297.5,98.5C 296.896,118.84 296.062,139.173 295,159.5C 252.821,221.204 210.654,282.87 168.5,344.5C 131.68,286.87 94.8471,229.203 58,171.5C 56.3023,172.733 54.3023,173.4 52,173.5C 50.1667,173.167 48.3333,172.833 46.5,172.5C 47.1667,169.5 47.8333,166.5 48.5,163.5C 46.604,162.534 44.604,162.201 42.5,162.5C 42.5,159.5 42.5,156.5 42.5,153.5C 44.1667,153.5 45.8333,153.5 47.5,153.5C 48.583,134.838 49.583,116.172 50.5,97.5C 123.164,95.7425 195.831,94.0758 268.5,92.5 Z"/></g>
<g><path style="opacity:1" fill="#3d3f94" d="M 278.5,104.5 C 281.833,104.5 285.167,104.5 288.5,104.5C 288.5,111.5 288.5,118.5 288.5,125.5C 288.5,130.833 288.5,136.167 288.5,141.5C 214.096,145.212 139.763,149.212 65.5,153.5C 62.8333,153.5 60.1667,153.5 57.5,153.5C 57.5,138.167 57.5,122.833 57.5,107.5C 131.17,106.682 204.836,105.682 278.5,104.5 Z"/></g>
<g><path style="opacity:1" fill="#9091c1" d="M 278.5,104.5 C 281.962,103.518 285.629,103.185 289.5,103.5C 289.825,111.019 289.492,118.352 288.5,125.5C 288.5,118.5 288.5,111.5 288.5,104.5C 285.167,104.5 281.833,104.5 278.5,104.5 Z"/></g>
<g><path style="opacity:1" fill="#bbbcdd" d="M 57.5,107.5 C 57.5,122.833 57.5,138.167 57.5,153.5C 60.1667,153.5 62.8333,153.5 65.5,153.5C 62.7131,154.477 59.7131,154.81 56.5,154.5C 56.1704,138.658 56.5037,122.991 57.5,107.5 Z"/></g>
<g><path style="opacity:1" fill="#3d3f93" d="M 247.5,156.5 C 258.838,156.333 270.172,156.5 281.5,157C 244.663,215.323 207.663,273.49 170.5,331.5C 134.18,274.87 97.847,218.203 61.5,161.5C 123.655,159.57 185.655,157.904 247.5,156.5 Z"/></g>
<g><path style="opacity:1" fill="#f7f7fa" d="M 240.5,161.5 C 244.281,160.789 247.281,161.955 249.5,165C 247.607,169.347 246.107,173.847 245,178.5C 235.2,196.762 224.867,214.762 214,232.5C 198.362,247.138 183.029,262.138 168,277.5C 155.137,264.971 142.637,252.138 130.5,239C 129.365,238.251 128.365,238.417 127.5,239.5C 126.533,241.63 125.366,243.63 124,245.5C 120.714,241.759 117.547,237.925 114.5,234C 117.466,232.734 120.466,231.567 123.5,230.5C 119.172,225.179 115.338,219.512 112,213.5C 106.323,201.936 101.157,190.27 96.5,178.5C 99.5792,178.804 102.413,179.804 105,181.5C 110.333,192.833 115.667,204.167 121,215.5C 123.71,219.753 126.543,223.92 129.5,228C 130.908,228.315 132.241,227.982 133.5,227C 135.833,225.167 138.167,223.333 140.5,221.5C 136.912,215.325 133.578,208.991 130.5,202.5C 133.554,200.306 136.888,198.639 140.5,197.5C 143.469,204.04 146.136,210.707 148.5,217.5C 177.441,207.91 205.941,197.243 234,185.5C 235.559,181.381 237.393,177.381 239.5,173.5C 239.167,173.167 238.833,172.833 238.5,172.5C 228.15,176.505 217.817,180.505 207.5,184.5C 196.797,180.449 185.964,176.783 175,173.5C 163.137,177.399 151.304,181.399 139.5,185.5C 129.528,182.898 119.528,180.398 109.5,178C 104.546,174.715 99.8797,171.048 95.5,167C 109.769,170.359 124.102,173.859 138.5,177.5C 151.043,173.764 163.376,169.43 175.5,164.5C 186.847,168.509 198.181,172.509 209.5,176.5C 220.042,171.728 230.375,166.728 240.5,161.5 Z"/></g>
<g><path style="opacity:1" fill="#3d3f93" d="M 230.5,190.5 C 231.043,190.56 231.376,190.893 231.5,191.5C 220.441,213.397 205.774,232.564 187.5,249C 179.404,254.131 171.571,259.631 164,265.5C 153.779,256.613 144.279,247.113 135.5,237C 139.307,234.67 143.307,234.17 147.5,235.5C 148.981,241.447 151.148,247.113 154,252.5C 155.475,248.525 158.309,246.192 162.5,245.5C 160.588,241.34 158.421,237.34 156,233.5C 155.251,232.365 155.417,231.365 156.5,230.5C 181.197,217.153 205.863,203.819 230.5,190.5 Z"/></g>
</svg>
