<?xml version="1.0" encoding="UTF-8"?>
<!DOCTYPE svg PUBLIC "-//W3C//DTD SVG 1.1//EN" "http://www.w3.org/Graphics/SVG/1.1/DTD/svg11.dtd">
<svg xmlns="http://www.w3.org/2000/svg" version="1.1" width="350px" height="373px" style="shape-rendering:geometricPrecision; text-rendering:geometricPrecision; image-rendering:optimizeQuality; fill-rule:evenodd; clip-rule:evenodd" xmlns:xlink="http://www.w3.org/1999/xlink">
<g><path style="opacity:0.997" fill="#d52c31" d="M 160.5,-0.5 C 169.833,-0.5 179.167,-0.5 188.5,-0.5C 209.177,1.58665 228.844,7.25332 247.5,16.5C 243.92,17.0772 240.92,16.0772 238.5,13.5C 237.252,14.0402 236.085,14.7069 235,15.5C 234.676,13.4311 233.842,13.0977 232.5,14.5C 230.456,12.6445 228.289,11.9778 226,12.5C 225.676,10.4311 224.842,10.0977 223.5,11.5C 222.808,10.9747 222.308,10.3081 222,9.5C 221.667,9.83333 221.333,10.1667 221,10.5C 219.333,9.5 217.667,8.5 216,7.5C 213.333,7.5 210.667,7.5 208,7.5C 197.429,3.97738 186.262,2.31072 174.5,2.5C 168.067,2.41242 161.733,3.07909 155.5,4.5C 154.914,4.29069 154.414,3.95735 154,3.5C 150.917,4.95221 147.917,5.95221 145,6.5C 144.667,6.16667 144.333,5.83333 144,5.5C 140.806,6.95662 137.473,7.95662 134,8.5C 133.667,8.16667 133.333,7.83333 133,7.5C 132.395,9.48123 131.395,9.81457 130,8.5C 127.617,10.9547 124.951,11.9547 122,11.5C 120.806,12.4303 119.473,13.0969 118,13.5C 115.88,12.5411 113.713,12.3744 111.5,13C 113.686,13.6036 113.852,14.7703 112,16.5C 111,17.8333 110,17.8333 109,16.5C 107.163,18.8634 104.996,19.5301 102.5,18.5C 99.4762,20.5219 96.1429,21.5219 92.5,21.5C 100.619,16.4426 109.285,12.4426 118.5,9.5C 123.165,8.9431 127.498,7.60976 131.5,5.5C 140.983,2.53121 150.65,0.531212 160.5,-0.5 Z"/></g>
<g><path style="opacity:1" fill="#ec3136" d="M 247.5,16.5 C 281.725,33.3918 307.725,58.7251 325.5,92.5C 325.34,94.1992 325.506,95.8659 326,97.5C 326.654,96.3044 327.154,96.3044 327.5,97.5C 326.833,98.5 326.167,99.5 325.5,100.5C 326.934,102.22 327.767,104.22 328,106.5C 330.109,107.035 330.609,108.035 329.5,109.5C 330.635,111.799 331.968,113.966 333.5,116C 332.366,117.016 332.699,117.683 334.5,118C 333.416,120.19 334.083,121.856 336.5,123C 336.043,123.414 335.709,123.914 335.5,124.5C 337.181,126.992 337.848,129.492 337.5,132C 337.996,133.996 338.996,135.663 340.5,137C 340.5,138.667 340.5,140.333 340.5,142C 341.167,142.667 341.833,143.333 342.5,144C 342.41,147.396 342.41,150.73 342.5,154C 343.763,155.705 344.097,157.372 343.5,159C 344.249,160.734 344.749,162.567 345,164.5C 345.667,163.833 346.333,163.167 347,162.5C 347.198,164.382 347.698,166.048 348.5,167.5C 348.328,168.492 348.662,169.158 349.5,169.5C 349.5,171.833 349.5,174.167 349.5,176.5C 348.51,182.31 348.177,188.31 348.5,194.5C 348.167,198.5 347.833,202.5 347.5,206.5C 346.603,207.598 345.77,207.598 345,206.5C 343.982,214.812 342.148,223.478 339.5,232.5C 340.718,233.803 340.385,234.803 338.5,235.5C 339.668,236.906 339.335,238.072 337.5,239C 337.255,240.911 337.255,242.911 337.5,245C 336.692,245.308 336.025,245.808 335.5,246.5C 336.079,250.096 336.079,253.763 335.5,257.5C 331.136,269.229 325.47,280.229 318.5,290.5C 317.849,289.909 317.182,289.243 316.5,288.5C 312.88,294.11 309.046,299.443 305,304.5C 304.333,303.167 303.667,303.167 303,304.5C 301.887,305.76 301.72,306.927 302.5,308C 298.741,308.131 297.408,309.797 298.5,313C 295.312,314.699 292.312,316.699 289.5,319C 290.167,319.333 290.833,319.667 291.5,320C 289.513,321.319 288.346,323.152 288,325.5C 287.163,323.993 285.996,323.493 284.5,324C 284.833,324.333 285.167,324.667 285.5,325C 284.333,326.167 283.167,327.333 282,328.5C 279.864,327.97 278.03,328.803 276.5,331C 276.833,331.333 277.167,331.667 277.5,332C 272.384,333.553 268.384,336.553 265.5,341C 261.749,341.582 260.082,343.749 260.5,347.5C 255.45,350.692 250.117,353.358 244.5,355.5C 240.987,355.307 237.654,355.974 234.5,357.5C 232.655,356.062 231.489,356.396 231,358.5C 230.667,358.167 230.333,357.833 230,357.5C 228.266,358.249 226.433,358.749 224.5,359C 221.12,360.045 217.954,361.545 215,363.5C 214.667,363.167 214.333,362.833 214,362.5C 212,363.167 210,363.833 208,364.5C 206.657,363.786 205.324,364.12 204,365.5C 202.096,364.898 200.263,365.398 198.5,367C 199.5,367.333 200.5,367.667 201.5,368C 199.942,368.21 198.609,368.71 197.5,369.5C 192.863,370.166 188.197,370.833 183.5,371.5C 177.679,370.187 171.846,370.187 166,371.5C 160.823,370.805 155.657,370.139 150.5,369.5C 149.909,368.849 149.243,368.182 148.5,367.5C 149.491,365.877 148.824,364.877 146.5,364.5C 144.939,365.347 143.439,365.014 142,363.5C 141.667,363.833 141.333,364.167 141,364.5C 138.676,363.155 136.342,362.822 134,363.5C 131.601,362.751 129.101,361.418 126.5,359.5C 125.158,360.902 124.324,360.569 124,358.5C 122.089,358.255 120.089,358.255 118,358.5C 117.667,357.833 117.333,357.167 117,356.5C 115.989,357.337 114.822,357.67 113.5,357.5C 113.487,354.639 112.321,353.639 110,354.5C 107.914,352.751 105.581,351.417 103,350.5C 102.05,351.022 101.216,351.689 100.5,352.5C 98.9991,351.248 97.3325,350.248 95.5,349.5C 96.3256,348.549 96.4922,347.549 96,346.5C 93.1927,344.23 90.1927,343.23 87,343.5C 86.5172,342.552 86.3505,341.552 86.5,340.5C 84.3392,340.491 83.0059,339.824 82.5,338.5C 81.3527,338.818 80.5194,339.484 80,340.5C 79.3292,339.748 78.4959,339.414 77.5,339.5C 70.7128,334.593 64.0461,329.426 57.5,324C 52.6,318.608 47.9334,313.108 43.5,307.5C 43.8633,305.089 42.8633,303.589 40.5,303C 42.9913,302.374 42.9913,301.541 40.5,300.5C 41.3256,299.549 41.4922,298.549 41,297.5C 38.988,295.32 37.1546,292.986 35.5,290.5C 33.9291,289.691 32.2624,289.357 30.5,289.5C 30.3573,287.738 30.6906,286.071 31.5,284.5C 30.6667,282.833 29.8333,281.167 29,279.5C 28.6667,280.167 28.3333,280.833 28,281.5C 27.6667,280.167 27.3333,278.833 27,277.5C 24.0863,274.465 21.5863,271.131 19.5,267.5C 18.2309,265.305 18.2309,263.139 19.5,261C 17.6992,260.683 17.3659,260.016 18.5,259C 16.6992,258.683 16.3659,258.016 17.5,257C 17.0037,255.004 16.0037,253.337 14.5,252C 14.9574,251.586 15.2907,251.086 15.5,250.5C 14.4378,249.23 13.4378,248.063 12.5,247C 13.8146,245.605 13.4812,244.605 11.5,244C 11.8333,243.667 12.1667,243.333 12.5,243C 11.991,240.43 10.991,238.097 9.5,236C 9.95735,235.586 10.2907,235.086 10.5,234.5C 9.34934,233.269 8.18268,233.269 7,234.5C 6.08187,231.937 6.58187,229.77 8.5,228C 7.11983,226.676 6.7865,225.343 7.5,224C 6.45356,217.282 5.28689,210.782 4,204.5C 3.23029,205.598 2.39695,205.598 1.5,204.5C 1.73586,201.391 1.40252,198.391 0.5,195.5C 0.82404,188.646 0.490707,181.979 -0.5,175.5C -0.5,174.167 -0.5,172.833 -0.5,171.5C 0.338246,171.158 0.67158,170.492 0.5,169.5C 1.88899,164.731 2.55565,159.731 2.5,154.5C 2.65873,150.709 3.32539,147.042 4.5,143.5C 5.26791,142.737 5.76791,141.737 6,140.5C 7.36387,141.258 8.53054,140.758 9.5,139C 9.16667,138.667 8.83333,138.333 8.5,138C 10.4812,137.395 10.8146,136.395 9.5,135C 11.1247,134.147 11.4581,133.147 10.5,132C 11.952,130.042 12.2854,128.042 11.5,126C 13.3008,125.683 13.6341,125.016 12.5,124C 14.9171,122.856 15.5838,121.19 14.5,119C 16.3008,118.683 16.6341,118.016 15.5,117C 17.4755,114.624 18.3088,112.124 18,109.5C 18.3333,109.833 18.6667,110.167 19,110.5C 21.0789,106.806 22.4122,102.806 23,98.5C 24.2051,97.9288 25.3717,97.2621 26.5,96.5C 25.5244,94.8767 26.0244,93.5433 28,92.5C 28.3333,89.8333 28.6667,87.1667 29,84.5C 29.4186,85.6721 30.0853,86.6721 31,87.5C 31.9305,84.6384 33.5971,82.305 36,80.5C 36.6172,79.5509 36.4506,78.7175 35.5,78C 37.5361,74.8025 39.8695,71.8025 42.5,69C 42.0426,68.586 41.7093,68.086 41.5,67.5C 43.415,65.9288 44.415,63.9288 44.5,61.5C 57.8163,44.842 73.8163,31.5086 92.5,21.5C 96.1429,21.5219 99.4762,20.5219 102.5,18.5C 104.996,19.5301 107.163,18.8634 109,16.5C 110,17.8333 111,17.8333 112,16.5C 113.852,14.7703 113.686,13.6036 111.5,13C 113.713,12.3744 115.88,12.5411 118,13.5C 119.473,13.0969 120.806,12.4303 122,11.5C 124.951,11.9547 127.617,10.9547 130,8.5C 131.395,9.81457 132.395,9.48123 133,7.5C 133.333,7.83333 133.667,8.16667 134,8.5C 137.473,7.95662 140.806,6.95662 144,5.5C 144.333,5.83333 144.667,6.16667 145,6.5C 147.917,5.95221 150.917,4.95221 154,3.5C 154.414,3.95735 154.914,4.29069 155.5,4.5C 161.733,3.07909 168.067,2.41242 174.5,2.5C 186.262,2.31072 197.429,3.97738 208,7.5C 210.667,7.5 213.333,7.5 216,7.5C 217.667,8.5 219.333,9.5 221,10.5C 221.333,10.1667 221.667,9.83333 222,9.5C 222.308,10.3081 222.808,10.9747 223.5,11.5C 224.842,10.0977 225.676,10.4311 226,12.5C 228.289,11.9778 230.456,12.6445 232.5,14.5C 233.842,13.0977 234.676,13.4311 235,15.5C 236.085,14.7069 237.252,14.0402 238.5,13.5C 240.92,16.0772 243.92,17.0772 247.5,16.5 Z"/></g>
<g><path style="opacity:0.761" fill="#a02225" d="M 131.5,5.5 C 127.498,7.60976 123.165,8.9431 118.5,9.5C 122.502,7.39024 126.835,6.0569 131.5,5.5 Z"/></g>
<g><path style="opacity:1" fill="#fdf8f8" d="M 284.5,91.5 C 288.833,91.5 293.167,91.5 297.5,91.5C 297.5,94.8333 297.5,98.1667 297.5,101.5C 296.667,120.497 295.834,139.497 295,158.5C 253.315,220.551 211.148,282.218 168.5,343.5C 131.431,285.705 94.5974,227.705 58,169.5C 57.5172,170.448 57.3505,171.448 57.5,172.5C 53.774,172.823 50.1073,172.489 46.5,171.5C 47.5514,168.243 48.2181,164.91 48.5,161.5C 46.5,161.5 44.5,161.5 42.5,161.5C 42.5,158.5 42.5,155.5 42.5,152.5C 44.1667,152.5 45.8333,152.5 47.5,152.5C 49.6058,133.896 50.6058,115.229 50.5,96.5C 128.511,95.1246 206.511,93.458 284.5,91.5 Z"/></g>
<g><path style="opacity:1" fill="#e76367" d="M 284.5,91.5 C 288.97,90.5139 293.637,90.1805 298.5,90.5C 298.815,94.3714 298.482,98.0381 297.5,101.5C 297.5,98.1667 297.5,94.8333 297.5,91.5C 293.167,91.5 288.833,91.5 284.5,91.5 Z"/></g>
<g><path style="opacity:1" fill="#ec3237" d="M 68.5,152.5 C 64.8333,152.5 61.1667,152.5 57.5,152.5C 57.5,143.5 57.5,134.5 57.5,125.5C 57.5,119.5 57.5,113.5 57.5,107.5C 134.498,106.111 211.498,104.778 288.5,103.5C 288.5,115.833 288.5,128.167 288.5,140.5C 215.189,144.898 141.856,148.898 68.5,152.5 Z"/></g>
<g><path style="opacity:0.994" fill="#d42c31" d="M 325.5,92.5 C 338.869,115.615 346.536,140.615 348.5,167.5C 347.698,166.048 347.198,164.382 347,162.5C 346.333,163.167 345.667,163.833 345,164.5C 344.749,162.567 344.249,160.734 343.5,159C 344.097,157.372 343.763,155.705 342.5,154C 342.41,150.73 342.41,147.396 342.5,144C 341.833,143.333 341.167,142.667 340.5,142C 340.5,140.333 340.5,138.667 340.5,137C 338.996,135.663 337.996,133.996 337.5,132C 337.848,129.492 337.181,126.992 335.5,124.5C 335.709,123.914 336.043,123.414 336.5,123C 334.083,121.856 333.416,120.19 334.5,118C 332.699,117.683 332.366,117.016 333.5,116C 331.968,113.966 330.635,111.799 329.5,109.5C 330.609,108.035 330.109,107.035 328,106.5C 327.767,104.22 326.934,102.22 325.5,100.5C 326.167,99.5 326.833,98.5 327.5,97.5C 327.154,96.3044 326.654,96.3044 326,97.5C 325.506,95.8659 325.34,94.1992 325.5,92.5 Z"/></g>
<g><path style="opacity:0.986" fill="#d72d32" d="M 44.5,61.5 C 44.415,63.9288 43.415,65.9288 41.5,67.5C 41.7093,68.086 42.0426,68.586 42.5,69C 39.8695,71.8025 37.5361,74.8025 35.5,78C 36.4506,78.7175 36.6172,79.5509 36,80.5C 33.5971,82.305 31.9305,84.6384 31,87.5C 30.0853,86.6721 29.4186,85.6721 29,84.5C 28.6667,87.1667 28.3333,89.8333 28,92.5C 26.0244,93.5433 25.5244,94.8767 26.5,96.5C 25.3717,97.2621 24.2051,97.9288 23,98.5C 22.4122,102.806 21.0789,106.806 19,110.5C 18.6667,110.167 18.3333,109.833 18,109.5C 18.3088,112.124 17.4755,114.624 15.5,117C 16.6341,118.016 16.3008,118.683 14.5,119C 15.5838,121.19 14.9171,122.856 12.5,124C 13.6341,125.016 13.3008,125.683 11.5,126C 12.2854,128.042 11.952,130.042 10.5,132C 11.4581,133.147 11.1247,134.147 9.5,135C 10.8146,136.395 10.4812,137.395 8.5,138C 8.83333,138.333 9.16667,138.667 9.5,139C 8.53054,140.758 7.36387,141.258 6,140.5C 5.76791,141.737 5.26791,142.737 4.5,143.5C 10.9393,112.625 24.2726,85.2914 44.5,61.5 Z"/></g>
<g><path style="opacity:1" fill="#f4999b" d="M 57.5,125.5 C 57.5,134.5 57.5,143.5 57.5,152.5C 61.1667,152.5 64.8333,152.5 68.5,152.5C 64.7016,153.483 60.7016,153.817 56.5,153.5C 56.1731,143.985 56.5064,134.652 57.5,125.5 Z"/></g>
<g><path style="opacity:0.522" fill="#891c20" d="M 2.5,154.5 C 2.55565,159.731 1.88899,164.731 0.5,169.5C 0.444348,164.269 1.11101,159.269 2.5,154.5 Z"/></g>
<g><path style="opacity:1" fill="#eb3338" d="M 260.5,155.5 C 267.508,155.334 274.508,155.5 281.5,156C 244.875,214.753 207.875,273.253 170.5,331.5C 134.541,274.412 98.2077,217.579 61.5,161C 127.98,158.644 194.314,156.811 260.5,155.5 Z"/></g>
<g><path style="opacity:1" fill="#fdf6f6" d="M 240.5,160.5 C 244.281,159.789 247.281,160.955 249.5,164C 247.339,170.483 245.172,176.983 243,183.5C 233.748,198.334 224.748,213.334 216,228.5C 200.595,245.283 184.428,261.283 167.5,276.5C 154.985,263.818 142.651,250.985 130.5,238C 128.613,237.837 127.113,238.671 126,240.5C 125.529,242.246 124.862,243.913 124,245.5C 121.239,241.65 118.239,237.983 115,234.5C 114.409,233.517 114.743,232.85 116,232.5C 118.84,231.084 121.673,230.584 124.5,231C 112.28,214.727 103.114,196.894 97,177.5C 99.7176,178.347 102.384,179.347 105,180.5C 111.788,197.413 120.121,213.413 130,228.5C 133.951,226.377 137.451,223.711 140.5,220.5C 136.411,214.177 133.411,207.677 131.5,201C 134.64,199.052 137.973,198.052 141.5,198C 143.969,203.772 146.302,209.605 148.5,215.5C 149.723,216.614 151.056,216.781 152.5,216C 179.058,205.888 205.724,196.055 232.5,186.5C 235.838,181.843 238.004,176.843 239,171.5C 228.444,175.603 217.944,179.936 207.5,184.5C 197.144,180.07 186.644,176.07 176,172.5C 163.861,176.602 151.694,180.602 139.5,184.5C 129.423,182.308 119.423,179.808 109.5,177C 104.5,173.333 99.5,169.667 94.5,166C 109.358,169.391 124.192,173.224 139,177.5C 151.222,172.972 163.389,168.305 175.5,163.5C 186.978,167.936 198.478,172.27 210,176.5C 220.338,171.25 230.505,165.917 240.5,160.5 Z"/></g>
<g><path style="opacity:1" fill="#ea3237" d="M 230.5,189.5 C 231.043,189.56 231.376,189.893 231.5,190.5C 220.726,213.198 205.726,232.698 186.5,249C 178.913,254.043 171.413,259.21 164,264.5C 153.651,255.763 144.151,246.263 135.5,236C 139.313,234.228 143.313,233.395 147.5,233.5C 149.257,238.941 150.924,244.441 152.5,250C 152.85,251.257 153.517,251.591 154.5,251C 156.236,247.697 158.903,245.53 162.5,244.5C 159.912,240.326 157.579,235.993 155.5,231.5C 155.977,230.522 156.643,229.689 157.5,229C 182.246,216.299 206.579,203.132 230.5,189.5 Z"/></g>
<g><path style="opacity:0.506" fill="#8d1d21" d="M -0.5,195.5 C -0.166667,195.5 0.166667,195.5 0.5,195.5C 1.40252,198.391 1.73586,201.391 1.5,204.5C 1.5,206.167 1.5,207.833 1.5,209.5C 0.833333,205.833 0.166667,202.167 -0.5,198.5C -0.5,197.5 -0.5,196.5 -0.5,195.5 Z"/></g>
<g><path style="opacity:0.529" fill="#791a1d" d="M 348.5,194.5 C 348.833,194.5 349.167,194.5 349.5,194.5C 349.5,196.833 349.5,199.167 349.5,201.5C 348.833,204.833 348.167,208.167 347.5,211.5C 347.5,209.833 347.5,208.167 347.5,206.5C 347.833,202.5 348.167,198.5 348.5,194.5 Z"/></g>
<g><path style="opacity:1" fill="#d32c31" d="M 347.5,206.5 C 347.5,208.167 347.5,209.833 347.5,211.5C 345.978,227.592 341.978,242.925 335.5,257.5C 336.079,253.763 336.079,250.096 335.5,246.5C 336.025,245.808 336.692,245.308 337.5,245C 337.255,242.911 337.255,240.911 337.5,239C 339.335,238.072 339.668,236.906 338.5,235.5C 340.385,234.803 340.718,233.803 339.5,232.5C 342.148,223.478 343.982,214.812 345,206.5C 345.77,207.598 346.603,207.598 347.5,206.5 Z"/></g>
<g><path style="opacity:1" fill="#d22c31" d="M 1.5,204.5 C 2.39695,205.598 3.23029,205.598 4,204.5C 5.28689,210.782 6.45356,217.282 7.5,224C 6.7865,225.343 7.11983,226.676 8.5,228C 6.58187,229.77 6.08187,231.937 7,234.5C 8.18268,233.269 9.34934,233.269 10.5,234.5C 10.2907,235.086 9.95735,235.586 9.5,236C 10.991,238.097 11.991,240.43 12.5,243C 12.1667,243.333 11.8333,243.667 11.5,244C 13.4812,244.605 13.8146,245.605 12.5,247C 13.4378,248.063 14.4378,249.23 15.5,250.5C 15.2907,251.086 14.9574,251.586 14.5,252C 16.0037,253.337 17.0037,255.004 17.5,257C 16.3659,258.016 16.6992,258.683 18.5,259C 17.3659,260.016 17.6992,260.683 19.5,261C 18.2309,263.139 18.2309,265.305 19.5,267.5C 21.5863,271.131 24.0863,274.465 27,277.5C 27.3333,278.833 27.6667,280.167 28,281.5C 28.3333,280.833 28.6667,280.167 29,279.5C 29.8333,281.167 30.6667,282.833 31.5,284.5C 30.6906,286.071 30.3573,287.738 30.5,289.5C 32.2624,289.357 33.9291,289.691 35.5,290.5C 37.1546,292.986 38.988,295.32 41,297.5C 41.4922,298.549 41.3256,299.549 40.5,300.5C 42.9913,301.541 42.9913,302.374 40.5,303C 42.8633,303.589 43.8633,305.089 43.5,307.5C 19.631,279.276 5.63102,246.609 1.5,209.5C 1.5,207.833 1.5,206.167 1.5,204.5 Z"/></g>
<g><path style="opacity:0.992" fill="#d12b31" d="M 318.5,290.5 C 303.786,314.214 284.453,333.214 260.5,347.5C 260.082,343.749 261.749,341.582 265.5,341C 268.384,336.553 272.384,333.553 277.5,332C 277.167,331.667 276.833,331.333 276.5,331C 278.03,328.803 279.864,327.97 282,328.5C 283.167,327.333 284.333,326.167 285.5,325C 285.167,324.667 284.833,324.333 284.5,324C 285.996,323.493 287.163,323.993 288,325.5C 288.346,323.152 289.513,321.319 291.5,320C 290.833,319.667 290.167,319.333 289.5,319C 292.312,316.699 295.312,314.699 298.5,313C 297.408,309.797 298.741,308.131 302.5,308C 301.72,306.927 301.887,305.76 303,304.5C 303.667,303.167 304.333,303.167 305,304.5C 309.046,299.443 312.88,294.11 316.5,288.5C 317.182,289.243 317.849,289.909 318.5,290.5 Z"/></g>
<g><path style="opacity:1" fill="#d32c31" d="M 150.5,369.5 C 123.446,365.715 99.1128,355.715 77.5,339.5C 78.4959,339.414 79.3292,339.748 80,340.5C 80.5194,339.484 81.3527,338.818 82.5,338.5C 83.0059,339.824 84.3392,340.491 86.5,340.5C 86.3505,341.552 86.5172,342.552 87,343.5C 90.1927,343.23 93.1927,344.23 96,346.5C 96.4922,347.549 96.3256,348.549 95.5,349.5C 97.3325,350.248 98.9991,351.248 100.5,352.5C 101.216,351.689 102.05,351.022 103,350.5C 105.581,351.417 107.914,352.751 110,354.5C 112.321,353.639 113.487,354.639 113.5,357.5C 114.822,357.67 115.989,357.337 117,356.5C 117.333,357.167 117.667,357.833 118,358.5C 120.089,358.255 122.089,358.255 124,358.5C 124.324,360.569 125.158,360.902 126.5,359.5C 129.101,361.418 131.601,362.751 134,363.5C 136.342,362.822 138.676,363.155 141,364.5C 141.333,364.167 141.667,363.833 142,363.5C 143.439,365.014 144.939,365.347 146.5,364.5C 148.824,364.877 149.491,365.877 148.5,367.5C 149.243,368.182 149.909,368.849 150.5,369.5 Z"/></g>
<g><path style="opacity:0.994" fill="#cb2a2f" d="M 244.5,355.5 C 229.766,362.964 214.1,367.63 197.5,369.5C 198.609,368.71 199.942,368.21 201.5,368C 200.5,367.667 199.5,367.333 198.5,367C 200.263,365.398 202.096,364.898 204,365.5C 205.324,364.12 206.657,363.786 208,364.5C 210,363.833 212,363.167 214,362.5C 214.333,362.833 214.667,363.167 215,363.5C 217.954,361.545 221.12,360.045 224.5,359C 226.433,358.749 228.266,358.249 230,357.5C 230.333,357.833 230.667,358.167 231,358.5C 231.489,356.396 232.655,356.062 234.5,357.5C 237.654,355.974 240.987,355.307 244.5,355.5 Z"/></g>
</svg>
