<?xml version="1.0" encoding="UTF-8"?>
<!DOCTYPE svg PUBLIC "-//W3C//DTD SVG 1.1//EN" "http://www.w3.org/Graphics/SVG/1.1/DTD/svg11.dtd">
<svg xmlns="http://www.w3.org/2000/svg" version="1.1" width="350px" height="373px" style="shape-rendering:geometricPrecision; text-rendering:geometricPrecision; image-rendering:optimizeQuality; fill-rule:evenodd; clip-rule:evenodd" xmlns:xlink="http://www.w3.org/1999/xlink">
<g><path style="opacity:1" fill="#a43691" d="M 168.5,-0.5 C 172.167,-0.5 175.833,-0.5 179.5,-0.5C 189.045,0.862178 198.711,2.36218 208.5,4C 221.846,7.2827 234.846,11.4494 247.5,16.5C 267.778,27.921 285.945,42.2543 302,59.5C 309.081,68.4005 315.914,77.4005 322.5,86.5C 327.848,97.8608 333.181,109.194 338.5,120.5C 343.308,138.048 346.975,155.715 349.5,173.5C 349.5,181.167 349.5,188.833 349.5,196.5C 347.915,207.381 346.249,218.381 344.5,229.5C 344.5,229.833 344.5,230.167 344.5,230.5C 342.565,234.895 341.231,239.562 340.5,244.5C 340.5,244.833 340.5,245.167 340.5,245.5C 337.88,249.343 336.213,253.676 335.5,258.5C 335.598,260.553 334.931,262.22 333.5,263.5C 331.787,264.635 331.12,266.302 331.5,268.5C 330.341,272.151 328.674,275.485 326.5,278.5C 323.457,279.744 322.124,282.077 322.5,285.5C 320.952,285.821 320.285,286.821 320.5,288.5C 318.952,288.821 318.285,289.821 318.5,291.5C 316.897,291.312 315.563,291.812 314.5,293C 314.966,294.299 314.966,295.799 314.5,297.5C 313.25,297.577 312.417,298.244 312,299.5C 311.667,299.167 311.333,298.833 311,298.5C 310.187,300.436 309.687,302.436 309.5,304.5C 309.167,305.5 308.5,306.167 307.5,306.5C 305.952,306.821 305.285,307.821 305.5,309.5C 304.833,310.833 303.833,311.833 302.5,312.5C 300.292,313.023 298.792,314.356 298,316.5C 297.086,315.346 296.253,315.513 295.5,317C 295.833,317.333 296.167,317.667 296.5,318C 293.667,318.167 292.167,319.667 292,322.5C 291.667,322.167 291.333,321.833 291,321.5C 290.51,322.793 290.343,324.127 290.5,325.5C 287.633,325.369 285.967,326.703 285.5,329.5C 285.167,330.5 284.5,331.167 283.5,331.5C 282.504,331.586 281.671,331.252 281,330.5C 280.021,332.32 278.521,333.487 276.5,334C 276.833,334.333 277.167,334.667 277.5,335C 275.026,335.113 273.026,336.113 271.5,338C 272.056,338.383 272.389,338.883 272.5,339.5C 271.167,339.5 270.5,340.167 270.5,341.5C 268.821,341.285 267.821,341.952 267.5,343.5C 265.821,343.285 264.821,343.952 264.5,345.5C 261.966,345.259 260.3,346.259 259.5,348.5C 257.821,348.285 256.821,348.952 256.5,350.5C 251.484,353.674 246.151,356.341 240.5,358.5C 237.284,358.345 234.617,359.345 232.5,361.5C 231.07,362.537 229.403,363.204 227.5,363.5C 224.772,363.171 222.438,363.837 220.5,365.5C 216.761,367.102 212.761,368.102 208.5,368.5C 200.958,368.959 193.625,369.959 186.5,371.5C 186.5,371.833 186.5,372.167 186.5,372.5C 178.5,372.5 170.5,372.5 162.5,372.5C 162.5,371.833 162.167,371.5 161.5,371.5C 152.009,369.529 142.342,367.862 132.5,366.5C 122.71,362.457 112.71,358.79 102.5,355.5C 100.847,355.34 99.5137,354.674 98.5,353.5C 97.3583,351.567 95.6917,350.067 93.5,349C 92.2068,348.51 90.8734,348.343 89.5,348.5C 89.1788,346.952 88.1788,346.285 86.5,346.5C 85.5084,346.672 84.8417,346.338 84.5,345.5C 84.0269,344.094 83.0269,343.427 81.5,343.5C 80.7377,341.738 79.4044,340.738 77.5,340.5C 77.67,339.178 77.3366,338.011 76.5,337C 74.1457,336.153 71.8123,335.32 69.5,334.5C 68.7298,332.065 67.0632,330.731 64.5,330.5C 63.5,330.167 62.8333,329.5 62.5,328.5C 62.631,327.761 62.4643,327.094 62,326.5C 56.9264,322.25 52.0931,317.917 47.5,313.5C 46.5,313.167 45.8333,312.5 45.5,311.5C 44.316,308.139 42.4827,305.139 40,302.5C 39.3292,301.748 38.4959,301.414 37.5,301.5C 37.4456,299.368 36.4456,298.035 34.5,297.5C 34.3155,294.663 32.9822,292.663 30.5,291.5C 30.7148,289.821 30.0481,288.821 28.5,288.5C 27.6618,288.158 27.3284,287.492 27.5,286.5C 27.7148,284.821 27.0481,283.821 25.5,283.5C 24.6618,283.158 24.3284,282.492 24.5,281.5C 22.8737,275.581 20.2071,270.247 16.5,265.5C 15.6618,265.158 15.3284,264.492 15.5,263.5C 14.8012,258.728 13.1345,254.395 10.5,250.5C 9.41003,243.454 7.41003,236.787 4.5,230.5C 3.65859,228.621 3.32526,226.621 3.5,224.5C 2.52068,214.982 1.18735,205.648 -0.5,196.5C -0.5,188.167 -0.5,179.833 -0.5,171.5C 1.64578,160.653 3.81245,149.653 6,138.5C 8.94732,129.161 11.7807,119.828 14.5,110.5C 16.9401,107.28 18.6067,103.613 19.5,99.5C 19.6596,97.847 20.3263,96.5137 21.5,95.5C 32.976,76.168 46.976,58.668 63.5,43C 75.7091,33.4052 88.3757,24.5719 101.5,16.5C 109.45,14.0752 117.116,11.0752 124.5,7.5C 125.822,7.33003 126.989,7.66337 128,8.5C 131.759,6.17453 135.926,4.67453 140.5,4C 149.965,2.42863 159.298,0.92863 168.5,-0.5 Z"/></g>
<g><path style="opacity:0.553" fill="#5a2a56" d="M 160.5,-0.5 C 163.167,-0.5 165.833,-0.5 168.5,-0.5C 159.298,0.92863 149.965,2.42863 140.5,4C 135.926,4.67453 131.759,6.17453 128,8.5C 126.989,7.66337 125.822,7.33003 124.5,7.5C 136.207,3.42564 148.207,0.758971 160.5,-0.5 Z"/></g>
<g><path style="opacity:0.533" fill="#592c57" d="M 179.5,-0.5 C 182.5,-0.5 185.5,-0.5 188.5,-0.5C 209.177,1.58665 228.844,7.25332 247.5,16.5C 234.846,11.4494 221.846,7.2827 208.5,4C 198.711,2.36218 189.045,0.862178 179.5,-0.5 Z"/></g>
<g><path style="opacity:0.91" fill="#653364" d="M 124.5,7.5 C 117.116,11.0752 109.45,14.0752 101.5,16.5C 108.708,12.5377 116.375,9.53767 124.5,7.5 Z"/></g>
<g><path style="opacity:0.933" fill="#6b396a" d="M 101.5,16.5 C 88.3757,24.5719 75.7091,33.4052 63.5,43C 46.976,58.668 32.976,76.168 21.5,95.5C 39.5543,60.4457 66.221,34.1124 101.5,16.5 Z"/></g>
<g><path style="opacity:0.855" fill="#643865" d="M 247.5,16.5 C 279.572,32.2378 304.572,55.5712 322.5,86.5C 315.914,77.4005 309.081,68.4005 302,59.5C 285.945,42.2543 267.778,27.921 247.5,16.5 Z"/></g>
<g><path style="opacity:1" fill="#fcf8fb" d="M 270.5,91.5 C 279.5,91.5 288.5,91.5 297.5,91.5C 297.602,114.2 296.768,136.867 295,159.5C 252.833,221.167 210.667,282.833 168.5,344.5C 131.514,286.536 94.5138,228.536 57.5,170.5C 56.6143,171.325 56.281,172.325 56.5,173.5C 53.1869,172.955 49.8536,172.455 46.5,172C 47.3958,168.572 48.0624,165.072 48.5,161.5C 46.5,161.5 44.5,161.5 42.5,161.5C 42.3354,158.482 42.502,155.482 43,152.5C 44.3561,153.38 45.8561,153.714 47.5,153.5C 48.5781,134.838 49.5781,116.171 50.5,97.5C 123.997,95.6532 197.331,93.6532 270.5,91.5 Z"/></g>
<g><path style="opacity:0.686" fill="#523054" d="M 19.5,99.5 C 18.6067,103.613 16.9401,107.28 14.5,110.5C 15.3824,106.407 17.049,102.74 19.5,99.5 Z"/></g>
<g><path style="opacity:1" fill="#a43791" d="M 190.5,104.5 C 223.5,104.5 256.5,104.5 289.5,104.5C 288.877,116.49 288.544,128.49 288.5,140.5C 211.17,144.833 133.837,149.166 56.5,153.5C 56.5,138.167 56.5,122.833 56.5,107.5C 101.332,106.688 145.998,105.688 190.5,104.5 Z"/></g>
<g><path style="opacity:0.749" fill="#543759" d="M 322.5,86.5 C 329.425,97.0196 334.758,108.353 338.5,120.5C 333.181,109.194 327.848,97.8608 322.5,86.5 Z"/></g>
<g><path style="opacity:0.937" fill="#513957" d="M 338.5,120.5 C 343.583,135.167 347.25,150.167 349.5,165.5C 349.5,168.167 349.5,170.833 349.5,173.5C 346.975,155.715 343.308,138.048 338.5,120.5 Z"/></g>
<g><path style="opacity:0.749" fill="#523557" d="M 14.5,110.5 C 11.7807,119.828 8.94732,129.161 6,138.5C 3.81245,149.653 1.64578,160.653 -0.5,171.5C -0.5,170.167 -0.5,168.833 -0.5,167.5C 1.58418,147.751 6.58418,128.751 14.5,110.5 Z"/></g>
<g><path style="opacity:1" fill="#a33690" d="M 266.5,155.5 C 271.544,155.173 276.544,155.506 281.5,156.5C 244.5,215.167 207.5,273.833 170.5,332.5C 134.416,275.331 98.083,218.331 61.5,161.5C 129.99,159.358 198.324,157.358 266.5,155.5 Z"/></g>
<g><path style="opacity:1" fill="#fbf7fa" d="M 239.5,161.5 C 242.187,161.336 244.854,161.503 247.5,162C 248.357,162.689 249.023,163.522 249.5,164.5C 247.728,170.093 245.728,175.593 243.5,181C 244.62,183.278 243.787,184.778 241,185.5C 232.185,201.796 222.852,217.796 213,233.5C 197.642,247.859 182.642,262.526 168,277.5C 155.137,264.971 142.637,252.138 130.5,239C 129.5,238.333 128.5,238.333 127.5,239C 126.206,241.087 125.039,243.254 124,245.5C 120.593,241.682 117.426,237.682 114.5,233.5C 115,233.167 115.5,232.833 116,232.5C 119.193,231.409 122.359,231.242 125.5,232C 119.561,225.956 114.727,219.123 111,211.5C 106.208,200.443 101.042,189.609 95.5,179C 98.8952,178.808 102.062,179.641 105,181.5C 111.541,197.583 119.374,212.917 128.5,227.5C 129.365,228.583 130.365,228.749 131.5,228C 134.5,225.833 137.5,223.667 140.5,221.5C 136.912,215.325 133.578,208.991 130.5,202.5C 133.798,200.84 137.131,199.173 140.5,197.5C 143.754,203.93 146.421,210.596 148.5,217.5C 176.818,207.163 205.151,196.663 233.5,186C 236.088,181.347 237.921,176.513 239,171.5C 228.796,176.518 218.296,180.851 207.5,184.5C 196.872,180.791 186.372,176.791 176,172.5C 164.004,177.245 151.838,181.578 139.5,185.5C 128.967,182.134 118.301,179.301 107.5,177C 103.167,173.333 98.8333,169.667 94.5,166C 109.347,169.386 124.181,173.22 139,177.5C 151.086,172.937 163.253,168.604 175.5,164.5C 187.071,168.786 198.738,172.786 210.5,176.5C 220.416,171.711 230.083,166.711 239.5,161.5 Z"/></g>
<g><path style="opacity:1" fill="#a33690" d="M 229.5,190.5 C 230.239,190.369 230.906,190.536 231.5,191C 220.976,212.86 206.642,231.86 188.5,248C 181.008,253.58 173.341,258.913 165.5,264C 164.5,264.667 163.5,264.667 162.5,264C 152.779,255.613 143.779,246.613 135.5,237C 139.345,234.758 143.345,233.924 147.5,234.5C 148.816,240.8 150.982,246.8 154,252.5C 155.401,248.515 158.234,246.182 162.5,245.5C 160.588,241.34 158.421,237.34 156,233.5C 155.251,232.365 155.417,231.365 156.5,230.5C 181.056,217.392 205.389,204.059 229.5,190.5 Z"/></g>
<g><path style="opacity:0.784" fill="#44394c" d="M 349.5,196.5 C 349.5,199.833 349.5,203.167 349.5,206.5C 348.371,214.273 346.704,221.94 344.5,229.5C 346.249,218.381 347.915,207.381 349.5,196.5 Z"/></g>
<g><path style="opacity:0.698" fill="#3e3346" d="M -0.5,196.5 C 1.18735,205.648 2.52068,214.982 3.5,224.5C 1.73514,217.909 0.401807,211.242 -0.5,204.5C -0.5,201.833 -0.5,199.167 -0.5,196.5 Z"/></g>
<g><path style="opacity:0.871" fill="#473f52" d="M 4.5,230.5 C 7.41003,236.787 9.41003,243.454 10.5,250.5C 7.58897,244.208 5.58897,237.541 4.5,230.5 Z"/></g>
<g><path style="opacity:0.118" fill="#363c44" d="M 344.5,230.5 C 344.08,235.529 342.746,240.195 340.5,244.5C 341.231,239.562 342.565,234.895 344.5,230.5 Z"/></g>
<g><path style="opacity:0.929" fill="#4d4559" d="M 340.5,245.5 C 339.63,250.224 337.963,254.557 335.5,258.5C 336.213,253.676 337.88,249.343 340.5,245.5 Z"/></g>
<g><path style="opacity:0.898" fill="#4d4459" d="M 10.5,250.5 C 13.1345,254.395 14.8012,258.728 15.5,263.5C 13.0363,259.556 11.3697,255.223 10.5,250.5 Z"/></g>
<g><path style="opacity:0.886" fill="#474654" d="M 333.5,263.5 C 333.598,265.553 332.931,267.22 331.5,268.5C 331.12,266.302 331.787,264.635 333.5,263.5 Z"/></g>
<g><path style="opacity:0.886" fill="#4e4559" d="M 16.5,265.5 C 20.2071,270.247 22.8737,275.581 24.5,281.5C 20.7985,276.764 18.1318,271.43 16.5,265.5 Z"/></g>
<g><path style="opacity:1" fill="#5f4461" d="M 326.5,278.5 C 325.416,281.004 324.083,283.337 322.5,285.5C 322.124,282.077 323.457,279.744 326.5,278.5 Z"/></g>
<g><path style="opacity:0.89" fill="#454453" d="M 25.5,283.5 C 27.0481,283.821 27.7148,284.821 27.5,286.5C 26.0937,286.027 25.427,285.027 25.5,283.5 Z"/></g>
<g><path style="opacity:0.012" fill="#2b3939" d="M 322.5,285.5 C 322.573,287.027 321.906,288.027 320.5,288.5C 320.285,286.821 320.952,285.821 322.5,285.5 Z"/></g>
<g><path style="opacity:0.937" fill="#564a61" d="M 28.5,288.5 C 30.0481,288.821 30.7148,289.821 30.5,291.5C 29.5987,290.71 28.9321,289.71 28.5,288.5 Z"/></g>
<g><path style="opacity:0.925" fill="#4f4a5b" d="M 320.5,288.5 C 320.573,290.027 319.906,291.027 318.5,291.5C 318.285,289.821 318.952,288.821 320.5,288.5 Z"/></g>
<g><path style="opacity:0.894" fill="#4d4859" d="M 30.5,291.5 C 32.9822,292.663 34.3155,294.663 34.5,297.5C 32.7819,295.777 31.4486,293.777 30.5,291.5 Z"/></g>
<g><path style="opacity:1" fill="#6d466c" d="M 318.5,291.5 C 317.66,293.853 316.326,295.853 314.5,297.5C 314.966,295.799 314.966,294.299 314.5,293C 315.563,291.812 316.897,291.312 318.5,291.5 Z"/></g>
<g><path style="opacity:0.937" fill="#4d4959" d="M 34.5,297.5 C 36.4456,298.035 37.4456,299.368 37.5,301.5C 36.0256,300.564 35.0256,299.23 34.5,297.5 Z"/></g>
<g><path style="opacity:1" fill="#654869" d="M 314.5,297.5 C 313.214,300.117 311.547,302.45 309.5,304.5C 309.687,302.436 310.187,300.436 311,298.5C 311.333,298.833 311.667,299.167 312,299.5C 312.417,298.244 313.25,297.577 314.5,297.5 Z"/></g>
<g><path style="opacity:0.91" fill="#4a4a57" d="M 307.5,306.5 C 307.573,308.027 306.906,309.027 305.5,309.5C 305.285,307.821 305.952,306.821 307.5,306.5 Z"/></g>
<g><path style="opacity:0.918" fill="#524a5d" d="M 37.5,301.5 C 38.4959,301.414 39.3292,301.748 40,302.5C 42.4827,305.139 44.316,308.139 45.5,311.5C 42.3637,308.571 39.697,305.238 37.5,301.5 Z"/></g>
<g><path style="opacity:0.918" fill="#4c4a58" d="M 47.5,313.5 C 52.0931,317.917 56.9264,322.25 62,326.5C 62.4643,327.094 62.631,327.761 62.5,328.5C 56.5212,324.521 51.5212,319.521 47.5,313.5 Z"/></g>
<g><path style="opacity:1" fill="#6b486a" d="M 302.5,312.5 C 299.23,317.44 295.23,321.773 290.5,325.5C 290.343,324.127 290.51,322.793 291,321.5C 291.333,321.833 291.667,322.167 292,322.5C 292.167,319.667 293.667,318.167 296.5,318C 296.167,317.667 295.833,317.333 295.5,317C 296.253,315.513 297.086,315.346 298,316.5C 298.792,314.356 300.292,313.023 302.5,312.5 Z"/></g>
<g><path style="opacity:0.875" fill="#474a54" d="M 290.5,325.5 C 289.415,327.587 287.749,328.92 285.5,329.5C 285.967,326.703 287.633,325.369 290.5,325.5 Z"/></g>
<g><path style="opacity:0.871" fill="#444a53" d="M 64.5,330.5 C 67.0632,330.731 68.7298,332.065 69.5,334.5C 67.2512,333.92 65.5846,332.587 64.5,330.5 Z"/></g>
<g><path style="opacity:1" fill="#81437a" d="M 283.5,331.5 C 282.109,333.89 280.109,335.557 277.5,336.5C 275.821,336.285 274.821,336.952 274.5,338.5C 274.5,339.167 274.167,339.5 273.5,339.5C 273.167,339.5 272.833,339.5 272.5,339.5C 272.389,338.883 272.056,338.383 271.5,338C 273.026,336.113 275.026,335.113 277.5,335C 277.167,334.667 276.833,334.333 276.5,334C 278.521,333.487 280.021,332.32 281,330.5C 281.671,331.252 282.504,331.586 283.5,331.5 Z"/></g>
<g><path style="opacity:0.894" fill="#444b52" d="M 277.5,336.5 C 277.027,337.906 276.027,338.573 274.5,338.5C 274.821,336.952 275.821,336.285 277.5,336.5 Z"/></g>
<g><path style="opacity:1" fill="#7a4979" d="M 69.5,334.5 C 71.8123,335.32 74.1457,336.153 76.5,337C 77.3366,338.011 77.67,339.178 77.5,340.5C 74.4669,338.984 71.8003,336.984 69.5,334.5 Z"/></g>
<g><path style="opacity:0.878" fill="#3e4a4e" d="M 272.5,339.5 C 272.833,339.5 273.167,339.5 273.5,339.5C 273.027,340.906 272.027,341.573 270.5,341.5C 270.5,340.167 271.167,339.5 272.5,339.5 Z"/></g>
<g><path style="opacity:0.882" fill="#424b52" d="M 77.5,340.5 C 79.4044,340.738 80.7377,341.738 81.5,343.5C 79.5956,343.262 78.2623,342.262 77.5,340.5 Z"/></g>
<g><path style="opacity:0.902" fill="#484c56" d="M 270.5,341.5 C 270.027,342.906 269.027,343.573 267.5,343.5C 267.821,341.952 268.821,341.285 270.5,341.5 Z"/></g>
<g><path style="opacity:0.655" fill="#27443d" d="M 81.5,343.5 C 83.0269,343.427 84.0269,344.094 84.5,345.5C 82.9731,345.573 81.9731,344.906 81.5,343.5 Z"/></g>
<g><path style="opacity:0.11" fill="#304540" d="M 267.5,343.5 C 267.027,344.906 266.027,345.573 264.5,345.5C 264.821,343.952 265.821,343.285 267.5,343.5 Z"/></g>
<g><path style="opacity:0.012" fill="#394346" d="M 264.5,345.5 C 263.341,347.25 261.674,348.25 259.5,348.5C 260.3,346.259 261.966,345.259 264.5,345.5 Z"/></g>
<g><path style="opacity:0.769" fill="#3f4c50" d="M 86.5,346.5 C 88.1788,346.285 89.1788,346.952 89.5,348.5C 87.9731,348.573 86.9731,347.906 86.5,346.5 Z"/></g>
<g><path style="opacity:1" fill="#5b4d64" d="M 89.5,348.5 C 90.8734,348.343 92.2068,348.51 93.5,349C 95.6917,350.067 97.3583,351.567 98.5,353.5C 95.0078,352.59 92.0078,350.924 89.5,348.5 Z"/></g>
<g><path style="opacity:0.067" fill="#29403a" d="M 259.5,348.5 C 259.027,349.906 258.027,350.573 256.5,350.5C 256.821,348.952 257.821,348.285 259.5,348.5 Z"/></g>
<g><path style="opacity:1" fill="#464e56" d="M 102.5,355.5 C 112.71,358.79 122.71,362.457 132.5,366.5C 121.839,364.394 111.839,360.727 102.5,355.5 Z"/></g>
<g><path style="opacity:0.298" fill="#304743" d="M 240.5,358.5 C 238.11,360.02 235.443,361.02 232.5,361.5C 234.617,359.345 237.284,358.345 240.5,358.5 Z"/></g>
<g><path style="opacity:0.024" fill="#193c2f" d="M 227.5,363.5 C 225.485,364.924 223.152,365.59 220.5,365.5C 222.438,363.837 224.772,363.171 227.5,363.5 Z"/></g>
<g><path style="opacity:0.792" fill="#384d4b" d="M 132.5,366.5 C 142.342,367.862 152.009,369.529 161.5,371.5C 151.437,371.435 141.77,369.768 132.5,366.5 Z"/></g>
<g><path style="opacity:0.086" fill="#214437" d="M 208.5,368.5 C 201.473,370.779 194.139,371.779 186.5,371.5C 193.625,369.959 200.958,368.959 208.5,368.5 Z"/></g>
</svg>
