<?xml version="1.0" encoding="UTF-8"?>
<!DOCTYPE svg PUBLIC "-//W3C//DTD SVG 1.1//EN" "http://www.w3.org/Graphics/SVG/1.1/DTD/svg11.dtd">
<svg xmlns="http://www.w3.org/2000/svg" version="1.1" width="350px" height="373px" style="shape-rendering:geometricPrecision; text-rendering:geometricPrecision; image-rendering:optimizeQuality; fill-rule:evenodd; clip-rule:evenodd" xmlns:xlink="http://www.w3.org/1999/xlink">
<g><path style="opacity:0.999" fill="#fdf013" d="M 164.5,-0.5 C 170.833,-0.5 177.167,-0.5 183.5,-0.5C 262.536,9.29607 315.036,51.9627 341,127.5C 343.627,135.672 345.46,144.006 346.5,152.5C 346.362,157.414 347.028,162.081 348.5,166.5C 348.5,167.167 348.833,167.5 349.5,167.5C 349.5,180.167 349.5,192.833 349.5,205.5C 348.014,215.263 346.014,224.93 343.5,234.5C 342.076,236.515 341.41,238.848 341.5,241.5C 322.731,303.436 282.731,344.936 221.5,366C 210.884,369.153 200.217,371.32 189.5,372.5C 179.167,372.5 168.833,372.5 158.5,372.5C 91.3959,362.244 43.5626,326.244 15,264.5C 7.31194,246.402 2.14528,227.735 -0.5,208.5C -0.5,193.833 -0.5,179.167 -0.5,164.5C 0.891942,156.544 2.55861,148.544 4.5,140.5C 6.2766,137.495 7.2766,134.162 7.5,130.5C 22.9758,77.8564 55.3091,39.3564 104.5,15C 109.314,12.5897 114.314,10.7564 119.5,9.5C 124.165,8.9431 128.498,7.60976 132.5,5.5C 136.921,3.89848 141.588,2.89848 146.5,2.5C 151.414,2.63818 156.081,1.97151 160.5,0.5C 162.099,0.767809 163.432,0.434475 164.5,-0.5 Z"/></g>
<g><path style="opacity:1" fill="#a0970b" d="M 160.5,0.5 C 156.081,1.97151 151.414,2.63818 146.5,2.5C 150.919,1.02849 155.586,0.361822 160.5,0.5 Z"/></g>
<g><path style="opacity:0.827" fill="#b6ac0c" d="M 132.5,5.5 C 128.498,7.60976 124.165,8.9431 119.5,9.5C 123.502,7.39024 127.835,6.0569 132.5,5.5 Z"/></g>
<g><path style="opacity:1" fill="#fdfdf8" d="M 261.5,92.5 C 273.5,92.5 285.5,92.5 297.5,92.5C 296.812,114.836 295.979,137.169 295,159.5C 252.667,221.5 210.333,283.5 168,345.5C 131.167,287.167 94.3333,228.833 57.5,170.5C 56.6143,171.325 56.281,172.325 56.5,173.5C 53.1016,173.82 49.7683,173.487 46.5,172.5C 47.1667,169.5 47.8333,166.5 48.5,163.5C 46.6957,162.232 44.6957,161.565 42.5,161.5C 42.5,158.833 42.5,156.167 42.5,153.5C 44.1667,153.5 45.8333,153.5 47.5,153.5C 48.4051,134.828 49.4051,116.161 50.5,97.5C 120.995,95.8234 191.329,94.1567 261.5,92.5 Z"/></g>
<g><path style="opacity:1" fill="#fef217" d="M 264.5,104.5 C 272.5,104.5 280.5,104.5 288.5,104.5C 288.5,110.833 288.5,117.167 288.5,123.5C 288.5,129.5 288.5,135.5 288.5,141.5C 211.126,145.208 133.792,149.542 56.5,154.5C 56.1756,138.922 56.509,123.422 57.5,108C 126.494,106.442 195.494,105.275 264.5,104.5 Z"/></g>
<g><path style="opacity:1" fill="#fef9a7" d="M 264.5,104.5 C 272.65,103.507 280.983,103.174 289.5,103.5C 289.824,110.354 289.491,117.021 288.5,123.5C 288.5,117.167 288.5,110.833 288.5,104.5C 280.5,104.5 272.5,104.5 264.5,104.5 Z"/></g>
<g><path style="opacity:0.702" fill="#9e960b" d="M 7.5,130.5 C 7.2766,134.162 6.2766,137.495 4.5,140.5C 4.7234,136.838 5.7234,133.505 7.5,130.5 Z"/></g>
<g><path style="opacity:1" fill="#fef11a" d="M 238.5,156.5 C 252.837,156.333 267.171,156.5 281.5,157C 244.375,215.416 207.375,273.916 170.5,332.5C 133.316,275.661 96.9824,218.328 61.5,160.5C 120.683,160.153 179.683,158.82 238.5,156.5 Z"/></g>
<g><path style="opacity:0.631" fill="#9b930b" d="M 346.5,152.5 C 347.972,156.919 348.638,161.586 348.5,166.5C 347.028,162.081 346.362,157.414 346.5,152.5 Z"/></g>
<g><path style="opacity:1" fill="#fdfdf7" d="M 240.5,161.5 C 242.527,161.338 244.527,161.505 246.5,162C 247.804,162.804 248.471,163.971 248.5,165.5C 246.957,171.344 244.957,177.011 242.5,182.5C 233.372,199.359 223.538,216.359 213,233.5C 198.167,247.667 183.333,261.833 168.5,276C 167.5,276.667 166.5,276.667 165.5,276C 153.102,264.271 141.435,251.938 130.5,239C 129.5,238.333 128.5,238.333 127.5,239C 126.292,241.25 124.959,243.417 123.5,245.5C 120.479,242.314 117.646,238.98 115,235.5C 114.544,234.256 115.044,233.423 116.5,233C 119.315,231.418 121.815,231.585 124,233.5C 113.373,216.923 104.207,199.257 96.5,180.5C 99.5958,179.647 102.429,180.314 105,182.5C 111.621,199.08 119.788,214.747 129.5,229.5C 133.382,227.066 137.048,224.399 140.5,221.5C 136.607,215.048 133.274,208.381 130.5,201.5C 133.812,201.007 136.979,200.007 140,198.5C 143.059,204.29 145.893,210.29 148.5,216.5C 149.723,217.614 151.056,217.781 152.5,217C 179.28,207.305 205.947,197.305 232.5,187C 234.946,182.61 237.279,178.11 239.5,173.5C 239.167,173.167 238.833,172.833 238.5,172.5C 228.085,176.638 217.752,180.972 207.5,185.5C 196.905,181.302 186.239,177.302 175.5,173.5C 163.346,177.579 151.18,181.579 139,185.5C 128.498,182.666 117.998,179.833 107.5,177C 103.5,173.667 99.5,170.333 95.5,167C 110.109,170.199 124.609,174.033 139,178.5C 150.685,173.786 162.518,169.453 174.5,165.5C 186.212,169.459 198.046,173.126 210,176.5C 220.553,172.14 230.72,167.14 240.5,161.5 Z"/></g>
<g><path style="opacity:1" fill="#fef11a" d="M 229.5,190.5 C 230.376,190.369 231.043,190.702 231.5,191.5C 224.347,205.141 216.18,218.141 207,230.5C 199.88,236.654 193.046,243.154 186.5,250C 178.833,255.167 171.167,260.333 163.5,265.5C 153.517,257.351 144.351,248.351 136,238.5C 135.409,237.517 135.743,236.85 137,236.5C 140.125,235.804 143.125,234.804 146,233.5C 148.953,239.634 151.453,245.967 153.5,252.5C 154.976,248.187 157.976,246.021 162.5,246C 160.086,241.171 157.42,236.504 154.5,232C 154.833,231.667 155.167,231.333 155.5,231C 180.421,217.711 205.087,204.211 229.5,190.5 Z"/></g>
<g><path style="opacity:0.6" fill="#8a830b" d="M 343.5,234.5 C 343.59,237.152 342.924,239.485 341.5,241.5C 341.41,238.848 342.076,236.515 343.5,234.5 Z"/></g>
</svg>
