<?xml version="1.0" encoding="UTF-8"?>
<!DOCTYPE svg PUBLIC "-//W3C//DTD SVG 1.1//EN" "http://www.w3.org/Graphics/SVG/1.1/DTD/svg11.dtd">
<svg xmlns="http://www.w3.org/2000/svg" version="1.1" width="350px" height="373px" style="shape-rendering:geometricPrecision; text-rendering:geometricPrecision; image-rendering:optimizeQuality; fill-rule:evenodd; clip-rule:evenodd" xmlns:xlink="http://www.w3.org/1999/xlink">
<g><path style="opacity:1" fill="#01a758" d="M 164.5,-0.5 C 171.5,-0.5 178.5,-0.5 185.5,-0.5C 192.059,0.376285 198.726,1.37629 205.5,2.5C 207.438,4.16276 209.772,4.82943 212.5,4.5C 241.055,10.9419 266.055,23.9419 287.5,43.5C 286.697,44.4232 286.53,45.4232 287,46.5C 290.966,49.464 294.633,52.7974 298,56.5C 298.383,55.944 298.883,55.6107 299.5,55.5C 324.721,82.6123 340.388,114.612 346.5,151.5C 346.362,156.414 347.028,161.081 348.5,165.5C 348.833,165.5 349.167,165.5 349.5,165.5C 349.5,179.167 349.5,192.833 349.5,206.5C 348.662,206.842 348.328,207.508 348.5,208.5C 345.97,213.755 344.97,219.421 345.5,225.5C 332.29,287.202 297.29,331.702 240.5,359C 223,366.042 205,370.542 186.5,372.5C 178.5,372.5 170.5,372.5 162.5,372.5C 162.158,371.662 161.492,371.328 160.5,371.5C 154.121,369.439 147.455,368.439 140.5,368.5C 90.671,356.826 52.5043,329.16 26,285.5C 11.6253,260.211 2.79198,233.211 -0.5,204.5C -0.5,192.167 -0.5,179.833 -0.5,167.5C 0.166667,167.5 0.5,167.167 0.5,166.5C 1.97151,162.081 2.63818,157.414 2.5,152.5C 14.2203,88.9657 48.887,42.7991 106.5,14C 125.183,5.99581 144.517,1.16248 164.5,-0.5 Z"/></g>
<g><path style="opacity:0.639" fill="#006937" d="M 205.5,2.5 C 208.067,2.72148 210.401,3.38815 212.5,4.5C 209.772,4.82943 207.438,4.16276 205.5,2.5 Z"/></g>
<g><path style="opacity:0.889" fill="#008a48" d="M 287.5,43.5 C 291.833,47.1667 295.833,51.1667 299.5,55.5C 298.883,55.6107 298.383,55.944 298,56.5C 294.633,52.7974 290.966,49.464 287,46.5C 286.53,45.4232 286.697,44.4232 287.5,43.5 Z"/></g>
<g><path style="opacity:1" fill="#f7fcfa" d="M 288.5,91.5 C 291.833,91.5 295.167,91.5 298.5,91.5C 297.134,114.149 295.967,136.816 295,159.5C 252.821,221.204 210.654,282.87 168.5,344.5C 131.514,286.536 94.5138,228.536 57.5,170.5C 56.6143,171.325 56.281,172.325 56.5,173.5C 53.059,173.699 49.7256,173.199 46.5,172C 47.3958,168.572 48.0624,165.072 48.5,161.5C 46.5,161.5 44.5,161.5 42.5,161.5C 42.5,158.833 42.5,156.167 42.5,153.5C 44.1667,153.5 45.8333,153.5 47.5,153.5C 48.8908,134.857 49.8908,116.19 50.5,97.5C 130,95.7149 209.333,93.7149 288.5,91.5 Z"/></g>
<g><path style="opacity:1" fill="#04a759" d="M 59.5,153.5 C 57.5159,138.536 56.8493,123.203 57.5,107.5C 134.825,105.892 212.159,104.892 289.5,104.5C 289.008,116.828 288.675,129.161 288.5,141.5C 212.154,145.234 135.821,149.234 59.5,153.5 Z"/></g>
<g><path style="opacity:1" fill="#7cd1a9" d="M 57.5,107.5 C 56.8493,123.203 57.5159,138.536 59.5,153.5C 58.791,154.404 57.791,154.737 56.5,154.5C 56.1704,138.658 56.5037,122.991 57.5,107.5 Z"/></g>
<g><path style="opacity:1" fill="#09a759" d="M 62.5,162.5 C 68.5,161.833 74.5,161.167 80.5,160.5C 139.336,159.371 198.169,158.038 257,156.5C 265.167,156.833 273.333,157.167 281.5,157.5C 244.75,216.002 207.75,274.336 170.5,332.5C 134.052,276.066 98.0522,219.399 62.5,162.5 Z"/></g>
<g><path style="opacity:1" fill="#58c391" d="M 80.5,160.5 C 74.5,161.167 68.5,161.833 62.5,162.5C 61.9569,162.44 61.6236,162.107 61.5,161.5C 67.7985,160.504 74.1318,160.17 80.5,160.5 Z"/></g>
<g><path style="opacity:0.62" fill="#00743d" d="M 346.5,151.5 C 347.972,155.919 348.638,160.586 348.5,165.5C 347.028,161.081 346.362,156.414 346.5,151.5 Z"/></g>
<g><path style="opacity:0.573" fill="#006f3a" d="M 2.5,152.5 C 2.63818,157.414 1.97151,162.081 0.5,166.5C 0.361822,161.586 1.02849,156.919 2.5,152.5 Z"/></g>
<g><path style="opacity:1" fill="#f6fbf9" d="M 240.5,161.5 C 244.281,160.789 247.281,161.955 249.5,165C 246.501,173.734 243.334,181.901 240,189.5C 231,204.167 222,218.833 213,233.5C 198.195,247.304 183.695,261.471 169.5,276C 168.5,276.667 167.5,276.667 166.5,276C 154.137,263.971 142.137,251.638 130.5,239C 127.187,239.643 125.02,241.809 124,245.5C 120.63,242.465 117.63,239.132 115,235.5C 114.383,234.551 114.549,233.718 115.5,233C 118.708,232.25 121.708,231.75 124.5,231.5C 119.594,226.023 115.427,220.023 112,213.5C 106.19,202.036 101.19,190.369 97,178.5C 99.456,179.574 101.956,180.574 104.5,181.5C 111.183,198.536 119.683,214.536 130,229.5C 133.628,226.943 137.128,224.277 140.5,221.5C 136.897,215.293 133.564,208.96 130.5,202.5C 133.824,200.838 137.158,199.171 140.5,197.5C 143.197,204.264 146.197,210.93 149.5,217.5C 177.167,207.333 204.833,197.167 232.5,187C 234.946,182.61 237.279,178.11 239.5,173.5C 239.167,173.167 238.833,172.833 238.5,172.5C 228.145,176.429 217.978,180.762 208,185.5C 197.446,181.224 186.779,177.224 176,173.5C 163.877,177.597 151.71,181.597 139.5,185.5C 128.912,182.359 118.246,179.526 107.5,177C 103.5,173.667 99.5,170.333 95.5,167C 110.024,170.056 124.524,173.556 139,177.5C 151.202,173.266 163.369,168.933 175.5,164.5C 186.75,169.188 198.25,173.188 210,176.5C 220.566,172.133 230.733,167.133 240.5,161.5 Z"/></g>
<g><path style="opacity:1" fill="#0ba759" d="M 229.5,190.5 C 230.497,190.47 231.164,190.97 231.5,192C 224.299,204.904 216.465,217.404 208,229.5C 200.738,236.218 193.571,243.051 186.5,250C 178.913,255.043 171.413,260.21 164,265.5C 153.779,256.613 144.279,247.113 135.5,237C 139.43,235.523 143.43,234.356 147.5,233.5C 148.606,240.204 150.773,246.538 154,252.5C 155.167,250.667 156.333,248.833 157.5,247C 159.256,246.798 160.922,246.298 162.5,245.5C 159.976,241.257 157.643,236.924 155.5,232.5C 155.977,231.522 156.643,230.689 157.5,230C 181.722,217.059 205.722,203.892 229.5,190.5 Z"/></g>
<g><path style="opacity:1" fill="#007a40" d="M 348.5,208.5 C 348.236,214.422 347.236,220.089 345.5,225.5C 344.97,219.421 345.97,213.755 348.5,208.5 Z"/></g>
<g><path style="opacity:1" fill="#007d41" d="M 140.5,368.5 C 147.455,368.439 154.121,369.439 160.5,371.5C 153.546,371.561 146.879,370.561 140.5,368.5 Z"/></g>
</svg>
