<?xml version="1.0" encoding="UTF-8"?>
<!DOCTYPE svg PUBLIC "-//W3C//DTD SVG 1.1//EN" "http://www.w3.org/Graphics/SVG/1.1/DTD/svg11.dtd">
<svg xmlns="http://www.w3.org/2000/svg" version="1.1" width="350px" height="373px" style="shape-rendering:geometricPrecision; text-rendering:geometricPrecision; image-rendering:optimizeQuality; fill-rule:evenodd; clip-rule:evenodd" xmlns:xlink="http://www.w3.org/1999/xlink">
<g><path style="opacity:1" fill="#a8aaad" d="M 63.5,42.5 C 67.0906,38.7006 71.0906,35.3673 75.5,32.5C 77.6791,30.8362 79.5125,31.1695 81,33.5C 82.4194,32.5399 83.9194,31.7065 85.5,31C 85.3808,29.7188 85.8808,28.5521 87,27.5C 87.3333,27.8333 87.6667,28.1667 88,28.5C 150.536,-7.81238 211.536,-5.47905 271,35.5C 271.914,34.3463 272.747,34.513 273.5,36C 273.167,36.3333 272.833,36.6667 272.5,37C 276.121,39.8214 279.621,42.6547 283,45.5C 283.914,44.3463 284.747,44.513 285.5,46C 285.167,46.3333 284.833,46.6667 284.5,47C 289.667,50.8333 294.167,55.3333 298,60.5C 298.914,59.3463 299.747,59.513 300.5,61C 300.167,61.3333 299.833,61.6667 299.5,62C 305.321,68.3089 310.154,74.8089 314,81.5C 315.757,81.1329 317.257,81.9662 318.5,84C 317.976,87.2617 319.143,90.095 322,92.5C 351.407,150.54 353.074,209.207 327,268.5C 318.333,285.023 307.5,300.189 294.5,314C 294.833,314.333 295.167,314.667 295.5,315C 293.385,315.503 291.385,316.836 289.5,319C 261.247,347.258 226.247,363.258 184.5,367C 158.804,368.392 134.304,363.892 111,353.5C 110.667,353.833 110.333,354.167 110,354.5C 55.999,327.085 21.6657,283.418 7,223.5C -2.789,164.436 9.37767,112.936 43.5,69C 42.7417,67.6361 43.2417,66.4695 45,65.5C 45.3333,65.8333 45.6667,66.1667 46,66.5C 47.113,65.2396 47.2797,64.073 46.5,63C 47.4695,61.2417 48.6361,60.7417 50,61.5C 54.2807,56.0968 59.114,51.2635 64.5,47C 64.7856,45.6123 64.4523,44.1123 63.5,42.5 Z"/></g>
<g><path style="opacity:0.958" fill="#999b9d" d="M 159.5,-0.5 C 169.5,-0.5 179.5,-0.5 189.5,-0.5C 250.895,8.06024 296.728,39.3936 327,93.5C 337.012,112.369 343.512,132.369 346.5,153.5C 346.444,158.731 347.111,163.731 348.5,168.5C 348.328,169.492 348.662,170.158 349.5,170.5C 349.5,180.5 349.5,190.5 349.5,200.5C 343.113,261.801 314.779,309.968 264.5,345C 205.391,379.868 146.057,380.202 86.5,346C 33.6688,310.188 4.66881,260.354 -0.5,196.5C -0.5,188.833 -0.5,181.167 -0.5,173.5C 0.434475,172.432 0.767809,171.099 0.5,169.5C 1.88899,164.731 2.55565,159.731 2.5,154.5C 8.25233,117.336 23.419,84.6691 48,56.5C 52.7587,51.2341 57.9254,46.5675 63.5,42.5C 64.4523,44.1123 64.7856,45.6123 64.5,47C 59.114,51.2635 54.2807,56.0968 50,61.5C 48.6361,60.7417 47.4695,61.2417 46.5,63C 47.2797,64.073 47.113,65.2396 46,66.5C 45.6667,66.1667 45.3333,65.8333 45,65.5C 43.2417,66.4695 42.7417,67.6361 43.5,69C 9.37767,112.936 -2.789,164.436 7,223.5C 21.6657,283.418 55.999,327.085 110,354.5C 110.333,354.167 110.667,353.833 111,353.5C 134.304,363.892 158.804,368.392 184.5,367C 226.247,363.258 261.247,347.258 289.5,319C 291.385,316.836 293.385,315.503 295.5,315C 295.167,314.667 294.833,314.333 294.5,314C 307.5,300.189 318.333,285.023 327,268.5C 353.074,209.207 351.407,150.54 322,92.5C 319.143,90.095 317.976,87.2617 318.5,84C 317.257,81.9662 315.757,81.1329 314,81.5C 310.154,74.8089 305.321,68.3089 299.5,62C 299.833,61.6667 300.167,61.3333 300.5,61C 299.747,59.513 298.914,59.3463 298,60.5C 294.167,55.3333 289.667,50.8333 284.5,47C 284.833,46.6667 285.167,46.3333 285.5,46C 284.747,44.513 283.914,44.3463 283,45.5C 279.621,42.6547 276.121,39.8214 272.5,37C 272.833,36.6667 273.167,36.3333 273.5,36C 272.747,34.513 271.914,34.3463 271,35.5C 211.536,-5.47905 150.536,-7.81238 88,28.5C 87.6667,28.1667 87.3333,27.8333 87,27.5C 85.8808,28.5521 85.3808,29.7188 85.5,31C 83.9194,31.7065 82.4194,32.5399 81,33.5C 79.5125,31.1695 77.6791,30.8362 75.5,32.5C 100.507,14.0499 128.507,3.04991 159.5,-0.5 Z"/></g>
<g><path style="opacity:1" fill="#fbfbfb" d="M 266.5,91.5 C 276.833,91.5 287.167,91.5 297.5,91.5C 297.036,113.844 296.203,136.178 295,158.5C 253.315,220.551 211.148,282.218 168.5,343.5C 131.431,285.705 94.5974,227.705 58,169.5C 57.5172,170.448 57.3505,171.448 57.5,172.5C 53.774,172.823 50.1073,172.489 46.5,171.5C 47.5514,168.243 48.2181,164.91 48.5,161.5C 46.5,161.5 44.5,161.5 42.5,161.5C 42.5,158.5 42.5,155.5 42.5,152.5C 44.1667,152.5 45.8333,152.5 47.5,152.5C 49.5211,133.891 50.5211,115.224 50.5,96.5C 122.672,95.3149 194.672,93.6482 266.5,91.5 Z"/></g>
<g><path style="opacity:1" fill="#a9abae" d="M 231.5,103.5 C 250.5,103.5 269.5,103.5 288.5,103.5C 288.5,115.833 288.5,128.167 288.5,140.5C 211.526,144.98 134.526,148.98 57.5,152.5C 57.5,137.167 57.5,121.833 57.5,106.5C 115.676,106.276 173.676,105.276 231.5,103.5 Z"/></g>
<g><path style="opacity:0.569" fill="#707274" d="M 346.5,153.5 C 347.889,158.269 348.556,163.269 348.5,168.5C 347.111,163.731 346.444,158.731 346.5,153.5 Z"/></g>
<g><path style="opacity:0.475" fill="#626465" d="M 2.5,154.5 C 2.55565,159.731 1.88899,164.731 0.5,169.5C 0.444348,164.269 1.11101,159.269 2.5,154.5 Z"/></g>
<g><path style="opacity:1" fill="#a8aaad" d="M 252.5,155.5 C 262.172,155.334 271.839,155.5 281.5,156C 244.292,214.247 207.458,272.747 171,331.5C 134.584,275.003 98.4171,218.336 62.5,161.5C 64.7662,160.686 67.0995,160.186 69.5,160C 130.679,159.18 191.679,157.68 252.5,155.5 Z"/></g>
<g><path style="opacity:1" fill="#fafafb" d="M 240.5,160.5 C 242.527,160.338 244.527,160.505 246.5,161C 247.804,161.804 248.471,162.971 248.5,164.5C 247.165,171.002 245.332,177.335 243,183.5C 233.748,198.334 224.748,213.334 216,228.5C 200.04,244.626 183.873,260.626 167.5,276.5C 154.985,263.818 142.651,250.985 130.5,238C 129.451,237.508 128.451,237.674 127.5,238.5C 126.59,240.655 125.423,242.655 124,244.5C 121,241.167 118,237.833 115,234.5C 114.312,233.668 114.479,233.002 115.5,232.5C 118.818,230.182 121.984,230.182 125,232.5C 123.935,229.394 121.935,226.727 119,224.5C 110.018,209.49 102.685,193.824 97,177.5C 99.8003,178.128 102.467,179.128 105,180.5C 111.788,197.413 120.121,213.413 130,228.5C 133.628,225.943 137.128,223.277 140.5,220.5C 137.2,214.186 133.867,207.853 130.5,201.5C 133.869,199.136 137.536,197.969 141.5,198C 143.469,202.773 145.302,207.607 147,212.5C 147.523,214.223 148.523,215.556 150,216.5C 177.577,206.53 205.077,196.363 232.5,186C 235.962,181.59 238.128,176.757 239,171.5C 228.498,175.445 218.165,179.778 208,184.5C 197.526,180.423 187.026,176.423 176.5,172.5C 164.338,176.581 152.172,180.581 140,184.5C 129.815,182.079 119.648,179.579 109.5,177C 104.5,173.333 99.5,169.667 94.5,166C 109.477,168.987 124.31,172.82 139,177.5C 151.222,172.972 163.389,168.305 175.5,163.5C 187.18,167.426 198.68,171.759 210,176.5C 220.307,171.265 230.474,165.932 240.5,160.5 Z"/></g>
<g><path style="opacity:1" fill="#a8aaad" d="M 230.5,189.5 C 231.043,189.56 231.376,189.893 231.5,190.5C 224.347,204.141 216.18,217.141 207,229.5C 199.88,235.654 193.046,242.154 186.5,249C 178.725,253.776 171.225,258.943 164,264.5C 153.779,255.613 144.279,246.113 135.5,236C 139.253,234.011 143.253,233.178 147.5,233.5C 149.403,239.63 151.569,245.63 154,251.5C 155.771,247.897 158.604,245.564 162.5,244.5C 160.588,240.34 158.421,236.34 156,232.5C 155.251,231.365 155.417,230.365 156.5,229.5C 181.478,216.47 206.144,203.137 230.5,189.5 Z"/></g>
</svg>
