<?xml version="1.0" encoding="UTF-8"?>
<svg enable-background="new 0 0 600 600" version="1.0" viewBox="0 0 600 600" xmlns="http://www.w3.org/2000/svg">
 <style type="text/css">.st0{fill:#B3D6E5;} .st1{fill:#C9E9F4;} .st2{fill:#86B0BF;} .st3{fill:#71AF72;} .st4{fill:#4D5325;} .st5{fill:#7B9C33;} .st6{fill:#55681F;} .st7{fill:#39C9EA;} .st8{fill:#F6FBFE;} .st9{fill:#440D09;} .st10{fill:#1166A5;} .st11{fill:#0F5987;} .st12{fill:#0D4460;} .st13{fill:#5B140B;} .st14{fill:#68520B;} .st15{fill:#3A2C04;} .st16{fill:#DDD6C3;} .st17{fill:#2D2B27;} .st18{fill:#4C3A12;} .st19{fill:#126B5A;} .st20{opacity:0.54;fill:#AFBCBA;} .st21{fill:#3B3F3E;} .st22{fill:#EDB883;} .st23{fill:#442509;} .st24{fill:#159F84;} .st25{fill:#F7F9F9;} .st26{fill:#050505;} .st27{fill:#9B4810;} .st28{fill:#F70F0F;} .st29{fill:#FCF5F5;} .st30{fill:#ED9483;} .st31{fill:#3B6311;} .st32{fill:#31560D;} .st33{fill:#A30A24;} .st34{fill:#145E8C;}</style>
 <rect class="st0" width="600" height="425.59"/>
 <path class="st1" d="m575.63 258.19c-2.1289 0-4.208 0.21088-6.2227 0.60147-3.999-9.4756-12.599-16.526-22.998-18.376-6.9531-8.9736-17.827-14.757-30.059-14.757-18.758 0-34.332 13.592-37.438 31.462-8.3906-6.2646-18.8-9.9746-30.076-9.9746-14.051 0-26.751 5.7647-35.88 15.052-4.9375-10.498-15.605-17.768-27.973-17.768-8.2813 0-15.796 3.2637-21.344 8.5683-5.9258-7.9335-15.39-13.07-26.054-13.07-8.04 0-15.393 2.9258-21.066 7.7627-1.7314-0.3564-3.5244-0.54491-5.3613-0.54491-10.653 0-19.829 6.3086-24.012 15.391-3.6426-1.5849-7.6621-2.4697-11.889-2.4697-4.2754 0-8.3369 0.90628-12.014 2.5264-3.0849-1.6104-6.5908-2.5264-10.312-2.5264-2.4463 0-4.7978 0.39938-7.001 1.126-5.2314-12.489-17.567-21.265-31.956-21.265-0.42191 0-0.8399 0.016602-1.2578 0.032303-2.959-8.3282-10.886-14.302-20.229-14.302-6.5342 0-12.376 2.9268-16.316 7.5293-8.7471-15.517-25.37-26.002-44.451-26.002-28.17 0-51.004 22.836-51.004 51.004 0 2.5537 0.19341 5.0615 0.5557 7.5146-6.0254-3.5771-13.057-5.6377-20.571-5.6377-21.354 0-38.825 16.589-40.252 37.583-7.7998 0.77737-14.872 4.0098-20.449 8.9053v197.46h600v-234.79c-5.9551-6.7549-14.656-11.029-24.37-11.029zm-89.866 73.42c1.457-1.5762 2.8242-3.2364 4.0732-4.9883-0.57709 1.6279-1.0723 3.2949-1.499 4.9883h-2.5742z"/>
 <path class="st2" d="m0.42529 353.88v234.79h600v-197.46c-5.5781-4.8955-12.65-8.1279-20.449-8.9052-1.4278-20.994-18.898-37.583-40.252-37.583-7.5156 0-14.547 2.0606-20.572 5.6377 0.36328-2.4531 0.5567-4.9609 0.5567-7.5146 0-28.168-22.834-51.004-51.004-51.004-19.082 0-35.705 10.485-44.451 26.002-3.9414-4.6025-9.7832-7.5293-16.316-7.5293-9.3437 0-17.272 5.9737-20.23 14.302-0.41791-0.015594-0.83591-0.032196-1.2578-0.032196-14.389 0-26.725 8.7754-31.955 21.265-2.2031-0.7265-4.5546-1.126-7.0019-1.126-3.7207 0-7.2266 0.91608-10.312 2.5264-3.6758-1.6201-7.7383-2.5264-12.014-2.5264-4.2265 0-8.2461 0.8848-11.889 2.4698-4.1816-9.0821-13.358-15.391-24.011-15.391-1.8369 0-3.6299 0.18851-5.3613 0.54501-5.6738-4.8369-13.026-7.7627-21.066-7.7627-10.664 0-20.128 5.1367-26.054 13.07-5.5479-5.3047-13.062-8.5684-21.344-8.5684-12.368 0-23.035 7.2696-27.973 17.768-9.1289-9.2871-21.829-15.052-35.88-15.052-11.276 0-21.686 3.71-30.076 9.9747-3.1055-17.87-18.68-31.462-37.438-31.462-12.231 0-23.105 5.7832-30.059 14.757-10.399 1.8496-18.999 8.9004-22.998 18.376-2.0147-0.39069-4.0938-0.60159-6.2227-0.60159-9.7139 0-18.415 4.2744-24.37 11.029zm111.66 62.391c-0.4268-1.6933-0.9219-3.3603-1.499-4.9883 1.249 1.752 2.6162 3.4121 4.0732 4.9883h-2.5742z"/>
 <rect class="st3" y="425.59" width="600" height="174.41"/>
 <rect class="st4" x="58.304" y="401.67" width="5.1714" height="39.302"/>
 <path class="st5" d="m24.317 395.79c7.0366-4.6103 15.99-13.429 15.99-13.429h-28.73s17.492-6.8623 23.073-10.904c9.6665-7 13.376-14.823 13.376-14.823h-29.16s12.254-6.502 18.117-11.177 13.615-14.124 13.615-14.124l-25.615 0.12399s12.994-8.3076 17-11.667c4.0059-3.3593 10.759-12.899 10.759-12.899h-19.297s9.7471-5.2636 15.871-11.101c6.124-5.8369 11.573-15.057 11.573-15.057s5.4493 9.2197 11.573 15.057c6.124 5.837 15.871 11.101 15.871 11.101h-19.297s6.7534 9.5401 10.759 12.899c4.0058 3.3594 17 11.667 17 11.667l-25.615-0.12399s7.752 9.4492 13.615 14.124c5.8633 4.6748 18.117 11.177 18.117 11.177h-29.16s3.7095 7.8232 13.376 14.823c5.581 4.042 23.073 10.904 23.073 10.904h-28.73s8.9537 8.8184 15.99 13.429c7.0366 4.6104 21.317 11.014 21.317 11.014s-27.983 2.3194-31.983 2.3194c-4.0005 0-25.907-2.4776-25.907-2.4776s-21.906 2.4776-25.907 2.4776-31.983-2.3194-31.983-2.3194 14.28-6.4033 21.317-11.014z"/>
 <path class="st6" d="m72.463 295.79c6.124 5.837 15.871 11.101 15.871 11.101h-19.297s6.7534 9.5401 10.759 12.899c4.0058 3.3594 17 11.667 17 11.667l-25.615-0.12399s7.752 9.4492 13.615 14.124c5.8633 4.6748 18.117 11.177 18.117 11.177h-29.16s3.7095 7.8232 13.376 14.823c5.581 4.042 23.073 10.904 23.073 10.904h-28.73s8.9537 8.8184 15.99 13.429c7.0366 4.6104 21.317 11.014 21.317 11.014s-27.983 2.3194-31.983 2.3194c-4.0005 0-25.907-2.4776-25.907-2.4776v-125.91s5.4493 9.2197 11.573 15.057z"/>
 <rect class="st4" x="172.17" y="403.67" width="5.1714" height="39.302"/>
 <path class="st5" d="m138.18 397.79c7.0366-4.6103 15.99-13.429 15.99-13.429h-28.731s17.492-6.8623 23.073-10.904c9.6665-7 13.376-14.823 13.376-14.823h-29.16s12.254-6.502 18.117-11.177c5.8633-4.6748 13.615-14.124 13.615-14.124l-25.615 0.12399s12.994-8.3076 17-11.667c4.0058-3.3593 10.759-12.899 10.759-12.899h-19.297s9.7471-5.2636 15.871-11.101c6.124-5.8369 11.573-15.057 11.573-15.057s5.4492 9.2197 11.573 15.057c6.124 5.837 15.871 11.101 15.871 11.101h-19.297s6.7534 9.5401 10.759 12.899c4.0058 3.3594 17 11.667 17 11.667l-25.615-0.12399s7.752 9.4492 13.615 14.124c5.8632 4.6748 18.117 11.177 18.117 11.177h-29.16s3.7095 7.8232 13.376 14.823c5.581 4.042 23.073 10.904 23.073 10.904h-28.73s8.9536 8.8184 15.99 13.429c7.0366 4.6104 21.317 11.014 21.317 11.014s-27.983 2.3194-31.983 2.3194-25.907-2.4776-25.907-2.4776-21.906 2.4776-25.907 2.4776c-4.0005 0-31.983-2.3194-31.983-2.3194s14.28-6.4033 21.317-11.014z"/>
 <path class="st6" d="m186.33 297.79c6.124 5.837 15.871 11.101 15.871 11.101h-19.297s6.7534 9.5401 10.759 12.899c4.0058 3.3594 17 11.667 17 11.667l-25.615-0.12399s7.752 9.4492 13.615 14.124c5.8632 4.6748 18.117 11.177 18.117 11.177h-29.16s3.7095 7.8232 13.376 14.823c5.581 4.042 23.073 10.904 23.073 10.904h-28.73s8.9536 8.8184 15.99 13.429c7.0366 4.6104 21.317 11.014 21.317 11.014s-27.983 2.3194-31.983 2.3194-25.907-2.4776-25.907-2.4776v-125.91s5.4492 9.2197 11.573 15.057z"/>
 <path class="st7" d="m586.9 519.56h-65.072c4.4345 0 8.0293-3.5947 8.0293-8.0292 0-4.4346-3.5948-8.0293-8.0293-8.0293h-24.494c-2.7656-1.2686-4.6875-4.0557-4.6875-7.2969 0-3.7012 2.5069-6.8086 5.9131-7.7383h49.442c4.4346 0 8.0293-3.5947 8.0293-8.0293s-3.5947-8.0293-8.0293-8.0293h-59.31c-4.4345 0-8.0293 3.5947-8.0293 8.0293 0 3.3506 2.0547 6.2197 4.9707 7.4229h-91.653c-4.4355 0-8.0293 3.5947-8.0293 8.0292 0 4.4346 3.5938 8.0293 8.0293 8.0293h65.996c-3.1875 1.0635-5.4873 4.0674-5.4873 7.6124 0 4.4345 3.5947 8.0292 8.0293 8.0292h32.213c4.4346 0 8.0293 3.5948 8.0293 8.0293 0 4.4346-3.5947 8.0293-8.0293 8.0293h92.169c4.4356 0 8.0303-3.5947 8.0303-8.0293-1e-7 -4.4345-3.5947-8.0293-8.0303-8.0293z"/>
 <path class="st7" d="m18.298 504.56h65.072c-4.4346 0-8.0293-3.5947-8.0293-8.0292 0-4.4346 3.5947-8.0293 8.0293-8.0293h24.494c2.7656-1.2686 4.6875-4.0557 4.6875-7.2969 0-3.7012-2.5069-6.8086-5.9131-7.7383h-49.442c-4.4346 0-8.0293-3.5947-8.0293-8.0293s3.5947-8.0293 8.0293-8.0293h59.31c4.4345 0 8.0293 3.5947 8.0293 8.0293 0 3.3506-2.0547 6.2197-4.9707 7.4229h91.653c4.4355 0 8.0293 3.5947 8.0293 8.0292 0 4.4346-3.5938 8.0293-8.0293 8.0293h-65.996c3.1875 1.0635 5.4873 4.0674 5.4873 7.6124 0 4.4345-3.5947 8.0292-8.0293 8.0292h-32.213c-4.4346 0-8.0293 3.5948-8.0293 8.0293 0 4.4346 3.5947 8.0293 8.0293 8.0293h-92.169c-4.4356 0-8.0303-3.5947-8.0303-8.0293 1e-7 -4.4345 3.5947-8.0293 8.0303-8.0293z"/>
 <rect class="st4" x="112.17" y="412.33" width="5.1714" height="39.302"/>
 <path class="st5" d="m78.184 406.46c7.0366-4.6103 15.99-13.429 15.99-13.429h-28.73s17.492-6.8623 23.073-10.904c9.6665-7 13.376-14.823 13.376-14.823h-29.16s12.254-6.502 18.117-11.177c5.8633-4.6748 13.615-14.124 13.615-14.124l-25.615 0.12399s12.994-8.3076 17-11.667c4.0058-3.3593 10.759-12.899 10.759-12.899h-19.297s9.7471-5.2636 15.871-11.101c6.124-5.8369 11.573-15.057 11.573-15.057s5.4492 9.2197 11.573 15.057c6.124 5.837 15.871 11.101 15.871 11.101h-19.297s6.7534 9.5401 10.759 12.899c4.0058 3.3594 17 11.667 17 11.667l-25.615-0.12399s7.752 9.4492 13.615 14.124c5.8632 4.6748 18.117 11.177 18.117 11.177h-29.16s3.7095 7.8232 13.376 14.823c5.581 4.042 23.073 10.904 23.073 10.904h-28.73s8.9536 8.8184 15.99 13.429c7.0366 4.6104 21.317 11.014 21.317 11.014s-27.983 2.3193-31.983 2.3193-25.907-2.4775-25.907-2.4775-21.906 2.4775-25.907 2.4775c-4.0005 0-31.983-2.3193-31.983-2.3193s14.28-6.4033 21.317-11.014z"/>
 <path class="st6" d="m126.33 306.46c6.124 5.837 15.871 11.101 15.871 11.101h-19.297s6.7534 9.5401 10.759 12.899c4.0058 3.3594 17 11.667 17 11.667l-25.615-0.12399s7.752 9.4492 13.615 14.124c5.8632 4.6748 18.117 11.177 18.117 11.177h-29.16s3.7095 7.8232 13.376 14.823c5.581 4.042 23.073 10.904 23.073 10.904h-28.73s8.9536 8.8184 15.99 13.429c7.0366 4.6104 21.317 11.014 21.317 11.014s-27.983 2.3193-31.983 2.3193-25.907-2.4775-25.907-2.4775v-125.91s5.4492 9.2197 11.573 15.057z"/>
 <rect class="st4" x="420.59" y="394.33" width="5.1709" height="39.302"/>
 <path class="st5" d="m386.6 388.46c7.0371-4.6103 15.99-13.429 15.99-13.429h-28.73s17.492-6.8623 23.074-10.904c9.6661-7 13.375-14.823 13.375-14.823h-29.159s12.254-6.502 18.117-11.177c5.8633-4.6748 13.615-14.124 13.615-14.124l-25.615 0.12399s12.994-8.3076 17-11.667c4.0059-3.3593 10.759-12.899 10.759-12.899h-19.297s9.748-5.2636 15.871-11.101c6.125-5.8369 11.574-15.057 11.574-15.057s5.4492 9.2197 11.572 15.057c6.125 5.837 15.871 11.101 15.871 11.101h-19.297s6.7539 9.5401 10.76 12.899c4.0059 3.3594 17 11.667 17 11.667l-25.615-0.12399s7.7519 9.4492 13.615 14.124c5.8633 4.6748 18.117 11.177 18.117 11.177h-29.16s3.7099 7.8232 13.377 14.823c5.5801 4.042 23.072 10.904 23.072 10.904h-28.73s8.9541 8.8184 15.99 13.429c7.0372 4.6104 21.317 11.014 21.317 11.014s-27.983 2.3193-31.983 2.3193-25.906-2.4775-25.906-2.4775-21.906 2.4775-25.907 2.4775c-4.0009 0-31.983-2.3193-31.983-2.3193s14.28-6.4033 21.316-11.014z"/>
 <path class="st6" d="m434.74 288.46c6.125 5.837 15.871 11.101 15.871 11.101h-19.297s6.7539 9.5401 10.76 12.899c4.0059 3.3594 17 11.667 17 11.667l-25.615-0.12399s7.7519 9.4492 13.615 14.124c5.8633 4.6748 18.117 11.177 18.117 11.177h-29.16s3.7099 7.8232 13.377 14.823c5.5801 4.042 23.072 10.904 23.072 10.904h-28.73s8.9541 8.8184 15.99 13.429c7.0372 4.6104 21.317 11.014 21.317 11.014s-27.983 2.3193-31.983 2.3193-25.906-2.4775-25.906-2.4775v-125.91s5.4492 9.2197 11.572 15.057z"/>
 <rect class="st4" x="534.45" y="396.33" width="5.1709" height="39.302"/>
 <path class="st5" d="m500.46 390.46c7.0372-4.6103 15.99-13.429 15.99-13.429h-28.73s17.492-6.8623 23.074-10.904c9.666-7 13.375-14.823 13.375-14.823h-29.159s12.254-6.502 18.117-11.177c5.8633-4.6748 13.615-14.124 13.615-14.124l-25.615 0.12399s12.994-8.3076 17-11.667c4.0059-3.3593 10.759-12.899 10.759-12.899h-19.297s9.748-5.2636 15.871-11.101c6.125-5.8369 11.574-15.057 11.574-15.057s5.4492 9.2197 11.572 15.057c6.125 5.837 15.871 11.101 15.871 11.101h-19.297s6.754 9.5401 10.76 12.899c4.0059 3.3594 17 11.667 17 11.667l-25.615-0.12399s7.7519 9.4492 13.615 14.124c5.8633 4.6748 18.117 11.177 18.117 11.177h-29.16s3.71 7.8232 13.377 14.823c5.5801 4.042 23.072 10.904 23.072 10.904h-28.73s8.9541 8.8184 15.99 13.429c7.0371 4.6104 21.317 11.014 21.317 11.014s-27.983 2.3193-31.983 2.3193-25.906-2.4775-25.906-2.4775-21.906 2.4775-25.907 2.4775c-4.0009 0-31.983-2.3193-31.983-2.3193s14.28-6.4033 21.316-11.014z"/>
 <path class="st6" d="m548.61 290.46c6.125 5.837 15.871 11.101 15.871 11.101h-19.297s6.754 9.5401 10.76 12.899c4.0059 3.3594 17 11.667 17 11.667l-25.615-0.12399s7.7519 9.4492 13.615 14.124c5.8633 4.6748 18.117 11.177 18.117 11.177h-29.16s3.71 7.8232 13.377 14.823c5.5801 4.042 23.072 10.904 23.072 10.904h-28.73s8.9541 8.8184 15.99 13.429c7.0371 4.6104 21.317 11.014 21.317 11.014s-27.983 2.3193-31.983 2.3193-25.906-2.4775-25.906-2.4775v-125.91s5.4492 9.2197 11.572 15.057z"/>
 <rect class="st4" x="474.45" y="405" width="5.1709" height="39.302"/>
 <path class="st5" d="m440.46 399.13c7.0372-4.6103 15.99-13.429 15.99-13.429h-28.73s17.492-6.8623 23.074-10.904c9.666-7 13.375-14.823 13.375-14.823h-29.159s12.254-6.502 18.117-11.177c5.8633-4.6748 13.615-14.124 13.615-14.124l-25.615 0.12399s12.994-8.3076 17-11.667c4.0059-3.3593 10.759-12.899 10.759-12.899h-19.297s9.748-5.2637 15.871-11.101c6.125-5.8369 11.574-15.057 11.574-15.057s5.4492 9.2197 11.572 15.057c6.125 5.8369 15.871 11.101 15.871 11.101h-19.297s6.754 9.5401 10.76 12.899c4.0059 3.3594 17 11.667 17 11.667l-25.615-0.12399s7.7519 9.4492 13.615 14.124c5.8633 4.6748 18.117 11.177 18.117 11.177h-29.16s3.71 7.8232 13.377 14.823c5.5801 4.042 23.072 10.904 23.072 10.904h-28.73s8.9541 8.8184 15.99 13.429c7.0371 4.6104 21.317 11.014 21.317 11.014s-27.983 2.3193-31.983 2.3193-25.906-2.4775-25.906-2.4775-21.906 2.4775-25.907 2.4775c-4.0009 0-31.983-2.3193-31.983-2.3193s14.28-6.4033 21.316-11.014z"/>
 <path class="st6" d="m488.61 299.13c6.125 5.8369 15.871 11.101 15.871 11.101h-19.297s6.754 9.5401 10.76 12.899c4.0059 3.3594 17 11.667 17 11.667l-25.615-0.12399s7.7519 9.4492 13.615 14.124c5.8633 4.6748 18.117 11.177 18.117 11.177h-29.16s3.71 7.8232 13.377 14.823c5.5801 4.042 23.072 10.904 23.072 10.904h-28.73s8.9541 8.8184 15.99 13.429c7.0371 4.6104 21.317 11.014 21.317 11.014s-27.983 2.3193-31.983 2.3193-25.906-2.4775-25.906-2.4775v-125.91c2e-7 0 5.4492 9.2197 11.572 15.057z"/>
 <path class="st8" d="m174.76 118.5c0-9.665-7.8349-17.5-17.5-17.5-1.0542 0-2.0815 0.1094-3.0849 0.2881 1.6674-4.7895 2.5849-9.9307 2.5849-15.288 0-25.681-20.819-46.5-46.5-46.5-23.256 0-42.524 17.073-45.955 39.37-1.313-0.2383-2.6631-0.3697-4.0445-0.3697-12.426 0-22.5 10.074-22.5 22.5 0 0.5357 0.025398 1.065 0.0625 1.5913-2.0415-1.0092-4.3315-1.5913-6.7627-1.5913-8.4497 0-15.3 6.8501-15.3 15.3 0 2.9336 0.8404 5.6651 2.272 7.9932h155.73c0.63769-1.8154 1.0024-3.7598 1.0024-5.793z"/>
 <path class="st8" d="m566.26 138.95c-0.42279 0-0.8349 0.0439-1.2382 0.11569 0.66895-1.9204 1.0371-3.982 1.0371-6.1299 0-10.298-8.3477-18.646-18.645-18.646-3.7275 0-7.1894 1.1074-10.102 2.9912-3.7666-9.9302-13.364-16.991-24.614-16.991-13.166 0-24.073 9.665-26.016 22.287-0.7431-0.1348-1.5068-0.2095-2.289-0.2095-7.0342 0-12.736 5.7027-12.736 12.737 0 0.3037 0.013672 0.603 0.035187 0.9008-1.1563-0.5713-2.4522-0.9008-3.8291-0.9008-4.7832 0-8.6602 3.8779-8.6602 8.6611 0 1.6606 0.47559 3.207 1.2852 4.5249h112.39c0.25586-0.72801 0.4024-1.5078 0.4024-2.3228-1e-7 -3.8754-3.1417-7.0175-7.0167-7.0175z"/>
 <path class="st9" d="m429.55 565.15c0 19.797-17.752 35.846-39.652 35.846h-177.97c-21.899 0-39.653-16.049-39.653-35.846v-223.42c0-19.797 17.753-35.846 39.653-35.846h177.97c21.9 0 39.652 16.049 39.652 35.846v223.42z"/>
 <path class="st10" d="m426.6 378.54c-20.855-9.7461-43.922-14.59-43.922-14.59l-76.77 0.98239-71.41-0.91409-3.834-0.19919v0.15039l-6.6465-0.085907s-23.065 4.8457-43.92 14.592c-20.855 9.7461-38.218 25.619-38.218 25.619l47.197 92.416 21.69 104.43h19.869v0.064514h165.29l21.689-104.43 47.197-92.416c-1e-7 0-17.363-15.875-38.217-25.621z"/>
 <rect class="st11" x="300.91" y="402.32" width="4.8652" height="198.68"/>
 <path class="st12" d="m360.29 371.23c0 16.855-25.494 30.523-56.942 30.523-31.449 0-56.943-13.668-56.943-30.523 0-16.859 25.494-30.525 56.943-30.525 31.448 0 56.942 13.666 56.942 30.525z"/>
 <path class="st13" d="m252.41 447.16c0-42.604-5.6596-78.824-31.842-82.506 2.395-0.54489 15.893-1.5449 18.279-0.83398 13.563 4.0391 29.892 38.283 29.892 83.34 0 45.055-38.368 111.82-66.694 111.82-0.4805-2.4102-5.7095-27.49-6.6719-32.123 24.853-5.6582 57.038-38.598 57.038-79.693z"/>
 <path class="st13" d="m354.13 447.16c0-42.604 5.6592-78.824 31.842-82.506-2.3945-0.54489-15.893-1.5449-18.279-0.83398-13.562 4.0391-29.892 38.283-29.892 83.34 0 45.055 38.368 111.82 66.694 111.82 0.4805-2.4102 5.71-27.49 6.6719-32.123-24.852-5.6582-57.037-38.598-57.037-79.693z"/>
 <path class="st14" d="m243.87 366.59s11.339 46.807 45.838 65.975c1.5576-11.74 13.636-28.365 13.636-28.365l-59.475-37.609z"/>
 <path class="st14" d="m362.82 366.59s-11.339 46.807-45.839 65.975c-1.5566-11.74-13.637-28.365-13.637-28.365l59.476-37.609z"/>
 <polygon class="st15" points="264.47 487.18 259.45 487.18 238.85 363.82 243.87 363.82"/>
 <polygon class="st15" points="341.83 487.18 346.84 487.18 367.44 363.82 362.42 363.82"/>
 <rect class="st16" x="255.45" y="486.91" width="100.66" height="65.273"/>
 <rect class="st17" x="255.45" y="486.91" width="100.66" height="10.777"/>
 <rect class="st17" x="255.45" y="534.69" width="100.66" height="17.486"/>
 <path class="st18" d="m330.79 517.32c0 13.812-11.197 25.012-25.011 25.012s-25.012-11.199-25.012-25.012 11.198-25.012 25.012-25.012c13.814-1e-7 25.011 11.199 25.011 25.012z"/>
 <ellipse class="st19" transform="matrix(.16128 -.98691 .98691 .16128 -254.09 735.67)" cx="305.78" cy="517.32" rx="21.826" ry="21.826"/>
 <path class="st20" d="m295.81 514.95c0 5.4316 8.2271 13.482 3.9478 18.232-3.084 3.4258-9.1324-5.2442-9.1324-16.465 0-11.101 11.222-21.084 9.1324-16.465-2.3477 5.1934-3.9478 9.2656-3.9478 14.697z"/>
 <path class="st21" d="m286.55 517.32c0-11.617 9.0786-21.111 20.527-21.783-0.42871-0.025391-0.86142-0.042999-1.2969-0.042999-12.054 0-21.826 9.7715-21.826 21.826 0 12.055 9.772 21.826 21.826 21.826 0.43549 0 0.86819-0.017456 1.2969-0.040955-11.449-0.67194-20.527-10.168-20.527-21.785z"/>
 <rect class="st18" x="266.64" y="483.04" width="11.794" height="3.8633"/>
 <rect class="st18" x="334.96" y="483.04" width="7.3555" height="3.8633"/>
 <path class="st18" d="m275.15 518.9c-2.4566 4.5605-7.5484 11.547-8.8208 10.861-1.2735-0.68359 1.7544-8.7812 4.2099-13.346 2.4561-4.5605 3.4112-3.8613 4.6841-3.1758 1.273 0.68365 2.3828 1.0977-0.073212 5.6602z"/>
 <rect class="st18" x="266.03" y="488.82" width="16.505" height="7.5254"/>
 <rect class="st19" x="267.9" y="489.68" width="12.766" height="5.8184"/>
 <path class="st22" d="m372.84 337.12c0 24.227-22.088 43.867-49.334 43.867h-45.512c-27.246 0-49.333-19.641-49.333-43.867l-6.0718-87.913c0-24.228 22.087-43.868 49.333-43.868h58.415c27.247 0 49.333 19.64 49.333 43.868l-6.8301 87.913z"/>
 <path class="st23" d="m374.29 297.41c0 24.227-22.088 43.868-49.333 43.868h-45.513c-27.246 0-49.333-19.641-49.333-43.868l-3.0718-44.47c-2.3701 5.1343-3.6861 10.752-3.6861 16.646l6.0718 87.912c0 24.228 22.087 43.869 49.333 43.869h45.513c27.246 0 49.334-19.641 49.334-43.869l6.8301-87.912c0-5.1524-1.0078-10.093-2.8418-14.685l-3.3027 42.508z"/>
 <path class="st24" d="m350.18 272.93c-8.5293 0.0018921-33.374 1.0137-47.917 1.7261-15.142-1.0596-39.39-1.7071-47.917-1.7061-7.27 0.0019836-29.432 1.9766-33.917 6.4483 0.085998 1.3881 0.22409 2.6953 0.543 4.3125 0.0083008 0.3056 2.0073 0.27731 2.0093 0.6235 0.033203 5.2183 1.2807 10.908 2.4365 14.165 5.0835 14.349 14.663 20.456 28.196 20.454 13.534-0.0038757 31.536-1.7949 39.301-19.071 0.60013-1.3335 1.4786-8.0757 9.0987-9.2724 0.084015-0.013702 0.16891-0.039093 0.25391-0.071289 0.085907 0.032196 0.16992 0.057587 0.25391 0.071289 7.6211 1.1938 8.5029 7.9345 9.1035 9.268 7.7754 17.273 25.777 19.058 39.311 19.054 13.534-0.0039062 23.11-6.1152 28.187-20.464 1.1513-3.2598 2.3964-8.9483 2.4277-14.168 0.0010071-0.34622 2.0019-0.31882 2.0098-0.62451 0.3183-1.6172 0.45502-2.9238 0.54102-4.313-4.4883-4.4683-26.652-6.4341-33.921-6.4326zm-59.62 23.015c-3.7623 8.066-9.3252 18.347-31.002 19.82-25.252 1.7168-32.199-18.895-32.202-27.628-0.0019989-8.7334 17.311-10.501 33.469-10.814 9.6421-0.18652 23.689 2.5815 29.089 6.3716 3.2397 2.2744 2.3935 8.5029 0.64648 12.251zm54.431 19.802c-21.678-1.4629-27.247-11.742-31.012-19.808-1.749-3.7476-2.6006-9.9761 0.6377-12.25 5.3994-3.794 19.442-6.5674 29.086-6.3853 16.156 0.30762 33.471 2.0674 33.474 10.801 0.0028993 8.7334-6.9327 29.35-32.186 27.643z"/>
 <path class="st25" d="m272.07 292.12c0 5.0527-4.6079 9.1509-10.291 9.1509-5.6836 0-10.291-4.0982-10.291-9.1509 0-5.0537 4.6075-9.1514 10.291-9.1514 5.6831 0 10.291 4.0977 10.291 9.1514z"/>
 <path class="st25" d="m349.6 292.12c0 5.0527-4.6074 9.1509-10.291 9.1509s-10.291-4.0982-10.291-9.1509c0-5.0537 4.6074-9.1514 10.291-9.1514s10.291 4.0977 10.291 9.1514z"/>
 <path class="st26" d="m264.1 290.82c-0.22711 0.30081-0.61331 0.49899-1.0503 0.49899-0.6987 0-1.2651-0.50391-1.2651-1.125 0-0.18158 0.052704-0.35059 0.13861-0.50189-0.046814-0.0025024-0.09082-0.013214-0.13861-0.013214-1.5157 0-2.7442 1.0932-2.7442 2.4409s1.2285 2.4399 2.7442 2.4399c1.5156 0 2.7441-1.0922 2.7441-2.4399 0-0.479-0.16061-0.92239-0.42871-1.2998z"/>
 <path class="st26" d="m341.62 290.16c-0.2265 0.30029-0.61227 0.49808-1.0498 0.49808-0.69821 0-1.2646-0.50339-1.2646-1.1245 0-0.1817 0.052704-0.35062 0.1387-0.5025-0.046906-0.0019226-0.091797-0.012207-0.1387-0.012207-1.5156 0-2.7442 1.0923-2.7442 2.4395 0 1.3476 1.2286 2.4404 2.7442 2.4404s2.7441-1.0928 2.7441-2.4404c0-0.479-0.1611-0.92191-0.42972-1.2984z"/>
 <path class="st27" d="m254.2 346.92c-0.086899 1.0312-0.13519 2.0703-0.13519 3.1211 0 23.207 21.41 42.023 47.822 42.023s47.822-18.816 47.822-42.023c0-1.0508-0.048798-2.0899-0.13467-3.1211h-95.374z"/>
 <path class="st28" d="m320.84 381.81c0 4.584-8.4854 8.2969-18.954 8.2969-10.468 0-18.954-3.7129-18.954-8.2969 0-4.582 8.4858-8.2969 18.954-8.2969 10.469-1e-7 18.954 3.7149 18.954 8.2969z"/>
 <rect class="st29" x="260.35" y="346.92" width="83.022" height="10.441"/>
 <path class="st30" d="m318.84 328.5c0 14.916-7.5918 14.584-16.955 14.584s-16.955 0.33209-16.955-14.584c0-14.914 7.5918-39.428 16.955-39.428s16.955 24.514 16.955 39.428z"/>
 <polygon class="st31" points="408.02 279.68 196.52 279.68 222.31 244.99 380.97 243.08"/>
 <path class="st32" d="m381.27 245.6v-39.056c0-21.899-22.376-39.652-49.979-39.652h-59.206c-27.602 0-49.979 17.753-49.979 39.652l0.2066 39.056h158.96z"/>
 <rect class="st33" x="222.24" y="231.76" width="158.73" height="11.326"/>
 <path class="st34" d="m150.56 401.81s-35.752 43.543-38.934 62.76c-3.1812 19.217-11.024 54.83-8.9639 61.881 4.9619 16.984 14.667 21.236 20.587 22.713 12.095 3.0156 32.377 3.3769 39.547-6.8301 15.126-21.537 16.631-31.289 17.942-44.65 1.3115-13.361 2.8023-22.492-0.207-28.486-3.0093-5.9922-7.75-26.367-8.9385-30.994-1.189-4.6269-21.032-36.393-21.032-36.393z"/>
 <path class="st14" d="m127.03 433.69-9.4312 15.637s19.781 13.344 33.202 14.156c13.421 0.81451 26.862-2.2109 26.862-2.2109l-3.5889-13.115-47.044-14.467z"/>
 <path class="st22" d="m184.58 426.46c4.562-11.744 28.335-18.412 21.651-27.242-3.4434-4.5489-24.747-0.82428-30.95 7.1836-3.6729-10.059-0.0103-33.881-7.7442-42.236-2.8227-3.0508-7.9253-1.5019-9.9038 0.2735-2.6113 2.3437-0.4326 6.6836 0.47069 9.0839 2.6367 7.004 2.0269 14.266-0.69139 21.055 1.6631-8.6328-4.9521-23.982-7.6152-29.002-1.4131-2.6641-5.2866-2.4512-9.0322-0.66992-4.209 2.0019 1.5864 13.107 1.9755 16.322 0.6748 5.5742 1.5894 10.871-0.82709 15.955 0.73189-6.2539-3.2554-13.359-6.7232-18.727-1.8452-2.8535-7.4921-8.1582-11.645-6.4765-6.6597 2.6972-2.2671 8.4726-0.29729 11.184 3.7846 5.209 8.0698 10.479 6.6626 16.846-2.2569-5.9239-13.38-22.752-20.934-13.992-3.2588 3.7793 0.016594 6.459 2.8237 9.0723 4.4224 4.1171 8.0503 8.6367 10.563 13.871 4.5776 9.5293 1.2426 20.143 6.8037 29.678 6.2295 10.68 12.292 14.031 24.845 12.266 8.1826-1.1484 18.183 0.375 23.835-5.3613 3.23-3.2754 6.6822-12.217 6.731-19.082z"/>
 <path class="st34" d="m373.03 484.1s-2.2188 3.1856 11.826 20.231c14.045 17.045 38.768 50.074 46.086 53.934 17.627 9.2988 27.717 5.3496 32.93 2.088 10.652-6.666 25.197-27.695 21.414-40.812-7.9863-27.676-16.875-28.916-29.082-38.057-15.238-11.412-21.504-11.412-33.133-19.646-6.0743-4.3027-22.963-11.902-27.654-14.557-4.6924-2.6523-22.387 36.82-22.387 36.82z"/>
 <path class="st34" d="m463.87 560.36s29.022-15.027 24.092-73.578c-1.8515-22.01-7.8535-62.84-12.185-69.889-10.432-16.982-21.127-18.723-27.275-18.57-12.562 0.30862-32.053 5.9336-35.477 19.148-7.2256 27.885-5.3936 38.924-2.166 53.83 3.2275 14.904 4.8642 25.268 9.749 30.885 4.8828 5.6192 16.242 26.35 18.928 31.023 2.6856 4.6738 24.336 27.15 24.336 27.15z"/>
 <path class="st14" d="m369.46 488.79 13.403 12.402s17.072-16.67 20.586-29.648c3.5127-12.978 3.2754-18.592 3.2754-18.592l-13.574-7.3027-23.69 43.141z"/>
 <path class="st22" d="m379.95 434.73c-9.4883-8.2891-7.6611-32.91-18.24-29.635-5.4493 1.6895-9.2022 22.988-3.7862 31.547-10.707 0.029297-19.287 1.4062-20.12-5.916-0.46967-4.1289-15.179 10.633 2.918 18.691-7.5498-4.5039-14.741 6.8886-2.8272 15.459-5.6328-2.8184-6.9375 8.7558-1.4316 12.248-6.3369 0.10349 0.070312 10.723 5.8467 10.143 10.52-1.0586 19.362 5.6914 30.221 3.709 12.163-2.2207 17.379-6.7793 19.994-19.182 1.7061-8.0859 6.544-16.969 3.0762-24.238-1.9815-4.1523-9.2119-10.443-15.65-12.826z"/>
</svg>
