<?xml version="1.0" encoding="UTF-8"?>
<!DOCTYPE svg PUBLIC "-//W3C//DTD SVG 1.1//EN" "http://www.w3.org/Graphics/SVG/1.1/DTD/svg11.dtd">
<svg xmlns="http://www.w3.org/2000/svg" version="1.1" width="814px" height="137px" style="shape-rendering:geometricPrecision; text-rendering:geometricPrecision; image-rendering:optimizeQuality; fill-rule:evenodd; clip-rule:evenodd" xmlns:xlink="http://www.w3.org/1999/xlink">
<g><path style="opacity:1" fill="#f5f5f5" d="M 151.5,-0.5 C 372.167,-0.5 592.833,-0.5 813.5,-0.5C 813.5,22.1667 813.5,44.8333 813.5,67.5C 794.367,47.531 775.367,27.3643 756.5,7C 557.167,6.5 357.834,6.33333 158.5,6.5C 155.833,4.5 153.5,2.16667 151.5,-0.5 Z"/></g>
<g><path style="opacity:1" fill="#fdb912" d="M 0.5,-0.5 C 50.8333,-0.5 101.167,-0.5 151.5,-0.5C 153.5,2.16667 155.833,4.5 158.5,6.5C 164.5,13.5 170.5,20.5 176.5,27.5C 175.624,27.3691 174.957,27.7025 174.5,28.5C 176.02,31.1553 175.52,31.8219 173,30.5C 167.844,33.3386 167.344,32.6719 171.5,28.5C 171.167,28.1667 170.833,27.8333 170.5,27.5C 116.345,27.5105 62.0113,27.5105 7.5,27.5C 7.64945,26.448 7.48278,25.448 7,24.5C 6.33333,31.1667 5.66667,31.1667 5,24.5C 4,28.5 3,28.5 2,24.5C 1.50098,28.8206 1.33432,33.1539 1.5,37.5C 0.504649,25.011 0.171316,12.3443 0.5,-0.5 Z"/></g>
<g><path style="opacity:1" fill="#262625" d="M 158.5,6.5 C 357.834,6.33333 557.167,6.5 756.5,7C 775.367,27.3643 794.367,47.531 813.5,67.5C 813.5,68.1667 813.5,68.8333 813.5,69.5C 812.833,69.8333 812.167,70.1667 811.5,70.5C 811.013,69.5266 810.513,68.5266 810,67.5C 786.117,68.797 762.45,68.797 739,67.5C 738.092,69.4386 736.592,70.4386 734.5,70.5C 736.795,67.7029 739.295,65.0362 742,62.5C 743.751,60.788 744.418,58.788 744,56.5C 736.886,54.5078 729.719,52.6744 722.5,51C 717.46,45.094 713.294,38.594 710,31.5C 708.062,30.1398 706.396,30.4732 705,32.5C 702.38,38.9136 698.88,44.747 694.5,50C 687.004,52.1662 679.504,54.3328 672,56.5C 671.333,57.8333 671.333,59.1667 672,60.5C 674.372,62.7032 676.539,65.0365 678.5,67.5C 665.367,68.2114 652.033,68.7114 638.5,69C 635.656,71.2899 633.656,70.7899 632.5,67.5C 634.051,64.4372 636.218,61.7705 639,59.5C 639.667,58.5 639.667,57.5 639,56.5C 631.047,54.8121 623.214,52.6454 615.5,50C 611.934,44.7582 608.767,39.2582 606,33.5C 604.981,32.3128 603.814,31.3128 602.5,30.5C 597.808,36.7051 593.474,43.2051 589.5,50C 581.761,52.5333 573.927,54.6999 566,56.5C 565.333,57.5 565.333,58.5 566,59.5C 568.705,62.0362 571.205,64.7029 573.5,67.5C 574.833,69.1667 576.167,70.8333 577.5,72.5C 575.184,71.0642 572.684,69.7309 570,68.5C 557.663,68.3926 545.163,68.5592 532.5,69C 531.328,71.0549 529.661,71.7216 527.5,71C 529.976,69.6912 531.976,67.8579 533.5,65.5C 533.192,64.6919 532.692,64.0253 532,63.5C 531.15,67.513 528.65,69.513 524.5,69.5C 524.5,69.1667 524.5,68.8333 524.5,68.5C 527.464,66.0381 530.297,63.3714 533,60.5C 533.667,59.1667 533.667,57.8333 533,56.5C 525.433,54.5862 517.933,52.4195 510.5,50C 506.623,44.4153 503.123,38.5819 500,32.5C 498.604,30.4732 496.938,30.1398 495,31.5C 491.706,38.594 487.54,45.094 482.5,51C 475.344,53.0553 468.177,54.8887 461,56.5C 460.333,57.5 460.333,58.5 461,59.5C 464.336,63.6678 467.836,67.6678 471.5,71.5C 469.745,70.9278 468.078,70.0945 466.5,69C 451.822,68.1672 437.155,68.3338 422.5,69.5C 421.07,72.4327 419.07,74.9327 416.5,77C 415.563,77.6917 414.897,77.525 414.5,76.5C 414.5,75.8333 414.5,75.1667 414.5,74.5C 418.472,70.1927 422.472,65.8593 426.5,61.5C 428.424,59.9098 428.757,58.0765 427.5,56C 420.514,54.1699 413.514,52.5032 406.5,51C 401.46,45.094 397.294,38.594 394,31.5C 392.062,30.1398 390.396,30.4732 389,32.5C 385.793,39.0863 381.959,45.253 377.5,51C 370.447,52.5133 363.447,54.18 356.5,56C 354.923,58.8601 355.59,61.0268 358.5,62.5C 360.833,65.1667 363.167,67.8333 365.5,70.5C 363.806,71.686 362.139,71.5193 360.5,70C 360.833,69.6667 361.167,69.3333 361.5,69C 347.259,68.8243 333.092,68.3243 319,67.5C 317.989,68.3366 316.822,68.67 315.5,68.5C 316.6,67.3951 317.267,66.0618 317.5,64.5C 320.847,62.6887 322.68,60.022 323,56.5C 315.047,54.8121 307.214,52.6454 299.5,50C 295.901,44.738 292.735,39.238 290,33.5C 287.667,29.5 285.333,29.5 283,33.5C 280.233,39.2582 277.066,44.7582 273.5,50C 265.947,52.3781 258.281,54.3781 250.5,56C 249.084,57.9151 249.418,59.4151 251.5,60.5C 255.5,65.1667 259.5,69.8333 263.5,74.5C 261.856,74.7135 260.356,74.3802 259,73.5C 258.667,74.1667 258.333,74.8333 258,75.5C 258.57,73.3072 258.236,71.3072 257,69.5C 256.692,70.3081 256.192,70.9747 255.5,71.5C 253.527,70.3601 251.693,69.0267 250,67.5C 238.167,68.1765 226.334,68.8431 214.5,69.5C 214.5,69.1667 214.5,68.8333 214.5,68.5C 207.173,59.8406 199.507,51.5072 191.5,43.5C 187.205,37.5374 182.205,32.204 176.5,27.5C 170.5,20.5 164.5,13.5 158.5,6.5 Z"/></g>
<g><path style="opacity:1" fill="#fcb10f" d="M 176.5,27.5 C 182.205,32.204 187.205,37.5374 191.5,43.5C 190.064,43.7546 188.564,44.0879 187,44.5C 186.383,43.5509 186.549,42.7175 187.5,42C 185.926,41.3013 184.593,41.6346 183.5,43C 169.592,43.8226 155.758,43.6559 142,42.5C 141.717,45.7423 140.883,46.0756 139.5,43.5C 138.914,43.7093 138.414,44.0426 138,44.5C 137.583,43.244 136.75,42.5774 135.5,42.5C 123.122,32.4049 111.789,33.4049 101.5,45.5C 100.306,42.9824 99.1396,42.9824 98,45.5C 97.6667,44.5 97.3333,43.5 97,42.5C 85.9146,43.4874 74.748,43.8207 63.5,43.5C 63.6495,42.448 63.4828,41.448 63,40.5C 61.5058,42.3285 60.0058,44.1619 58.5,46C 59.2913,47.101 59.2913,47.9344 58.5,48.5C 57.6143,47.675 57.281,46.675 57.5,45.5C 59.9511,40.0485 58.2845,36.7151 52.5,35.5C 50.6171,35.8757 49.1171,36.8757 48,38.5C 46.7874,40.9252 45.6207,43.2585 44.5,45.5C 42.8762,45.6399 41.7096,44.9733 41,43.5C 30.0427,43.5443 18.876,43.5443 7.5,43.5C 7.64945,42.448 7.48278,41.448 7,40.5C 6.66667,41.8333 6.33333,43.1667 6,44.5C 5,44.5 4,44.5 3,44.5C 2.33802,42.1873 1.83802,39.854 1.5,37.5C 1.33432,33.1539 1.50098,28.8206 2,24.5C 3,28.5 4,28.5 5,24.5C 5.66667,31.1667 6.33333,31.1667 7,24.5C 7.48278,25.448 7.64945,26.448 7.5,27.5C 62.0113,27.5105 116.345,27.5105 170.5,27.5C 170.833,27.8333 171.167,28.1667 171.5,28.5C 167.344,32.6719 167.844,33.3386 173,30.5C 175.52,31.8219 176.02,31.1553 174.5,28.5C 174.957,27.7025 175.624,27.3691 176.5,27.5 Z"/></g>
<g><path style="opacity:1" fill="#585858" d="M 734.5,70.5 C 731.116,73.1045 729.449,76.6045 729.5,81C 730.659,87.4544 731.326,93.9544 731.5,100.5C 729.801,100.66 728.134,100.494 726.5,100C 720.594,97.2119 714.594,94.7119 708.5,92.5C 701.902,94.2486 695.568,96.7486 689.5,100C 687.866,100.494 686.199,100.66 684.5,100.5C 685.335,92.5001 685.835,84.5001 686,76.5C 684.389,72.7252 681.889,69.7252 678.5,67.5C 676.539,65.0365 674.372,62.7032 672,60.5C 671.333,59.1667 671.333,57.8333 672,56.5C 679.504,54.3328 687.004,52.1662 694.5,50C 698.88,44.747 702.38,38.9136 705,32.5C 706.396,30.4732 708.062,30.1398 710,31.5C 713.294,38.594 717.46,45.094 722.5,51C 729.719,52.6744 736.886,54.5078 744,56.5C 744.418,58.788 743.751,60.788 742,62.5C 739.295,65.0362 736.795,67.7029 734.5,70.5 Z"/></g>
<g><path style="opacity:1" fill="#feb137" d="M -0.5,-0.5 C -0.166667,-0.5 0.166667,-0.5 0.5,-0.5C 0.171316,12.3443 0.504649,25.011 1.5,37.5C 1.83802,39.854 2.33802,42.1873 3,44.5C 4,44.5 5,44.5 6,44.5C 6.33333,43.1667 6.66667,41.8333 7,40.5C 7.48278,41.448 7.64945,42.448 7.5,43.5C 18.876,43.5443 30.0427,43.5443 41,43.5C 41.7096,44.9733 42.8762,45.6399 44.5,45.5C 41.403,53.3517 38.0697,61.0183 34.5,68.5C 23.252,68.8207 12.0854,68.4874 1,67.5C 0.500094,81.496 0.333428,95.496 0.5,109.5C 0.5,118.5 0.5,127.5 0.5,136.5C 0.166667,136.5 -0.166667,136.5 -0.5,136.5C -0.5,90.8333 -0.5,45.1667 -0.5,-0.5 Z"/></g>
<g><path style="opacity:1" fill="#f6a610" d="M 101.5,45.5 C 100.562,57.4625 100.228,69.4625 100.5,81.5C 99.5151,77.3656 99.1818,73.0323 99.5,68.5C 88.8333,68.5 78.1667,68.5 67.5,68.5C 67.5,70.5 67.5,72.5 67.5,74.5C 66.6739,69.6835 66.1739,64.6835 66,59.5C 62.9401,56.0645 59.6068,55.7312 56,58.5C 55.5006,63.8229 55.334,69.1563 55.5,74.5C 51.8183,74.6653 48.1516,74.4986 44.5,74C 48.7373,64.3653 53.0706,54.8653 57.5,45.5C 57.281,46.675 57.6143,47.675 58.5,48.5C 59.2913,47.9344 59.2913,47.101 58.5,46C 60.0058,44.1619 61.5058,42.3285 63,40.5C 63.4828,41.448 63.6495,42.448 63.5,43.5C 74.748,43.8207 85.9146,43.4874 97,42.5C 97.3333,43.5 97.6667,44.5 98,45.5C 99.1396,42.9824 100.306,42.9824 101.5,45.5 Z"/></g>
<g><path style="opacity:1" fill="#222121" d="M 135.5,42.5 C 136.594,44.3594 137.427,46.3594 138,48.5C 138.5,59.8284 138.667,71.1618 138.5,82.5C 134.546,94.4877 126.212,99.321 113.5,97C 105.749,94.6464 101.415,89.4797 100.5,81.5C 100.228,69.4625 100.562,57.4625 101.5,45.5C 111.789,33.4049 123.122,32.4049 135.5,42.5 Z"/></g>
<g><path style="opacity:1" fill="#f3a410" d="M 126.5,81.5 C 126.5,77.1667 126.5,72.8333 126.5,68.5C 121.833,68.5 117.167,68.5 112.5,68.5C 112.5,72.8333 112.5,77.1667 112.5,81.5C 111.342,71.6753 111.175,61.6753 112,51.5C 116.91,43.6073 121.91,43.6073 127,51.5C 127.825,61.6753 127.658,71.6753 126.5,81.5 Z"/></g>
<g><path style="opacity:1" fill="#f9b110" d="M 426.5,61.5 C 406.667,60.8391 386.833,60.1724 367,59.5C 366.667,60.1667 366.333,60.8333 366,61.5C 363.266,58.7074 362.266,59.0407 363,62.5C 361.586,61.5868 360.086,61.5868 358.5,62.5C 355.59,61.0268 354.923,58.8601 356.5,56C 363.447,54.18 370.447,52.5133 377.5,51C 381.959,45.253 385.793,39.0863 389,32.5C 390.396,30.4732 392.062,30.1398 394,31.5C 397.294,38.594 401.46,45.094 406.5,51C 413.514,52.5032 420.514,54.1699 427.5,56C 428.757,58.0765 428.424,59.9098 426.5,61.5 Z"/></g>
<g><path style="opacity:1" fill="#f9b110" d="M 317.5,64.5 C 317.631,63.6236 317.298,62.9569 316.5,62.5C 313.001,69.2549 311.668,68.5882 312.5,60.5C 292.167,60.5 271.833,60.5 251.5,60.5C 249.418,59.4151 249.084,57.9151 250.5,56C 258.281,54.3781 265.947,52.3781 273.5,50C 277.066,44.7582 280.233,39.2582 283,33.5C 285.333,29.5 287.667,29.5 290,33.5C 292.735,39.238 295.901,44.738 299.5,50C 307.214,52.6454 315.047,54.8121 323,56.5C 322.68,60.022 320.847,62.6887 317.5,64.5 Z"/></g>
<g><path style="opacity:1" fill="#f8a50f" d="M 191.5,43.5 C 199.507,51.5072 207.173,59.8406 214.5,68.5C 189.5,68.5 164.5,68.5 139.5,68.5C 139.819,73.3633 139.486,78.03 138.5,82.5C 138.667,71.1618 138.5,59.8284 138,48.5C 137.427,46.3594 136.594,44.3594 135.5,42.5C 136.75,42.5774 137.583,43.244 138,44.5C 138.414,44.0426 138.914,43.7093 139.5,43.5C 140.883,46.0756 141.717,45.7423 142,42.5C 155.758,43.6559 169.592,43.8226 183.5,43C 184.593,41.6346 185.926,41.3013 187.5,42C 186.549,42.7175 186.383,43.5509 187,44.5C 188.564,44.0879 190.064,43.7546 191.5,43.5 Z"/></g>
<g><path style="opacity:1" fill="#faad0f" d="M 524.5,68.5 C 509.525,67.584 494.525,67.2506 479.5,67.5C 478.588,70.2762 477.588,72.9428 476.5,75.5C 476.598,72.7524 475.598,72.0857 473.5,73.5C 473.167,72.5 472.5,71.8333 471.5,71.5C 467.836,67.6678 464.336,63.6678 461,59.5C 460.333,58.5 460.333,57.5 461,56.5C 468.177,54.8887 475.344,53.0553 482.5,51C 487.54,45.094 491.706,38.594 495,31.5C 496.938,30.1398 498.604,30.4732 500,32.5C 503.123,38.5819 506.623,44.4153 510.5,50C 517.933,52.4195 525.433,54.5862 533,56.5C 533.667,57.8333 533.667,59.1667 533,60.5C 530.297,63.3714 527.464,66.0381 524.5,68.5 Z"/></g>
<g><path style="opacity:1" fill="#faad0f" d="M 632.5,67.5 C 631.167,68.5 629.833,69.5 628.5,70.5C 626.709,69.5168 625.209,68.1835 624,66.5C 610.333,67.1667 596.667,67.8333 583,68.5C 581.611,64.7279 580.611,64.7279 580,68.5C 578.025,68.5117 575.858,68.1784 573.5,67.5C 571.205,64.7029 568.705,62.0362 566,59.5C 565.333,58.5 565.333,57.5 566,56.5C 573.927,54.6999 581.761,52.5333 589.5,50C 593.474,43.2051 597.808,36.7051 602.5,30.5C 603.814,31.3128 604.981,32.3128 606,33.5C 608.767,39.2582 611.934,44.7582 615.5,50C 623.214,52.6454 631.047,54.8121 639,56.5C 639.667,57.5 639.667,58.5 639,59.5C 636.218,61.7705 634.051,64.4372 632.5,67.5 Z"/></g>
<g><path style="opacity:1" fill="#232220" d="M 57.5,45.5 C 53.0706,54.8653 48.7373,64.3653 44.5,74C 48.1516,74.4986 51.8183,74.6653 55.5,74.5C 55.334,69.1563 55.5006,63.8229 56,58.5C 59.6068,55.7312 62.9401,56.0645 66,59.5C 66.1739,64.6835 66.6739,69.6835 67.5,74.5C 73.5894,75.7008 74.9227,78.8675 71.5,84C 69.9751,85.0086 68.3084,85.5086 66.5,85.5C 66.6646,88.5184 66.498,91.5184 66,94.5C 64.1363,97.2072 61.6363,98.0405 58.5,97C 56.5743,96.5776 55.5743,95.4109 55.5,93.5C 55.5,90.5 55.5,87.5 55.5,84.5C 48.5,84.5 41.5,84.5 34.5,84.5C 32.0095,83.8919 30.6762,82.2252 30.5,79.5C 31.8388,75.8153 33.1721,72.1486 34.5,68.5C 38.0697,61.0183 41.403,53.3517 44.5,45.5C 45.6207,43.2585 46.7874,40.9252 48,38.5C 49.1171,36.8757 50.6171,35.8757 52.5,35.5C 58.2845,36.7151 59.9511,40.0485 57.5,45.5 Z"/></g>
<g><path style="opacity:1" fill="#faa50f" d="M 251.5,60.5 C 271.833,60.5 292.167,60.5 312.5,60.5C 311.668,68.5882 313.001,69.2549 316.5,62.5C 317.298,62.9569 317.631,63.6236 317.5,64.5C 317.267,66.0618 316.6,67.3951 315.5,68.5C 312.027,70.6367 309.694,73.6367 308.5,77.5C 306.914,78.6753 305.414,80.0086 304,81.5C 298.579,80.8445 293.079,80.5111 287.5,80.5C 281.754,80.5264 276.254,81.1931 271,82.5C 269.47,81.364 268.137,80.364 267,79.5C 266.667,80.5 266.333,81.5 266,82.5C 265.802,80.6183 265.302,78.9516 264.5,77.5C 264.443,76.391 264.11,75.391 263.5,74.5C 259.5,69.8333 255.5,65.1667 251.5,60.5 Z"/></g>
<g><path style="opacity:1" fill="#faa70f" d="M 426.5,61.5 C 422.472,65.8593 418.472,70.1927 414.5,74.5C 414.44,73.9569 414.107,73.6236 413.5,73.5C 412.749,74.376 412.249,75.376 412,76.5C 410.127,71.3021 408.793,71.6354 408,77.5C 407.517,76.552 407.351,75.552 407.5,74.5C 396.585,74.1797 385.752,74.513 375,75.5C 374.751,74.376 374.251,73.376 373.5,72.5C 371.584,73.2483 369.584,73.2483 367.5,72.5C 367.167,71.5 366.5,70.8333 365.5,70.5C 363.167,67.8333 360.833,65.1667 358.5,62.5C 360.086,61.5868 361.586,61.5868 363,62.5C 362.266,59.0407 363.266,58.7074 366,61.5C 366.333,60.8333 366.667,60.1667 367,59.5C 386.833,60.1724 406.667,60.8391 426.5,61.5 Z"/></g>
<g><path style="opacity:1" fill="#212121" d="M 577.5,72.5 C 578.79,73.0577 579.623,74.0577 580,75.5C 580.498,78.4816 580.665,81.4816 580.5,84.5C 579.725,89.7968 579.392,95.1301 579.5,100.5C 587.126,98.2744 594.626,95.6077 602,92.5C 608.551,94.0247 614.718,96.5247 620.5,100C 624.202,101.393 626.202,100.226 626.5,96.5C 626.044,92.3224 625.377,88.3224 624.5,84.5C 623.604,79.0849 624.937,74.4183 628.5,70.5C 629.833,69.5 631.167,68.5 632.5,67.5C 633.656,70.7899 635.656,71.2899 638.5,69C 652.033,68.7114 665.367,68.2114 678.5,67.5C 681.889,69.7252 684.389,72.7252 686,76.5C 685.835,84.5001 685.335,92.5001 684.5,100.5C 686.199,100.66 687.866,100.494 689.5,100C 695.568,96.7486 701.902,94.2486 708.5,92.5C 714.594,94.7119 720.594,97.2119 726.5,100C 728.134,100.494 729.801,100.66 731.5,100.5C 731.326,93.9544 730.659,87.4544 729.5,81C 729.449,76.6045 731.116,73.1045 734.5,70.5C 736.592,70.4386 738.092,69.4386 739,67.5C 762.45,68.797 786.117,68.797 810,67.5C 810.513,68.5266 811.013,69.5266 811.5,70.5C 793.372,90.4634 775.039,110.297 756.5,130C 557.167,130.5 357.834,130.667 158.5,130.5C 161.457,126.208 164.79,122.208 168.5,118.5C 174.864,112.137 180.864,105.471 186.5,98.5C 195.833,88.8333 205.167,79.1667 214.5,69.5C 226.334,68.8431 238.167,68.1765 250,67.5C 251.693,69.0267 253.527,70.3601 255.5,71.5C 256.192,70.9747 256.692,70.3081 257,69.5C 258.236,71.3072 258.57,73.3072 258,75.5C 258.333,74.8333 258.667,74.1667 259,73.5C 260.356,74.3802 261.856,74.7135 263.5,74.5C 264.11,75.391 264.443,76.391 264.5,77.5C 263.857,85.1499 263.523,92.8166 263.5,100.5C 265.199,100.66 266.866,100.494 268.5,100C 274.073,96.7943 279.906,94.2943 286,92.5C 292.748,94.2879 299.248,96.7879 305.5,100C 307.925,100.986 309.591,100.319 310.5,98C 309.083,91.2454 308.416,84.4121 308.5,77.5C 309.694,73.6367 312.027,70.6367 315.5,68.5C 316.822,68.67 317.989,68.3366 319,67.5C 333.092,68.3243 347.259,68.8243 361.5,69C 361.167,69.3333 360.833,69.6667 360.5,70C 362.139,71.5193 363.806,71.686 365.5,70.5C 366.5,70.8333 367.167,71.5 367.5,72.5C 369.88,75.7624 370.88,79.4291 370.5,83.5C 368.795,88.9033 368.128,94.57 368.5,100.5C 370.199,100.66 371.866,100.494 373.5,100C 379.177,96.6598 385.177,94.1598 391.5,92.5C 397.625,94.1471 403.458,96.4805 409,99.5C 411.099,100.287 413.266,100.62 415.5,100.5C 415.55,94.6105 414.884,88.9438 413.5,83.5C 413.198,80.9407 413.532,78.6074 414.5,76.5C 414.897,77.525 415.563,77.6917 416.5,77C 419.07,74.9327 421.07,72.4327 422.5,69.5C 437.155,68.3338 451.822,68.1672 466.5,69C 468.078,70.0945 469.745,70.9278 471.5,71.5C 472.5,71.8333 473.167,72.5 473.5,73.5C 474.891,75.5887 475.558,77.922 475.5,80.5C 474.833,85.5 474.167,90.5 473.5,95.5C 472.851,99.6874 474.518,101.187 478.5,100C 484.401,97.2013 490.401,94.7013 496.5,92.5C 503.037,94.4334 509.37,96.9334 515.5,100C 517.134,100.494 518.801,100.66 520.5,100.5C 519.948,92.1656 519.781,83.8323 520,75.5C 520.662,74.0161 521.496,72.6828 522.5,71.5C 523.167,70.8333 523.833,70.1667 524.5,69.5C 528.65,69.513 531.15,67.513 532,63.5C 532.692,64.0253 533.192,64.6919 533.5,65.5C 531.976,67.8579 529.976,69.6912 527.5,71C 529.661,71.7216 531.328,71.0549 532.5,69C 545.163,68.5592 557.663,68.3926 570,68.5C 572.684,69.7309 575.184,71.0642 577.5,72.5 Z"/></g>
<g><path style="opacity:1" fill="#faa30f" d="M 524.5,68.5 C 524.5,68.8333 524.5,69.1667 524.5,69.5C 523.833,70.1667 523.167,70.8333 522.5,71.5C 521.542,71.0472 520.708,70.3805 520,69.5C 519.283,72.2154 517.783,74.3821 515.5,76C 514.839,78.464 514.339,80.964 514,83.5C 513.798,81.7444 513.298,80.0777 512.5,78.5C 507.008,79.7863 501.341,80.453 495.5,80.5C 489.785,80.4785 484.118,80.1451 478.5,79.5C 478.167,80.1667 477.833,80.8333 477.5,81.5C 476.534,79.604 476.201,77.604 476.5,75.5C 477.588,72.9428 478.588,70.2762 479.5,67.5C 494.525,67.2506 509.525,67.584 524.5,68.5 Z"/></g>
<g><path style="opacity:1" fill="#fdfdfd" d="M 813.5,69.5 C 813.5,91.8333 813.5,114.167 813.5,136.5C 593.167,136.5 372.833,136.5 152.5,136.5C 154.167,134.167 156.167,132.167 158.5,130.5C 357.834,130.667 557.167,130.5 756.5,130C 775.039,110.297 793.372,90.4634 811.5,70.5C 812.167,70.1667 812.833,69.8333 813.5,69.5 Z"/></g>
<g><path style="opacity:1" fill="#f99f0f" d="M 628.5,70.5 C 624.937,74.4183 623.604,79.0849 624.5,84.5C 624.66,86.1992 624.494,87.8659 624,89.5C 623.517,88.552 623.351,87.552 623.5,86.5C 609.458,86.4645 595.624,86.4645 582,86.5C 581.722,85.5842 581.222,84.9175 580.5,84.5C 580.665,81.4816 580.498,78.4816 580,75.5C 579.623,74.0577 578.79,73.0577 577.5,72.5C 576.167,70.8333 574.833,69.1667 573.5,67.5C 575.858,68.1784 578.025,68.5117 580,68.5C 580.611,64.7279 581.611,64.7279 583,68.5C 596.667,67.8333 610.333,67.1667 624,66.5C 625.209,68.1835 626.709,69.5168 628.5,70.5 Z"/></g>
<g><path style="opacity:1" fill="#f6930f" d="M 264.5,77.5 C 265.302,78.9516 265.802,80.6183 266,82.5C 266.333,81.5 266.667,80.5 267,79.5C 268.137,80.364 269.47,81.364 271,82.5C 276.254,81.1931 281.754,80.5264 287.5,80.5C 293.079,80.5111 298.579,80.8445 304,81.5C 305.414,80.0086 306.914,78.6753 308.5,77.5C 308.416,84.4121 309.083,91.2454 310.5,98C 309.591,100.319 307.925,100.986 305.5,100C 299.248,96.7879 292.748,94.2879 286,92.5C 279.906,94.2943 274.073,96.7943 268.5,100C 266.866,100.494 265.199,100.66 263.5,100.5C 263.523,92.8166 263.857,85.1499 264.5,77.5 Z"/></g>
<g><path style="opacity:1" fill="#f99b0f" d="M 367.5,72.5 C 369.584,73.2483 371.584,73.2483 373.5,72.5C 374.251,73.376 374.751,74.376 375,75.5C 385.752,74.513 396.585,74.1797 407.5,74.5C 407.351,75.552 407.517,76.552 408,77.5C 408.793,71.6354 410.127,71.3021 412,76.5C 412.249,75.376 412.749,74.376 413.5,73.5C 414.107,73.6236 414.44,73.9569 414.5,74.5C 414.5,75.1667 414.5,75.8333 414.5,76.5C 413.532,78.6074 413.198,80.9407 413.5,83.5C 413.291,84.9217 412.791,86.255 412,87.5C 411.374,85.0087 410.541,85.0087 409.5,87.5C 397.796,87.1783 386.296,86.1783 375,84.5C 374.581,88.8518 373.914,89.1851 373,85.5C 372.692,86.3081 372.192,86.9747 371.5,87.5C 370.571,86.3112 370.238,84.9778 370.5,83.5C 370.88,79.4291 369.88,75.7624 367.5,72.5 Z"/></g>
<g><path style="opacity:1" fill="#f48e0f" d="M 370.5,83.5 C 370.238,84.9778 370.571,86.3112 371.5,87.5C 372.192,86.9747 372.692,86.3081 373,85.5C 373.914,89.1851 374.581,88.8518 375,84.5C 386.296,86.1783 397.796,87.1783 409.5,87.5C 410.541,85.0087 411.374,85.0087 412,87.5C 412.791,86.255 413.291,84.9217 413.5,83.5C 414.884,88.9438 415.55,94.6105 415.5,100.5C 413.266,100.62 411.099,100.287 409,99.5C 403.458,96.4805 397.625,94.1471 391.5,92.5C 385.177,94.1598 379.177,96.6598 373.5,100C 371.866,100.494 370.199,100.66 368.5,100.5C 368.128,94.57 368.795,88.9033 370.5,83.5 Z"/></g>
<g><path style="opacity:1" fill="#f5910f" d="M 522.5,71.5 C 521.496,72.6828 520.662,74.0161 520,75.5C 519.781,83.8323 519.948,92.1656 520.5,100.5C 518.801,100.66 517.134,100.494 515.5,100C 509.37,96.9334 503.037,94.4334 496.5,92.5C 490.401,94.7013 484.401,97.2013 478.5,100C 474.518,101.187 472.851,99.6874 473.5,95.5C 474.167,90.5 474.833,85.5 475.5,80.5C 475.558,77.922 474.891,75.5887 473.5,73.5C 475.598,72.0857 476.598,72.7524 476.5,75.5C 476.201,77.604 476.534,79.604 477.5,81.5C 477.833,80.8333 478.167,80.1667 478.5,79.5C 484.118,80.1451 489.785,80.4785 495.5,80.5C 501.341,80.453 507.008,79.7863 512.5,78.5C 513.298,80.0777 513.798,81.7444 514,83.5C 514.339,80.964 514.839,78.464 515.5,76C 517.783,74.3821 519.283,72.2154 520,69.5C 520.708,70.3805 521.542,71.0472 522.5,71.5 Z"/></g>
<g><path style="opacity:1" fill="#f48e0f" d="M 580.5,84.5 C 581.222,84.9175 581.722,85.5842 582,86.5C 595.624,86.4645 609.458,86.4645 623.5,86.5C 623.351,87.552 623.517,88.552 624,89.5C 624.494,87.8659 624.66,86.1992 624.5,84.5C 625.377,88.3224 626.044,92.3224 626.5,96.5C 626.202,100.226 624.202,101.393 620.5,100C 614.718,96.5247 608.551,94.0247 602,92.5C 594.626,95.6077 587.126,98.2744 579.5,100.5C 579.392,95.1301 579.725,89.7968 580.5,84.5 Z"/></g>
<g><path style="opacity:1" fill="#fcbe0f" d="M 34.5,68.5 C 33.1721,72.1486 31.8388,75.8153 30.5,79.5C 30.6762,82.2252 32.0095,83.8919 34.5,84.5C 40.979,85.4907 47.6457,85.824 54.5,85.5C 54.1936,88.3854 54.5269,91.0521 55.5,93.5C 55.5743,95.4109 56.5743,96.5776 58.5,97C 61.6363,98.0405 64.1363,97.2072 66,94.5C 66.498,91.5184 66.6646,88.5184 66.5,85.5C 68.3084,85.5086 69.9751,85.0086 71.5,84C 74.9227,78.8675 73.5894,75.7008 67.5,74.5C 67.5,72.5 67.5,70.5 67.5,68.5C 78.1667,68.5 88.8333,68.5 99.5,68.5C 99.1818,73.0323 99.5151,77.3656 100.5,81.5C 101.415,89.4797 105.749,94.6464 113.5,97C 126.212,99.321 134.546,94.4877 138.5,82.5C 139.486,78.03 139.819,73.3633 139.5,68.5C 164.5,68.5 189.5,68.5 214.5,68.5C 214.5,68.8333 214.5,69.1667 214.5,69.5C 205.167,79.1667 195.833,88.8333 186.5,98.5C 183.185,99.4161 180.685,101.416 179,104.5C 178.316,103.216 178.483,102.049 179.5,101C 178.552,100.517 177.552,100.351 176.5,100.5C 176.657,101.873 176.49,103.207 176,104.5C 160.07,102.689 143.903,101.855 127.5,102C 123.639,101.431 123.639,100.598 127.5,99.5C 124.787,98.0521 122.787,98.7188 121.5,101.5C 122.729,102.281 124.062,102.781 125.5,103C 125,103.5 124.5,104 124,104.5C 121,103.167 118,103.167 115,104.5C 114.5,104 114,103.5 113.5,103C 114.938,102.781 116.271,102.281 117.5,101.5C 116.009,99.9884 114.176,98.9884 112,98.5C 111.833,98.8333 111.667,99.1667 111.5,99.5C 112.376,100.251 113.376,100.751 114.5,101C 107.695,101.751 101.029,102.918 94.5,104.5C 94.0024,103.397 93.6691,102.397 93.5,101.5C 92.7492,102.376 92.2492,103.376 92,104.5C 91.3333,103.167 90.6667,103.167 90,104.5C 90.1639,100.85 88.9972,100.017 86.5,102C 87.9561,102.423 88.4561,103.256 88,104.5C 85.3333,103.167 82.6667,103.167 80,104.5C 77.2751,102.242 74.2751,101.909 71,103.5C 69.324,102.939 67.9906,101.939 67,100.5C 65.5589,101.26 64.0589,101.926 62.5,102.5C 44.2348,102.4 25.9015,102.4 7.5,102.5C 7.32324,95.8656 6.82324,95.8656 6,102.5C 5.66667,101.167 5.33333,99.8333 5,98.5C 3.81382,105.398 2.81382,105.732 2,99.5C 1.82129,103.025 1.32129,106.359 0.5,109.5C 0.333428,95.496 0.500094,81.496 1,67.5C 12.0854,68.4874 23.252,68.8207 34.5,68.5 Z"/></g>
<g><path style="opacity:1" fill="#66511a" d="M 34.5,84.5 C 41.5,84.5 48.5,84.5 55.5,84.5C 55.5,87.5 55.5,90.5 55.5,93.5C 54.5269,91.0521 54.1936,88.3854 54.5,85.5C 47.6457,85.824 40.979,85.4907 34.5,84.5 Z"/></g>
<g><path style="opacity:1" fill="#fbc00f" d="M 126.5,81.5 C 124.447,87.4841 120.447,88.9841 114.5,86C 112.963,84.8904 112.297,83.3904 112.5,81.5C 112.5,77.1667 112.5,72.8333 112.5,68.5C 117.167,68.5 121.833,68.5 126.5,68.5C 126.5,72.8333 126.5,77.1667 126.5,81.5 Z"/></g>
<g><path style="opacity:1" fill="#242321" d="M 82.5,84.5 C 88.7264,83.9094 91.893,86.5761 92,92.5C 89.0509,97.6899 85.0509,98.6899 80,95.5C 77.5997,90.9898 78.433,87.3231 82.5,84.5 Z"/></g>
<g><path style="opacity:1" fill="#fdb80f" d="M 186.5,98.5 C 180.864,105.471 174.864,112.137 168.5,118.5C 167.069,118.119 166.236,117.119 166,115.5C 165.5,116 165,116.5 164.5,117C 112.168,117.5 59.8344,117.667 7.5,117.5C 7.64945,116.448 7.48278,115.448 7,114.5C 6.18717,122.167 5.5205,121.834 5,113.5C 4.37724,117.932 3.37724,118.265 2,114.5C 1.50034,121.826 1.33368,129.159 1.5,136.5C 1.16667,136.5 0.833333,136.5 0.5,136.5C 0.5,127.5 0.5,118.5 0.5,109.5C 1.32129,106.359 1.82129,103.025 2,99.5C 2.81382,105.732 3.81382,105.398 5,98.5C 5.33333,99.8333 5.66667,101.167 6,102.5C 6.82324,95.8656 7.32324,95.8656 7.5,102.5C 25.9015,102.4 44.2348,102.4 62.5,102.5C 64.0589,101.926 65.5589,101.26 67,100.5C 67.9906,101.939 69.324,102.939 71,103.5C 74.2751,101.909 77.2751,102.242 80,104.5C 82.6667,103.167 85.3333,103.167 88,104.5C 88.4561,103.256 87.9561,102.423 86.5,102C 88.9972,100.017 90.1639,100.85 90,104.5C 90.6667,103.167 91.3333,103.167 92,104.5C 92.2492,103.376 92.7492,102.376 93.5,101.5C 93.6691,102.397 94.0024,103.397 94.5,104.5C 101.029,102.918 107.695,101.751 114.5,101C 113.376,100.751 112.376,100.251 111.5,99.5C 111.667,99.1667 111.833,98.8333 112,98.5C 114.176,98.9884 116.009,99.9884 117.5,101.5C 116.271,102.281 114.938,102.781 113.5,103C 114,103.5 114.5,104 115,104.5C 118,103.167 121,103.167 124,104.5C 124.5,104 125,103.5 125.5,103C 124.062,102.781 122.729,102.281 121.5,101.5C 122.787,98.7188 124.787,98.0521 127.5,99.5C 123.639,100.598 123.639,101.431 127.5,102C 143.903,101.855 160.07,102.689 176,104.5C 176.49,103.207 176.657,101.873 176.5,100.5C 177.552,100.351 178.552,100.517 179.5,101C 178.483,102.049 178.316,103.216 179,104.5C 180.685,101.416 183.185,99.4161 186.5,98.5 Z"/></g>
<g><path style="opacity:1" fill="#fcb00f" d="M 168.5,118.5 C 164.79,122.208 161.457,126.208 158.5,130.5C 156.167,132.167 154.167,134.167 152.5,136.5C 102.167,136.5 51.8333,136.5 1.5,136.5C 1.33368,129.159 1.50034,121.826 2,114.5C 3.37724,118.265 4.37724,117.932 5,113.5C 5.5205,121.834 6.18717,122.167 7,114.5C 7.48278,115.448 7.64945,116.448 7.5,117.5C 59.8344,117.667 112.168,117.5 164.5,117C 165,116.5 165.5,116 166,115.5C 166.236,117.119 167.069,118.119 168.5,118.5 Z"/></g>
</svg>
