<?xml version="1.0" encoding="UTF-8"?>
<!DOCTYPE svg PUBLIC "-//W3C//DTD SVG 1.1//EN" "http://www.w3.org/Graphics/SVG/1.1/DTD/svg11.dtd">
<svg xmlns="http://www.w3.org/2000/svg" version="1.1" width="814px" height="137px" style="shape-rendering:geometricPrecision; text-rendering:geometricPrecision; image-rendering:optimizeQuality; fill-rule:evenodd; clip-rule:evenodd" xmlns:xlink="http://www.w3.org/1999/xlink">
<g><path style="opacity:1" fill="#ffce61" d="M -0.5,-0.5 C 50.1667,-0.5 100.833,-0.5 151.5,-0.5C 151.833,0.166667 152.167,0.833333 152.5,1.5C 102.167,1.5 51.8333,1.5 1.5,1.5C 1.5,9.16667 1.5,16.8333 1.5,24.5C 1.5,30.5 1.5,36.5 1.5,42.5C 1.5,51.5 1.5,60.5 1.5,69.5C 1.5,79.5 1.5,89.5 1.5,99.5C 1.5,104.833 1.5,110.167 1.5,115.5C 1.5,122.5 1.5,129.5 1.5,136.5C 0.833333,136.5 0.166667,136.5 -0.5,136.5C -0.5,90.8333 -0.5,45.1667 -0.5,-0.5 Z"/></g>
<g><path style="opacity:1" fill="#fefefe" d="M 151.5,-0.5 C 372.167,-0.5 592.833,-0.5 813.5,-0.5C 813.5,22.1667 813.5,44.8333 813.5,67.5C 794.494,47.8274 775.828,27.8274 757.5,7.5C 757.082,6.77842 756.416,6.27842 755.5,6C 556.167,5.5 356.834,5.33333 157.5,5.5C 155.833,4.16667 154.167,2.83333 152.5,1.5C 152.167,0.833333 151.833,0.166667 151.5,-0.5 Z"/></g>
<g><path style="opacity:1" fill="#666362" d="M 157.5,5.5 C 356.834,5.33333 556.167,5.5 755.5,6C 756.416,6.27842 757.082,6.77842 757.5,7.5C 557.999,7.16695 358.666,7.50028 159.5,8.5C 158.599,7.70951 157.932,6.70951 157.5,5.5 Z"/></g>
<g><path style="opacity:1" fill="#fdb90f" d="M 152.5,1.5 C 154.167,2.83333 155.833,4.16667 157.5,5.5C 157.932,6.70951 158.599,7.70951 159.5,8.5C 162.878,11.8761 165.878,15.5428 168.5,19.5C 167.876,21.8486 167.543,24.1819 167.5,26.5C 113.837,27.4999 60.1708,27.8333 6.5,27.5C 6.64945,28.552 6.48278,29.552 6,30.5C 5.66667,28.1667 5.33333,25.8333 5,23.5C 4.37695,28.2347 3.21028,28.568 1.5,24.5C 1.5,16.8333 1.5,9.16667 1.5,1.5C 51.8333,1.5 102.167,1.5 152.5,1.5 Z"/></g>
<g><path style="opacity:1" fill="#262626" d="M 757.5,7.5 C 775.828,27.8274 794.494,47.8274 813.5,67.5C 813.5,68.8333 813.5,70.1667 813.5,71.5C 813.167,71.5 812.833,71.5 812.5,71.5C 812.585,70.0047 811.919,69.0047 810.5,68.5C 787.711,68.1946 764.878,68.5279 742,69.5C 741.333,66.8333 740.667,66.8333 740,69.5C 739.583,68.244 738.75,67.5774 737.5,67.5C 739.461,65.0365 741.628,62.7032 744,60.5C 744.667,59.5 744.667,58.5 744,57.5C 736.476,55.4107 728.976,53.244 721.5,51C 717.041,45.253 713.207,39.0863 710,32.5C 708.062,31.1398 706.396,31.4732 705,33.5C 701.877,39.5819 698.377,45.4153 694.5,51C 687.259,53.1523 679.925,54.9856 672.5,56.5C 671.386,57.723 671.219,59.0563 672,60.5C 673.842,62.8636 675.675,65.1969 677.5,67.5C 676.778,67.9175 676.278,68.5842 676,69.5C 675.667,68.8333 675.333,68.1667 675,67.5C 669.019,68.1132 662.686,68.4465 656,68.5C 650.089,68.4746 644.422,67.8079 639,66.5C 638,69.1667 637,69.1667 636,66.5C 635.667,67.5 635.333,68.5 635,69.5C 634.768,68.2625 634.268,67.2625 633.5,66.5C 635.127,64.3702 636.96,62.3702 639,60.5C 639.667,59.5 639.667,58.5 639,57.5C 631.532,55.337 624.032,53.1703 616.5,51C 611.54,45.589 607.706,39.4223 605,32.5C 603.333,31.1667 601.667,31.1667 600,32.5C 597.013,39.8072 592.847,46.3072 587.5,52C 580.077,53.2601 572.91,55.0934 566,57.5C 566.044,59.2785 566.711,60.9452 568,62.5C 570.04,64.3702 571.873,66.3702 573.5,68.5C 558.012,68.4439 542.345,68.4439 526.5,68.5C 528.833,65.9974 530.999,63.3307 533,60.5C 533.49,59.2068 533.657,57.8734 533.5,56.5C 527.152,55.4403 520.819,54.2736 514.5,53C 512.833,52 511.167,51 509.5,50C 506.04,44.2481 502.707,38.4147 499.5,32.5C 497.994,31.2528 496.494,31.2528 495,32.5C 491.793,39.0863 487.959,45.253 483.5,51C 476.28,53.1538 468.947,54.9872 461.5,56.5C 460.386,57.723 460.219,59.0563 461,60.5C 464.038,63.3694 466.871,66.3694 469.5,69.5C 454.081,68.4402 438.415,68.2735 422.5,69C 420.91,71.7932 418.577,73.6266 415.5,74.5C 417.833,71.8333 420.167,69.1667 422.5,66.5C 424.127,64.3702 425.96,62.3702 428,60.5C 428.711,58.6332 428.211,57.1332 426.5,56C 419.28,55.0908 412.28,53.4241 405.5,51C 401.041,45.253 397.207,39.0863 394,32.5C 392.062,31.1398 390.396,31.4732 389,33.5C 385.877,39.5819 382.377,45.4153 378.5,51C 372.892,52.82 367.225,54.32 361.5,55.5C 358.677,55.0254 356.677,56.0254 355.5,58.5C 357.248,61.6615 359.248,64.6615 361.5,67.5C 347.431,68.1745 333.265,68.8412 319,69.5C 318.586,69.0426 318.086,68.7093 317.5,68.5C 315.929,70.3449 315.095,72.3449 315,74.5C 314.667,73.8333 314.333,73.1667 314,72.5C 313.329,73.2524 312.496,73.5858 311.5,73.5C 315.302,68.5289 319.302,63.6955 323.5,59C 323.18,57.3468 322.18,56.3468 320.5,56C 316.486,55.1626 312.486,54.3292 308.5,53.5C 303.771,53.2187 299.937,51.2187 297,47.5C 294.588,42.3413 291.921,37.3413 289,32.5C 287.333,31.1667 285.667,31.1667 284,32.5C 280.706,39.594 276.54,46.094 271.5,52C 264.361,53.1605 257.361,54.8272 250.5,57C 249.289,60.0101 250.289,62.1767 253.5,63.5C 256.529,66.859 259.529,70.1924 262.5,73.5C 262.5,73.8333 262.5,74.1667 262.5,74.5C 260.669,73.9478 259.003,73.9478 257.5,74.5C 256.41,73.6086 256.41,72.6086 257.5,71.5C 257.023,70.5224 256.357,69.6891 255.5,69C 248.833,68.8333 242.167,68.6667 235.5,68.5C 228.264,68.5372 221.264,69.2038 214.5,70.5C 214.5,70.1667 214.5,69.8333 214.5,69.5C 207.173,60.8406 199.507,52.5072 191.5,44.5C 184.173,35.8406 176.507,27.5072 168.5,19.5C 165.878,15.5428 162.878,11.8761 159.5,8.5C 358.666,7.50028 557.999,7.16695 757.5,7.5 Z"/></g>
<g><path style="opacity:1" fill="#fbb10f" d="M 168.5,19.5 C 176.507,27.5072 184.173,35.8406 191.5,44.5C 175.093,43.8573 158.927,44.5239 143,46.5C 142.581,45.3279 141.915,44.3279 141,43.5C 139.644,44.3802 138.144,44.7135 136.5,44.5C 125.065,34.0363 113.732,34.0363 102.5,44.5C 101.103,44.2048 99.6033,43.8714 98,43.5C 97.0853,44.3279 96.4186,45.3279 96,46.5C 87.0988,44.5445 77.9321,43.8778 68.5,44.5C 58.2301,35.2757 46.8968,34.1091 34.5,41C 33.1772,41.8159 32.5106,42.9826 32.5,44.5C 24.16,44.3336 15.8267,44.5003 7.5,45C 6.97473,45.6924 6.30806,46.1924 5.5,46.5C 4.16003,45.1335 2.82669,43.8001 1.5,42.5C 1.5,36.5 1.5,30.5 1.5,24.5C 3.21028,28.568 4.37695,28.2347 5,23.5C 5.33333,25.8333 5.66667,28.1667 6,30.5C 6.48278,29.552 6.64945,28.552 6.5,27.5C 60.1708,27.8333 113.837,27.4999 167.5,26.5C 167.543,24.1819 167.876,21.8486 168.5,19.5 Z"/></g>
<g><path style="opacity:1" fill="#585858" d="M 633.5,66.5 C 629.973,69.2044 627.14,72.5377 625,76.5C 624.736,83.702 625.236,90.8687 626.5,98C 626.233,101.164 624.567,102.164 621.5,101C 615.48,97.6064 609.146,95.1064 602.5,93.5C 594.718,95.8934 587.052,98.5601 579.5,101.5C 580.001,92.8302 580.167,84.1635 580,75.5C 578.334,72.6688 576.168,70.3355 573.5,68.5C 571.873,66.3702 570.04,64.3702 568,62.5C 566.711,60.9452 566.044,59.2785 566,57.5C 572.91,55.0934 580.077,53.2601 587.5,52C 592.847,46.3072 597.013,39.8072 600,32.5C 601.667,31.1667 603.333,31.1667 605,32.5C 607.706,39.4223 611.54,45.589 616.5,51C 624.032,53.1703 631.532,55.337 639,57.5C 639.667,58.5 639.667,59.5 639,60.5C 636.96,62.3702 635.127,64.3702 633.5,66.5 Z"/></g>
<g><path style="opacity:1" fill="#585858" d="M 737.5,67.5 C 734.479,70.3664 731.979,73.6997 730,77.5C 730.055,84.1664 730.555,90.833 731.5,97.5C 731.43,98.7716 731.097,99.9383 730.5,101C 722.904,98.5488 715.237,96.0488 707.5,93.5C 699.824,96.1697 692.157,98.8364 684.5,101.5C 685.335,93.5001 685.835,85.5001 686,77.5C 684.052,73.3875 681.219,70.0541 677.5,67.5C 675.675,65.1969 673.842,62.8636 672,60.5C 671.219,59.0563 671.386,57.723 672.5,56.5C 679.925,54.9856 687.259,53.1523 694.5,51C 698.377,45.4153 701.877,39.5819 705,33.5C 706.396,31.4732 708.062,31.1398 710,32.5C 713.207,39.0863 717.041,45.253 721.5,51C 728.976,53.244 736.476,55.4107 744,57.5C 744.667,58.5 744.667,59.5 744,60.5C 741.628,62.7032 739.461,65.0365 737.5,67.5 Z"/></g>
<g><path style="opacity:1" fill="#585858" d="M 526.5,68.5 C 523.111,70.7252 520.611,73.7252 519,77.5C 519.82,85.4423 520.32,93.4423 520.5,101.5C 512.736,98.7451 504.903,96.0784 497,93.5C 490.455,95.021 484.288,97.521 478.5,101C 475.182,101.833 473.515,100.499 473.5,97C 474.605,90.1877 475.105,83.3543 475,76.5C 473.334,74.0043 471.5,71.671 469.5,69.5C 466.871,66.3694 464.038,63.3694 461,60.5C 460.219,59.0563 460.386,57.723 461.5,56.5C 468.947,54.9872 476.28,53.1538 483.5,51C 487.959,45.253 491.793,39.0863 495,32.5C 496.494,31.2528 497.994,31.2528 499.5,32.5C 502.707,38.4147 506.04,44.2481 509.5,50C 511.167,51 512.833,52 514.5,53C 520.819,54.2736 527.152,55.4403 533.5,56.5C 533.657,57.8734 533.49,59.2068 533,60.5C 530.999,63.3307 528.833,65.9974 526.5,68.5 Z"/></g>
<g><path style="opacity:1" fill="#222221" d="M 136.5,44.5 C 136.709,45.9217 137.209,47.255 138,48.5C 138.5,60.1619 138.667,71.8286 138.5,83.5C 136.035,93.2902 129.701,98.2902 119.5,98.5C 109.299,98.2902 102.965,93.2902 100.5,83.5C 100.333,71.8286 100.5,60.1619 101,48.5C 101.791,47.255 102.291,45.9217 102.5,44.5C 113.732,34.0363 125.065,34.0363 136.5,44.5 Z"/></g>
<g><path style="opacity:1" fill="#fab20f" d="M 308.5,53.5 C 310.542,55.8297 313.208,56.9964 316.5,57C 315.167,57.6667 313.833,58.3333 312.5,59C 313.167,59.3333 313.833,59.6667 314.5,60C 313.333,60.5 312.5,61.3333 312,62.5C 295.907,61.3425 279.741,61.1758 263.5,62C 261.863,63.951 260.363,63.7843 259,61.5C 259.783,63.3454 260.116,65.3454 260,67.5C 258.967,64.9673 257.133,63.3006 254.5,62.5C 253.893,62.6236 253.56,62.9569 253.5,63.5C 250.289,62.1767 249.289,60.0101 250.5,57C 257.361,54.8272 264.361,53.1605 271.5,52C 276.54,46.094 280.706,39.594 284,32.5C 285.667,31.1667 287.333,31.1667 289,32.5C 291.921,37.3413 294.588,42.3413 297,47.5C 299.937,51.2187 303.771,53.2187 308.5,53.5 Z"/></g>
<g><path style="opacity:1" fill="#fab20f" d="M 422.5,66.5 C 420.559,65.5637 418.892,64.2303 417.5,62.5C 408.833,62.1667 400.167,61.8333 391.5,61.5C 382.338,61.5278 373.338,62.1945 364.5,63.5C 363.197,62.2822 362.197,62.6155 361.5,64.5C 360.34,62.9275 359.34,61.2608 358.5,59.5C 358.833,58.8333 359.167,58.1667 359.5,57.5C 362.202,58.7978 362.869,58.1312 361.5,55.5C 367.225,54.32 372.892,52.82 378.5,51C 382.377,45.4153 385.877,39.5819 389,33.5C 390.396,31.4732 392.062,31.1398 394,32.5C 397.207,39.0863 401.041,45.253 405.5,51C 412.28,53.4241 419.28,55.0908 426.5,56C 428.211,57.1332 428.711,58.6332 428,60.5C 425.96,62.3702 424.127,64.3702 422.5,66.5 Z"/></g>
<g><path style="opacity:1" fill="#232221" d="M 68.5,44.5 C 72.0638,53.6571 70.7305,61.9904 64.5,69.5C 58.6007,74.6109 52.934,79.9442 47.5,85.5C 46.9569,85.56 46.6236,85.8933 46.5,86.5C 53.1335,87.4967 59.8002,87.83 66.5,87.5C 70.4606,88.8844 71.4606,91.5511 69.5,95.5C 68.624,96.2508 67.624,96.7508 66.5,97C 55.8333,97.6667 45.1667,97.6667 34.5,97C 31.7104,94.7897 30.877,91.9563 32,88.5C 35.969,81.7087 40.8023,75.7087 46.5,70.5C 50.1309,67.3707 53.6309,64.0374 57,60.5C 60.7931,52.519 58.4597,47.8523 50,46.5C 46.5906,46.9524 43.424,48.119 40.5,50C 35.7897,51.1214 33.123,49.2881 32.5,44.5C 32.5106,42.9826 33.1772,41.8159 34.5,41C 46.8968,34.1091 58.2301,35.2757 68.5,44.5 Z"/></g>
<g><path style="opacity:1" fill="#f6a410" d="M 102.5,44.5 C 102.291,45.9217 101.791,47.255 101,48.5C 100.5,60.1619 100.333,71.8286 100.5,83.5C 99.5139,79.03 99.1805,74.3633 99.5,69.5C 87.8333,69.5 76.1667,69.5 64.5,69.5C 70.7305,61.9904 72.0638,53.6571 68.5,44.5C 77.9321,43.8778 87.0988,44.5445 96,46.5C 96.4186,45.3279 97.0853,44.3279 98,43.5C 99.6033,43.8714 101.103,44.2048 102.5,44.5 Z"/></g>
<g><path style="opacity:1" fill="#f8a60f" d="M 191.5,44.5 C 199.507,52.5072 207.173,60.8406 214.5,69.5C 189.5,69.5 164.5,69.5 139.5,69.5C 139.819,74.3633 139.486,79.03 138.5,83.5C 138.667,71.8286 138.5,60.1619 138,48.5C 137.209,47.255 136.709,45.9217 136.5,44.5C 138.144,44.7135 139.644,44.3802 141,43.5C 141.915,44.3279 142.581,45.3279 143,46.5C 158.927,44.5239 175.093,43.8573 191.5,44.5 Z"/></g>
<g><path style="opacity:1" fill="#faa70f" d="M 1.5,42.5 C 2.82669,43.8001 4.16003,45.1335 5.5,46.5C 6.30806,46.1924 6.97473,45.6924 7.5,45C 15.8267,44.5003 24.16,44.3336 32.5,44.5C 33.123,49.2881 35.7897,51.1214 40.5,50C 43.424,48.119 46.5906,46.9524 50,46.5C 58.4597,47.8523 60.7931,52.519 57,60.5C 53.6309,64.0374 50.1309,67.3707 46.5,70.5C 31.676,69.5039 16.676,69.1706 1.5,69.5C 1.5,60.5 1.5,51.5 1.5,42.5 Z"/></g>
<g><path style="opacity:1" fill="#f0a211" d="M 126.5,82.5 C 126.5,78.1667 126.5,73.8333 126.5,69.5C 121.833,69.5 117.167,69.5 112.5,69.5C 112.5,73.8333 112.5,78.1667 112.5,82.5C 111.341,72.3416 111.175,62.0083 112,51.5C 117,44.8333 122,44.8333 127,51.5C 127.825,62.0083 127.659,72.3416 126.5,82.5 Z"/></g>
<g><path style="opacity:1" fill="#212121" d="M 633.5,66.5 C 634.268,67.2625 634.768,68.2625 635,69.5C 635.333,68.5 635.667,67.5 636,66.5C 637,69.1667 638,69.1667 639,66.5C 644.422,67.8079 650.089,68.4746 656,68.5C 662.686,68.4465 669.019,68.1132 675,67.5C 675.333,68.1667 675.667,68.8333 676,69.5C 676.278,68.5842 676.778,67.9175 677.5,67.5C 681.219,70.0541 684.052,73.3875 686,77.5C 685.835,85.5001 685.335,93.5001 684.5,101.5C 692.157,98.8364 699.824,96.1697 707.5,93.5C 715.237,96.0488 722.904,98.5488 730.5,101C 731.097,99.9383 731.43,98.7716 731.5,97.5C 730.555,90.833 730.055,84.1664 730,77.5C 731.979,73.6997 734.479,70.3664 737.5,67.5C 738.75,67.5774 739.583,68.244 740,69.5C 740.667,66.8333 741.333,66.8333 742,69.5C 764.878,68.5279 787.711,68.1946 810.5,68.5C 811.919,69.0047 812.585,70.0047 812.5,71.5C 794.039,91.7968 775.372,111.963 756.5,132C 556.834,132.5 357.167,132.667 157.5,132.5C 161.126,127.539 165.126,122.872 169.5,118.5C 174.139,113.526 178.805,108.526 183.5,103.5C 193.495,92.172 203.828,81.172 214.5,70.5C 221.264,69.2038 228.264,68.5372 235.5,68.5C 242.167,68.6667 248.833,68.8333 255.5,69C 256.357,69.6891 257.023,70.5224 257.5,71.5C 256.41,72.6086 256.41,73.6086 257.5,74.5C 259.003,73.9478 260.669,73.9478 262.5,74.5C 264.104,75.287 264.771,76.6203 264.5,78.5C 263.93,86.154 263.596,93.8207 263.5,101.5C 271.052,98.5601 278.718,95.8934 286.5,93.5C 293.146,95.1064 299.48,97.6064 305.5,101C 309.229,102.272 310.896,100.939 310.5,97C 309.954,92.4597 309.287,87.9597 308.5,83.5C 308.264,80.3915 308.597,77.3915 309.5,74.5C 310.167,74.1667 310.833,73.8333 311.5,73.5C 312.496,73.5858 313.329,73.2524 314,72.5C 314.333,73.1667 314.667,73.8333 315,74.5C 315.095,72.3449 315.929,70.3449 317.5,68.5C 318.086,68.7093 318.586,69.0426 319,69.5C 333.265,68.8412 347.431,68.1745 361.5,67.5C 365.605,70.2705 368.605,73.9372 370.5,78.5C 369.592,85.8273 369.092,93.1606 369,100.5C 369.561,101.022 370.228,101.355 371,101.5C 377.705,98.3936 384.538,95.7269 391.5,93.5C 399.237,96.0488 406.904,98.5488 414.5,101C 415.393,94.1699 415.06,87.3366 413.5,80.5C 413.604,78.2972 414.27,76.2972 415.5,74.5C 418.577,73.6266 420.91,71.7932 422.5,69C 438.415,68.2735 454.081,68.4402 469.5,69.5C 471.5,71.671 473.334,74.0043 475,76.5C 475.105,83.3543 474.605,90.1877 473.5,97C 473.515,100.499 475.182,101.833 478.5,101C 484.288,97.521 490.455,95.021 497,93.5C 504.903,96.0784 512.736,98.7451 520.5,101.5C 520.32,93.4423 519.82,85.4423 519,77.5C 520.611,73.7252 523.111,70.7252 526.5,68.5C 542.345,68.4439 558.012,68.4439 573.5,68.5C 576.168,70.3355 578.334,72.6688 580,75.5C 580.167,84.1635 580.001,92.8302 579.5,101.5C 587.052,98.5601 594.718,95.8934 602.5,93.5C 609.146,95.1064 615.48,97.6064 621.5,101C 624.567,102.164 626.233,101.164 626.5,98C 625.236,90.8687 624.736,83.702 625,76.5C 627.14,72.5377 629.973,69.2044 633.5,66.5 Z"/></g>
<g><path style="opacity:1" fill="#faa70f" d="M 308.5,53.5 C 312.486,54.3292 316.486,55.1626 320.5,56C 322.18,56.3468 323.18,57.3468 323.5,59C 319.302,63.6955 315.302,68.5289 311.5,73.5C 310.833,73.8333 310.167,74.1667 309.5,74.5C 308.069,74.8807 307.236,75.8807 307,77.5C 292.277,76.0865 277.443,74.7532 262.5,73.5C 259.529,70.1924 256.529,66.859 253.5,63.5C 253.56,62.9569 253.893,62.6236 254.5,62.5C 257.133,63.3006 258.967,64.9673 260,67.5C 260.116,65.3454 259.783,63.3454 259,61.5C 260.363,63.7843 261.863,63.951 263.5,62C 279.741,61.1758 295.907,61.3425 312,62.5C 312.5,61.3333 313.333,60.5 314.5,60C 313.833,59.6667 313.167,59.3333 312.5,59C 313.833,58.3333 315.167,57.6667 316.5,57C 313.208,56.9964 310.542,55.8297 308.5,53.5 Z"/></g>
<g><path style="opacity:1" fill="#faa50f" d="M 361.5,55.5 C 362.869,58.1312 362.202,58.7978 359.5,57.5C 359.167,58.1667 358.833,58.8333 358.5,59.5C 359.34,61.2608 360.34,62.9275 361.5,64.5C 362.197,62.6155 363.197,62.2822 364.5,63.5C 373.338,62.1945 382.338,61.5278 391.5,61.5C 400.167,61.8333 408.833,62.1667 417.5,62.5C 418.892,64.2303 420.559,65.5637 422.5,66.5C 420.167,69.1667 417.833,71.8333 415.5,74.5C 414.27,76.2972 413.604,78.2972 413.5,80.5C 412.21,81.0577 411.377,82.0577 411,83.5C 410.517,82.552 410.351,81.552 410.5,80.5C 397.144,79.9562 384.311,80.6229 372,82.5C 371.79,80.9419 371.29,79.6085 370.5,78.5C 368.605,73.9372 365.605,70.2705 361.5,67.5C 359.248,64.6615 357.248,61.6615 355.5,58.5C 356.677,56.0254 358.677,55.0254 361.5,55.5 Z"/></g>
<g><path style="opacity:1" fill="#fefefe" d="M 812.5,71.5 C 812.833,71.5 813.167,71.5 813.5,71.5C 813.5,93.1667 813.5,114.833 813.5,136.5C 593.5,136.5 373.5,136.5 153.5,136.5C 154.833,135.167 156.167,133.833 157.5,132.5C 357.167,132.667 556.834,132.5 756.5,132C 775.372,111.963 794.039,91.7968 812.5,71.5 Z"/></g>
<g><path style="opacity:1" fill="#fdbe0f" d="M 1.5,69.5 C 16.676,69.1706 31.676,69.5039 46.5,70.5C 40.8023,75.7087 35.969,81.7087 32,88.5C 30.877,91.9563 31.7104,94.7897 34.5,97C 45.1667,97.6667 55.8333,97.6667 66.5,97C 67.624,96.7508 68.624,96.2508 69.5,95.5C 71.4606,91.5511 70.4606,88.8844 66.5,87.5C 60.1667,86.8333 53.8333,86.1667 47.5,85.5C 52.934,79.9442 58.6007,74.6109 64.5,69.5C 76.1667,69.5 87.8333,69.5 99.5,69.5C 99.1805,74.3633 99.5139,79.03 100.5,83.5C 102.965,93.2902 109.299,98.2902 119.5,98.5C 129.701,98.2902 136.035,93.2902 138.5,83.5C 139.486,79.03 139.819,74.3633 139.5,69.5C 164.5,69.5 189.5,69.5 214.5,69.5C 214.5,69.8333 214.5,70.1667 214.5,70.5C 203.828,81.172 193.495,92.172 183.5,103.5C 181.771,102.883 180.271,101.883 179,100.5C 178.167,101.333 177.333,102.167 176.5,103C 120.168,103.5 63.8343,103.667 7.5,103.5C 7.31784,98.2063 6.81784,98.2063 6,103.5C 5.66667,102.167 5.33333,100.833 5,99.5C 3.5107,106.127 2.34404,106.127 1.5,99.5C 1.5,89.5 1.5,79.5 1.5,69.5 Z"/></g>
<g><path style="opacity:1" fill="#fdc110" d="M 126.5,82.5 C 125.578,86.0833 123.244,87.7499 119.5,87.5C 115.756,87.7499 113.422,86.0833 112.5,82.5C 112.5,78.1667 112.5,73.8333 112.5,69.5C 117.167,69.5 121.833,69.5 126.5,69.5C 126.5,73.8333 126.5,78.1667 126.5,82.5 Z"/></g>
<g><path style="opacity:1" fill="#f99b0f" d="M 262.5,74.5 C 262.5,74.1667 262.5,73.8333 262.5,73.5C 277.443,74.7532 292.277,76.0865 307,77.5C 307.236,75.8807 308.069,74.8807 309.5,74.5C 308.597,77.3915 308.264,80.3915 308.5,83.5C 307.628,85.5632 306.462,87.5632 305,89.5C 304.667,88.5 304.333,87.5 304,86.5C 292.667,87.1667 281.333,87.8333 270,88.5C 268.883,87.0506 268.216,85.3839 268,83.5C 267.333,84.8333 266.667,86.1667 266,87.5C 265.819,84.3054 265.319,81.3054 264.5,78.5C 264.771,76.6203 264.104,75.287 262.5,74.5 Z"/></g>
<g><path style="opacity:1" fill="#8d6f18" d="M 47.5,85.5 C 53.8333,86.1667 60.1667,86.8333 66.5,87.5C 59.8002,87.83 53.1335,87.4967 46.5,86.5C 46.6236,85.8933 46.9569,85.56 47.5,85.5 Z"/></g>
<g><path style="opacity:1" fill="#f48e0f" d="M 264.5,78.5 C 265.319,81.3054 265.819,84.3054 266,87.5C 266.667,86.1667 267.333,84.8333 268,83.5C 268.216,85.3839 268.883,87.0506 270,88.5C 281.333,87.8333 292.667,87.1667 304,86.5C 304.333,87.5 304.667,88.5 305,89.5C 306.462,87.5632 307.628,85.5632 308.5,83.5C 309.287,87.9597 309.954,92.4597 310.5,97C 310.896,100.939 309.229,102.272 305.5,101C 299.48,97.6064 293.146,95.1064 286.5,93.5C 278.718,95.8934 271.052,98.5601 263.5,101.5C 263.596,93.8207 263.93,86.154 264.5,78.5 Z"/></g>
<g><path style="opacity:1" fill="#f5900f" d="M 370.5,78.5 C 371.29,79.6085 371.79,80.9419 372,82.5C 384.311,80.6229 397.144,79.9562 410.5,80.5C 410.351,81.552 410.517,82.552 411,83.5C 411.377,82.0577 412.21,81.0577 413.5,80.5C 415.06,87.3366 415.393,94.1699 414.5,101C 406.904,98.5488 399.237,96.0488 391.5,93.5C 384.538,95.7269 377.705,98.3936 371,101.5C 370.228,101.355 369.561,101.022 369,100.5C 369.092,93.1606 369.592,85.8273 370.5,78.5 Z"/></g>
<g><path style="opacity:1" fill="#252321" d="M 82.5,85.5 C 88.6793,84.858 91.8459,87.5247 92,93.5C 91.5348,94.9308 90.7014,96.0975 89.5,97C 81.6791,99.1651 78.1791,96.3318 79,88.5C 80.1451,87.3636 81.3117,86.3636 82.5,85.5 Z"/></g>
<g><path style="opacity:1" fill="#fdb80f" d="M 1.5,99.5 C 2.34404,106.127 3.5107,106.127 5,99.5C 5.33333,100.833 5.66667,102.167 6,103.5C 6.81784,98.2063 7.31784,98.2063 7.5,103.5C 63.8343,103.667 120.168,103.5 176.5,103C 177.333,102.167 178.167,101.333 179,100.5C 180.271,101.883 181.771,102.883 183.5,103.5C 178.805,108.526 174.139,113.526 169.5,118.5C 168.448,118.649 167.448,118.483 166.5,118C 165.167,117.333 165.167,116.667 166.5,116C 164.865,115.46 163.532,115.96 162.5,117.5C 161.808,116.975 161.308,116.308 161,115.5C 160.667,116.833 160.333,118.167 160,119.5C 109.238,118.503 58.4051,118.169 7.5,118.5C 7.64945,117.448 7.48278,116.448 7,115.5C 6.66667,117.167 6.33333,118.833 6,120.5C 5.66667,118.167 5.33333,115.833 5,113.5C 4.7978,115.256 4.2978,116.922 3.5,118.5C 2.82434,117.398 2.15767,116.398 1.5,115.5C 1.5,110.167 1.5,104.833 1.5,99.5 Z"/></g>
<g><path style="opacity:1" fill="#fcb00f" d="M 169.5,118.5 C 165.126,122.872 161.126,127.539 157.5,132.5C 156.167,133.833 154.833,135.167 153.5,136.5C 102.833,136.5 52.1667,136.5 1.5,136.5C 1.5,129.5 1.5,122.5 1.5,115.5C 2.15767,116.398 2.82434,117.398 3.5,118.5C 4.2978,116.922 4.7978,115.256 5,113.5C 5.33333,115.833 5.66667,118.167 6,120.5C 6.33333,118.833 6.66667,117.167 7,115.5C 7.48278,116.448 7.64945,117.448 7.5,118.5C 58.4051,118.169 109.238,118.503 160,119.5C 160.333,118.167 160.667,116.833 161,115.5C 161.308,116.308 161.808,116.975 162.5,117.5C 163.532,115.96 164.865,115.46 166.5,116C 165.167,116.667 165.167,117.333 166.5,118C 167.448,118.483 168.448,118.649 169.5,118.5 Z"/></g>
</svg>
