<?xml version="1.0" encoding="UTF-8"?>
<!DOCTYPE svg PUBLIC "-//W3C//DTD SVG 1.1//EN" "http://www.w3.org/Graphics/SVG/1.1/DTD/svg11.dtd">
<svg xmlns="http://www.w3.org/2000/svg" version="1.1" width="814px" height="137px" style="shape-rendering:geometricPrecision; text-rendering:geometricPrecision; image-rendering:optimizeQuality; fill-rule:evenodd; clip-rule:evenodd" xmlns:xlink="http://www.w3.org/1999/xlink">
<g><path style="opacity:1" fill="#fefefe" d="M 151.5,-0.5 C 372.167,-0.5 592.833,-0.5 813.5,-0.5C 813.5,22.1667 813.5,44.8333 813.5,67.5C 794.833,47.8333 776.167,28.1667 757.5,8.5C 757.423,7.25025 756.756,6.41691 755.5,6C 556.167,5.5 356.834,5.33333 157.5,5.5C 155.833,4.16667 154.167,2.83333 152.5,1.5C 152.167,0.833333 151.833,0.166667 151.5,-0.5 Z"/></g>
<g><path style="opacity:1" fill="#fdd06b" d="M -0.5,-0.5 C 50.1667,-0.5 100.833,-0.5 151.5,-0.5C 151.833,0.166667 152.167,0.833333 152.5,1.5C 102.167,1.5 51.8333,1.5 1.5,1.5C 1.5,9.5 1.5,17.5 1.5,25.5C 1.5,30.8333 1.5,36.1667 1.5,41.5C 1.5,50.8333 1.5,60.1667 1.5,69.5C 1.5,79.8333 1.5,90.1667 1.5,100.5C 1.5,105.5 1.5,110.5 1.5,115.5C 1.5,122.5 1.5,129.5 1.5,136.5C 0.833333,136.5 0.166667,136.5 -0.5,136.5C -0.5,90.8333 -0.5,45.1667 -0.5,-0.5 Z"/></g>
<g><path style="opacity:1" fill="#fdb90f" d="M 152.5,1.5 C 154.167,2.83333 155.833,4.16667 157.5,5.5C 157.833,6.16667 158.167,6.83333 158.5,7.5C 164.5,14.5 170.5,21.5 176.5,28.5C 175.624,28.3691 174.957,28.7025 174.5,29.5C 176.02,32.1553 175.52,32.8219 173,31.5C 167.844,34.3386 167.344,33.6719 171.5,29.5C 171.167,29.1667 170.833,28.8333 170.5,28.5C 116.345,28.5105 62.0113,28.5105 7.5,28.5C 7.64945,27.448 7.48278,26.448 7,25.5C 6.33333,32.1667 5.66667,32.1667 5,25.5C 3.96086,29.2229 2.79419,29.2229 1.5,25.5C 1.5,17.5 1.5,9.5 1.5,1.5C 51.8333,1.5 102.167,1.5 152.5,1.5 Z"/></g>
<g><path style="opacity:1" fill="#6e6c6a" d="M 157.5,5.5 C 356.834,5.33333 556.167,5.5 755.5,6C 756.756,6.41691 757.423,7.25025 757.5,8.5C 557.903,7.50123 358.236,7.1679 158.5,7.5C 158.167,6.83333 157.833,6.16667 157.5,5.5 Z"/></g>
<g><path style="opacity:1" fill="#262626" d="M 158.5,7.5 C 358.236,7.1679 557.903,7.50123 757.5,8.5C 776.167,28.1667 794.833,47.8333 813.5,67.5C 813.5,68.8333 813.5,70.1667 813.5,71.5C 812.833,71.8333 812.167,72.1667 811.5,72.5C 811.291,71.0783 810.791,69.745 810,68.5C 786.117,69.797 762.45,69.797 739,68.5C 738.092,70.4386 736.592,71.4386 734.5,71.5C 736.795,68.7029 739.295,66.0362 742,63.5C 743.751,61.788 744.418,59.788 744,57.5C 736.886,55.5078 729.719,53.6744 722.5,52C 717.46,46.094 713.294,39.594 710,32.5C 708.062,31.1398 706.396,31.4732 705,33.5C 702.38,39.9136 698.88,45.747 694.5,51C 687.004,53.1662 679.504,55.3328 672,57.5C 671.333,58.8333 671.333,60.1667 672,61.5C 674.372,63.7032 676.539,66.0365 678.5,68.5C 662.861,69.7947 647.527,69.7947 632.5,68.5C 634.051,65.4372 636.218,62.7705 639,60.5C 639.667,59.5 639.667,58.5 639,57.5C 631.013,55.9677 623.18,53.801 615.5,51C 611.934,45.7582 608.767,40.2582 606,34.5C 604.981,33.3128 603.814,32.3128 602.5,31.5C 597.808,37.7051 593.474,44.2051 589.5,51C 581.907,53.3158 574.241,55.4825 566.5,57.5C 565.417,58.365 565.251,59.365 566,60.5C 568.705,63.0362 571.205,65.7029 573.5,68.5C 572.504,68.4142 571.671,68.7476 571,69.5C 570.549,67.0712 569.715,66.9045 568.5,69C 562.833,69.1667 557.167,69.3333 551.5,69.5C 545.423,69.4755 539.59,68.8088 534,67.5C 533,70.1667 532,70.1667 531,67.5C 529.599,69.1922 527.766,69.8588 525.5,69.5C 527.795,66.7029 530.295,64.0362 533,61.5C 533.667,60.1667 533.667,58.8333 533,57.5C 525.912,55.4149 518.745,53.5816 511.5,52C 507.041,46.253 503.207,40.0863 500,33.5C 499.261,32.4258 498.261,31.7591 497,31.5C 493.177,36.4678 489.844,41.8011 487,47.5C 485.5,49 484,50.5 482.5,52C 475.256,53.6764 468.09,55.5098 461,57.5C 460.333,58.5 460.333,59.5 461,60.5C 463.001,63.3307 465.167,65.9974 467.5,68.5C 452.443,69.7886 437.11,69.7886 421.5,68.5C 423.833,65.9974 425.999,63.3307 428,60.5C 428.667,59.5 428.667,58.5 428,57.5C 420.79,55.9234 413.623,54.0901 406.5,52C 401.44,45.3609 396.773,38.5275 392.5,31.5C 391.508,31.3284 390.842,31.6618 390.5,32.5C 386.422,39.0953 382.089,45.5953 377.5,52C 370.18,53.4547 363.013,55.288 356,57.5C 355.333,58.8333 355.333,60.1667 356,61.5C 359.371,64.7025 362.538,68.0359 365.5,71.5C 363.806,72.686 362.139,72.5193 360.5,71C 360.833,70.6667 361.167,70.3333 361.5,70C 347.259,69.8243 333.092,69.3243 319,68.5C 317.989,69.3366 316.822,69.67 315.5,69.5C 316.6,68.3951 317.267,67.0618 317.5,65.5C 320.847,63.6887 322.68,61.022 323,57.5C 315.047,55.8121 307.214,53.6454 299.5,51C 295.901,45.738 292.735,40.238 290,34.5C 287.667,30.5 285.333,30.5 283,34.5C 280.233,40.2582 277.066,45.7582 273.5,51C 265.947,53.3781 258.281,55.3781 250.5,57C 249.084,58.9151 249.418,60.4151 251.5,61.5C 255.5,66.1667 259.5,70.8333 263.5,75.5C 261.856,75.7135 260.356,75.3802 259,74.5C 258.667,75.1667 258.333,75.8333 258,76.5C 258.57,74.3072 258.236,72.3072 257,70.5C 256.692,71.3081 256.192,71.9747 255.5,72.5C 253.527,71.3601 251.693,70.0267 250,68.5C 238.167,69.1765 226.334,69.8431 214.5,70.5C 214.5,70.1667 214.5,69.8333 214.5,69.5C 207.173,60.8406 199.507,52.5072 191.5,44.5C 187.205,38.5374 182.205,33.204 176.5,28.5C 170.5,21.5 164.5,14.5 158.5,7.5 Z"/></g>
<g><path style="opacity:1" fill="#fbb10f" d="M 1.5,25.5 C 2.79419,29.2229 3.96086,29.2229 5,25.5C 5.66667,32.1667 6.33333,32.1667 7,25.5C 7.48278,26.448 7.64945,27.448 7.5,28.5C 62.0113,28.5105 116.345,28.5105 170.5,28.5C 170.833,28.8333 171.167,29.1667 171.5,29.5C 167.344,33.6719 167.844,34.3386 173,31.5C 175.52,32.8219 176.02,32.1553 174.5,29.5C 174.957,28.7025 175.624,28.3691 176.5,28.5C 182.205,33.204 187.205,38.5374 191.5,44.5C 190.064,44.7546 188.564,45.0879 187,45.5C 186.383,44.5509 186.549,43.7175 187.5,43C 185.926,42.3013 184.593,42.6346 183.5,44C 169.925,44.1761 156.425,44.6761 143,45.5C 142.667,44.1667 142.333,42.8333 142,41.5C 141.333,44.1667 140.667,44.1667 140,41.5C 139.549,43.9288 138.715,44.0955 137.5,42C 137.957,41.586 138.291,41.086 138.5,40.5C 136.978,39.438 135.312,38.7713 133.5,38.5C 124.494,38.3336 115.494,38.5002 106.5,39C 105.29,40.0391 104.29,41.2058 103.5,42.5C 101.888,41.5477 100.388,41.2144 99,41.5C 98.3333,45.5 97.6667,45.5 97,41.5C 96.5172,42.448 96.3505,43.448 96.5,44.5C 85.1667,44.5 73.8333,44.5 62.5,44.5C 62.5825,40.0824 60.4158,37.7491 56,37.5C 52.4003,38.9269 48.9003,40.5935 45.5,42.5C 44.8501,42.1961 44.1835,41.8627 43.5,41.5C 41.6961,42.7161 40.0294,43.7161 38.5,44.5C 38.0894,43.7376 37.9227,42.7376 38,41.5C 35.6922,41.2075 33.5256,42.0408 31.5,44C 23.5069,44.4997 15.5069,44.6664 7.5,44.5C 7.64945,43.448 7.48278,42.448 7,41.5C 6.78369,43.3839 6.11702,45.0506 5,46.5C 4.68268,44.6992 4.01602,44.3659 3,45.5C 2.78997,43.9419 2.28997,42.6085 1.5,41.5C 1.5,36.1667 1.5,30.8333 1.5,25.5 Z"/></g>
<g><path style="opacity:1" fill="#585858" d="M 525.5,69.5 C 523.901,71.6038 522.068,73.6038 520,75.5C 519.52,84.1769 519.687,92.8436 520.5,101.5C 518.801,101.66 517.134,101.494 515.5,101C 509.534,97.6214 503.201,95.1214 496.5,93.5C 490.401,95.7013 484.401,98.2013 478.5,101C 475.094,102.24 473.427,101.073 473.5,97.5C 474.775,90.5351 475.275,83.5351 475,76.5C 473,73.3343 470.5,70.6676 467.5,68.5C 465.167,65.9974 463.001,63.3307 461,60.5C 460.333,59.5 460.333,58.5 461,57.5C 468.09,55.5098 475.256,53.6764 482.5,52C 484,50.5 485.5,49 487,47.5C 489.844,41.8011 493.177,36.4678 497,31.5C 498.261,31.7591 499.261,32.4258 500,33.5C 503.207,40.0863 507.041,46.253 511.5,52C 518.745,53.5816 525.912,55.4149 533,57.5C 533.667,58.8333 533.667,60.1667 533,61.5C 530.295,64.0362 527.795,66.7029 525.5,69.5 Z"/></g>
<g><path style="opacity:1" fill="#585858" d="M 632.5,68.5 C 629.5,70.6676 627,73.3343 625,76.5C 624.326,84.0774 624.826,91.5774 626.5,99C 626.138,100.885 624.971,101.719 623,101.5C 616.211,98.2718 609.211,95.6051 602,93.5C 596.558,94.9698 591.391,97.1364 586.5,100C 584.246,101.15 581.913,101.484 579.5,101C 578.978,100.439 578.645,99.772 578.5,99C 580.078,91.5692 580.578,84.0692 580,76.5C 577.999,73.6693 575.833,71.0026 573.5,68.5C 571.205,65.7029 568.705,63.0362 566,60.5C 565.251,59.365 565.417,58.365 566.5,57.5C 574.241,55.4825 581.907,53.3158 589.5,51C 593.474,44.2051 597.808,37.7051 602.5,31.5C 603.814,32.3128 604.981,33.3128 606,34.5C 608.767,40.2582 611.934,45.7582 615.5,51C 623.18,53.801 631.013,55.9677 639,57.5C 639.667,58.5 639.667,59.5 639,60.5C 636.218,62.7705 634.051,65.4372 632.5,68.5 Z"/></g>
<g><path style="opacity:1" fill="#585858" d="M 734.5,71.5 C 731.116,74.1045 729.449,77.6045 729.5,82C 730.659,88.4544 731.326,94.9544 731.5,101.5C 729.801,101.66 728.134,101.494 726.5,101C 720.594,98.2119 714.594,95.7119 708.5,93.5C 701.902,95.2486 695.568,97.7486 689.5,101C 687.866,101.494 686.199,101.66 684.5,101.5C 685.335,93.5001 685.835,85.5001 686,77.5C 684.389,73.7252 681.889,70.7252 678.5,68.5C 676.539,66.0365 674.372,63.7032 672,61.5C 671.333,60.1667 671.333,58.8333 672,57.5C 679.504,55.3328 687.004,53.1662 694.5,51C 698.88,45.747 702.38,39.9136 705,33.5C 706.396,31.4732 708.062,31.1398 710,32.5C 713.294,39.594 717.46,46.094 722.5,52C 729.719,53.6744 736.886,55.5078 744,57.5C 744.418,59.788 743.751,61.788 742,63.5C 739.295,66.0362 736.795,68.7029 734.5,71.5 Z"/></g>
<g><path style="opacity:1" fill="#585858" d="M 392.5,31.5 C 396.773,38.5275 401.44,45.3609 406.5,52C 413.623,54.0901 420.79,55.9234 428,57.5C 428.667,58.5 428.667,59.5 428,60.5C 425.999,63.3307 423.833,65.9974 421.5,68.5C 418.111,70.7252 415.611,73.7252 414,77.5C 414.166,85.4966 414.666,93.4966 415.5,101.5C 413.801,101.66 412.134,101.494 410.5,101C 404.552,98.1873 398.552,95.6873 392.5,93.5C 392.5,72.8333 392.5,52.1667 392.5,31.5 Z"/></g>
<g><path style="opacity:1" fill="#242220" d="M 133.5,38.5 C 137.419,41.673 137.419,44.8397 133.5,48C 126.842,48.4996 120.175,48.6663 113.5,48.5C 113.5,52.1667 113.5,55.8333 113.5,59.5C 123.985,57.4216 131.985,60.755 137.5,69.5C 140.982,81.3351 137.648,90.5018 127.5,97C 119.218,99.421 111.218,98.7543 103.5,95C 99.0966,90.4468 99.9299,87.2802 106,85.5C 109.812,86.6606 113.645,87.6606 117.5,88.5C 123.787,88.213 127.121,84.8796 127.5,78.5C 127.365,72.5253 124.365,69.5253 118.5,69.5C 115.087,70.6119 111.587,71.6119 108,72.5C 105.297,72.8803 103.463,71.8803 102.5,69.5C 102.284,60.467 102.617,51.467 103.5,42.5C 104.29,41.2058 105.29,40.0391 106.5,39C 115.494,38.5002 124.494,38.3336 133.5,38.5 Z"/></g>
<g><path style="opacity:1" fill="#f9a80f" d="M 133.5,38.5 C 135.312,38.7713 136.978,39.438 138.5,40.5C 138.291,41.086 137.957,41.586 137.5,42C 138.715,44.0955 139.549,43.9288 140,41.5C 140.667,44.1667 141.333,44.1667 142,41.5C 142.333,42.8333 142.667,44.1667 143,45.5C 156.425,44.6761 169.925,44.1761 183.5,44C 184.593,42.6346 185.926,42.3013 187.5,43C 186.549,43.7175 186.383,44.5509 187,45.5C 188.564,45.0879 190.064,44.7546 191.5,44.5C 199.507,52.5072 207.173,60.8406 214.5,69.5C 188.833,69.5 163.167,69.5 137.5,69.5C 131.985,60.755 123.985,57.4216 113.5,59.5C 113.5,55.8333 113.5,52.1667 113.5,48.5C 120.175,48.6663 126.842,48.4996 133.5,48C 137.419,44.8397 137.419,41.673 133.5,38.5 Z"/></g>
<g><path style="opacity:1" fill="#aa8334" d="M 390.5,32.5 C 390.842,31.6618 391.508,31.3284 392.5,31.5C 392.5,52.1667 392.5,72.8333 392.5,93.5C 392.167,93.5 391.833,93.5 391.5,93.5C 391.5,87.5 391.5,81.5 391.5,75.5C 391.829,60.9903 391.496,46.6569 390.5,32.5 Z"/></g>
<g><path style="opacity:1" fill="#f9b110" d="M 317.5,65.5 C 317.631,64.6236 317.298,63.9569 316.5,63.5C 313.001,70.2549 311.668,69.5882 312.5,61.5C 292.167,61.5 271.833,61.5 251.5,61.5C 249.418,60.4151 249.084,58.9151 250.5,57C 258.281,55.3781 265.947,53.3781 273.5,51C 277.066,45.7582 280.233,40.2582 283,34.5C 285.333,30.5 287.667,30.5 290,34.5C 292.735,40.238 295.901,45.738 299.5,51C 307.214,53.6454 315.047,55.8121 323,57.5C 322.68,61.022 320.847,63.6887 317.5,65.5 Z"/></g>
<g><path style="opacity:1" fill="#faa60f" d="M 1.5,41.5 C 2.28997,42.6085 2.78997,43.9419 3,45.5C 4.01602,44.3659 4.68268,44.6992 5,46.5C 6.11702,45.0506 6.78369,43.3839 7,41.5C 7.48278,42.448 7.64945,43.448 7.5,44.5C 15.5069,44.6664 23.5069,44.4997 31.5,44C 33.5256,42.0408 35.6922,41.2075 38,41.5C 37.9227,42.7376 38.0894,43.7376 38.5,44.5C 40.0294,43.7161 41.6961,42.7161 43.5,41.5C 44.1835,41.8627 44.8501,42.1961 45.5,42.5C 42.6717,44.4701 39.6717,46.3034 36.5,48C 32.9281,50.6258 32.5948,53.6258 35.5,57C 40.8552,57.8477 45.5219,56.3477 49.5,52.5C 50.4954,58.1278 50.8288,63.7945 50.5,69.5C 34.1667,69.5 17.8333,69.5 1.5,69.5C 1.5,60.1667 1.5,50.8333 1.5,41.5 Z"/></g>
<g><path style="opacity:1" fill="#fba70f" d="M 103.5,42.5 C 102.617,51.467 102.284,60.467 102.5,69.5C 89.1667,69.5 75.8333,69.5 62.5,69.5C 62.5,61.1667 62.5,52.8333 62.5,44.5C 73.8333,44.5 85.1667,44.5 96.5,44.5C 96.3505,43.448 96.5172,42.448 97,41.5C 97.6667,45.5 98.3333,45.5 99,41.5C 100.388,41.2144 101.888,41.5477 103.5,42.5 Z"/></g>
<g><path style="opacity:1" fill="#faac0f" d="M 390.5,32.5 C 391.496,46.6569 391.829,60.9903 391.5,75.5C 385.907,75.1934 380.407,75.5268 375,76.5C 374.751,75.376 374.251,74.376 373.5,73.5C 371.584,74.2483 369.584,74.2483 367.5,73.5C 367.167,72.5 366.5,71.8333 365.5,71.5C 362.538,68.0359 359.371,64.7025 356,61.5C 355.333,60.1667 355.333,58.8333 356,57.5C 363.013,55.288 370.18,53.4547 377.5,52C 382.089,45.5953 386.422,39.0953 390.5,32.5 Z"/></g>
<g><path style="opacity:1" fill="#faa50f" d="M 251.5,61.5 C 271.833,61.5 292.167,61.5 312.5,61.5C 311.668,69.5882 313.001,70.2549 316.5,63.5C 317.298,63.9569 317.631,64.6236 317.5,65.5C 317.267,67.0618 316.6,68.3951 315.5,69.5C 312.027,71.6367 309.694,74.6367 308.5,78.5C 306.914,79.6753 305.414,81.0086 304,82.5C 298.579,81.8445 293.079,81.5111 287.5,81.5C 281.754,81.5264 276.254,82.1931 271,83.5C 269.47,82.364 268.137,81.364 267,80.5C 266.667,81.5 266.333,82.5 266,83.5C 265.802,81.6183 265.302,79.9516 264.5,78.5C 264.443,77.391 264.11,76.391 263.5,75.5C 259.5,70.8333 255.5,66.1667 251.5,61.5 Z"/></g>
<g><path style="opacity:1" fill="#212121" d="M 573.5,68.5 C 575.833,71.0026 577.999,73.6693 580,76.5C 580.578,84.0692 580.078,91.5692 578.5,99C 578.645,99.772 578.978,100.439 579.5,101C 581.913,101.484 584.246,101.15 586.5,100C 591.391,97.1364 596.558,94.9698 602,93.5C 609.211,95.6051 616.211,98.2718 623,101.5C 624.971,101.719 626.138,100.885 626.5,99C 624.826,91.5774 624.326,84.0774 625,76.5C 627,73.3343 629.5,70.6676 632.5,68.5C 647.527,69.7947 662.861,69.7947 678.5,68.5C 681.889,70.7252 684.389,73.7252 686,77.5C 685.835,85.5001 685.335,93.5001 684.5,101.5C 686.199,101.66 687.866,101.494 689.5,101C 695.568,97.7486 701.902,95.2486 708.5,93.5C 714.594,95.7119 720.594,98.2119 726.5,101C 728.134,101.494 729.801,101.66 731.5,101.5C 731.326,94.9544 730.659,88.4544 729.5,82C 729.449,77.6045 731.116,74.1045 734.5,71.5C 736.592,71.4386 738.092,70.4386 739,68.5C 762.45,69.797 786.117,69.797 810,68.5C 810.791,69.745 811.291,71.0783 811.5,72.5C 793.372,92.4634 775.039,112.297 756.5,132C 556.834,132.5 357.167,132.667 157.5,132.5C 160.929,127.981 164.596,123.648 168.5,119.5C 174.864,113.137 180.864,106.471 186.5,99.5C 195.833,89.8333 205.167,80.1667 214.5,70.5C 226.334,69.8431 238.167,69.1765 250,68.5C 251.693,70.0267 253.527,71.3601 255.5,72.5C 256.192,71.9747 256.692,71.3081 257,70.5C 258.236,72.3072 258.57,74.3072 258,76.5C 258.333,75.8333 258.667,75.1667 259,74.5C 260.356,75.3802 261.856,75.7135 263.5,75.5C 264.11,76.391 264.443,77.391 264.5,78.5C 263.857,86.1499 263.523,93.8166 263.5,101.5C 265.199,101.66 266.866,101.494 268.5,101C 274.073,97.7943 279.906,95.2943 286,93.5C 292.748,95.2879 299.248,97.7879 305.5,101C 307.925,101.986 309.591,101.319 310.5,99C 309.083,92.2454 308.416,85.4121 308.5,78.5C 309.694,74.6367 312.027,71.6367 315.5,69.5C 316.822,69.67 317.989,69.3366 319,68.5C 333.092,69.3243 347.259,69.8243 361.5,70C 361.167,70.3333 360.833,70.6667 360.5,71C 362.139,72.5193 363.806,72.686 365.5,71.5C 366.5,71.8333 367.167,72.5 367.5,73.5C 369.052,75.942 370.052,78.6087 370.5,81.5C 368.952,88.0783 368.285,94.7449 368.5,101.5C 370.199,101.66 371.866,101.494 373.5,101C 379.188,97.653 385.188,95.153 391.5,93.5C 391.833,93.5 392.167,93.5 392.5,93.5C 398.552,95.6873 404.552,98.1873 410.5,101C 412.134,101.494 413.801,101.66 415.5,101.5C 414.666,93.4966 414.166,85.4966 414,77.5C 415.611,73.7252 418.111,70.7252 421.5,68.5C 437.11,69.7886 452.443,69.7886 467.5,68.5C 470.5,70.6676 473,73.3343 475,76.5C 475.275,83.5351 474.775,90.5351 473.5,97.5C 473.427,101.073 475.094,102.24 478.5,101C 484.401,98.2013 490.401,95.7013 496.5,93.5C 503.201,95.1214 509.534,97.6214 515.5,101C 517.134,101.494 518.801,101.66 520.5,101.5C 519.687,92.8436 519.52,84.1769 520,75.5C 522.068,73.6038 523.901,71.6038 525.5,69.5C 527.766,69.8588 529.599,69.1922 531,67.5C 532,70.1667 533,70.1667 534,67.5C 539.59,68.8088 545.423,69.4755 551.5,69.5C 557.167,69.3333 562.833,69.1667 568.5,69C 569.715,66.9045 570.549,67.0712 571,69.5C 571.671,68.7476 572.504,68.4142 573.5,68.5 Z"/></g>
<g><path style="opacity:1" fill="#fefefe" d="M 813.5,71.5 C 813.5,93.1667 813.5,114.833 813.5,136.5C 593.5,136.5 373.5,136.5 153.5,136.5C 154.5,134.833 155.833,133.5 157.5,132.5C 357.167,132.667 556.834,132.5 756.5,132C 775.039,112.297 793.372,92.4634 811.5,72.5C 812.167,72.1667 812.833,71.8333 813.5,71.5 Z"/></g>
<g><path style="opacity:1" fill="#252321" d="M 62.5,44.5 C 62.5,52.8333 62.5,61.1667 62.5,69.5C 62.6664,77.84 62.4997,86.1733 62,94.5C 58.6835,99.0826 55.0169,99.4159 51,95.5C 50.5002,86.8397 50.3336,78.1731 50.5,69.5C 50.8288,63.7945 50.4954,58.1278 49.5,52.5C 45.5219,56.3477 40.8552,57.8477 35.5,57C 32.5948,53.6258 32.9281,50.6258 36.5,48C 39.6717,46.3034 42.6717,44.4701 45.5,42.5C 48.9003,40.5935 52.4003,38.9269 56,37.5C 60.4158,37.7491 62.5825,40.0824 62.5,44.5 Z"/></g>
<g><path style="opacity:1" fill="#fdbf0f" d="M 1.5,69.5 C 17.8333,69.5 34.1667,69.5 50.5,69.5C 50.3336,78.1731 50.5002,86.8397 51,95.5C 55.0169,99.4159 58.6835,99.0826 62,94.5C 62.4997,86.1733 62.6664,77.84 62.5,69.5C 75.8333,69.5 89.1667,69.5 102.5,69.5C 103.463,71.8803 105.297,72.8803 108,72.5C 111.587,71.6119 115.087,70.6119 118.5,69.5C 124.365,69.5253 127.365,72.5253 127.5,78.5C 127.121,84.8796 123.787,88.213 117.5,88.5C 113.645,87.6606 109.812,86.6606 106,85.5C 99.9299,87.2802 99.0966,90.4468 103.5,95C 111.218,98.7543 119.218,99.421 127.5,97C 137.648,90.5018 140.982,81.3351 137.5,69.5C 163.167,69.5 188.833,69.5 214.5,69.5C 214.5,69.8333 214.5,70.1667 214.5,70.5C 205.167,80.1667 195.833,89.8333 186.5,99.5C 183.185,100.416 180.685,102.416 179,105.5C 178.316,104.216 178.483,103.049 179.5,102C 178.552,101.517 177.552,101.351 176.5,101.5C 176.657,102.873 176.49,104.207 176,105.5C 159.216,103.803 142.216,102.803 125,102.5C 123.674,102.755 122.674,103.422 122,104.5C 121.74,102.382 120.74,100.716 119,99.5C 119.595,101.35 120.095,103.35 120.5,105.5C 118.007,105.671 116.174,104.671 115,102.5C 114.374,104.991 113.541,104.991 112.5,102.5C 111.402,106.361 110.569,106.361 110,102.5C 109.667,103.5 109.333,104.5 109,105.5C 108.804,103.714 107.971,102.381 106.5,101.5C 106.687,102.817 106.02,104.15 104.5,105.5C 101.167,102.833 97.8333,102.833 94.5,105.5C 94.0024,104.397 93.6691,103.397 93.5,102.5C 92.7492,103.376 92.2492,104.376 92,105.5C 91.3333,104.167 90.6667,104.167 90,105.5C 90.1639,101.85 88.9972,101.017 86.5,103C 87.9561,103.423 88.4561,104.256 88,105.5C 82.5098,105.738 77.0098,105.072 71.5,103.5C 67.0349,103.382 62.7016,104.049 58.5,105.5C 57.8333,105.333 57.1667,105.167 56.5,105C 58.1667,104 59.8333,103 61.5,102C 59.5355,101.376 57.8689,101.876 56.5,103.5C 53.624,101.041 50.624,100.874 47.5,103C 34.1708,103.5 20.8375,103.667 7.5,103.5C 7.32324,96.8656 6.82324,96.8656 6,103.5C 5.66667,102.167 5.33333,100.833 5,99.5C 4.64011,101.608 3.97345,103.608 3,105.5C 2.80192,103.618 2.30192,101.952 1.5,100.5C 1.5,90.1667 1.5,79.8333 1.5,69.5 Z"/></g>
<g><path style="opacity:1" fill="#f6930f" d="M 264.5,78.5 C 265.302,79.9516 265.802,81.6183 266,83.5C 266.333,82.5 266.667,81.5 267,80.5C 268.137,81.364 269.47,82.364 271,83.5C 276.254,82.1931 281.754,81.5264 287.5,81.5C 293.079,81.5111 298.579,81.8445 304,82.5C 305.414,81.0086 306.914,79.6753 308.5,78.5C 308.416,85.4121 309.083,92.2454 310.5,99C 309.591,101.319 307.925,101.986 305.5,101C 299.248,97.7879 292.748,95.2879 286,93.5C 279.906,95.2943 274.073,97.7943 268.5,101C 266.866,101.494 265.199,101.66 263.5,101.5C 263.523,93.8166 263.857,86.1499 264.5,78.5 Z"/></g>
<g><path style="opacity:1" fill="#f7970f" d="M 367.5,73.5 C 369.584,74.2483 371.584,74.2483 373.5,73.5C 374.251,74.376 374.751,75.376 375,76.5C 380.407,75.5268 385.907,75.1934 391.5,75.5C 391.5,81.5 391.5,87.5 391.5,93.5C 385.188,95.153 379.188,97.653 373.5,101C 371.866,101.494 370.199,101.66 368.5,101.5C 368.285,94.7449 368.952,88.0783 370.5,81.5C 370.052,78.6087 369.052,75.942 367.5,73.5 Z"/></g>
<g><path style="opacity:1" fill="#242321" d="M 82.5,85.5 C 88.7264,84.9094 91.893,87.5761 92,93.5C 89.0509,98.6899 85.0509,99.6899 80,96.5C 77.5997,91.9898 78.433,88.3231 82.5,85.5 Z"/></g>
<g><path style="opacity:1" fill="#fdb80f" d="M 186.5,99.5 C 180.864,106.471 174.864,113.137 168.5,119.5C 167.069,119.119 166.236,118.119 166,116.5C 165.5,117 165,117.5 164.5,118C 112.168,118.5 59.8344,118.667 7.5,118.5C 7.64945,117.448 7.48278,116.448 7,115.5C 6.18717,123.167 5.5205,122.834 5,114.5C 4.37695,119.235 3.21028,119.568 1.5,115.5C 1.5,110.5 1.5,105.5 1.5,100.5C 2.30192,101.952 2.80192,103.618 3,105.5C 3.97345,103.608 4.64011,101.608 5,99.5C 5.33333,100.833 5.66667,102.167 6,103.5C 6.82324,96.8656 7.32324,96.8656 7.5,103.5C 20.8375,103.667 34.1708,103.5 47.5,103C 50.624,100.874 53.624,101.041 56.5,103.5C 57.8689,101.876 59.5355,101.376 61.5,102C 59.8333,103 58.1667,104 56.5,105C 57.1667,105.167 57.8333,105.333 58.5,105.5C 62.7016,104.049 67.0349,103.382 71.5,103.5C 77.0098,105.072 82.5098,105.738 88,105.5C 88.4561,104.256 87.9561,103.423 86.5,103C 88.9972,101.017 90.1639,101.85 90,105.5C 90.6667,104.167 91.3333,104.167 92,105.5C 92.2492,104.376 92.7492,103.376 93.5,102.5C 93.6691,103.397 94.0024,104.397 94.5,105.5C 97.8333,102.833 101.167,102.833 104.5,105.5C 106.02,104.15 106.687,102.817 106.5,101.5C 107.971,102.381 108.804,103.714 109,105.5C 109.333,104.5 109.667,103.5 110,102.5C 110.569,106.361 111.402,106.361 112.5,102.5C 113.541,104.991 114.374,104.991 115,102.5C 116.174,104.671 118.007,105.671 120.5,105.5C 120.095,103.35 119.595,101.35 119,99.5C 120.74,100.716 121.74,102.382 122,104.5C 122.674,103.422 123.674,102.755 125,102.5C 142.216,102.803 159.216,103.803 176,105.5C 176.49,104.207 176.657,102.873 176.5,101.5C 177.552,101.351 178.552,101.517 179.5,102C 178.483,103.049 178.316,104.216 179,105.5C 180.685,102.416 183.185,100.416 186.5,99.5 Z"/></g>
<g><path style="opacity:1" fill="#fcb00f" d="M 168.5,119.5 C 164.596,123.648 160.929,127.981 157.5,132.5C 155.833,133.5 154.5,134.833 153.5,136.5C 102.833,136.5 52.1667,136.5 1.5,136.5C 1.5,129.5 1.5,122.5 1.5,115.5C 3.21028,119.568 4.37695,119.235 5,114.5C 5.5205,122.834 6.18717,123.167 7,115.5C 7.48278,116.448 7.64945,117.448 7.5,118.5C 59.8344,118.667 112.168,118.5 164.5,118C 165,117.5 165.5,117 166,116.5C 166.236,118.119 167.069,119.119 168.5,119.5 Z"/></g>
</svg>
