<?xml version="1.0" encoding="UTF-8"?>
<!DOCTYPE svg PUBLIC "-//W3C//DTD SVG 1.1//EN" "http://www.w3.org/Graphics/SVG/1.1/DTD/svg11.dtd">
<svg xmlns="http://www.w3.org/2000/svg" version="1.1" width="814px" height="137px" style="shape-rendering:geometricPrecision; text-rendering:geometricPrecision; image-rendering:optimizeQuality; fill-rule:evenodd; clip-rule:evenodd" xmlns:xlink="http://www.w3.org/1999/xlink">
<g><path style="opacity:1" fill="#fefefe" d="M 151.5,-0.5 C 372.167,-0.5 592.833,-0.5 813.5,-0.5C 813.5,22.1667 813.5,44.8333 813.5,67.5C 794.033,47.1977 774.7,26.6977 755.5,6C 556.167,5.5 356.834,5.33333 157.5,5.5C 155.167,3.83333 153.167,1.83333 151.5,-0.5 Z"/></g>
<g><path style="opacity:1" fill="#fdb90f" d="M 0.5,-0.5 C 50.8333,-0.5 101.167,-0.5 151.5,-0.5C 153.167,1.83333 155.167,3.83333 157.5,5.5C 161.81,10.8143 166.143,16.1476 170.5,21.5C 171.218,23.1368 171.384,24.8034 171,26.5C 170.667,25.8333 170.333,25.1667 170,24.5C 169,25.5 168,26.5 167,27.5C 113.572,26.5025 60.0716,26.1692 6.5,26.5C 6.64945,25.448 6.48278,24.448 6,23.5C 5.66667,25.5 5.33333,27.5 5,29.5C 4.66667,26.8333 4.33333,24.1667 4,21.5C 3.7978,23.2556 3.2978,24.9223 2.5,26.5C 1.74917,25.624 1.24917,24.624 1,23.5C 0.500289,15.5069 0.333622,7.50694 0.5,-0.5 Z"/></g>
<g><path style="opacity:1" fill="#272727" d="M 157.5,5.5 C 356.834,5.33333 556.167,5.5 755.5,6C 774.7,26.6977 794.033,47.1977 813.5,67.5C 813.5,68.8333 813.5,70.1667 813.5,71.5C 812.833,71.8333 812.167,72.1667 811.5,72.5C 810.637,71.0597 810.637,69.7264 811.5,68.5C 810.164,65.5285 808.664,65.1952 807,67.5C 785.239,66.6724 763.406,66.1724 741.5,66C 739.869,64.1644 739.202,64.6644 739.5,67.5C 738.167,67.5 736.833,67.5 735.5,67.5C 737.795,64.7029 740.295,62.0362 743,59.5C 743.781,58.0563 743.614,56.723 742.5,55.5C 736.939,53.8602 731.273,52.6935 725.5,52C 723.5,51 721.5,50 719.5,49C 715.873,42.9145 712.373,36.7479 709,30.5C 707.667,29.1667 706.333,29.1667 705,30.5C 701.693,37.6306 697.526,44.1306 692.5,50C 685.325,51.8884 678.158,53.7217 671,55.5C 670.333,56.8333 670.333,58.1667 671,59.5C 673.372,61.7032 675.539,64.0365 677.5,66.5C 676.603,67.5981 675.77,67.5981 675,66.5C 673.771,68.9468 672.271,69.1135 670.5,67C 659.833,66.3333 649.167,66.3333 638.5,67C 638,67.5 637.5,68 637,68.5C 635.705,67.1588 635.205,65.8255 635.5,64.5C 634.06,65.9524 632.394,66.9524 630.5,67.5C 632.811,64.853 635.144,62.1864 637.5,59.5C 638.833,58.1667 638.833,56.8333 637.5,55.5C 630.141,53.7287 622.808,51.8953 615.5,50C 610.944,43.0428 606.277,36.2095 601.5,29.5C 596.723,36.2095 592.056,43.0428 587.5,50C 580.079,52.2304 572.579,54.0637 565,55.5C 564.333,56.5 564.333,57.5 565,58.5C 567.508,61.5309 570.008,64.5309 572.5,67.5C 556.068,66.2762 540.401,66.2762 525.5,67.5C 527.412,64.0814 529.912,61.0814 533,58.5C 533.507,57.0039 533.007,55.8373 531.5,55C 524.347,53.8652 517.347,52.1985 510.5,50C 506.21,45.0353 502.71,39.5353 500,33.5C 498.585,30.7821 496.585,30.1154 494,31.5C 490.877,37.5819 487.377,43.4153 483.5,49C 482.328,49.4186 481.328,50.0853 480.5,51C 473.571,52.2363 466.738,53.7363 460,55.5C 459.333,56.8333 459.333,58.1667 460,59.5C 462.04,61.3702 463.873,63.3702 465.5,65.5C 464.849,66.0906 464.182,66.7573 463.5,67.5C 448.008,66.4257 433.341,66.4257 419.5,67.5C 421.795,64.7029 424.295,62.0362 427,59.5C 427.667,58.1667 427.667,56.8333 427,55.5C 420.256,53.813 413.423,52.313 406.5,51C 405.672,50.0853 404.672,49.4186 403.5,49C 400.207,43.5816 397.04,38.0816 394,32.5C 392.445,30.4848 390.611,30.1515 388.5,31.5C 385.372,38.2631 381.372,44.4298 376.5,50C 369.319,51.8355 362.152,53.6688 355,55.5C 354.333,56.8333 354.333,58.1667 355,59.5C 357.758,61.7512 359.925,64.4179 361.5,67.5C 359.319,67.0859 356.985,66.9192 354.5,67C 353.299,66.0975 352.465,64.9308 352,63.5C 351.517,64.448 351.351,65.448 351.5,66.5C 339.456,66.7969 327.456,66.7969 315.5,66.5C 317.58,64.4268 319.246,62.0934 320.5,59.5C 323.106,58.1501 323.106,56.6501 320.5,55C 313.35,53.8655 306.35,52.1988 299.5,50C 294.944,43.0428 290.277,36.2095 285.5,29.5C 280.723,36.2095 276.056,43.0428 271.5,50C 264.561,51.85 257.561,53.5166 250.5,55C 248.062,57.9832 248.729,60.1498 252.5,61.5C 252.733,63.0618 253.4,64.3951 254.5,65.5C 251.282,65.6509 250.949,66.4842 253.5,68C 250.737,70.2394 248.404,69.906 246.5,67C 235.839,66.5002 225.172,66.3335 214.5,66.5C 214.737,67.791 214.404,68.791 213.5,69.5C 213.5,68.8333 213.5,68.1667 213.5,67.5C 206.535,59.2001 199.202,51.2001 191.5,43.5C 184.491,36.1247 177.491,28.7914 170.5,21.5C 166.143,16.1476 161.81,10.8143 157.5,5.5 Z"/></g>
<g><path style="opacity:1" fill="#fdb423" d="M -0.5,-0.5 C -0.166667,-0.5 0.166667,-0.5 0.5,-0.5C 0.333622,7.50694 0.500289,15.5069 1,23.5C 1.24917,24.624 1.74917,25.624 2.5,26.5C 3.2978,24.9223 3.7978,23.2556 4,21.5C 4.33333,24.1667 4.66667,26.8333 5,29.5C 5.33333,27.5 5.66667,25.5 6,23.5C 6.48278,24.448 6.64945,25.448 6.5,26.5C 60.0716,26.1692 113.572,26.5025 167,27.5C 168,26.5 169,25.5 170,24.5C 170.333,25.1667 170.667,25.8333 171,26.5C 171.384,24.8034 171.218,23.1368 170.5,21.5C 177.491,28.7914 184.491,36.1247 191.5,43.5C 190.883,43.6107 190.383,43.944 190,44.5C 187.515,43.3158 185.849,41.9825 185,40.5C 183.941,40.6301 183.108,41.1301 182.5,42C 169.167,42.3333 155.833,42.6667 142.5,43C 141.283,44.6477 140.45,46.481 140,48.5C 138.368,45.5772 138.201,42.5772 139.5,39.5C 141.171,42.0811 141.671,41.7477 141,38.5C 139.612,37.4464 138.112,37.2797 136.5,38C 135.627,39.045 134.627,39.8783 133.5,40.5C 123.406,33.9163 113.406,33.9163 103.5,40.5C 102.206,39.7101 101.039,38.7101 100,37.5C 99.6667,37.8333 99.3333,38.1667 99,38.5C 98.8985,41.6996 98.2319,44.6996 97,47.5C 96.2935,45.9194 95.4601,44.4194 94.5,43C 83.2506,43.1118 72.2506,42.2785 61.5,40.5C 60.0791,37.9179 57.9124,36.2512 55,35.5C 50.7197,37.3911 46.5531,39.3911 42.5,41.5C 40.9826,41.4894 39.8159,40.8228 39,39.5C 37.027,41.473 35.027,43.473 33,45.5C 32.4604,43.8654 32.9604,42.5321 34.5,41.5C 33.4239,40.3441 32.4239,40.5108 31.5,42C 22.9213,42.8157 14.4213,42.649 6,41.5C 5.33333,42.8333 4.33333,43.8333 3,44.5C 1.80633,42.3766 1.13966,40.0432 1,37.5C 0.500185,47.4944 0.333518,57.4944 0.5,67.5C 0.5,74.5 0.5,81.5 0.5,88.5C 0.5,96.8333 0.5,105.167 0.5,113.5C 0.5,121.167 0.5,128.833 0.5,136.5C 0.166667,136.5 -0.166667,136.5 -0.5,136.5C -0.5,90.8333 -0.5,45.1667 -0.5,-0.5 Z"/></g>
<g><path style="opacity:1" fill="#585858" d="M 419.5,67.5 C 417.113,69.9131 414.946,72.5798 413,75.5C 412.508,82.2248 413.008,88.8914 414.5,95.5C 414.333,96.8333 414.167,98.1667 414,99.5C 413.439,100.022 412.772,100.355 412,100.5C 405.031,97.0108 397.864,94.0108 390.5,91.5C 383.905,93.7986 377.571,96.6319 371.5,100C 370.5,100.667 369.5,100.667 368.5,100C 367.866,97.9255 367.532,95.7588 367.5,93.5C 368.662,87.5339 369.162,81.5339 369,75.5C 367,72.3343 364.5,69.6676 361.5,67.5C 359.925,64.4179 357.758,61.7512 355,59.5C 354.333,58.1667 354.333,56.8333 355,55.5C 362.152,53.6688 369.319,51.8355 376.5,50C 381.372,44.4298 385.372,38.2631 388.5,31.5C 390.611,30.1515 392.445,30.4848 394,32.5C 397.04,38.0816 400.207,43.5816 403.5,49C 404.672,49.4186 405.672,50.0853 406.5,51C 413.423,52.313 420.256,53.813 427,55.5C 427.667,56.8333 427.667,58.1667 427,59.5C 424.295,62.0362 421.795,64.7029 419.5,67.5 Z"/></g>
<g><path style="opacity:1" fill="#585858" d="M 525.5,67.5 C 522.111,69.7252 519.611,72.7252 518,76.5C 518.041,82.6708 518.541,88.8374 519.5,95C 519.456,96.7642 519.122,98.4309 518.5,100C 517.5,100.667 516.5,100.667 515.5,100C 509.28,96.4721 502.78,93.6387 496,91.5C 488.78,93.9421 481.78,96.9421 475,100.5C 474.228,100.355 473.561,100.022 473,99.5C 472.833,98 472.667,96.5 472.5,95C 474.144,88.5824 474.644,82.0824 474,75.5C 472.052,71.3875 469.219,68.0541 465.5,65.5C 463.873,63.3702 462.04,61.3702 460,59.5C 459.333,58.1667 459.333,56.8333 460,55.5C 466.738,53.7363 473.571,52.2363 480.5,51C 481.328,50.0853 482.328,49.4186 483.5,49C 487.377,43.4153 490.877,37.5819 494,31.5C 496.585,30.1154 498.585,30.7821 500,33.5C 502.71,39.5353 506.21,45.0353 510.5,50C 517.347,52.1985 524.347,53.8652 531.5,55C 533.007,55.8373 533.507,57.0039 533,58.5C 529.912,61.0814 527.412,64.0814 525.5,67.5 Z"/></g>
<g><path style="opacity:1" fill="#585858" d="M 630.5,67.5 C 627.832,69.3355 625.666,71.6688 624,74.5C 623.326,82.0698 623.826,89.5698 625.5,97C 625.563,99.9415 624.23,100.942 621.5,100C 614.826,96.7453 607.993,93.9119 601,91.5C 593.597,94.7996 586.097,97.7996 578.5,100.5C 578.824,91.8223 578.99,83.1557 579,74.5C 577.334,71.6688 575.168,69.3355 572.5,67.5C 570.008,64.5309 567.508,61.5309 565,58.5C 564.333,57.5 564.333,56.5 565,55.5C 572.579,54.0637 580.079,52.2304 587.5,50C 592.056,43.0428 596.723,36.2095 601.5,29.5C 606.277,36.2095 610.944,43.0428 615.5,50C 622.808,51.8953 630.141,53.7287 637.5,55.5C 638.833,56.8333 638.833,58.1667 637.5,59.5C 635.144,62.1864 632.811,64.853 630.5,67.5 Z"/></g>
<g><path style="opacity:1" fill="#585858" d="M 735.5,67.5 C 732.365,69.7596 730.198,72.7596 729,76.5C 728.901,83.1858 729.401,89.8524 730.5,96.5C 730.812,99.6934 729.478,100.86 726.5,100C 720.28,96.4721 713.78,93.6387 707,91.5C 699.78,93.9421 692.78,96.9421 686,100.5C 685.228,100.355 684.561,100.022 684,99.5C 683.833,98.1667 683.667,96.8333 683.5,95.5C 684.555,88.8469 685.055,82.1802 685,75.5C 682.665,72.3347 680.165,69.3347 677.5,66.5C 675.539,64.0365 673.372,61.7032 671,59.5C 670.333,58.1667 670.333,56.8333 671,55.5C 678.158,53.7217 685.325,51.8884 692.5,50C 697.526,44.1306 701.693,37.6306 705,30.5C 706.333,29.1667 707.667,29.1667 709,30.5C 712.373,36.7479 715.873,42.9145 719.5,49C 721.5,50 723.5,51 725.5,52C 731.273,52.6935 736.939,53.8602 742.5,55.5C 743.614,56.723 743.781,58.0563 743,59.5C 740.295,62.0362 737.795,64.7029 735.5,67.5 Z"/></g>
<g><path style="opacity:1" fill="#f7a70f" d="M 103.5,40.5 C 102.347,42.8068 101.18,45.1401 100,47.5C 99.5002,58.495 99.3335,69.495 99.5,80.5C 98.5151,76.3656 98.1818,72.0323 98.5,67.5C 86.1667,67.5 73.8333,67.5 61.5,67.5C 61.5,58.5 61.5,49.5 61.5,40.5C 72.2506,42.2785 83.2506,43.1118 94.5,43C 95.4601,44.4194 96.2935,45.9194 97,47.5C 98.2319,44.6996 98.8985,41.6996 99,38.5C 99.3333,38.1667 99.6667,37.8333 100,37.5C 101.039,38.7101 102.206,39.7101 103.5,40.5 Z"/></g>
<g><path style="opacity:1" fill="#252321" d="M 61.5,40.5 C 61.5,49.5 61.5,58.5 61.5,67.5C 61.6664,75.84 61.4997,84.1733 61,92.5C 60.2525,94.751 58.7525,96.0844 56.5,96.5C 55.8333,96.5 55.1667,96.5 54.5,96.5C 52.629,96.1412 51.129,95.1412 50,93.5C 49.5002,84.8397 49.3336,76.1731 49.5,67.5C 49.6661,61.8236 49.4994,56.1569 49,50.5C 44.9046,54.4687 40.0713,55.9687 34.5,55C 32.8131,53.087 32.3131,50.9203 33,48.5C 36.1454,46.0235 39.312,43.6902 42.5,41.5C 46.5531,39.3911 50.7197,37.3911 55,35.5C 57.9124,36.2512 60.0791,37.9179 61.5,40.5 Z"/></g>
<g><path style="opacity:1" fill="#222121" d="M 133.5,40.5 C 134.653,42.8068 135.82,45.1401 137,47.5C 137.5,58.495 137.667,69.495 137.5,80.5C 135.892,91.9881 129.225,97.3214 117.5,96.5C 106.788,96.4537 100.788,91.1204 99.5,80.5C 99.3335,69.495 99.5002,58.495 100,47.5C 101.18,45.1401 102.347,42.8068 103.5,40.5C 113.406,33.9163 123.406,33.9163 133.5,40.5 Z"/></g>
<g><path style="opacity:1" fill="#f9b10f" d="M 320.5,59.5 C 299.701,59.72 278.867,59.3867 258,58.5C 256.13,60.3431 254.297,61.3431 252.5,61.5C 248.729,60.1498 248.062,57.9832 250.5,55C 257.561,53.5166 264.561,51.85 271.5,50C 276.056,43.0428 280.723,36.2095 285.5,29.5C 290.277,36.2095 294.944,43.0428 299.5,50C 306.35,52.1988 313.35,53.8655 320.5,55C 323.106,56.6501 323.106,58.1501 320.5,59.5 Z"/></g>
<g><path style="opacity:1" fill="#faa70f" d="M 42.5,41.5 C 39.312,43.6902 36.1454,46.0235 33,48.5C 32.3131,50.9203 32.8131,53.087 34.5,55C 40.0713,55.9687 44.9046,54.4687 49,50.5C 49.4994,56.1569 49.6661,61.8236 49.5,67.5C 33.1667,67.5 16.8333,67.5 0.5,67.5C 0.333518,57.4944 0.500185,47.4944 1,37.5C 1.13966,40.0432 1.80633,42.3766 3,44.5C 4.33333,43.8333 5.33333,42.8333 6,41.5C 14.4213,42.649 22.9213,42.8157 31.5,42C 32.4239,40.5108 33.4239,40.3441 34.5,41.5C 32.9604,42.5321 32.4604,43.8654 33,45.5C 35.027,43.473 37.027,41.473 39,39.5C 39.8159,40.8228 40.9826,41.4894 42.5,41.5 Z"/></g>
<g><path style="opacity:1" fill="#f4a410" d="M 125.5,80.5 C 125.5,76.1667 125.5,71.8333 125.5,67.5C 120.833,67.5 116.167,67.5 111.5,67.5C 111.5,71.8333 111.5,76.1667 111.5,80.5C 110.342,70.6753 110.175,60.6753 111,50.5C 113.435,45.7762 117.269,44.2762 122.5,46C 124.049,47.214 125.215,48.714 126,50.5C 126.825,60.6753 126.658,70.6753 125.5,80.5 Z"/></g>
<g><path style="opacity:1" fill="#f8a60f" d="M 191.5,43.5 C 199.202,51.2001 206.535,59.2001 213.5,67.5C 188.678,67.4673 163.678,67.4673 138.5,67.5C 138.818,72.0323 138.485,76.3656 137.5,80.5C 137.667,69.495 137.5,58.495 137,47.5C 135.82,45.1401 134.653,42.8068 133.5,40.5C 134.627,39.8783 135.627,39.045 136.5,38C 138.112,37.2797 139.612,37.4464 141,38.5C 141.671,41.7477 141.171,42.0811 139.5,39.5C 138.201,42.5772 138.368,45.5772 140,48.5C 140.45,46.481 141.283,44.6477 142.5,43C 155.833,42.6667 169.167,42.3333 182.5,42C 183.108,41.1301 183.941,40.6301 185,40.5C 185.849,41.9825 187.515,43.3158 190,44.5C 190.383,43.944 190.883,43.6107 191.5,43.5 Z"/></g>
<g><path style="opacity:1" fill="#212121" d="M 361.5,67.5 C 364.5,69.6676 367,72.3343 369,75.5C 369.162,81.5339 368.662,87.5339 367.5,93.5C 367.532,95.7588 367.866,97.9255 368.5,100C 369.5,100.667 370.5,100.667 371.5,100C 377.571,96.6319 383.905,93.7986 390.5,91.5C 397.864,94.0108 405.031,97.0108 412,100.5C 412.772,100.355 413.439,100.022 414,99.5C 414.167,98.1667 414.333,96.8333 414.5,95.5C 413.008,88.8914 412.508,82.2248 413,75.5C 414.946,72.5798 417.113,69.9131 419.5,67.5C 433.341,66.4257 448.008,66.4257 463.5,67.5C 464.182,66.7573 464.849,66.0906 465.5,65.5C 469.219,68.0541 472.052,71.3875 474,75.5C 474.644,82.0824 474.144,88.5824 472.5,95C 472.667,96.5 472.833,98 473,99.5C 473.561,100.022 474.228,100.355 475,100.5C 481.78,96.9421 488.78,93.9421 496,91.5C 502.78,93.6387 509.28,96.4721 515.5,100C 516.5,100.667 517.5,100.667 518.5,100C 519.122,98.4309 519.456,96.7642 519.5,95C 518.541,88.8374 518.041,82.6708 518,76.5C 519.611,72.7252 522.111,69.7252 525.5,67.5C 540.401,66.2762 556.068,66.2762 572.5,67.5C 575.168,69.3355 577.334,71.6688 579,74.5C 578.99,83.1557 578.824,91.8223 578.5,100.5C 586.097,97.7996 593.597,94.7996 601,91.5C 607.993,93.9119 614.826,96.7453 621.5,100C 624.23,100.942 625.563,99.9415 625.5,97C 623.826,89.5698 623.326,82.0698 624,74.5C 625.666,71.6688 627.832,69.3355 630.5,67.5C 632.394,66.9524 634.06,65.9524 635.5,64.5C 635.205,65.8255 635.705,67.1588 637,68.5C 637.5,68 638,67.5 638.5,67C 649.167,66.3333 659.833,66.3333 670.5,67C 672.271,69.1135 673.771,68.9468 675,66.5C 675.77,67.5981 676.603,67.5981 677.5,66.5C 680.165,69.3347 682.665,72.3347 685,75.5C 685.055,82.1802 684.555,88.8469 683.5,95.5C 683.667,96.8333 683.833,98.1667 684,99.5C 684.561,100.022 685.228,100.355 686,100.5C 692.78,96.9421 699.78,93.9421 707,91.5C 713.78,93.6387 720.28,96.4721 726.5,100C 729.478,100.86 730.812,99.6934 730.5,96.5C 729.401,89.8524 728.901,83.1858 729,76.5C 730.198,72.7596 732.365,69.7596 735.5,67.5C 736.833,67.5 738.167,67.5 739.5,67.5C 739.202,64.6644 739.869,64.1644 741.5,66C 763.406,66.1724 785.239,66.6724 807,67.5C 808.664,65.1952 810.164,65.5285 811.5,68.5C 810.637,69.7264 810.637,71.0597 811.5,72.5C 794.867,91.1341 777.867,109.467 760.5,127.5C 758.178,126.103 756.511,126.77 755.5,129.5C 556.333,129.833 357.333,129.5 158.5,128.5C 162.874,124.128 166.874,119.461 170.5,114.5C 174.876,111.126 178.542,107.126 181.5,102.5C 192.167,91.5 202.833,80.5 213.5,69.5C 214.404,68.791 214.737,67.791 214.5,66.5C 225.172,66.3335 235.839,66.5002 246.5,67C 248.404,69.906 250.737,70.2394 253.5,68C 250.949,66.4842 251.282,65.6509 254.5,65.5C 258.628,68.2901 261.628,71.9568 263.5,76.5C 263.328,83.2113 262.661,89.878 261.5,96.5C 261.22,98.6228 262.053,99.9561 264,100.5C 270.951,97.1013 278.118,94.4346 285.5,92.5C 292.438,94.1294 299.104,96.6294 305.5,100C 308.478,100.86 309.812,99.6934 309.5,96.5C 308.421,90.2046 307.755,83.8712 307.5,77.5C 308.627,72.7077 311.293,69.041 315.5,66.5C 327.456,66.7969 339.456,66.7969 351.5,66.5C 351.351,65.448 351.517,64.448 352,63.5C 352.465,64.9308 353.299,66.0975 354.5,67C 356.985,66.9192 359.319,67.0859 361.5,67.5 Z"/></g>
<g><path style="opacity:1" fill="#faa50f" d="M 320.5,59.5 C 319.246,62.0934 317.58,64.4268 315.5,66.5C 311.293,69.041 308.627,72.7077 307.5,77.5C 306.701,79.7385 305.368,81.7385 303.5,83.5C 291.346,82.1757 279.179,82.1757 267,83.5C 265.278,83.3893 265.112,82.8893 266.5,82C 266.12,79.6742 265.12,77.8409 263.5,76.5C 261.628,71.9568 258.628,68.2901 254.5,65.5C 253.4,64.3951 252.733,63.0618 252.5,61.5C 254.297,61.3431 256.13,60.3431 258,58.5C 278.867,59.3867 299.701,59.72 320.5,59.5 Z"/></g>
<g><path style="opacity:1" fill="#fefefe" d="M 813.5,71.5 C 813.5,93.1667 813.5,114.833 813.5,136.5C 593.5,136.5 373.5,136.5 153.5,136.5C 154.5,134.833 155.833,133.5 157.5,132.5C 159.167,132.5 160.833,132.5 162.5,132.5C 360.5,132.667 558.5,132.5 756.5,132C 758.041,130.629 759.375,129.129 760.5,127.5C 777.867,109.467 794.867,91.1341 811.5,72.5C 812.167,72.1667 812.833,71.8333 813.5,71.5 Z"/></g>
<g><path style="opacity:1" fill="#febf0f" d="M 0.5,67.5 C 16.8333,67.5 33.1667,67.5 49.5,67.5C 49.3336,76.1731 49.5002,84.8397 50,93.5C 51.129,95.1412 52.629,96.1412 54.5,96.5C 55.4525,98.61 57.1192,99.7767 59.5,100C 58.5838,100.374 57.7504,100.874 57,101.5C 55.2134,100.657 53.3801,100.49 51.5,101C 50.1854,99.6054 50.5188,98.6054 52.5,98C 50.3697,96.4356 48.3697,96.4356 46.5,98C 47.8333,99 47.8333,100 46.5,101C 33.1708,101.5 19.8375,101.667 6.5,101.5C 6.64945,100.448 6.48278,99.448 6,98.5C 5.16322,104.837 4.49656,104.503 4,97.5C 3.66667,99.1667 3.33333,100.833 3,102.5C 2.66667,102.167 2.33333,101.833 2,101.5C 1.82474,96.9805 1.32474,92.6472 0.5,88.5C 0.5,81.5 0.5,74.5 0.5,67.5 Z"/></g>
<g><path style="opacity:1" fill="#fdbf0f" d="M 213.5,67.5 C 213.5,68.1667 213.5,68.8333 213.5,69.5C 202.833,80.5 192.167,91.5 181.5,102.5C 180.207,101.355 179.041,101.689 178,103.5C 177.5,103 177,102.5 176.5,102C 162.167,101.667 147.833,101.333 133.5,101C 131.508,100.426 130.008,99.259 129,97.5C 128.342,99.108 128.842,100.275 130.5,101C 128.833,101.167 127.167,101.333 125.5,101.5C 119.205,101.059 112.871,100.892 106.5,101C 107.956,100.577 108.456,99.7441 108,98.5C 106.581,99.4601 105.081,100.293 103.5,101C 98.662,101.354 93.9953,101.52 89.5,101.5C 88.5224,101.023 87.6891,100.357 87,99.5C 86.3109,100.357 85.4776,101.023 84.5,101.5C 85.0164,100.242 84.3497,99.2418 82.5,98.5C 83.6016,97.8243 84.6016,97.1577 85.5,96.5C 91.7113,93.9329 92.7113,90.0996 88.5,85C 84.2906,82.7605 80.7906,83.5938 78,87.5C 77.0228,90.8173 77.8562,93.484 80.5,95.5C 80.472,97.5824 81.1387,99.4157 82.5,101C 81.552,101.483 80.552,101.649 79.5,101.5C 79.5408,97.7566 78.8741,97.5899 77.5,101C 72.5,101.667 67.5,101.667 62.5,101C 62.0183,99.9916 61.8516,98.825 62,97.5C 59.7655,98.9802 57.9321,98.6469 56.5,96.5C 58.7525,96.0844 60.2525,94.751 61,92.5C 61.4997,84.1733 61.6664,75.84 61.5,67.5C 73.8333,67.5 86.1667,67.5 98.5,67.5C 98.1818,72.0323 98.5151,76.3656 99.5,80.5C 100.788,91.1204 106.788,96.4537 117.5,96.5C 129.225,97.3214 135.892,91.9881 137.5,80.5C 138.485,76.3656 138.818,72.0323 138.5,67.5C 163.678,67.4673 188.678,67.4673 213.5,67.5 Z"/></g>
<g><path style="opacity:1" fill="#fcc00f" d="M 125.5,80.5 C 125.069,84.568 122.736,86.568 118.5,86.5C 114.264,86.568 111.931,84.568 111.5,80.5C 111.5,76.1667 111.5,71.8333 111.5,67.5C 116.167,67.5 120.833,67.5 125.5,67.5C 125.5,71.8333 125.5,76.1667 125.5,80.5 Z"/></g>
<g><path style="opacity:1" fill="#f3900f" d="M 263.5,76.5 C 265.12,77.8409 266.12,79.6742 266.5,82C 265.112,82.8893 265.278,83.3893 267,83.5C 279.179,82.1757 291.346,82.1757 303.5,83.5C 305.368,81.7385 306.701,79.7385 307.5,77.5C 307.755,83.8712 308.421,90.2046 309.5,96.5C 309.812,99.6934 308.478,100.86 305.5,100C 299.104,96.6294 292.438,94.1294 285.5,92.5C 278.118,94.4346 270.951,97.1013 264,100.5C 262.053,99.9561 261.22,98.6228 261.5,96.5C 262.661,89.878 263.328,83.2113 263.5,76.5 Z"/></g>
<g><path style="opacity:1" fill="#252420" d="M 85.5,96.5 C 83.7085,96.634 82.0418,96.3007 80.5,95.5C 77.8562,93.484 77.0228,90.8173 78,87.5C 80.7906,83.5938 84.2906,82.7605 88.5,85C 92.7113,90.0996 91.7113,93.9329 85.5,96.5 Z"/></g>
<g><path style="opacity:1" fill="#fdb80f" d="M 0.5,88.5 C 1.32474,92.6472 1.82474,96.9805 2,101.5C 2.33333,101.833 2.66667,102.167 3,102.5C 3.33333,100.833 3.66667,99.1667 4,97.5C 4.49656,104.503 5.16322,104.837 6,98.5C 6.48278,99.448 6.64945,100.448 6.5,101.5C 19.8375,101.667 33.1708,101.5 46.5,101C 47.8333,100 47.8333,99 46.5,98C 48.3697,96.4356 50.3697,96.4356 52.5,98C 50.5188,98.6054 50.1854,99.6054 51.5,101C 53.3801,100.49 55.2134,100.657 57,101.5C 57.7504,100.874 58.5838,100.374 59.5,100C 57.1192,99.7767 55.4525,98.61 54.5,96.5C 55.1667,96.5 55.8333,96.5 56.5,96.5C 57.9321,98.6469 59.7655,98.9802 62,97.5C 61.8516,98.825 62.0183,99.9916 62.5,101C 67.5,101.667 72.5,101.667 77.5,101C 78.8741,97.5899 79.5408,97.7566 79.5,101.5C 80.552,101.649 81.552,101.483 82.5,101C 81.1387,99.4157 80.472,97.5824 80.5,95.5C 82.0418,96.3007 83.7085,96.634 85.5,96.5C 84.6016,97.1577 83.6016,97.8243 82.5,98.5C 84.3497,99.2418 85.0164,100.242 84.5,101.5C 85.4776,101.023 86.3109,100.357 87,99.5C 87.6891,100.357 88.5224,101.023 89.5,101.5C 93.9953,101.52 98.662,101.354 103.5,101C 105.081,100.293 106.581,99.4601 108,98.5C 108.456,99.7441 107.956,100.577 106.5,101C 112.871,100.892 119.205,101.059 125.5,101.5C 127.167,101.333 128.833,101.167 130.5,101C 128.842,100.275 128.342,99.108 129,97.5C 130.008,99.259 131.508,100.426 133.5,101C 147.833,101.333 162.167,101.667 176.5,102C 177,102.5 177.5,103 178,103.5C 179.041,101.689 180.207,101.355 181.5,102.5C 178.542,107.126 174.876,111.126 170.5,114.5C 142.875,115.158 115.208,115.492 87.5,115.5C 60.1191,115.496 32.9525,114.829 6,113.5C 5.13073,118.508 4.46406,118.175 4,112.5C 3.36147,118.542 2.1948,118.875 0.5,113.5C 0.5,105.167 0.5,96.8333 0.5,88.5 Z"/></g>
<g><path style="opacity:1" fill="#fcb10f" d="M 170.5,114.5 C 166.874,119.461 162.874,124.128 158.5,128.5C 156.067,129.548 156.067,130.214 158.5,130.5C 158.167,131.167 157.833,131.833 157.5,132.5C 155.833,133.5 154.5,134.833 153.5,136.5C 102.5,136.5 51.5,136.5 0.5,136.5C 0.5,128.833 0.5,121.167 0.5,113.5C 2.1948,118.875 3.36147,118.542 4,112.5C 4.46406,118.175 5.13073,118.508 6,113.5C 32.9525,114.829 60.1191,115.496 87.5,115.5C 115.208,115.492 142.875,115.158 170.5,114.5 Z"/></g>
<g><path style="opacity:1" fill="#43403f" d="M 158.5,128.5 C 357.333,129.5 556.333,129.833 755.5,129.5C 755.5,129.833 755.5,130.167 755.5,130.5C 556.5,130.5 357.5,130.5 158.5,130.5C 156.067,130.214 156.067,129.548 158.5,128.5 Z"/></g>
<g><path style="opacity:1" fill="#22211f" d="M 158.5,130.5 C 357.5,130.5 556.5,130.5 755.5,130.5C 557.833,131.167 360.167,131.833 162.5,132.5C 160.833,132.5 159.167,132.5 157.5,132.5C 157.833,131.833 158.167,131.167 158.5,130.5 Z"/></g>
<g><path style="opacity:1" fill="#353432" d="M 760.5,127.5 C 759.375,129.129 758.041,130.629 756.5,132C 558.5,132.5 360.5,132.667 162.5,132.5C 360.167,131.833 557.833,131.167 755.5,130.5C 755.5,130.167 755.5,129.833 755.5,129.5C 756.511,126.77 758.178,126.103 760.5,127.5 Z"/></g>
</svg>
