<?xml version="1.0" encoding="UTF-8"?>
<!DOCTYPE svg PUBLIC "-//W3C//DTD SVG 1.1//EN" "http://www.w3.org/Graphics/SVG/1.1/DTD/svg11.dtd">
<svg xmlns="http://www.w3.org/2000/svg" version="1.1" width="814px" height="137px" style="shape-rendering:geometricPrecision; text-rendering:geometricPrecision; image-rendering:optimizeQuality; fill-rule:evenodd; clip-rule:evenodd" xmlns:xlink="http://www.w3.org/1999/xlink">
<g><path style="opacity:1" fill="#f5f5f5" d="M 151.5,-0.5 C 372.167,-0.5 592.833,-0.5 813.5,-0.5C 813.5,22.1667 813.5,44.8333 813.5,67.5C 794.367,47.531 775.367,27.3643 756.5,7C 557.167,6.5 357.834,6.33333 158.5,6.5C 157.833,6.16667 157.167,5.83333 156.5,5.5C 155.5,3.83333 154.167,2.5 152.5,1.5C 152.167,0.833333 151.833,0.166667 151.5,-0.5 Z"/></g>
<g><path style="opacity:1" fill="#fcc123" d="M 0.5,-0.5 C 50.8333,-0.5 101.167,-0.5 151.5,-0.5C 151.833,0.166667 152.167,0.833333 152.5,1.5C 101.489,2.16215 50.8223,1.49548 0.5,-0.5 Z"/></g>
<g><path style="opacity:1" fill="#ffd67a" d="M -0.5,-0.5 C -0.166667,-0.5 0.166667,-0.5 0.5,-0.5C 50.8223,1.49548 101.489,2.16215 152.5,1.5C 154.167,2.5 155.5,3.83333 156.5,5.5C 154.647,6.12359 152.98,5.45693 151.5,3.5C 101.171,2.50006 50.8377,2.16673 0.5,2.5C 0.5,10.1667 0.5,17.8333 0.5,25.5C 0.5,31.1667 0.5,36.8333 0.5,42.5C 0.5,51.8333 0.5,61.1667 0.5,70.5C 0.5,76.5 0.5,82.5 0.5,88.5C 0.5,98.1667 0.5,107.833 0.5,117.5C 0.5,123.833 0.5,130.167 0.5,136.5C 0.166667,136.5 -0.166667,136.5 -0.5,136.5C -0.5,90.8333 -0.5,45.1667 -0.5,-0.5 Z"/></g>
<g><path style="opacity:1" fill="#fdb90f" d="M 156.5,5.5 C 157.167,5.83333 157.833,6.16667 158.5,6.5C 159.953,7.82487 159.619,8.6582 157.5,9C 161.724,13.9594 166.057,18.7927 170.5,23.5C 170.741,26.999 169.908,27.3323 168,24.5C 166.632,26.027 166.132,27.527 166.5,29C 112.596,29.169 58.7628,29.669 5,30.5C 4.66667,28.5 4.33333,26.5 4,24.5C 3.36147,30.5416 2.1948,30.8749 0.5,25.5C 0.5,17.8333 0.5,10.1667 0.5,2.5C 50.8377,2.16673 101.171,2.50006 151.5,3.5C 152.98,5.45693 154.647,6.12359 156.5,5.5 Z"/></g>
<g><path style="opacity:1" fill="#272727" d="M 158.5,6.5 C 357.834,6.33333 557.167,6.5 756.5,7C 775.367,27.3643 794.367,47.531 813.5,67.5C 813.5,68.1667 813.5,68.8333 813.5,69.5C 810.571,69.0948 807.738,69.0948 805,69.5C 804.5,69.1667 804,68.8333 803.5,68.5C 804.167,68.1667 804.833,67.8333 805.5,67.5C 805,66.5 804.5,65.5 804,64.5C 803.138,66.087 802.471,67.7536 802,69.5C 800.105,65.7016 798.939,65.5349 798.5,69C 776.956,69.2978 756.289,69.4645 736.5,69.5C 738.051,66.4372 740.218,63.7705 743,61.5C 743.667,60.5 743.667,59.5 743,58.5C 735.403,56.7049 727.903,54.5382 720.5,52C 716.541,45.9173 712.708,39.7506 709,33.5C 707.062,32.1398 705.396,32.4732 704,34.5C 701.233,40.2582 698.066,45.7582 694.5,51C 692.725,52.4389 690.725,53.4389 688.5,54C 682.464,55.0612 676.464,56.2278 670.5,57.5C 670.343,58.8734 670.51,60.2068 671,61.5C 673.415,64.014 675.581,66.6806 677.5,69.5C 675.876,69.6399 674.71,68.9733 674,67.5C 673.333,70.1667 672.667,70.1667 672,67.5C 666.578,68.8079 660.911,69.4746 655,69.5C 646.164,68.9636 637.997,68.9636 630.5,69.5C 632.795,66.7029 635.295,64.0362 638,61.5C 638.667,60.5 638.667,59.5 638,58.5C 631.006,56.1655 623.839,54.3322 616.5,53C 611.46,47.094 607.294,40.594 604,33.5C 601.415,32.1154 599.415,32.7821 598,35.5C 595.548,40.9073 592.714,46.0739 589.5,51C 587.725,52.4389 585.725,53.4389 583.5,54C 577.789,54.7423 572.122,55.7423 566.5,57C 564.032,58.5883 563.866,60.4216 566,62.5C 568.372,64.7032 570.539,67.0365 572.5,69.5C 570.968,70.3696 569.468,70.0362 568,68.5C 555.679,69.4616 543.179,69.6282 530.5,69C 531.167,68.3333 531.833,67.6667 532.5,67C 530.633,66.2888 529.133,66.7888 528,68.5C 527.601,68.2716 527.435,67.9382 527.5,67.5C 529.968,65.3592 531.634,62.6925 532.5,59.5C 531.638,57.233 529.971,56.233 527.5,56.5C 521.416,55.4485 515.416,53.9485 509.5,52C 505.623,46.4153 502.123,40.5819 499,34.5C 497.604,32.4732 495.938,32.1398 494,33.5C 490.793,40.0863 486.959,46.253 482.5,52C 475.639,54.1728 468.639,55.8395 461.5,57C 459.789,58.1332 459.289,59.6332 460,61.5C 461.704,63.3734 463.537,65.0401 465.5,66.5C 465.5,66.8333 465.5,67.1667 465.5,67.5C 463.283,66.7624 461.116,66.4291 459,66.5C 458.5,67.6667 457.667,68.5 456.5,69C 444.61,69.6543 432.944,69.4876 421.5,68.5C 423.27,65.5536 425.27,62.7203 427.5,60C 426.793,57.46 425.127,56.2933 422.5,56.5C 416.294,55.7449 410.294,54.2449 404.5,52C 400.602,46.4287 397.102,40.5954 394,34.5C 392,31.8333 390,31.8333 388,34.5C 384.96,40.0816 381.793,45.5816 378.5,51C 377.328,51.4186 376.328,52.0853 375.5,53C 368.754,54.1866 362.088,55.6866 355.5,57.5C 354.386,58.723 354.219,60.0563 355,61.5C 356.517,63.2395 358.017,64.9062 359.5,66.5C 360.5,67.8333 361.5,69.1667 362.5,70.5C 361.25,70.5774 360.417,71.244 360,72.5C 359.519,70.522 358.353,69.1887 356.5,68.5C 351.029,69.12 345.529,69.4533 340,69.5C 334.75,69.4703 329.75,68.8036 325,67.5C 324.323,69.689 323.156,70.0224 321.5,68.5C 318.812,69.0049 316.645,70.3382 315,72.5C 314.329,71.7476 313.496,71.4142 312.5,71.5C 315.462,68.0359 318.629,64.7025 322,61.5C 322.711,59.6332 322.211,58.1332 320.5,57C 313.299,56.0939 306.299,54.4272 299.5,52C 295.041,46.253 291.207,40.0863 288,33.5C 286.333,32.1667 284.667,32.1667 283,33.5C 279.706,40.594 275.54,47.094 270.5,53C 263.092,54.079 255.926,55.9124 249,58.5C 248.333,59.5 248.333,60.5 249,61.5C 251.04,63.3702 252.873,65.3702 254.5,67.5C 253.175,68.9526 252.342,68.6192 252,66.5C 251.517,67.448 251.351,68.448 251.5,69.5C 238.585,68.883 225.918,69.5497 213.5,71.5C 213.291,70.0783 212.791,68.745 212,67.5C 203.967,58.6357 195.8,49.969 187.5,41.5C 181.805,35.4737 176.139,29.4737 170.5,23.5C 166.057,18.7927 161.724,13.9594 157.5,9C 159.619,8.6582 159.953,7.82487 158.5,6.5 Z"/></g>
<g><path style="opacity:1" fill="#fbb00f" d="M 170.5,23.5 C 176.139,29.4737 181.805,35.4737 187.5,41.5C 186.854,43.8504 185.687,45.1838 184,45.5C 183.193,41.551 182.693,41.551 182.5,45.5C 168.527,46.1096 154.694,45.4429 141,43.5C 140.619,44.4818 139.786,45.1485 138.5,45.5C 135.3,45.0261 134.967,44.0261 137.5,42.5C 135.223,41.5793 132.89,40.9126 130.5,40.5C 118.436,34.6417 108.436,36.975 100.5,47.5C 99.8166,45.8235 98.4832,45.1568 96.5,45.5C 96.5489,50.5388 95.8823,50.7055 94.5,46C 90.5,45.8333 86.5,45.6667 82.5,45.5C 78.0754,45.5374 73.9087,46.2041 70,47.5C 67.8333,46 68,44.8333 70.5,44C 69.1068,42.8289 68.2735,41.3289 68,39.5C 67.7216,40.4158 67.2216,41.0825 66.5,41.5C 66.0825,40.7784 65.4158,40.2784 64.5,40C 54.5,39.3333 44.5,39.3333 34.5,40C 33.6195,40.7083 32.9528,41.5416 32.5,42.5C 31.596,43.209 31.2627,44.209 31.5,45.5C 22.399,44.8797 13.5657,45.5464 5,47.5C 4.66667,45.8333 4.33333,44.1667 4,42.5C 2.96086,46.2229 1.79419,46.2229 0.5,42.5C 0.5,36.8333 0.5,31.1667 0.5,25.5C 2.1948,30.8749 3.36147,30.5416 4,24.5C 4.33333,26.5 4.66667,28.5 5,30.5C 58.7628,29.669 112.596,29.169 166.5,29C 166.132,27.527 166.632,26.027 168,24.5C 169.908,27.3323 170.741,26.999 170.5,23.5 Z"/></g>
<g><path style="opacity:1" fill="#585858" d="M 630.5,69.5 C 628.113,71.9131 625.946,74.5798 624,77.5C 623.554,84.3849 624.054,91.2182 625.5,98C 625.896,101.939 624.229,103.272 620.5,102C 614.576,98.368 608.243,95.868 601.5,94.5C 593.718,96.8934 586.052,99.5601 578.5,102.5C 579.143,94.1696 579.31,85.8363 579,77.5C 577.726,74.0641 575.559,71.3974 572.5,69.5C 570.539,67.0365 568.372,64.7032 566,62.5C 563.866,60.4216 564.032,58.5883 566.5,57C 572.122,55.7423 577.789,54.7423 583.5,54C 585.725,53.4389 587.725,52.4389 589.5,51C 592.714,46.0739 595.548,40.9073 598,35.5C 599.415,32.7821 601.415,32.1154 604,33.5C 607.294,40.594 611.46,47.094 616.5,53C 623.839,54.3322 631.006,56.1655 638,58.5C 638.667,59.5 638.667,60.5 638,61.5C 635.295,64.0362 632.795,66.7029 630.5,69.5 Z"/></g>
<g><path style="opacity:1" fill="#585858" d="M 736.5,69.5 C 733.5,71.6676 731,74.3343 729,77.5C 728.508,84.2248 729.008,90.8914 730.5,97.5C 730.333,98.8333 730.167,100.167 730,101.5C 729.439,102.022 728.772,102.355 728,102.5C 722.989,100.745 718.156,98.5783 713.5,96C 711.256,95.0943 708.923,94.5943 706.5,94.5C 699.201,97.327 691.868,99.827 684.5,102C 683.869,100.094 683.536,98.0937 683.5,96C 684.403,90.5017 684.903,85.0017 685,79.5C 683.819,75.1555 681.319,71.8221 677.5,69.5C 675.581,66.6806 673.415,64.014 671,61.5C 670.51,60.2068 670.343,58.8734 670.5,57.5C 676.464,56.2278 682.464,55.0612 688.5,54C 690.725,53.4389 692.725,52.4389 694.5,51C 698.066,45.7582 701.233,40.2582 704,34.5C 705.396,32.4732 707.062,32.1398 709,33.5C 712.708,39.7506 716.541,45.9173 720.5,52C 727.903,54.5382 735.403,56.7049 743,58.5C 743.667,59.5 743.667,60.5 743,61.5C 740.218,63.7705 738.051,66.4372 736.5,69.5 Z"/></g>
<g><path style="opacity:1" fill="#222221" d="M 130.5,40.5 C 133.223,43.0624 135.389,46.0624 137,49.5C 137.5,60.495 137.667,71.495 137.5,82.5C 135.946,93.3829 129.612,99.0496 118.5,99.5C 107.835,99.1593 101.501,93.826 99.5,83.5C 99.2074,71.4498 99.5407,59.4498 100.5,47.5C 108.436,36.975 118.436,34.6417 130.5,40.5 Z"/></g>
<g><path style="opacity:1" fill="#f7a70f" d="M 100.5,47.5 C 99.5407,59.4498 99.2074,71.4498 99.5,83.5C 98.5151,79.3656 98.1818,75.0323 98.5,70.5C 88.8276,70.3335 79.1609,70.5002 69.5,71C 68.944,71.3826 68.6107,71.8826 68.5,72.5C 65.5687,67.1976 61.2353,63.531 55.5,61.5C 59.1444,56.6879 62.9777,52.0212 67,47.5C 67.6776,45.4024 67.5109,43.4024 66.5,41.5C 67.2216,41.0825 67.7216,40.4158 68,39.5C 68.2735,41.3289 69.1068,42.8289 70.5,44C 68,44.8333 67.8333,46 70,47.5C 73.9087,46.2041 78.0754,45.5374 82.5,45.5C 86.5,45.6667 90.5,45.8333 94.5,46C 95.8823,50.7055 96.5489,50.5388 96.5,45.5C 98.4832,45.1568 99.8166,45.8235 100.5,47.5 Z"/></g>
<g><path style="opacity:1" fill="#f9af0f" d="M 312.5,71.5 C 311.833,72.1667 311.167,72.8333 310.5,73.5C 309.213,72.2317 308.213,72.565 307.5,74.5C 305.981,73.1487 304.648,71.6487 303.5,70C 292.5,69.3333 281.5,69.3333 270.5,70C 269.181,71.6279 267.848,71.4613 266.5,69.5C 265.497,71.542 264.163,71.8754 262.5,70.5C 261.824,71.6016 261.158,72.6016 260.5,73.5C 258.833,71.1667 256.833,69.1667 254.5,67.5C 252.873,65.3702 251.04,63.3702 249,61.5C 248.333,60.5 248.333,59.5 249,58.5C 255.926,55.9124 263.092,54.079 270.5,53C 275.54,47.094 279.706,40.594 283,33.5C 284.667,32.1667 286.333,32.1667 288,33.5C 291.207,40.0863 295.041,46.253 299.5,52C 306.299,54.4272 313.299,56.0939 320.5,57C 322.211,58.1332 322.711,59.6332 322,61.5C 318.629,64.7025 315.462,68.0359 312.5,71.5 Z"/></g>
<g><path style="opacity:1" fill="#fab10f" d="M 422.5,56.5 C 422.721,57.7348 423.388,58.7348 424.5,59.5C 423.469,60.7003 422.635,62.0337 422,63.5C 419.808,62.6005 417.642,61.6005 415.5,60.5C 415.089,61.2624 414.923,62.2624 415,63.5C 398.907,62.3425 382.741,62.1758 366.5,63C 364.262,65.2424 361.929,66.4091 359.5,66.5C 358.017,64.9062 356.517,63.2395 355,61.5C 354.219,60.0563 354.386,58.723 355.5,57.5C 362.088,55.6866 368.754,54.1866 375.5,53C 376.328,52.0853 377.328,51.4186 378.5,51C 381.793,45.5816 384.96,40.0816 388,34.5C 390,31.8333 392,31.8333 394,34.5C 397.102,40.5954 400.602,46.4287 404.5,52C 410.294,54.2449 416.294,55.7449 422.5,56.5 Z"/></g>
<g><path style="opacity:1" fill="#f9b10f" d="M 527.5,56.5 C 529.5,58.5286 529.833,60.8619 528.5,63.5C 527.808,62.9747 527.308,62.3081 527,61.5C 524.448,62.1933 522.281,63.5267 520.5,65.5C 519.713,64.7579 519.047,63.9246 518.5,63C 502.167,62.6667 485.833,62.3333 469.5,62C 469.833,61.6667 470.167,61.3333 470.5,61C 468.866,60.5065 467.199,60.3398 465.5,60.5C 464.62,62.6112 464.62,64.6112 465.5,66.5C 463.537,65.0401 461.704,63.3734 460,61.5C 459.289,59.6332 459.789,58.1332 461.5,57C 468.639,55.8395 475.639,54.1728 482.5,52C 486.959,46.253 490.793,40.0863 494,33.5C 495.938,32.1398 497.604,32.4732 499,34.5C 502.123,40.5819 505.623,46.4153 509.5,52C 515.416,53.9485 521.416,55.4485 527.5,56.5 Z"/></g>
<g><path style="opacity:1" fill="#f8a60f" d="M 0.5,42.5 C 1.79419,46.2229 2.96086,46.2229 4,42.5C 4.33333,44.1667 4.66667,45.8333 5,47.5C 13.5657,45.5464 22.399,44.8797 31.5,45.5C 31.2627,44.209 31.596,43.209 32.5,42.5C 32.1043,45.0444 32.771,47.2111 34.5,49C 40.1667,49.3333 45.8333,49.6667 51.5,50C 46.9735,54.8922 42.8068,60.0589 39,65.5C 38.3603,67.265 38.5269,68.9317 39.5,70.5C 26.5,70.5 13.5,70.5 0.5,70.5C 0.5,61.1667 0.5,51.8333 0.5,42.5 Z"/></g>
<g><path style="opacity:1" fill="#f3a310" d="M 125.5,83.5 C 125.5,79.1667 125.5,74.8333 125.5,70.5C 120.833,70.5 116.167,70.5 111.5,70.5C 111.5,74.8333 111.5,79.1667 111.5,83.5C 110.341,73.3416 110.175,63.0083 111,52.5C 114.013,47.4648 118.18,46.2981 123.5,49C 124.46,50.4194 125.293,51.9194 126,53.5C 126.825,63.6753 126.658,73.6753 125.5,83.5 Z"/></g>
<g><path style="opacity:1" fill="#f8a60f" d="M 130.5,40.5 C 132.89,40.9126 135.223,41.5793 137.5,42.5C 134.967,44.0261 135.3,45.0261 138.5,45.5C 139.786,45.1485 140.619,44.4818 141,43.5C 154.694,45.4429 168.527,46.1096 182.5,45.5C 182.693,41.551 183.193,41.551 184,45.5C 185.687,45.1838 186.854,43.8504 187.5,41.5C 195.8,49.969 203.967,58.6357 212,67.5C 212.791,68.745 213.291,70.0783 213.5,71.5C 213.167,71.5 212.833,71.5 212.5,71.5C 212.217,70.7109 211.717,70.0442 211,69.5C 187.125,70.4618 162.958,70.7951 138.5,70.5C 138.817,74.7016 138.483,78.7016 137.5,82.5C 137.667,71.495 137.5,60.495 137,49.5C 135.389,46.0624 133.223,43.0624 130.5,40.5 Z"/></g>
<g><path style="opacity:1" fill="#212121" d="M 813.5,69.5 C 813.5,69.8333 813.5,70.1667 813.5,70.5C 794.734,91.1041 775.734,111.604 756.5,132C 556.5,132.5 356.5,132.667 156.5,132.5C 161.229,127.776 165.563,122.776 169.5,117.5C 173.833,113.833 177.833,109.833 181.5,105.5C 191.805,94.1925 202.138,82.8592 212.5,71.5C 212.833,71.5 213.167,71.5 213.5,71.5C 225.918,69.5497 238.585,68.883 251.5,69.5C 251.351,68.448 251.517,67.448 252,66.5C 252.342,68.6192 253.175,68.9526 254.5,67.5C 256.833,69.1667 258.833,71.1667 260.5,73.5C 263.197,77.693 264.197,82.3597 263.5,87.5C 262.513,92.3054 262.179,97.3054 262.5,102.5C 270.052,99.5601 277.718,96.8934 285.5,94.5C 292.146,96.1064 298.48,98.6064 304.5,102C 308.229,103.272 309.896,101.939 309.5,98C 308.232,91.8933 307.565,85.7267 307.5,79.5C 307.975,77.2163 308.975,75.2163 310.5,73.5C 311.167,72.8333 311.833,72.1667 312.5,71.5C 313.496,71.4142 314.329,71.7476 315,72.5C 316.645,70.3382 318.812,69.0049 321.5,68.5C 323.156,70.0224 324.323,69.689 325,67.5C 329.75,68.8036 334.75,69.4703 340,69.5C 345.529,69.4533 351.029,69.12 356.5,68.5C 358.353,69.1887 359.519,70.522 360,72.5C 360.417,71.244 361.25,70.5774 362.5,70.5C 367.781,74.0652 370.115,79.0652 369.5,85.5C 367.795,90.9033 367.128,96.57 367.5,102.5C 375.235,100.138 382.901,97.4712 390.5,94.5C 398.237,97.0488 405.904,99.5488 413.5,102C 414.207,94.863 413.874,87.6963 412.5,80.5C 413.928,75.3941 416.928,71.3941 421.5,68.5C 432.944,69.4876 444.61,69.6543 456.5,69C 457.667,68.5 458.5,67.6667 459,66.5C 461.116,66.4291 463.283,66.7624 465.5,67.5C 468.848,70.8514 471.848,74.5181 474.5,78.5C 474.5,80.5 474.5,82.5 474.5,84.5C 473.611,88.822 472.944,93.322 472.5,98C 472.559,99.4357 472.892,100.769 473.5,102C 480.991,99.6816 488.491,97.1816 496,94.5C 503.78,97.3057 511.613,99.9724 519.5,102.5C 519.269,94.4948 518.935,86.4948 518.5,78.5C 518.893,76.7162 519.559,75.0495 520.5,73.5C 522.833,71.5 525.167,69.5 527.5,67.5C 527.435,67.9382 527.601,68.2716 528,68.5C 529.133,66.7888 530.633,66.2888 532.5,67C 531.833,67.6667 531.167,68.3333 530.5,69C 543.179,69.6282 555.679,69.4616 568,68.5C 569.468,70.0362 570.968,70.3696 572.5,69.5C 575.559,71.3974 577.726,74.0641 579,77.5C 579.31,85.8363 579.143,94.1696 578.5,102.5C 586.052,99.5601 593.718,96.8934 601.5,94.5C 608.243,95.868 614.576,98.368 620.5,102C 624.229,103.272 625.896,101.939 625.5,98C 624.054,91.2182 623.554,84.3849 624,77.5C 625.946,74.5798 628.113,71.9131 630.5,69.5C 637.997,68.9636 646.164,68.9636 655,69.5C 660.911,69.4746 666.578,68.8079 672,67.5C 672.667,70.1667 673.333,70.1667 674,67.5C 674.71,68.9733 675.876,69.6399 677.5,69.5C 681.319,71.8221 683.819,75.1555 685,79.5C 684.903,85.0017 684.403,90.5017 683.5,96C 683.536,98.0937 683.869,100.094 684.5,102C 691.868,99.827 699.201,97.327 706.5,94.5C 708.923,94.5943 711.256,95.0943 713.5,96C 718.156,98.5783 722.989,100.745 728,102.5C 728.772,102.355 729.439,102.022 730,101.5C 730.167,100.167 730.333,98.8333 730.5,97.5C 729.008,90.8914 728.508,84.2248 729,77.5C 731,74.3343 733.5,71.6676 736.5,69.5C 756.289,69.4645 776.956,69.2978 798.5,69C 798.939,65.5349 800.105,65.7016 802,69.5C 802.471,67.7536 803.138,66.087 804,64.5C 804.5,65.5 805,66.5 805.5,67.5C 804.833,67.8333 804.167,68.1667 803.5,68.5C 804,68.8333 804.5,69.1667 805,69.5C 807.738,69.0948 810.571,69.0948 813.5,69.5 Z"/></g>
<g><path style="opacity:1" fill="#f9a50f" d="M 422.5,56.5 C 425.127,56.2933 426.793,57.46 427.5,60C 425.27,62.7203 423.27,65.5536 421.5,68.5C 416.928,71.3941 413.928,75.3941 412.5,80.5C 411.504,80.5858 410.671,80.2524 410,79.5C 404.243,80.8096 398.243,81.4763 392,81.5C 385.757,81.4763 379.757,80.8096 374,79.5C 373.683,81.3008 373.016,81.6341 372,80.5C 371.667,82.5 371.333,84.5 371,86.5C 370.617,85.944 370.117,85.6107 369.5,85.5C 370.115,79.0652 367.781,74.0652 362.5,70.5C 361.5,69.1667 360.5,67.8333 359.5,66.5C 361.929,66.4091 364.262,65.2424 366.5,63C 382.741,62.1758 398.907,62.3425 415,63.5C 414.923,62.2624 415.089,61.2624 415.5,60.5C 417.642,61.6005 419.808,62.6005 422,63.5C 422.635,62.0337 423.469,60.7003 424.5,59.5C 423.388,58.7348 422.721,57.7348 422.5,56.5 Z"/></g>
<g><path style="opacity:1" fill="#faa70f" d="M 527.5,56.5 C 529.971,56.233 531.638,57.233 532.5,59.5C 531.634,62.6925 529.968,65.3592 527.5,67.5C 525.167,69.5 522.833,71.5 520.5,73.5C 518.797,72.3398 518.131,73.0065 518.5,75.5C 504.753,74.8624 491.253,75.5291 478,77.5C 477.581,76.3279 476.915,75.3279 476,74.5C 477.008,76.366 476.508,77.6993 474.5,78.5C 471.848,74.5181 468.848,70.8514 465.5,67.5C 465.5,67.1667 465.5,66.8333 465.5,66.5C 464.62,64.6112 464.62,62.6112 465.5,60.5C 467.199,60.3398 468.866,60.5065 470.5,61C 470.167,61.3333 469.833,61.6667 469.5,62C 485.833,62.3333 502.167,62.6667 518.5,63C 519.047,63.9246 519.713,64.7579 520.5,65.5C 522.281,63.5267 524.448,62.1933 527,61.5C 527.308,62.3081 527.808,62.9747 528.5,63.5C 529.833,60.8619 529.5,58.5286 527.5,56.5 Z"/></g>
<g><path style="opacity:1" fill="#fefefe" d="M 813.5,70.5 C 813.5,92.5 813.5,114.5 813.5,136.5C 593.167,136.5 372.833,136.5 152.5,136.5C 154.328,135.717 155.661,134.384 156.5,132.5C 356.5,132.667 556.5,132.5 756.5,132C 775.734,111.604 794.734,91.1041 813.5,70.5 Z"/></g>
<g><path style="opacity:1" fill="#242221" d="M 66.5,41.5 C 67.5109,43.4024 67.6776,45.4024 67,47.5C 62.9777,52.0212 59.1444,56.6879 55.5,61.5C 61.2353,63.531 65.5687,67.1976 68.5,72.5C 70.8711,88.795 63.8711,97.795 47.5,99.5C 42.0796,99.395 37.0796,97.895 32.5,95C 30.283,90.317 31.6163,87.4836 36.5,86.5C 40.3764,87.4045 44.2097,88.4045 48,89.5C 56.0009,88.1826 59.0009,83.5159 57,75.5C 53.2437,71.4543 48.7437,70.4543 43.5,72.5C 41.6455,72.6598 40.3121,71.9931 39.5,70.5C 38.5269,68.9317 38.3603,67.265 39,65.5C 42.8068,60.0589 46.9735,54.8922 51.5,50C 45.8333,49.6667 40.1667,49.3333 34.5,49C 32.771,47.2111 32.1043,45.0444 32.5,42.5C 32.9528,41.5416 33.6195,40.7083 34.5,40C 44.5,39.3333 54.5,39.3333 64.5,40C 65.4158,40.2784 66.0825,40.7784 66.5,41.5 Z"/></g>
<g><path style="opacity:1" fill="#f99f0f" d="M 310.5,73.5 C 308.975,75.2163 307.975,77.2163 307.5,79.5C 307.2,83.0456 305.534,85.8789 302.5,88C 291.505,88.4998 280.505,88.6665 269.5,88.5C 269.649,87.448 269.483,86.448 269,85.5C 268.55,90.021 266.717,90.6876 263.5,87.5C 264.197,82.3597 263.197,77.693 260.5,73.5C 261.158,72.6016 261.824,71.6016 262.5,70.5C 264.163,71.8754 265.497,71.542 266.5,69.5C 267.848,71.4613 269.181,71.6279 270.5,70C 281.5,69.3333 292.5,69.3333 303.5,70C 304.648,71.6487 305.981,73.1487 307.5,74.5C 308.213,72.565 309.213,72.2317 310.5,73.5 Z"/></g>
<g><path style="opacity:1" fill="#fcbe0f" d="M 212.5,71.5 C 202.138,82.8592 191.805,94.1925 181.5,105.5C 180.061,104.491 178.728,104.824 177.5,106.5C 176.667,105.5 175.833,104.5 175,103.5C 118.667,104.833 62.3333,104.833 6,103.5C 5.66667,104.167 5.33333,104.833 5,105.5C 4.33333,97.5 3.66667,97.5 3,105.5C 1.87867,99.8248 1.04534,94.1581 0.5,88.5C 0.5,82.5 0.5,76.5 0.5,70.5C 13.5,70.5 26.5,70.5 39.5,70.5C 40.3121,71.9931 41.6455,72.6598 43.5,72.5C 48.7437,70.4543 53.2437,71.4543 57,75.5C 59.0009,83.5159 56.0009,88.1826 48,89.5C 44.2097,88.4045 40.3764,87.4045 36.5,86.5C 31.6163,87.4836 30.283,90.317 32.5,95C 37.0796,97.895 42.0796,99.395 47.5,99.5C 63.8711,97.795 70.8711,88.795 68.5,72.5C 68.6107,71.8826 68.944,71.3826 69.5,71C 79.1609,70.5002 88.8276,70.3335 98.5,70.5C 98.1818,75.0323 98.5151,79.3656 99.5,83.5C 101.501,93.826 107.835,99.1593 118.5,99.5C 129.612,99.0496 135.946,93.3829 137.5,82.5C 138.483,78.7016 138.817,74.7016 138.5,70.5C 162.958,70.7951 187.125,70.4618 211,69.5C 211.717,70.0442 212.217,70.7109 212.5,71.5 Z"/></g>
<g><path style="opacity:1" fill="#fdc10f" d="M 125.5,83.5 C 124.578,87.0833 122.244,88.7499 118.5,88.5C 114.756,88.7499 112.422,87.0833 111.5,83.5C 111.5,79.1667 111.5,74.8333 111.5,70.5C 116.167,70.5 120.833,70.5 125.5,70.5C 125.5,74.8333 125.5,79.1667 125.5,83.5 Z"/></g>
<g><path style="opacity:1" fill="#f99b0e" d="M 520.5,73.5 C 519.559,75.0495 518.893,76.7162 518.5,78.5C 515.976,80.8927 514.476,83.8927 514,87.5C 513.333,86.1667 512.667,86.1667 512,87.5C 511.316,88.7839 511.483,89.9505 512.5,91C 510.939,91.1881 510.272,90.3547 510.5,88.5C 499.41,87.8703 488.577,88.5369 478,90.5C 477.641,87.4557 476.974,87.1224 476,89.5C 475.392,87.8455 474.892,86.1789 474.5,84.5C 474.5,82.5 474.5,80.5 474.5,78.5C 476.508,77.6993 477.008,76.366 476,74.5C 476.915,75.3279 477.581,76.3279 478,77.5C 491.253,75.5291 504.753,74.8624 518.5,75.5C 518.131,73.0065 518.797,72.3398 520.5,73.5 Z"/></g>
<g><path style="opacity:1" fill="#f38e0f" d="M 307.5,79.5 C 307.565,85.7267 308.232,91.8933 309.5,98C 309.896,101.939 308.229,103.272 304.5,102C 298.48,98.6064 292.146,96.1064 285.5,94.5C 277.718,96.8934 270.052,99.5601 262.5,102.5C 262.179,97.3054 262.513,92.3054 263.5,87.5C 266.717,90.6876 268.55,90.021 269,85.5C 269.483,86.448 269.649,87.448 269.5,88.5C 280.505,88.6665 291.505,88.4998 302.5,88C 305.534,85.8789 307.2,83.0456 307.5,79.5 Z"/></g>
<g><path style="opacity:1" fill="#f4900f" d="M 412.5,80.5 C 413.874,87.6963 414.207,94.863 413.5,102C 405.904,99.5488 398.237,97.0488 390.5,94.5C 382.901,97.4712 375.235,100.138 367.5,102.5C 367.128,96.57 367.795,90.9033 369.5,85.5C 370.117,85.6107 370.617,85.944 371,86.5C 371.333,84.5 371.667,82.5 372,80.5C 373.016,81.6341 373.683,81.3008 374,79.5C 379.757,80.8096 385.757,81.4763 392,81.5C 398.243,81.4763 404.243,80.8096 410,79.5C 410.671,80.2524 411.504,80.5858 412.5,80.5 Z"/></g>
<g><path style="opacity:1" fill="#f28d10" d="M 518.5,78.5 C 518.935,86.4948 519.269,94.4948 519.5,102.5C 511.613,99.9724 503.78,97.3057 496,94.5C 488.491,97.1816 480.991,99.6816 473.5,102C 472.892,100.769 472.559,99.4357 472.5,98C 472.944,93.322 473.611,88.822 474.5,84.5C 474.892,86.1789 475.392,87.8455 476,89.5C 476.974,87.1224 477.641,87.4557 478,90.5C 488.577,88.5369 499.41,87.8703 510.5,88.5C 510.272,90.3547 510.939,91.1881 512.5,91C 511.483,89.9505 511.316,88.7839 512,87.5C 512.667,86.1667 513.333,86.1667 514,87.5C 514.476,83.8927 515.976,80.8927 518.5,78.5 Z"/></g>
<g><path style="opacity:1" fill="#252321" d="M 80.5,86.5 C 87.1816,85.3733 90.6816,88.04 91,94.5C 90.5348,95.9308 89.7014,97.0975 88.5,98C 82.3607,100.149 78.694,98.1491 77.5,92C 77.8627,89.8077 78.8627,87.9744 80.5,86.5 Z"/></g>
<g><path style="opacity:1" fill="#fdb80f" d="M 0.5,88.5 C 1.04534,94.1581 1.87867,99.8248 3,105.5C 3.66667,97.5 4.33333,97.5 5,105.5C 5.33333,104.833 5.66667,104.167 6,103.5C 62.3333,104.833 118.667,104.833 175,103.5C 175.833,104.5 176.667,105.5 177.5,106.5C 178.728,104.824 180.061,104.491 181.5,105.5C 177.833,109.833 173.833,113.833 169.5,117.5C 169.265,116.903 168.765,116.57 168,116.5C 165.901,118.534 163.568,118.868 161,117.5C 135.109,118.82 109.109,119.487 83,119.5C 57.1187,119.495 31.452,118.829 6,117.5C 5.66667,118.5 5.33333,119.5 5,120.5C 4.66667,118.833 4.33333,117.167 4,115.5C 3.66667,116.5 3.33333,117.5 3,118.5C 2.32924,117.748 1.4959,117.414 0.5,117.5C 0.5,107.833 0.5,98.1667 0.5,88.5 Z"/></g>
<g><path style="opacity:1" fill="#fcb00f" d="M 169.5,117.5 C 165.563,122.776 161.229,127.776 156.5,132.5C 155.661,134.384 154.328,135.717 152.5,136.5C 101.833,136.5 51.1667,136.5 0.5,136.5C 0.5,130.167 0.5,123.833 0.5,117.5C 1.4959,117.414 2.32924,117.748 3,118.5C 3.33333,117.5 3.66667,116.5 4,115.5C 4.33333,117.167 4.66667,118.833 5,120.5C 5.33333,119.5 5.66667,118.5 6,117.5C 31.452,118.829 57.1187,119.495 83,119.5C 109.109,119.487 135.109,118.82 161,117.5C 163.568,118.868 165.901,118.534 168,116.5C 168.765,116.57 169.265,116.903 169.5,117.5 Z"/></g>
</svg>
