<?xml version="1.0" encoding="UTF-8"?>
<!DOCTYPE svg PUBLIC "-//W3C//DTD SVG 1.1//EN" "http://www.w3.org/Graphics/SVG/1.1/DTD/svg11.dtd">
<svg xmlns="http://www.w3.org/2000/svg" version="1.1" width="814px" height="137px" style="shape-rendering:geometricPrecision; text-rendering:geometricPrecision; image-rendering:optimizeQuality; fill-rule:evenodd; clip-rule:evenodd" xmlns:xlink="http://www.w3.org/1999/xlink">
<g><path style="opacity:1" fill="#fefefe" d="M 151.5,0.5 C 151.5,0.166667 151.5,-0.166667 151.5,-0.5C 372.167,-0.5 592.833,-0.5 813.5,-0.5C 813.5,22.1667 813.5,44.8333 813.5,67.5C 794.005,47.1714 774.672,26.6714 755.5,6C 556.167,5.5 356.834,5.33333 157.5,5.5C 155.5,3.83333 153.5,2.16667 151.5,0.5 Z"/></g>
<g><path style="opacity:1" fill="#fdb90f" d="M 151.5,0.5 C 153.5,2.16667 155.5,3.83333 157.5,5.5C 164.5,13.5 171.5,21.5 178.5,29.5C 177.85,29.8039 177.183,30.1373 176.5,30.5C 173.989,27.213 170.989,26.3796 167.5,28C 114.168,28.5 60.8344,28.6667 7.5,28.5C 7.30678,24.551 6.80678,24.551 6,28.5C 5.33333,23.1667 4.66667,23.1667 4,28.5C 3.76445,26.8807 2.93112,25.8807 1.5,25.5C 1.18417,17.2476 1.5175,9.08098 2.5,1C 52.1655,0.500008 101.832,0.333341 151.5,0.5 Z"/></g>
<g><path style="opacity:1" fill="#272727" d="M 157.5,5.5 C 356.834,5.33333 556.167,5.5 755.5,6C 774.672,26.6714 794.005,47.1714 813.5,67.5C 813.5,68.8333 813.5,70.1667 813.5,71.5C 810.167,74.5 806.833,77.5 803.5,80.5C 803.062,80.5654 802.728,80.3988 802.5,80C 805,77.5 807.5,75 810,72.5C 810.774,70.597 810.44,68.9304 809,67.5C 784.89,68.8007 761.057,68.8007 737.5,67.5C 739.833,64.9974 741.999,62.3307 744,59.5C 744.667,58.5 744.667,57.5 744,56.5C 736.794,54.9066 729.627,53.0733 722.5,51C 717.46,45.094 713.294,38.594 710,31.5C 708.667,30.1667 707.333,30.1667 706,31.5C 702.793,38.0863 698.959,44.253 694.5,50C 687.004,52.1662 679.504,54.3328 672,56.5C 671.333,57.8333 671.333,59.1667 672,60.5C 673.707,62.0375 675.207,63.7041 676.5,65.5C 675.603,66.5981 674.77,66.5981 674,65.5C 673.626,66.4162 673.126,67.2496 672.5,68C 658.788,68.7975 645.122,68.6309 631.5,67.5C 633.795,64.7029 636.295,62.0362 639,59.5C 639.667,58.5 639.667,57.5 639,56.5C 631.004,54.9666 623.17,52.7999 615.5,50C 611.934,44.7582 608.767,39.2582 606,33.5C 604.981,32.3128 603.814,31.3128 602.5,30.5C 597.808,36.7051 593.474,43.2051 589.5,50C 581.922,52.4823 574.255,54.6489 566.5,56.5C 565.417,57.365 565.251,58.365 566,59.5C 568.705,62.0362 571.205,64.7029 573.5,67.5C 558.878,68.6334 544.211,68.8001 529.5,68C 531.929,67.5488 532.096,66.7155 530,65.5C 528.871,67.1412 527.371,68.1412 525.5,68.5C 527.795,65.7029 530.295,63.0362 533,60.5C 533.667,59.1667 533.667,57.8333 533,56.5C 525.908,54.5095 518.741,52.6762 511.5,51C 507.041,45.253 503.207,39.0863 500,32.5C 498.604,30.4732 496.938,30.1398 495,31.5C 491.693,38.6306 487.526,45.1306 482.5,51C 475.177,52.3298 468.011,54.1631 461,56.5C 460.333,57.5 460.333,58.5 461,59.5C 463.508,62.5309 466.008,65.5309 468.5,68.5C 451.999,68.4918 435.999,68.4918 420.5,68.5C 423.165,65.6653 425.665,62.6653 428,59.5C 428.749,58.365 428.583,57.365 427.5,56.5C 420.45,54.8568 413.45,53.0234 406.5,51C 401.46,45.094 397.294,38.594 394,31.5C 392.667,30.1667 391.333,30.1667 390,31.5C 386.563,37.9321 382.729,44.0987 378.5,50C 371.165,52.9162 363.499,54.7496 355.5,55.5C 355.34,57.1992 355.506,58.8659 356,60.5C 358.705,63.0362 361.205,65.7029 363.5,68.5C 347.382,68.7934 331.715,68.4601 316.5,67.5C 318.4,64.7507 320.566,62.084 323,59.5C 323.667,58.5 323.667,57.5 323,56.5C 315.072,54.7137 307.239,52.547 299.5,50C 295.934,44.7582 292.767,39.2582 290,33.5C 288.742,30.9447 286.909,30.2781 284.5,31.5C 281.293,37.4147 277.96,43.2481 274.5,49C 272.833,50 271.167,51 269.5,52C 262.873,53.1298 256.373,54.6298 250,56.5C 249.333,57.5 249.333,58.5 250,59.5C 253.038,62.3694 255.871,65.3694 258.5,68.5C 257.504,68.5858 256.671,68.2524 256,67.5C 242.167,68.175 228.334,68.8417 214.5,69.5C 214.5,69.1667 214.5,68.8333 214.5,68.5C 208.842,61.5092 202.842,54.8425 196.5,48.5C 190.472,42.1403 184.472,35.807 178.5,29.5C 171.5,21.5 164.5,13.5 157.5,5.5 Z"/></g>
<g><path style="opacity:1" fill="#faad0f" d="M 178.5,29.5 C 184.472,35.807 190.472,42.1403 196.5,48.5C 195.826,51.5259 194.993,54.5259 194,57.5C 193.333,56.8333 192.667,56.1667 192,55.5C 175.667,56.1667 159.333,56.8333 143,57.5C 142.28,55.8876 142.446,54.3876 143.5,53C 141.954,51.5604 141.121,49.7271 141,47.5C 140.623,48.9423 139.79,49.9423 138.5,50.5C 136.044,40.7205 129.71,35.7205 119.5,35.5C 110.775,35.6096 104.608,39.6096 101,47.5C 100.5,58.8284 100.333,70.1618 100.5,81.5C 99.5151,77.3656 99.1818,73.0323 99.5,68.5C 90.1667,68.5 80.8333,68.5 71.5,68.5C 71.8182,73.0323 71.4849,77.3656 70.5,81.5C 70.6665,70.8281 70.4998,60.1615 70,49.5C 68.1667,42.3333 63.6667,37.8333 56.5,36C 44.2392,34.0432 36.0726,38.8765 32,50.5C 31.5005,56.4908 31.3338,62.4908 31.5,68.5C 21.5,68.5 11.5,68.5 1.5,68.5C 1.5,54.1667 1.5,39.8333 1.5,25.5C 2.93112,25.8807 3.76445,26.8807 4,28.5C 4.66667,23.1667 5.33333,23.1667 6,28.5C 6.80678,24.551 7.30678,24.551 7.5,28.5C 60.8344,28.6667 114.168,28.5 167.5,28C 170.989,26.3796 173.989,27.213 176.5,30.5C 177.183,30.1373 177.85,29.8039 178.5,29.5 Z"/></g>
<g><path style="opacity:1" fill="#585858" d="M 420.5,68.5 C 417.441,70.3974 415.274,73.0641 414,76.5C 414.33,84.4858 414.83,92.4858 415.5,100.5C 413.801,100.66 412.134,100.494 410.5,100C 404.278,96.8067 397.778,94.3067 391,92.5C 384.937,94.2768 379.103,96.7768 373.5,100C 371.866,100.494 370.199,100.66 368.5,100.5C 368.944,92.4658 369.444,84.4658 370,76.5C 368.533,73.2126 366.366,70.5459 363.5,68.5C 361.205,65.7029 358.705,63.0362 356,60.5C 355.506,58.8659 355.34,57.1992 355.5,55.5C 363.499,54.7496 371.165,52.9162 378.5,50C 382.729,44.0987 386.563,37.9321 390,31.5C 391.333,30.1667 392.667,30.1667 394,31.5C 397.294,38.594 401.46,45.094 406.5,51C 413.45,53.0234 420.45,54.8568 427.5,56.5C 428.583,57.365 428.749,58.365 428,59.5C 425.665,62.6653 423.165,65.6653 420.5,68.5 Z"/></g>
<g><path style="opacity:1" fill="#585858" d="M 525.5,68.5 C 521.516,71.496 519.182,75.496 518.5,80.5C 519.661,87.122 520.328,93.7887 520.5,100.5C 518.801,100.66 517.134,100.494 515.5,100C 509.37,96.9334 503.037,94.4334 496.5,92.5C 490.401,94.7013 484.401,97.2013 478.5,100C 474.518,101.187 472.851,99.6874 473.5,95.5C 474.711,89.1977 475.211,82.8644 475,76.5C 473.754,73.0872 471.587,70.4205 468.5,68.5C 466.008,65.5309 463.508,62.5309 461,59.5C 460.333,58.5 460.333,57.5 461,56.5C 468.011,54.1631 475.177,52.3298 482.5,51C 487.526,45.1306 491.693,38.6306 495,31.5C 496.938,30.1398 498.604,30.4732 500,32.5C 503.207,39.0863 507.041,45.253 511.5,51C 518.741,52.6762 525.908,54.5095 533,56.5C 533.667,57.8333 533.667,59.1667 533,60.5C 530.295,63.0362 527.795,65.7029 525.5,68.5 Z"/></g>
<g><path style="opacity:1" fill="#585858" d="M 631.5,67.5 C 629.167,70.0026 627.001,72.6693 625,75.5C 624.475,82.7251 624.975,89.8917 626.5,97C 626.233,100.164 624.567,101.164 621.5,100C 615.132,96.647 608.465,94.147 601.5,92.5C 594.356,95.7408 587.023,98.4075 579.5,100.5C 579.95,92.1611 580.116,83.8277 580,75.5C 577.999,72.6693 575.833,70.0026 573.5,67.5C 571.205,64.7029 568.705,62.0362 566,59.5C 565.251,58.365 565.417,57.365 566.5,56.5C 574.255,54.6489 581.922,52.4823 589.5,50C 593.474,43.2051 597.808,36.7051 602.5,30.5C 603.814,31.3128 604.981,32.3128 606,33.5C 608.767,39.2582 611.934,44.7582 615.5,50C 623.17,52.7999 631.004,54.9666 639,56.5C 639.667,57.5 639.667,58.5 639,59.5C 636.295,62.0362 633.795,64.7029 631.5,67.5 Z"/></g>
<g><path style="opacity:1" fill="#585858" d="M 737.5,67.5 C 734.111,69.7252 731.611,72.7252 730,76.5C 730.001,84.5141 730.501,92.5141 731.5,100.5C 729.801,100.66 728.134,100.494 726.5,100C 720.594,97.2119 714.594,94.7119 708.5,92.5C 701.963,94.4334 695.63,96.9334 689.5,100C 687.866,100.494 686.199,100.66 684.5,100.5C 685.117,92.4823 685.617,84.4823 686,76.5C 683.716,72.0506 680.549,68.384 676.5,65.5C 675.207,63.7041 673.707,62.0375 672,60.5C 671.333,59.1667 671.333,57.8333 672,56.5C 679.504,54.3328 687.004,52.1662 694.5,50C 698.959,44.253 702.793,38.0863 706,31.5C 707.333,30.1667 708.667,30.1667 710,31.5C 713.294,38.594 717.46,45.094 722.5,51C 729.627,53.0733 736.794,54.9066 744,56.5C 744.667,57.5 744.667,58.5 744,59.5C 741.999,62.3307 739.833,64.9974 737.5,67.5 Z"/></g>
<g><path style="opacity:1" fill="#585858" d="M 316.5,67.5 C 313.5,69.6676 311,72.3343 309,75.5C 308.275,82.7449 308.775,89.9116 310.5,97C 310.233,100.164 308.567,101.164 305.5,100C 299.248,96.7879 292.748,94.2879 286,92.5C 279.906,94.2943 274.073,96.7943 268.5,100C 266.866,100.494 265.199,100.66 263.5,100.5C 263.95,92.1611 264.116,83.8277 264,75.5C 262.334,73.0043 260.5,70.671 258.5,68.5C 255.871,65.3694 253.038,62.3694 250,59.5C 249.333,58.5 249.333,57.5 250,56.5C 256.373,54.6298 262.873,53.1298 269.5,52C 271.167,51 272.833,50 274.5,49C 277.96,43.2481 281.293,37.4147 284.5,31.5C 286.909,30.2781 288.742,30.9447 290,33.5C 292.767,39.2582 295.934,44.7582 299.5,50C 307.239,52.547 315.072,54.7137 323,56.5C 323.667,57.5 323.667,58.5 323,59.5C 320.566,62.084 318.4,64.7507 316.5,67.5 Z"/></g>
<g><path style="opacity:1" fill="#232220" d="M 138.5,50.5 C 138.5,60.8333 138.5,71.1667 138.5,81.5C 136.281,92.536 129.448,97.8694 118,97.5C 108.05,96.6166 102.216,91.2833 100.5,81.5C 100.333,70.1618 100.5,58.8284 101,47.5C 104.608,39.6096 110.775,35.6096 119.5,35.5C 129.71,35.7205 136.044,40.7205 138.5,50.5 Z"/></g>
<g><path style="opacity:1" fill="#f3a410" d="M 126.5,81.5 C 126.5,77.1667 126.5,72.8333 126.5,68.5C 121.833,68.5 117.167,68.5 112.5,68.5C 112.5,72.8333 112.5,77.1667 112.5,81.5C 111.342,71.6753 111.175,61.6753 112,51.5C 117,43.5 122,43.5 127,51.5C 127.825,61.6753 127.658,71.6753 126.5,81.5 Z"/></g>
<g><path style="opacity:1" fill="#f7a310" d="M 196.5,48.5 C 202.842,54.8425 208.842,61.5092 214.5,68.5C 189.5,68.5 164.5,68.5 139.5,68.5C 139.818,73.0323 139.485,77.3656 138.5,81.5C 138.5,71.1667 138.5,60.8333 138.5,50.5C 139.79,49.9423 140.623,48.9423 141,47.5C 141.121,49.7271 141.954,51.5604 143.5,53C 142.446,54.3876 142.28,55.8876 143,57.5C 159.333,56.8333 175.667,56.1667 192,55.5C 192.667,56.1667 193.333,56.8333 194,57.5C 194.993,54.5259 195.826,51.5259 196.5,48.5 Z"/></g>
<g><path style="opacity:1" fill="#242220" d="M 70.5,81.5 C 67.0897,94.2203 58.7563,99.387 45.5,97C 38.3599,95.1933 33.8599,90.6933 32,83.5C 31.5007,78.5111 31.3341,73.5111 31.5,68.5C 31.3338,62.4908 31.5005,56.4908 32,50.5C 36.0726,38.8765 44.2392,34.0432 56.5,36C 63.6667,37.8333 68.1667,42.3333 70,49.5C 70.4998,60.1615 70.6665,70.8281 70.5,81.5 Z"/></g>
<g><path style="opacity:1" fill="#f0a111" d="M 58.5,81.5 C 58.5,77.1667 58.5,72.8333 58.5,68.5C 53.5,68.5 48.5,68.5 43.5,68.5C 43.0796,61.7163 43.5796,55.0496 45,48.5C 51.3745,43.7608 56.0412,45.0941 59,52.5C 59.8246,62.3422 59.658,72.0089 58.5,81.5 Z"/></g>
<g><path style="opacity:1" fill="#212121" d="M 573.5,67.5 C 575.833,70.0026 577.999,72.6693 580,75.5C 580.116,83.8277 579.95,92.1611 579.5,100.5C 587.023,98.4075 594.356,95.7408 601.5,92.5C 608.465,94.147 615.132,96.647 621.5,100C 624.567,101.164 626.233,100.164 626.5,97C 624.975,89.8917 624.475,82.7251 625,75.5C 627.001,72.6693 629.167,70.0026 631.5,67.5C 645.122,68.6309 658.788,68.7975 672.5,68C 673.126,67.2496 673.626,66.4162 674,65.5C 674.77,66.5981 675.603,66.5981 676.5,65.5C 680.549,68.384 683.716,72.0506 686,76.5C 685.617,84.4823 685.117,92.4823 684.5,100.5C 686.199,100.66 687.866,100.494 689.5,100C 695.63,96.9334 701.963,94.4334 708.5,92.5C 714.594,94.7119 720.594,97.2119 726.5,100C 728.134,100.494 729.801,100.66 731.5,100.5C 730.501,92.5141 730.001,84.5141 730,76.5C 731.611,72.7252 734.111,69.7252 737.5,67.5C 761.057,68.8007 784.89,68.8007 809,67.5C 810.44,68.9304 810.774,70.597 810,72.5C 807.5,75 805,77.5 802.5,80C 802.728,80.3988 803.062,80.5654 803.5,80.5C 795.735,89.6881 787.735,98.6881 779.5,107.5C 778.883,107.389 778.383,107.056 778,106.5C 770.833,114.333 763.667,122.167 756.5,130C 557.167,130.5 357.834,130.667 158.5,130.5C 163.856,124.147 169.19,117.814 174.5,111.5C 177.833,108.833 180.833,105.833 183.5,102.5C 194.065,91.6908 204.398,80.6908 214.5,69.5C 228.334,68.8417 242.167,68.175 256,67.5C 256.671,68.2524 257.504,68.5858 258.5,68.5C 260.5,70.671 262.334,73.0043 264,75.5C 264.116,83.8277 263.95,92.1611 263.5,100.5C 265.199,100.66 266.866,100.494 268.5,100C 274.073,96.7943 279.906,94.2943 286,92.5C 292.748,94.2879 299.248,96.7879 305.5,100C 308.567,101.164 310.233,100.164 310.5,97C 308.775,89.9116 308.275,82.7449 309,75.5C 311,72.3343 313.5,69.6676 316.5,67.5C 331.715,68.4601 347.382,68.7934 363.5,68.5C 366.366,70.5459 368.533,73.2126 370,76.5C 369.444,84.4658 368.944,92.4658 368.5,100.5C 370.199,100.66 371.866,100.494 373.5,100C 379.103,96.7768 384.937,94.2768 391,92.5C 397.778,94.3067 404.278,96.8067 410.5,100C 412.134,100.494 413.801,100.66 415.5,100.5C 414.83,92.4858 414.33,84.4858 414,76.5C 415.274,73.0641 417.441,70.3974 420.5,68.5C 435.999,68.4918 451.999,68.4918 468.5,68.5C 471.587,70.4205 473.754,73.0872 475,76.5C 475.211,82.8644 474.711,89.1977 473.5,95.5C 472.851,99.6874 474.518,101.187 478.5,100C 484.401,97.2013 490.401,94.7013 496.5,92.5C 503.037,94.4334 509.37,96.9334 515.5,100C 517.134,100.494 518.801,100.66 520.5,100.5C 520.328,93.7887 519.661,87.122 518.5,80.5C 519.182,75.496 521.516,71.496 525.5,68.5C 527.371,68.1412 528.871,67.1412 530,65.5C 532.096,66.7155 531.929,67.5488 529.5,68C 544.211,68.8001 558.878,68.6334 573.5,67.5 Z"/></g>
<g><path style="opacity:1" fill="#fefefe" d="M 813.5,71.5 C 813.5,93.1667 813.5,114.833 813.5,136.5C 593.5,136.5 373.5,136.5 153.5,136.5C 155.142,135.197 156.809,133.864 158.5,132.5C 357.834,132.667 557.167,132.5 756.5,132C 764.049,123.747 771.715,115.581 779.5,107.5C 787.735,98.6881 795.735,89.6881 803.5,80.5C 806.833,77.5 810.167,74.5 813.5,71.5 Z"/></g>
<g><path style="opacity:1" fill="#fdbe0f" d="M 1.5,68.5 C 11.5,68.5 21.5,68.5 31.5,68.5C 31.3341,73.5111 31.5007,78.5111 32,83.5C 33.8599,90.6933 38.3599,95.1933 45.5,97C 58.7563,99.387 67.0897,94.2203 70.5,81.5C 71.4849,77.3656 71.8182,73.0323 71.5,68.5C 80.8333,68.5 90.1667,68.5 99.5,68.5C 99.1818,73.0323 99.5151,77.3656 100.5,81.5C 102.216,91.2833 108.05,96.6166 118,97.5C 129.448,97.8694 136.281,92.536 138.5,81.5C 139.485,77.3656 139.818,73.0323 139.5,68.5C 164.5,68.5 189.5,68.5 214.5,68.5C 214.5,68.8333 214.5,69.1667 214.5,69.5C 204.398,80.6908 194.065,91.6908 183.5,102.5C 182.842,101.602 182.176,100.602 181.5,99.5C 180.833,99.8333 180.167,100.167 179.5,100.5C 178.719,99.2634 177.719,98.2634 176.5,97.5C 175.718,99.3293 176.384,100.829 178.5,102C 177.285,104.096 176.451,103.929 176,101.5C 119.905,102.498 63.7382,102.831 7.5,102.5C 7.32324,95.8656 6.82324,95.8656 6,102.5C 5.66667,101.167 5.33333,99.8333 5,98.5C 4.71047,100.952 4.0438,103.285 3,105.5C 2.80192,103.618 2.30192,101.952 1.5,100.5C 1.5,89.8333 1.5,79.1667 1.5,68.5 Z"/></g>
<g><path style="opacity:1" fill="#fcc10f" d="M 126.5,81.5 C 125.922,85.312 123.589,86.9787 119.5,86.5C 115.411,86.9787 113.078,85.312 112.5,81.5C 112.5,77.1667 112.5,72.8333 112.5,68.5C 117.167,68.5 121.833,68.5 126.5,68.5C 126.5,72.8333 126.5,77.1667 126.5,81.5 Z"/></g>
<g><path style="opacity:1" fill="#fcc00f" d="M 43.5,68.5 C 48.5,68.5 53.5,68.5 58.5,68.5C 58.5,72.8333 58.5,77.1667 58.5,81.5C 56.1293,87.1811 52.1293,88.6811 46.5,86C 45.2986,85.0975 44.4652,83.9308 44,82.5C 43.5008,77.8452 43.3342,73.1785 43.5,68.5 Z"/></g>
<g><path style="opacity:1" fill="#ffce68" d="M -0.5,-0.5 C 50.1667,-0.5 100.833,-0.5 151.5,-0.5C 151.5,-0.166667 151.5,0.166667 151.5,0.5C 101.832,0.333341 52.1655,0.500008 2.5,1C 1.5175,9.08098 1.18417,17.2476 1.5,25.5C 1.5,39.8333 1.5,54.1667 1.5,68.5C 1.5,79.1667 1.5,89.8333 1.5,100.5C 1.5,106.833 1.5,113.167 1.5,119.5C 1.5,125.167 1.5,130.833 1.5,136.5C 0.833333,136.5 0.166667,136.5 -0.5,136.5C -0.5,90.8333 -0.5,45.1667 -0.5,-0.5 Z"/></g>
<g><path style="opacity:1" fill="#262421" d="M 82.5,84.5 C 88.7264,83.9094 91.893,86.5761 92,92.5C 88.962,97.4023 84.962,98.4023 80,95.5C 77.5997,90.9898 78.433,87.3231 82.5,84.5 Z"/></g>
<g><path style="opacity:1" fill="#fdb80f" d="M 183.5,102.5 C 180.833,105.833 177.833,108.833 174.5,111.5C 172.983,111.489 171.816,110.823 171,109.5C 170.5,110 170,110.5 169.5,111C 170.973,111.71 171.64,112.876 171.5,114.5C 166.911,113.931 163.078,115.265 160,118.5C 108.855,118.166 57.8548,117.166 7,115.5C 6.66667,116.833 6.33333,118.167 6,119.5C 5.66667,117.5 5.33333,115.5 5,113.5C 4.57619,116.025 3.40953,118.025 1.5,119.5C 1.5,113.167 1.5,106.833 1.5,100.5C 2.30192,101.952 2.80192,103.618 3,105.5C 4.0438,103.285 4.71047,100.952 5,98.5C 5.33333,99.8333 5.66667,101.167 6,102.5C 6.82324,95.8656 7.32324,95.8656 7.5,102.5C 63.7382,102.831 119.905,102.498 176,101.5C 176.451,103.929 177.285,104.096 178.5,102C 176.384,100.829 175.718,99.3293 176.5,97.5C 177.719,98.2634 178.719,99.2634 179.5,100.5C 180.167,100.167 180.833,99.8333 181.5,99.5C 182.176,100.602 182.842,101.602 183.5,102.5 Z"/></g>
<g><path style="opacity:1" fill="#fcb00f" d="M 174.5,111.5 C 169.19,117.814 163.856,124.147 158.5,130.5C 158.5,131.167 158.5,131.833 158.5,132.5C 156.809,133.864 155.142,135.197 153.5,136.5C 102.833,136.5 52.1667,136.5 1.5,136.5C 1.5,130.833 1.5,125.167 1.5,119.5C 3.40953,118.025 4.57619,116.025 5,113.5C 5.33333,115.5 5.66667,117.5 6,119.5C 6.33333,118.167 6.66667,116.833 7,115.5C 57.8548,117.166 108.855,118.166 160,118.5C 163.078,115.265 166.911,113.931 171.5,114.5C 171.64,112.876 170.973,111.71 169.5,111C 170,110.5 170.5,110 171,109.5C 171.816,110.823 172.983,111.489 174.5,111.5 Z"/></g>
<g><path style="opacity:1" fill="#2e2d2d" d="M 779.5,107.5 C 771.715,115.581 764.049,123.747 756.5,132C 557.167,132.5 357.834,132.667 158.5,132.5C 158.5,131.833 158.5,131.167 158.5,130.5C 357.834,130.667 557.167,130.5 756.5,130C 763.667,122.167 770.833,114.333 778,106.5C 778.383,107.056 778.883,107.389 779.5,107.5 Z"/></g>
</svg>
