<?xml version="1.0" encoding="UTF-8"?>
<!DOCTYPE svg PUBLIC "-//W3C//DTD SVG 1.1//EN" "http://www.w3.org/Graphics/SVG/1.1/DTD/svg11.dtd">
<svg xmlns="http://www.w3.org/2000/svg" version="1.1" width="1330px" height="216px" style="shape-rendering:geometricPrecision; text-rendering:geometricPrecision; image-rendering:optimizeQuality; fill-rule:evenodd; clip-rule:evenodd" xmlns:xlink="http://www.w3.org/1999/xlink">
<g><path style="opacity:1" fill="#febc0e" d="M 0.5,-0.5 C 82.5,-0.5 164.5,-0.5 246.5,-0.5C 249.142,3.77547 252.475,7.44214 256.5,10.5C 258.167,12.5 259.833,14.5 261.5,16.5C 259.771,17.1175 258.271,18.1175 257,19.5C 171.713,17.5043 86.2125,16.8376 0.5,17.5C 0.5,11.5 0.5,5.5 0.5,-0.5 Z"/></g>
<g><path style="opacity:1" fill="#f6f6f6" d="M 246.5,-0.5 C 607.5,-0.5 968.5,-0.5 1329.5,-0.5C 1329.5,71.5 1329.5,143.5 1329.5,215.5C 970.833,215.5 612.167,215.5 253.5,215.5C 254.167,214.167 255.167,213.167 256.5,212.5C 582.834,212.667 909.167,212.5 1235.5,212C 1266.74,179.264 1297.41,146.097 1327.5,112.5C 1328.53,112.103 1328.69,111.437 1328,110.5C 1297.5,77.3333 1267,44.1667 1236.5,11C 909.834,10.5 583.167,10.3333 256.5,10.5C 252.475,7.44214 249.142,3.77547 246.5,-0.5 Z"/></g>
<g><path style="opacity:1" fill="#262626" d="M 256.5,10.5 C 583.167,10.3333 909.834,10.5 1236.5,11C 1267,44.1667 1297.5,77.3333 1328,110.5C 1328.69,111.437 1328.53,112.103 1327.5,112.5C 1327.22,111.711 1326.72,111.044 1326,110.5C 1305.61,110.862 1285.11,110.862 1264.5,110.5C 1245.12,110.506 1225.95,111.173 1207,112.5C 1206.09,111.672 1205.42,110.672 1205,109.5C 1204.33,110.252 1203.5,110.586 1202.5,110.5C 1206.13,106.369 1209.96,102.369 1214,98.5C 1215.37,96.3046 1215.71,93.9712 1215,91.5C 1204.26,88.8833 1193.43,86.3833 1182.5,84C 1180.14,82.4894 1177.81,80.9894 1175.5,79.5C 1170.76,71.6892 1166.26,63.6892 1162,55.5C 1160.61,52.6058 1158.44,50.6058 1155.5,49.5C 1153.97,49.5288 1152.8,50.1955 1152,51.5C 1147.55,59.3962 1143.39,67.3962 1139.5,75.5C 1137.36,78.4718 1134.69,80.9718 1131.5,83C 1120.94,85.7609 1110.27,88.0943 1099.5,90C 1095.45,91.471 1094.62,93.971 1097,97.5C 1100.7,101.036 1104.2,104.702 1107.5,108.5C 1108.17,109.5 1108.83,110.5 1109.5,111.5C 1084.88,110.686 1060.21,110.186 1035.5,110C 1036.7,109.346 1036.7,108.846 1035.5,108.5C 1033.5,109.833 1031.83,111.5 1030.5,113.5C 1033.26,117.056 1032.93,117.723 1029.5,115.5C 1024.9,121.032 1023.9,120.698 1026.5,114.5C 1032.16,108.67 1037.66,102.67 1043,96.5C 1043.67,94.8333 1043.67,93.1667 1043,91.5C 1032.29,88.6231 1021.45,86.1231 1010.5,84C 1008.31,83.074 1006.31,81.9073 1004.5,80.5C 998.255,71.6883 992.755,62.355 988,52.5C 985.633,49.0682 982.966,48.7348 980,51.5C 975.08,59.6717 970.413,68.005 966,76.5C 964.64,79.0226 962.807,81.0226 960.5,82.5C 949.612,85.312 938.612,87.812 927.5,90C 924.125,91.0295 922.958,93.1961 924,96.5C 928.065,100.395 931.898,104.395 935.5,108.5C 937.167,110.5 938.833,112.5 940.5,114.5C 938.326,114.08 936.326,114.08 934.5,114.5C 932.851,113.352 931.351,112.019 930,110.5C 919.04,110.855 907.874,110.855 896.5,110.5C 885.44,110.512 874.607,111.179 864,112.5C 862.45,111.409 861.283,110.076 860.5,108.5C 860.5,108.167 860.5,107.833 860.5,107.5C 863.768,103.729 867.268,100.062 871,96.5C 871.825,94.2992 871.325,92.4659 869.5,91C 859.987,88.364 850.321,86.364 840.5,85C 837.664,84.0789 834.998,82.9123 832.5,81.5C 826.096,71.9063 820.262,61.9063 815,51.5C 812.034,48.7348 809.367,49.0682 807,52.5C 802.821,60.1937 798.654,67.8604 794.5,75.5C 791.971,79.1888 788.638,82.0221 784.5,84C 773.55,86.2803 762.717,88.7803 752,91.5C 751.333,93.1667 751.333,94.8333 752,96.5C 755.67,101.336 759.836,105.669 764.5,109.5C 765.5,110.833 766.5,112.167 767.5,113.5C 764.645,114.82 762.812,113.82 762,110.5C 749.54,110.853 736.874,110.853 724,110.5C 711.833,110.833 699.667,111.167 687.5,111.5C 685.867,113.503 683.867,114.836 681.5,115.5C 682.5,114.167 683.5,112.833 684.5,111.5C 688.769,106.729 693.269,102.062 698,97.5C 700.145,95.1047 699.978,92.938 697.5,91C 686.913,88.2827 676.246,85.9494 665.5,84C 662.117,82.3137 659.117,80.147 656.5,77.5C 652.614,69.3962 648.447,61.3962 644,53.5C 640.471,48.2615 637.137,48.2615 634,53.5C 629.667,61.5 625.333,69.5 621,77.5C 618.914,80.0939 616.414,82.0939 613.5,83.5C 603.211,85.6612 592.878,87.8278 582.5,90C 578.454,91.471 577.621,93.971 580,97.5C 584.037,101.369 587.87,105.369 591.5,109.5C 591.5,109.833 591.5,110.167 591.5,110.5C 567.929,110.41 544.262,110.577 520.5,111C 520.002,112.158 519.169,112.991 518,113.5C 515.527,112.483 513.027,112.483 510.5,113.5C 510.5,113.167 510.5,112.833 510.5,112.5C 516.163,107.67 521.33,102.337 526,96.5C 526.667,94.8333 526.667,93.1667 526,91.5C 515.264,88.7362 504.431,86.2362 493.5,84C 489.724,82.0526 486.39,79.5526 483.5,76.5C 479.614,68.3962 475.447,60.3962 471,52.5C 468.633,49.0682 465.966,48.7348 463,51.5C 457.605,60.7231 452.438,70.0565 447.5,79.5C 444.323,81.5893 440.989,83.4226 437.5,85C 427.631,86.1071 417.964,88.1071 408.5,91C 406.675,92.4659 406.175,94.2992 407,96.5C 410.066,99.3957 412.899,102.396 415.5,105.5C 417.833,108.167 420.167,110.833 422.5,113.5C 421.504,113.414 420.671,113.748 420,114.5C 419.535,113.069 418.701,111.903 417.5,111C 394.687,110.536 372.02,110.37 349.5,110.5C 348.167,109.5 346.833,108.5 345.5,107.5C 339.508,100.175 333.175,93.1754 326.5,86.5C 320.158,79.7914 313.824,73.1248 307.5,66.5C 302.204,59.8687 296.537,53.5354 290.5,47.5C 281.172,36.8391 271.505,26.5057 261.5,16.5C 259.833,14.5 258.167,12.5 256.5,10.5 Z"/></g>
<g><path style="opacity:1" fill="#fdb70f" d="M 261.5,16.5 C 271.505,26.5057 281.172,36.8391 290.5,47.5C 289.883,47.6107 289.383,47.944 289,48.5C 286.409,47.2337 284.575,45.2337 283.5,42.5C 282.029,43.3805 281.196,44.7139 281,46.5C 187.571,45.5014 94.0705,45.1681 0.5,45.5C 0.5,36.1667 0.5,26.8333 0.5,17.5C 86.2125,16.8376 171.713,17.5043 257,19.5C 258.271,18.1175 259.771,17.1175 261.5,16.5 Z"/></g>
<g><path style="opacity:1" fill="#fcb31c" d="M -0.5,-0.5 C -0.166667,-0.5 0.166667,-0.5 0.5,-0.5C 0.5,5.5 0.5,11.5 0.5,17.5C 0.5,26.8333 0.5,36.1667 0.5,45.5C 94.0705,45.1681 187.571,45.5014 281,46.5C 281.196,44.7139 282.029,43.3805 283.5,42.5C 284.575,45.2337 286.409,47.2337 289,48.5C 289.383,47.944 289.883,47.6107 290.5,47.5C 296.537,53.5354 302.204,59.8687 307.5,66.5C 309.112,68.9631 308.612,70.9631 306,72.5C 292.556,71.1758 278.889,70.5091 265,70.5C 251.5,70.6667 238,70.8333 224.5,71C 223.473,71.5133 222.473,72.0133 221.5,72.5C 214.964,62.1459 205.464,57.1459 193,57.5C 182.471,57.3493 173.971,61.3493 167.5,69.5C 166.193,68.8466 164.86,68.1799 163.5,67.5C 163.331,68.3966 162.998,69.3966 162.5,70.5C 161.262,66.6893 160.596,66.6893 160.5,70.5C 144.163,70.6666 127.83,70.4999 111.5,70C 110.956,69.2828 110.289,68.7828 109.5,68.5C 109.062,64.2291 106.729,61.7291 102.5,61C 88.8333,60.3333 75.1667,60.3333 61.5,61C 57.9853,62.0183 55.652,64.1849 54.5,67.5C 53.6236,67.6309 52.9569,67.2975 52.5,66.5C 53.5896,65.3914 53.5896,64.3914 52.5,63.5C 51.3652,65.7067 50.6985,68.0401 50.5,70.5C 33.8333,70.5 17.1667,70.5 0.5,70.5C 0.5,77.1667 0.5,83.8333 0.5,90.5C 0.5,97.5 0.5,104.5 0.5,111.5C 0.5,129.5 0.5,147.5 0.5,165.5C 0.5,174.167 0.5,182.833 0.5,191.5C 0.5,199.5 0.5,207.5 0.5,215.5C 0.166667,215.5 -0.166667,215.5 -0.5,215.5C -0.5,143.5 -0.5,71.5 -0.5,-0.5 Z"/></g>
<g><path style="opacity:1" fill="#fab80f" d="M 1175.5,79.5 C 1172.17,79.9672 1171.84,81.1339 1174.5,83C 1172.95,83.3334 1171.62,82.8334 1170.5,81.5C 1166.01,82.7742 1161.35,83.4409 1156.5,83.5C 1152.17,83.3333 1147.83,83.1667 1143.5,83C 1142.13,79.5899 1141.46,79.7566 1141.5,83.5C 1140.13,83.6567 1138.79,83.49 1137.5,83C 1139.11,80.7724 1139.78,78.2724 1139.5,75.5C 1143.39,67.3962 1147.55,59.3962 1152,51.5C 1152.8,50.1955 1153.97,49.5288 1155.5,49.5C 1158.44,50.6058 1160.61,52.6058 1162,55.5C 1166.26,63.6892 1170.76,71.6892 1175.5,79.5 Z"/></g>
<g><path style="opacity:1" fill="#222120" d="M 221.5,72.5 C 222.953,75.3531 224.119,78.3531 225,81.5C 225.5,97.4965 225.667,113.497 225.5,129.5C 225.024,144.809 217.357,154.309 202.5,158C 191.253,160.21 180.92,158.21 171.5,152C 166.663,147.498 163.497,141.998 162,135.5C 161.5,127.507 161.334,119.507 161.5,111.5C 161.334,101.828 161.5,92.1609 162,82.5C 162.774,77.6653 164.608,73.3319 167.5,69.5C 173.971,61.3493 182.471,57.3493 193,57.5C 205.464,57.1459 214.964,62.1459 221.5,72.5 Z"/></g>
<g><path style="opacity:1" fill="#fbb80f" d="M 483.5,76.5 C 485.168,78.9909 484.834,81.1575 482.5,83C 473.506,83.4998 464.506,83.6664 455.5,83.5C 455.322,79.8979 454.322,79.8979 452.5,83.5C 452.331,82.6034 451.998,81.6034 451.5,80.5C 449.953,84.0722 448.62,83.7389 447.5,79.5C 452.438,70.0565 457.605,60.7231 463,51.5C 465.966,48.7348 468.633,49.0682 471,52.5C 475.447,60.3962 479.614,68.3962 483.5,76.5 Z"/></g>
<g><path style="opacity:1" fill="#fbb80f" d="M 656.5,77.5 C 656.389,78.1174 656.056,78.6174 655.5,79C 656.956,79.4226 657.456,80.2559 657,81.5C 654.333,84.1667 651.667,84.1667 649,81.5C 644.923,82.7977 640.589,83.4644 636,83.5C 630.716,83.0772 625.549,83.0772 620.5,83.5C 619.808,82.9747 619.308,82.3081 619,81.5C 616.619,83.2058 614.952,84.8724 614,86.5C 613.5,86.3333 613,86.1667 612.5,86C 613.252,85.3292 613.586,84.4959 613.5,83.5C 616.414,82.0939 618.914,80.0939 621,77.5C 625.333,69.5 629.667,61.5 634,53.5C 637.137,48.2615 640.471,48.2615 644,53.5C 648.447,61.3962 652.614,69.3962 656.5,77.5 Z"/></g>
<g><path style="opacity:1" fill="#fbb80f" d="M 832.5,81.5 C 831.085,82.2894 829.585,82.9561 828,83.5C 823.165,83.0867 818.165,83.0867 813,83.5C 808.411,83.4644 804.077,82.7977 800,81.5C 799.612,82.428 798.945,83.0946 798,83.5C 795.489,82.3367 793.989,80.8367 793.5,79C 794.337,77.9887 794.67,76.8221 794.5,75.5C 798.654,67.8604 802.821,60.1937 807,52.5C 809.367,49.0682 812.034,48.7348 815,51.5C 820.262,61.9063 826.096,71.9063 832.5,81.5 Z"/></g>
<g><path style="opacity:1" fill="#fab70f" d="M 1004.5,80.5 C 1005.09,81.7666 1005.09,82.7666 1004.5,83.5C 991.167,83.5 977.833,83.5 964.5,83.5C 963.808,82.9747 963.308,82.3081 963,81.5C 962.329,82.2524 961.496,82.5858 960.5,82.5C 962.807,81.0226 964.64,79.0226 966,76.5C 970.413,68.005 975.08,59.6717 980,51.5C 982.966,48.7348 985.633,49.0682 988,52.5C 992.755,62.355 998.255,71.6883 1004.5,80.5 Z"/></g>
<g><path style="opacity:1" fill="#fbab0f" d="M 54.5,67.5 C 54.5,72.8333 54.5,78.1667 54.5,83.5C 53.7513,87.0536 52.918,90.7203 52,94.5C 50.1294,93.0027 49.1294,91.0027 49,88.5C 33.0734,90.4761 16.9068,91.1427 0.5,90.5C 0.5,83.8333 0.5,77.1667 0.5,70.5C 17.1667,70.5 33.8333,70.5 50.5,70.5C 50.6985,68.0401 51.3652,65.7067 52.5,63.5C 53.5896,64.3914 53.5896,65.3914 52.5,66.5C 52.9569,67.2975 53.6236,67.6309 54.5,67.5 Z"/></g>
<g><path style="opacity:1" fill="#faa90f" d="M 167.5,69.5 C 164.608,73.3319 162.774,77.6653 162,82.5C 161.5,92.1609 161.334,101.828 161.5,111.5C 144.658,111.17 127.992,111.503 111.5,112.5C 108.426,105.561 103.426,100.394 96.5,97C 88.6848,94.7308 80.6848,93.8975 72.5,94.5C 72.5,88.8333 72.5,83.1667 72.5,77.5C 82.5056,77.6665 92.5056,77.4998 102.5,77C 106.877,75.7945 109.21,72.9612 109.5,68.5C 110.289,68.7828 110.956,69.2828 111.5,70C 127.83,70.4999 144.163,70.6666 160.5,70.5C 160.596,66.6893 161.262,66.6893 162.5,70.5C 162.998,69.3966 163.331,68.3966 163.5,67.5C 164.86,68.1799 166.193,68.8466 167.5,69.5 Z"/></g>
<g><path style="opacity:1" fill="#faaa0f" d="M 307.5,66.5 C 313.824,73.1248 320.158,79.7914 326.5,86.5C 326.472,88.5824 327.139,90.4157 328.5,92C 296.5,92.6667 264.5,92.6667 232.5,92C 231.283,90.3523 230.45,88.519 230,86.5C 228.748,88.0009 227.748,89.6675 227,91.5C 226.5,97.8246 226.334,104.158 226.5,110.5C 266.501,110.667 306.501,110.5 346.5,110C 345.748,109.329 345.414,108.496 345.5,107.5C 346.833,108.5 348.167,109.5 349.5,110.5C 349.672,111.492 349.338,112.158 348.5,112.5C 308.003,111.501 267.337,111.168 226.5,111.5C 226.823,117.69 226.49,123.69 225.5,129.5C 225.667,113.497 225.5,97.4965 225,81.5C 224.119,78.3531 222.953,75.3531 221.5,72.5C 222.473,72.0133 223.473,71.5133 224.5,71C 238,70.8333 251.5,70.6667 265,70.5C 278.889,70.5091 292.556,71.1758 306,72.5C 308.612,70.9631 309.112,68.9631 307.5,66.5 Z"/></g>
<g><path style="opacity:1" fill="#faae0f" d="M 1139.5,75.5 C 1139.78,78.2724 1139.11,80.7724 1137.5,83C 1138.79,83.49 1140.13,83.6567 1141.5,83.5C 1141.46,79.7566 1142.13,79.5899 1143.5,83C 1147.83,83.1667 1152.17,83.3333 1156.5,83.5C 1161.35,83.4409 1166.01,82.7742 1170.5,81.5C 1171.62,82.8334 1172.95,83.3334 1174.5,83C 1171.84,81.1339 1172.17,79.9672 1175.5,79.5C 1177.81,80.9894 1180.14,82.4894 1182.5,84C 1193.43,86.3833 1204.26,88.8833 1215,91.5C 1215.71,93.9712 1215.37,96.3046 1214,98.5C 1209.96,102.369 1206.13,106.369 1202.5,110.5C 1202.17,111.5 1201.5,112.167 1200.5,112.5C 1199.71,107.841 1198.21,107.508 1196,111.5C 1195.78,108.057 1194.78,107.724 1193,110.5C 1180.91,109.838 1168.74,109.505 1156.5,109.5C 1144.11,109.51 1131.94,110.177 1120,111.5C 1119.67,110.167 1119.33,108.833 1119,107.5C 1117.61,111.272 1116.61,111.272 1116,107.5C 1114.25,108.809 1112.75,108.475 1111.5,106.5C 1110.14,107.18 1108.81,107.847 1107.5,108.5C 1104.2,104.702 1100.7,101.036 1097,97.5C 1094.62,93.971 1095.45,91.471 1099.5,90C 1110.27,88.0943 1120.94,85.7609 1131.5,83C 1134.69,80.9718 1137.36,78.4718 1139.5,75.5 Z"/></g>
<g><path style="opacity:1" fill="#faae0f" d="M 483.5,76.5 C 486.39,79.5526 489.724,82.0526 493.5,84C 504.431,86.2362 515.264,88.7362 526,91.5C 526.667,93.1667 526.667,94.8333 526,96.5C 521.33,102.337 516.163,107.67 510.5,112.5C 510.389,111.883 510.056,111.383 509.5,111C 512.186,107.524 511.853,107.024 508.5,109.5C 507.197,108.282 506.197,108.615 505.5,110.5C 480.97,109.17 456.47,109.17 432,110.5C 430.914,108.153 429.581,108.153 428,110.5C 424.206,107.852 420.04,106.185 415.5,105.5C 412.899,102.396 410.066,99.3957 407,96.5C 406.175,94.2992 406.675,92.4659 408.5,91C 417.964,88.1071 427.631,86.1071 437.5,85C 440.989,83.4226 444.323,81.5893 447.5,79.5C 448.62,83.7389 449.953,84.0722 451.5,80.5C 451.998,81.6034 452.331,82.6034 452.5,83.5C 454.322,79.8979 455.322,79.8979 455.5,83.5C 464.506,83.6664 473.506,83.4998 482.5,83C 484.834,81.1575 485.168,78.9909 483.5,76.5 Z"/></g>
<g><path style="opacity:1" fill="#f2a210" d="M 205.5,132.5 C 205.5,125.5 205.5,118.5 205.5,111.5C 197.5,111.5 189.5,111.5 181.5,111.5C 181.5,118.167 181.5,124.833 181.5,131.5C 180.339,116.005 180.172,100.339 181,84.5C 185.006,74.5889 191.839,72.0889 201.5,77C 203.894,78.9522 205.394,81.4522 206,84.5C 206.828,100.672 206.661,116.672 205.5,132.5 Z"/></g>
<g><path style="opacity:1" fill="#faa50f" d="M 326.5,86.5 C 333.175,93.1754 339.508,100.175 345.5,107.5C 345.414,108.496 345.748,109.329 346.5,110C 306.501,110.5 266.501,110.667 226.5,110.5C 226.334,104.158 226.5,97.8246 227,91.5C 227.748,89.6675 228.748,88.0009 230,86.5C 230.45,88.519 231.283,90.3523 232.5,92C 264.5,92.6667 296.5,92.6667 328.5,92C 327.139,90.4157 326.472,88.5824 326.5,86.5 Z"/></g>
<g><path style="opacity:1" fill="#faa50f" d="M 54.5,83.5 C 53.6844,93.2089 53.6844,102.876 54.5,112.5C 36.5766,111.514 18.5766,111.181 0.5,111.5C 0.5,104.5 0.5,97.5 0.5,90.5C 16.9068,91.1427 33.0734,90.4761 49,88.5C 49.1294,91.0027 50.1294,93.0027 52,94.5C 52.918,90.7203 53.7513,87.0536 54.5,83.5 Z"/></g>
<g><path style="opacity:1" fill="#faad0f" d="M 656.5,77.5 C 659.117,80.147 662.117,82.3137 665.5,84C 676.246,85.9494 686.913,88.2827 697.5,91C 699.978,92.938 700.145,95.1047 698,97.5C 693.269,102.062 688.769,106.729 684.5,111.5C 683.504,111.586 682.671,111.252 682,110.5C 680.913,112.932 680.413,112.598 680.5,109.5C 653.107,108.847 625.94,109.514 599,111.5C 598.385,109.884 597.385,108.551 596,107.5C 594.951,109.107 593.451,109.773 591.5,109.5C 587.87,105.369 584.037,101.369 580,97.5C 577.621,93.971 578.454,91.471 582.5,90C 592.878,87.8278 603.211,85.6612 613.5,83.5C 613.586,84.4959 613.252,85.3292 612.5,86C 613,86.1667 613.5,86.3333 614,86.5C 614.952,84.8724 616.619,83.2058 619,81.5C 619.308,82.3081 619.808,82.9747 620.5,83.5C 625.549,83.0772 630.716,83.0772 636,83.5C 640.589,83.4644 644.923,82.7977 649,81.5C 651.667,84.1667 654.333,84.1667 657,81.5C 657.456,80.2559 656.956,79.4226 655.5,79C 656.056,78.6174 656.389,78.1174 656.5,77.5 Z"/></g>
<g><path style="opacity:1" fill="#faad0f" d="M 794.5,75.5 C 794.67,76.8221 794.337,77.9887 793.5,79C 793.989,80.8367 795.489,82.3367 798,83.5C 798.945,83.0946 799.612,82.428 800,81.5C 804.077,82.7977 808.411,83.4644 813,83.5C 818.165,83.0867 823.165,83.0867 828,83.5C 829.585,82.9561 831.085,82.2894 832.5,81.5C 834.998,82.9123 837.664,84.0789 840.5,85C 850.321,86.364 859.987,88.364 869.5,91C 871.325,92.4659 871.825,94.2992 871,96.5C 867.268,100.062 863.768,103.729 860.5,107.5C 858.278,107.178 856.444,107.845 855,109.5C 853.333,109.167 851.667,108.833 850,108.5C 849.667,109.167 849.333,109.833 849,110.5C 823.619,110.148 798.285,109.148 773,107.5C 770.835,109.964 768.835,109.964 767,107.5C 766.583,108.756 765.75,109.423 764.5,109.5C 759.836,105.669 755.67,101.336 752,96.5C 751.333,94.8333 751.333,93.1667 752,91.5C 762.717,88.7803 773.55,86.2803 784.5,84C 788.638,82.0221 791.971,79.1888 794.5,75.5 Z"/></g>
<g><path style="opacity:1" fill="#faad0f" d="M 1004.5,80.5 C 1006.31,81.9073 1008.31,83.074 1010.5,84C 1021.45,86.1231 1032.29,88.6231 1043,91.5C 1043.67,93.1667 1043.67,94.8333 1043,96.5C 1037.66,102.67 1032.16,108.67 1026.5,114.5C 1026.17,114.5 1025.83,114.5 1025.5,114.5C 1025.58,113.07 1025.25,111.736 1024.5,110.5C 997.842,109.5 971.175,109.167 944.5,109.5C 944.657,110.873 944.49,112.207 944,113.5C 943.5,113 943,112.5 942.5,112C 943.554,110.612 943.72,109.112 943,107.5C 942.492,109.904 941.325,110.571 939.5,109.5C 940.025,108.808 940.692,108.308 941.5,108C 939.288,107.211 937.288,107.378 935.5,108.5C 931.898,104.395 928.065,100.395 924,96.5C 922.958,93.1961 924.125,91.0295 927.5,90C 938.612,87.812 949.612,85.312 960.5,82.5C 961.496,82.5858 962.329,82.2524 963,81.5C 963.308,82.3081 963.808,82.9747 964.5,83.5C 977.833,83.5 991.167,83.5 1004.5,83.5C 1005.09,82.7666 1005.09,81.7666 1004.5,80.5 Z"/></g>
<g><path style="opacity:1" fill="#222220" d="M 109.5,68.5 C 109.21,72.9612 106.877,75.7945 102.5,77C 92.5056,77.4998 82.5056,77.6665 72.5,77.5C 72.5,83.1667 72.5,88.8333 72.5,94.5C 80.6848,93.8975 88.6848,94.7308 96.5,97C 103.426,100.394 108.426,105.561 111.5,112.5C 115.695,127.366 112.695,140.533 102.5,152C 95.293,156.969 87.293,159.136 78.5,158.5C 70.0567,158.631 62.0567,156.797 54.5,153C 49.6567,148.62 49.3233,143.954 53.5,139C 55.5336,137.994 57.7002,137.494 60,137.5C 65.7668,139.294 71.6001,140.961 77.5,142.5C 84.7777,142.286 89.9444,138.953 93,132.5C 96.5044,116.678 90.3377,109.844 74.5,112C 69.868,116.072 64.5347,117.405 58.5,116C 56.6498,115.31 55.3164,114.144 54.5,112.5C 53.6844,102.876 53.6844,93.2089 54.5,83.5C 54.5,78.1667 54.5,72.8333 54.5,67.5C 55.652,64.1849 57.9853,62.0183 61.5,61C 75.1667,60.3333 88.8333,60.3333 102.5,61C 106.729,61.7291 109.062,64.2291 109.5,68.5 Z"/></g>
<g><path style="opacity:1" fill="#faa50f" d="M 415.5,105.5 C 420.04,106.185 424.206,107.852 428,110.5C 429.581,108.153 430.914,108.153 432,110.5C 456.47,109.17 480.97,109.17 505.5,110.5C 506.197,108.615 507.197,108.282 508.5,109.5C 511.853,107.024 512.186,107.524 509.5,111C 510.056,111.383 510.389,111.883 510.5,112.5C 510.5,112.833 510.5,113.167 510.5,113.5C 509.167,115.5 507.5,117.167 505.5,118.5C 503.795,115.713 502.628,116.046 502,119.5C 499.402,113.989 497.902,114.322 497.5,120.5C 474.455,120.813 451.455,120.479 428.5,119.5C 426.861,117.194 424.861,115.194 422.5,113.5C 420.167,110.833 417.833,108.167 415.5,105.5 Z"/></g>
<g><path style="opacity:1" fill="#212121" d="M 860.5,108.5 C 861.283,110.076 862.45,111.409 864,112.5C 874.607,111.179 885.44,110.512 896.5,110.5C 907.874,110.855 919.04,110.855 930,110.5C 931.351,112.019 932.851,113.352 934.5,114.5C 936.326,114.08 938.326,114.08 940.5,114.5C 941.5,115.167 942.5,115.833 943.5,116.5C 944.973,119.447 946.473,122.447 948,125.5C 948.694,129.554 948.527,133.554 947.5,137.5C 946.37,144.798 945.37,152.131 944.5,159.5C 944.971,162.302 946.638,163.636 949.5,163.5C 959.409,159.878 969.076,155.712 978.5,151C 981.833,150.333 985.167,150.333 988.5,151C 997.167,155 1005.83,159 1014.5,163C 1016.9,163.814 1019.24,163.647 1021.5,162.5C 1021.93,161.707 1022.26,160.873 1022.5,160C 1021.76,152.995 1020.76,146.162 1019.5,139.5C 1017.64,132.552 1018.3,125.886 1021.5,119.5C 1023.59,118.415 1024.92,116.749 1025.5,114.5C 1025.83,114.5 1026.17,114.5 1026.5,114.5C 1023.9,120.698 1024.9,121.032 1029.5,115.5C 1032.93,117.723 1033.26,117.056 1030.5,113.5C 1031.83,111.5 1033.5,109.833 1035.5,108.5C 1036.7,108.846 1036.7,109.346 1035.5,110C 1060.21,110.186 1084.88,110.686 1109.5,111.5C 1112.86,114.194 1115.86,117.194 1118.5,120.5C 1120.18,124.636 1120.85,128.969 1120.5,133.5C 1119.24,140.987 1118.24,148.654 1117.5,156.5C 1117.53,158.759 1117.87,160.925 1118.5,163C 1121.59,163.652 1124.59,163.318 1127.5,162C 1136.18,157.279 1145.18,153.446 1154.5,150.5C 1157.53,150.806 1160.53,151.306 1163.5,152C 1172.51,156.169 1181.51,160.336 1190.5,164.5C 1193.94,163.526 1195.27,161.193 1194.5,157.5C 1193.33,147.509 1192.33,137.509 1191.5,127.5C 1192.11,124.673 1193.11,122.007 1194.5,119.5C 1196.5,117.167 1198.5,114.833 1200.5,112.5C 1201.5,112.167 1202.17,111.5 1202.5,110.5C 1203.5,110.586 1204.33,110.252 1205,109.5C 1205.42,110.672 1206.09,111.672 1207,112.5C 1225.95,111.173 1245.12,110.506 1264.5,110.5C 1285.11,110.862 1305.61,110.862 1326,110.5C 1326.72,111.044 1327.22,111.711 1327.5,112.5C 1297.41,146.097 1266.74,179.264 1235.5,212C 909.167,212.5 582.834,212.667 256.5,212.5C 263.833,204.167 271.167,195.833 278.5,187.5C 285.286,181.258 291.62,174.591 297.5,167.5C 314.839,149.493 331.839,131.16 348.5,112.5C 349.338,112.158 349.672,111.492 349.5,110.5C 372.02,110.37 394.687,110.536 417.5,111C 418.701,111.903 419.535,113.069 420,114.5C 420.671,113.748 421.504,113.414 422.5,113.5C 424.861,115.194 426.861,117.194 428.5,119.5C 431.746,127.196 432.412,135.196 430.5,143.5C 428.588,149.581 428.088,155.914 429,162.5C 429.739,163.574 430.739,164.241 432,164.5C 442.919,159.121 454.085,154.454 465.5,150.5C 468.226,150.682 470.893,151.182 473.5,152C 482.72,156.444 492.054,160.611 501.5,164.5C 504.294,163.602 505.628,161.602 505.5,158.5C 504.953,151.954 503.953,145.621 502.5,139.5C 502.334,134.156 502.501,128.823 503,123.5C 503.847,121.807 504.68,120.14 505.5,118.5C 507.5,117.167 509.167,115.5 510.5,113.5C 513.027,112.483 515.527,112.483 518,113.5C 519.169,112.991 520.002,112.158 520.5,111C 544.262,110.577 567.929,110.41 591.5,110.5C 597.855,114.519 601.855,120.186 603.5,127.5C 603.5,130.167 603.5,132.833 603.5,135.5C 601.628,144.281 600.795,153.281 601,162.5C 601.804,163.804 602.971,164.471 604.5,164.5C 613.495,160.336 622.495,156.169 631.5,152C 637.331,149.771 642.998,150.105 648.5,153C 655.586,156.14 662.586,159.474 669.5,163C 675.537,165.137 678.204,163.137 677.5,157C 677.109,150.36 676.109,143.86 674.5,137.5C 674.5,134.167 674.5,130.833 674.5,127.5C 675.305,122.55 677.638,118.55 681.5,115.5C 683.867,114.836 685.867,113.503 687.5,111.5C 699.667,111.167 711.833,110.833 724,110.5C 736.874,110.853 749.54,110.853 762,110.5C 762.812,113.82 764.645,114.82 767.5,113.5C 769.127,115.63 770.96,117.63 773,119.5C 774.411,121.65 775.245,123.984 775.5,126.5C 775.5,130.5 775.5,134.5 775.5,138.5C 774.624,145.037 773.624,151.704 772.5,158.5C 772.169,161.846 773.669,163.513 777,163.5C 785.979,160.096 794.812,156.263 803.5,152C 807.741,150.543 812.074,150.209 816.5,151C 826.304,155.654 836.138,160.154 846,164.5C 847.261,164.241 848.261,163.574 849,162.5C 849.66,155.414 849.16,148.414 847.5,141.5C 847.806,138.615 847.473,135.948 846.5,133.5C 846.713,122.747 851.379,114.414 860.5,108.5 Z"/></g>
<g><path style="opacity:1" fill="#faa30f" d="M 684.5,111.5 C 683.5,112.833 682.5,114.167 681.5,115.5C 677.638,118.55 675.305,122.55 674.5,127.5C 663.559,128.811 652.392,129.478 641,129.5C 629.926,129.495 618.926,129.161 608,128.5C 607.667,129.167 607.333,129.833 607,130.5C 606.667,128.833 606.333,127.167 606,125.5C 605.292,126.381 604.458,127.047 603.5,127.5C 601.855,120.186 597.855,114.519 591.5,110.5C 591.5,110.167 591.5,109.833 591.5,109.5C 593.451,109.773 594.951,109.107 596,107.5C 597.385,108.551 598.385,109.884 599,111.5C 625.94,109.514 653.107,108.847 680.5,109.5C 680.413,112.598 680.913,112.932 682,110.5C 682.671,111.252 683.504,111.586 684.5,111.5 Z"/></g>
<g><path style="opacity:1" fill="#faa30f" d="M 860.5,107.5 C 860.5,107.833 860.5,108.167 860.5,108.5C 851.379,114.414 846.713,122.747 846.5,133.5C 846.565,133.938 846.399,134.272 846,134.5C 845.051,130.622 843.885,130.622 842.5,134.5C 841.138,132.988 840.804,131.488 841.5,130C 819.836,129.5 798.169,129.333 776.5,129.5C 776.737,128.209 776.404,127.209 775.5,126.5C 775.245,123.984 774.411,121.65 773,119.5C 770.96,117.63 769.127,115.63 767.5,113.5C 766.5,112.167 765.5,110.833 764.5,109.5C 765.75,109.423 766.583,108.756 767,107.5C 768.835,109.964 770.835,109.964 773,107.5C 798.285,109.148 823.619,110.148 849,110.5C 849.333,109.833 849.667,109.167 850,108.5C 851.667,108.833 853.333,109.167 855,109.5C 856.444,107.845 858.278,107.178 860.5,107.5 Z"/></g>
<g><path style="opacity:1" fill="#faa50f" d="M 1025.5,114.5 C 1024.92,116.749 1023.59,118.415 1021.5,119.5C 1020.21,118.232 1019.21,118.565 1018.5,120.5C 1017.91,120.291 1017.41,119.957 1017,119.5C 994.844,119.836 972.844,120.836 951,122.5C 950.261,120.779 949.427,119.113 948.5,117.5C 946.891,117.611 945.225,117.278 943.5,116.5C 942.5,115.833 941.5,115.167 940.5,114.5C 938.833,112.5 937.167,110.5 935.5,108.5C 937.288,107.378 939.288,107.211 941.5,108C 940.692,108.308 940.025,108.808 939.5,109.5C 941.325,110.571 942.492,109.904 943,107.5C 943.72,109.112 943.554,110.612 942.5,112C 943,112.5 943.5,113 944,113.5C 944.49,112.207 944.657,110.873 944.5,109.5C 971.175,109.167 997.842,109.5 1024.5,110.5C 1025.25,111.736 1025.58,113.07 1025.5,114.5 Z"/></g>
<g><path style="opacity:1" fill="#faa50f" d="M 1200.5,112.5 C 1198.5,114.833 1196.5,117.167 1194.5,119.5C 1193.88,119.389 1193.38,119.056 1193,118.5C 1168.39,120.485 1143.56,121.151 1118.5,120.5C 1115.86,117.194 1112.86,114.194 1109.5,111.5C 1108.83,110.5 1108.17,109.5 1107.5,108.5C 1108.81,107.847 1110.14,107.18 1111.5,106.5C 1112.75,108.475 1114.25,108.809 1116,107.5C 1116.61,111.272 1117.61,111.272 1119,107.5C 1119.33,108.833 1119.67,110.167 1120,111.5C 1131.94,110.177 1144.11,109.51 1156.5,109.5C 1168.74,109.505 1180.91,109.838 1193,110.5C 1194.78,107.724 1195.78,108.057 1196,111.5C 1198.21,107.508 1199.71,107.841 1200.5,112.5 Z"/></g>
<g><path style="opacity:1" fill="#f89b0f" d="M 505.5,118.5 C 504.68,120.14 503.847,121.807 503,123.5C 502.501,128.823 502.334,134.156 502.5,139.5C 502.769,142.525 501.936,145.192 500,147.5C 500.57,145.307 500.236,143.307 499,141.5C 476.982,141.531 454.816,141.531 432.5,141.5C 432.649,140.448 432.483,139.448 432,138.5C 431.802,140.382 431.302,142.048 430.5,143.5C 432.412,135.196 431.746,127.196 428.5,119.5C 451.455,120.479 474.455,120.813 497.5,120.5C 497.902,114.322 499.402,113.989 502,119.5C 502.628,116.046 503.795,115.713 505.5,118.5 Z"/></g>
<g><path style="opacity:1" fill="#f89b0f" d="M 943.5,116.5 C 945.225,117.278 946.891,117.611 948.5,117.5C 949.427,119.113 950.261,120.779 951,122.5C 972.844,120.836 994.844,119.836 1017,119.5C 1017.41,119.957 1017.91,120.291 1018.5,120.5C 1019.21,118.565 1020.21,118.232 1021.5,119.5C 1018.3,125.886 1017.64,132.552 1019.5,139.5C 1019.66,141.857 1019.5,144.19 1019,146.5C 1018.71,144.048 1018.04,141.715 1017,139.5C 995.49,141.164 973.823,142.164 952,142.5C 951.803,137.822 950.803,137.488 949,141.5C 948.79,139.942 948.29,138.609 947.5,137.5C 948.527,133.554 948.694,129.554 948,125.5C 946.473,122.447 944.973,119.447 943.5,116.5 Z"/></g>
<g><path style="opacity:1" fill="#f89b0f" d="M 1194.5,119.5 C 1193.11,122.007 1192.11,124.673 1191.5,127.5C 1190.71,128.609 1190.21,129.942 1190,131.5C 1186.39,127.515 1185.89,127.849 1188.5,132.5C 1187.69,133.216 1187.02,134.05 1186.5,135C 1187.52,137.787 1187.68,140.62 1187,143.5C 1186.03,141.608 1185.36,139.608 1185,137.5C 1184.51,138.793 1184.34,140.127 1184.5,141.5C 1163.17,141.5 1141.83,141.5 1120.5,141.5C 1120.5,138.833 1120.5,136.167 1120.5,133.5C 1120.85,128.969 1120.18,124.636 1118.5,120.5C 1143.56,121.151 1168.39,120.485 1193,118.5C 1193.38,119.056 1193.88,119.389 1194.5,119.5 Z"/></g>
<g><path style="opacity:1" fill="#fdbf0f" d="M 0.5,111.5 C 18.5766,111.181 36.5766,111.514 54.5,112.5C 55.3164,114.144 56.6498,115.31 58.5,116C 64.5347,117.405 69.868,116.072 74.5,112C 90.3377,109.844 96.5044,116.678 93,132.5C 89.9444,138.953 84.7777,142.286 77.5,142.5C 71.6001,140.961 65.7668,139.294 60,137.5C 57.7002,137.494 55.5336,137.994 53.5,139C 49.3233,143.954 49.6567,148.62 54.5,153C 62.0567,156.797 70.0567,158.631 78.5,158.5C 87.293,159.136 95.293,156.969 102.5,152C 112.695,140.533 115.695,127.366 111.5,112.5C 127.992,111.503 144.658,111.17 161.5,111.5C 161.334,119.507 161.5,127.507 162,135.5C 163.497,141.998 166.663,147.498 171.5,152C 180.92,158.21 191.253,160.21 202.5,158C 217.357,154.309 225.024,144.809 225.5,129.5C 226.49,123.69 226.823,117.69 226.5,111.5C 267.337,111.168 308.003,111.501 348.5,112.5C 331.839,131.16 314.839,149.493 297.5,167.5C 294.697,167.261 292.03,165.928 289.5,163.5C 193.31,165.494 96.9772,166.161 0.5,165.5C 0.5,147.5 0.5,129.5 0.5,111.5 Z"/></g>
<g><path style="opacity:1" fill="#fec10f" d="M 205.5,132.5 C 203.734,138.759 199.567,141.759 193,141.5C 186.522,141.188 182.689,137.855 181.5,131.5C 181.5,124.833 181.5,118.167 181.5,111.5C 189.5,111.5 197.5,111.5 205.5,111.5C 205.5,118.5 205.5,125.5 205.5,132.5 Z"/></g>
<g><path style="opacity:1" fill="#f8980f" d="M 674.5,127.5 C 674.5,130.833 674.5,134.167 674.5,137.5C 673.883,137.389 673.383,137.056 673,136.5C 672.506,138.134 672.34,139.801 672.5,141.5C 650.925,141.173 629.425,141.506 608,142.5C 607.751,141.376 607.251,140.376 606.5,139.5C 605.702,141.078 605.202,142.744 605,144.5C 603.851,141.607 603.351,138.607 603.5,135.5C 603.5,132.833 603.5,130.167 603.5,127.5C 604.458,127.047 605.292,126.381 606,125.5C 606.333,127.167 606.667,128.833 607,130.5C 607.333,129.833 607.667,129.167 608,128.5C 618.926,129.161 629.926,129.495 641,129.5C 652.392,129.478 663.559,128.811 674.5,127.5 Z"/></g>
<g><path style="opacity:1" fill="#f7980f" d="M 775.5,126.5 C 776.404,127.209 776.737,128.209 776.5,129.5C 798.169,129.333 819.836,129.5 841.5,130C 840.804,131.488 841.138,132.988 842.5,134.5C 843.885,130.622 845.051,130.622 846,134.5C 846.399,134.272 846.565,133.938 846.5,133.5C 847.473,135.948 847.806,138.615 847.5,141.5C 846.883,141.389 846.383,141.056 846,140.5C 845.481,141.516 844.647,142.182 843.5,142.5C 821.183,141.854 798.85,141.187 776.5,140.5C 776.137,139.817 775.804,139.15 775.5,138.5C 775.5,134.5 775.5,130.5 775.5,126.5 Z"/></g>
<g><path style="opacity:1" fill="#232220" d="M 133.5,137.5 C 142.086,136.28 147.419,139.78 149.5,148C 147.139,156.688 141.473,160.021 132.5,158C 126.891,154.723 125.058,149.89 127,143.5C 128.494,140.686 130.66,138.686 133.5,137.5 Z"/></g>
<g><path style="opacity:1" fill="#f58f0f" d="M 502.5,139.5 C 503.953,145.621 504.953,151.954 505.5,158.5C 505.628,161.602 504.294,163.602 501.5,164.5C 492.054,160.611 482.72,156.444 473.5,152C 470.893,151.182 468.226,150.682 465.5,150.5C 454.085,154.454 442.919,159.121 432,164.5C 430.739,164.241 429.739,163.574 429,162.5C 428.088,155.914 428.588,149.581 430.5,143.5C 431.302,142.048 431.802,140.382 432,138.5C 432.483,139.448 432.649,140.448 432.5,141.5C 454.816,141.531 476.982,141.531 499,141.5C 500.236,143.307 500.57,145.307 500,147.5C 501.936,145.192 502.769,142.525 502.5,139.5 Z"/></g>
<g><path style="opacity:1" fill="#f58f0f" d="M 603.5,135.5 C 603.351,138.607 603.851,141.607 605,144.5C 605.202,142.744 605.702,141.078 606.5,139.5C 607.251,140.376 607.751,141.376 608,142.5C 629.425,141.506 650.925,141.173 672.5,141.5C 672.34,139.801 672.506,138.134 673,136.5C 673.383,137.056 673.883,137.389 674.5,137.5C 676.109,143.86 677.109,150.36 677.5,157C 678.204,163.137 675.537,165.137 669.5,163C 662.586,159.474 655.586,156.14 648.5,153C 642.998,150.105 637.331,149.771 631.5,152C 622.495,156.169 613.495,160.336 604.5,164.5C 602.971,164.471 601.804,163.804 601,162.5C 600.795,153.281 601.628,144.281 603.5,135.5 Z"/></g>
<g><path style="opacity:1" fill="#f58f0f" d="M 775.5,138.5 C 775.804,139.15 776.137,139.817 776.5,140.5C 798.85,141.187 821.183,141.854 843.5,142.5C 844.647,142.182 845.481,141.516 846,140.5C 846.383,141.056 846.883,141.389 847.5,141.5C 849.16,148.414 849.66,155.414 849,162.5C 848.261,163.574 847.261,164.241 846,164.5C 836.138,160.154 826.304,155.654 816.5,151C 812.074,150.209 807.741,150.543 803.5,152C 794.812,156.263 785.979,160.096 777,163.5C 773.669,163.513 772.169,161.846 772.5,158.5C 773.624,151.704 774.624,145.037 775.5,138.5 Z"/></g>
<g><path style="opacity:1" fill="#f58f0f" d="M 947.5,137.5 C 948.29,138.609 948.79,139.942 949,141.5C 950.803,137.488 951.803,137.822 952,142.5C 973.823,142.164 995.49,141.164 1017,139.5C 1018.04,141.715 1018.71,144.048 1019,146.5C 1019.5,144.19 1019.66,141.857 1019.5,139.5C 1020.76,146.162 1021.76,152.995 1022.5,160C 1022.26,160.873 1021.93,161.707 1021.5,162.5C 1019.24,163.647 1016.9,163.814 1014.5,163C 1005.83,159 997.167,155 988.5,151C 985.167,150.333 981.833,150.333 978.5,151C 969.076,155.712 959.409,159.878 949.5,163.5C 946.638,163.636 944.971,162.302 944.5,159.5C 945.37,152.131 946.37,144.798 947.5,137.5 Z"/></g>
<g><path style="opacity:1" fill="#f48f0f" d="M 1191.5,127.5 C 1192.33,137.509 1193.33,147.509 1194.5,157.5C 1195.27,161.193 1193.94,163.526 1190.5,164.5C 1181.51,160.336 1172.51,156.169 1163.5,152C 1160.53,151.306 1157.53,150.806 1154.5,150.5C 1145.18,153.446 1136.18,157.279 1127.5,162C 1124.59,163.318 1121.59,163.652 1118.5,163C 1117.87,160.925 1117.53,158.759 1117.5,156.5C 1118.24,148.654 1119.24,140.987 1120.5,133.5C 1120.5,136.167 1120.5,138.833 1120.5,141.5C 1141.83,141.5 1163.17,141.5 1184.5,141.5C 1184.34,140.127 1184.51,138.793 1185,137.5C 1185.36,139.608 1186.03,141.608 1187,143.5C 1187.68,140.62 1187.52,137.787 1186.5,135C 1187.02,134.05 1187.69,133.216 1188.5,132.5C 1185.89,127.849 1186.39,127.515 1190,131.5C 1190.21,129.942 1190.71,128.609 1191.5,127.5 Z"/></g>
<g><path style="opacity:1" fill="#fdb80f" d="M 297.5,167.5 C 291.62,174.591 285.286,181.258 278.5,187.5C 276.857,187.48 275.524,188.147 274.5,189.5C 273.184,186.972 272.017,186.972 271,189.5C 270.692,188.692 270.192,188.025 269.5,187.5C 268.757,188.908 267.923,190.241 267,191.5C 178.315,191.493 89.4814,191.493 0.5,191.5C 0.5,182.833 0.5,174.167 0.5,165.5C 96.9772,166.161 193.31,165.494 289.5,163.5C 292.03,165.928 294.697,167.261 297.5,167.5 Z"/></g>
<g><path style="opacity:1" fill="#fcb10e" d="M 278.5,187.5 C 271.167,195.833 263.833,204.167 256.5,212.5C 255.167,213.167 254.167,214.167 253.5,215.5C 169.167,215.5 84.8333,215.5 0.5,215.5C 0.5,207.5 0.5,199.5 0.5,191.5C 89.4814,191.493 178.315,191.493 267,191.5C 267.923,190.241 268.757,188.908 269.5,187.5C 270.192,188.025 270.692,188.692 271,189.5C 272.017,186.972 273.184,186.972 274.5,189.5C 275.524,188.147 276.857,187.48 278.5,187.5 Z"/></g>
</svg>
