<?xml version="1.0" encoding="UTF-8"?>
<!DOCTYPE svg PUBLIC "-//W3C//DTD SVG 1.1//EN" "http://www.w3.org/Graphics/SVG/1.1/DTD/svg11.dtd">
<svg xmlns="http://www.w3.org/2000/svg" version="1.1" width="814px" height="137px" style="shape-rendering:geometricPrecision; text-rendering:geometricPrecision; image-rendering:optimizeQuality; fill-rule:evenodd; clip-rule:evenodd" xmlns:xlink="http://www.w3.org/1999/xlink">
<g><path style="opacity:1" fill="#fefefe" d="M 151.5,-0.5 C 372.167,-0.5 592.833,-0.5 813.5,-0.5C 813.5,22.1667 813.5,44.8333 813.5,67.5C 794.472,47.4736 775.472,27.4736 756.5,7.5C 756.389,6.88258 756.056,6.38258 755.5,6C 556.167,5.5 356.834,5.33333 157.5,5.5C 155.167,3.83333 153.167,1.83333 151.5,-0.5 Z"/></g>
<g><path style="opacity:1" fill="#fdbd11" d="M 0.5,-0.5 C 50.8333,-0.5 101.167,-0.5 151.5,-0.5C 153.167,1.83333 155.167,3.83333 157.5,5.5C 157.328,6.49162 157.662,7.15829 158.5,7.5C 158.5,7.83333 158.5,8.16667 158.5,8.5C 158.5,8.83333 158.5,9.16667 158.5,9.5C 157.542,9.0472 156.708,8.38053 156,7.5C 155.207,10.0212 154.374,12.0212 153.5,13.5C 104.876,12.5049 56.2088,12.1716 7.5,12.5C 7.13412,7.5325 6.63412,7.86583 6,13.5C 5.47998,5.57937 4.64665,5.57937 3.5,13.5C 2.74322,10.6303 1.74322,7.96359 0.5,5.5C 0.5,3.5 0.5,1.5 0.5,-0.5 Z"/></g>
<g><path style="opacity:1" fill="#3e3c3d" d="M 157.5,5.5 C 356.834,5.33333 556.167,5.5 755.5,6C 756.056,6.38258 756.389,6.88258 756.5,7.5C 557.167,7.5 357.833,7.5 158.5,7.5C 157.662,7.15829 157.328,6.49162 157.5,5.5 Z"/></g>
<g><path style="opacity:1" fill="#fdb80f" d="M 0.5,5.5 C 1.74322,7.96359 2.74322,10.6303 3.5,13.5C 4.64665,5.57937 5.47998,5.57937 6,13.5C 6.63412,7.86583 7.13412,7.5325 7.5,12.5C 56.2088,12.1716 104.876,12.5049 153.5,13.5C 154.374,12.0212 155.207,10.0212 156,7.5C 156.708,8.38053 157.542,9.0472 158.5,9.5C 162.824,14.1251 167.157,18.7918 171.5,23.5C 171.741,26.999 170.908,27.3323 169,24.5C 167.632,26.027 167.132,27.527 167.5,29C 113.596,29.169 59.7628,29.669 6,30.5C 5.66667,28.5 5.33333,26.5 5,24.5C 4.3285,30.2293 3.3285,30.5626 2,25.5C 1.50115,29.4862 1.33449,33.4862 1.5,37.5C 0.50558,27.0131 0.172247,16.3464 0.5,5.5 Z"/></g>
<g><path style="opacity:1" fill="#4b4948" d="M 158.5,8.5 C 158.5,8.16667 158.5,7.83333 158.5,7.5C 357.833,7.5 557.167,7.5 756.5,7.5C 775.472,27.4736 794.472,47.4736 813.5,67.5C 813.5,68.1667 813.5,68.8333 813.5,69.5C 812.833,69.1667 812.167,68.8333 811.5,68.5C 793.344,48.5106 775.011,28.6773 756.5,9C 557.167,8.5 357.834,8.33333 158.5,8.5 Z"/></g>
<g><path style="opacity:1" fill="#262626" d="M 158.5,9.5 C 158.5,9.16667 158.5,8.83333 158.5,8.5C 357.834,8.33333 557.167,8.5 756.5,9C 775.011,28.6773 793.344,48.5106 811.5,68.5C 809.726,70.0117 807.893,70.3451 806,69.5C 805.5,69.1667 805,68.8333 804.5,68.5C 805.167,68.1667 805.833,67.8333 806.5,67.5C 806,66.5 805.5,65.5 805,64.5C 804.138,66.087 803.471,67.7536 803,69.5C 801.105,65.7016 799.939,65.5349 799.5,69C 777.956,69.2978 757.289,69.4645 737.5,69.5C 739.051,66.4372 741.218,63.7705 744,61.5C 744.667,60.5 744.667,59.5 744,58.5C 736.403,56.7049 728.903,54.5382 721.5,52C 717.541,45.9173 713.708,39.7506 710,33.5C 708.062,32.1398 706.396,32.4732 705,34.5C 702.233,40.2582 699.066,45.7582 695.5,51C 693.725,52.4389 691.725,53.4389 689.5,54C 683.464,55.0612 677.464,56.2278 671.5,57.5C 671.343,58.8734 671.51,60.2068 672,61.5C 674.415,64.014 676.581,66.6806 678.5,69.5C 676.876,69.6399 675.71,68.9733 675,67.5C 674.333,70.1667 673.667,70.1667 673,67.5C 667.578,68.8079 661.911,69.4746 656,69.5C 647.164,68.9636 638.997,68.9636 631.5,69.5C 633.795,66.7029 636.295,64.0362 639,61.5C 639.667,60.5 639.667,59.5 639,58.5C 632.006,56.1655 624.839,54.3322 617.5,53C 612.46,47.094 608.294,40.594 605,33.5C 602.415,32.1154 600.415,32.7821 599,35.5C 596.548,40.9073 593.714,46.0739 590.5,51C 588.725,52.4389 586.725,53.4389 584.5,54C 578.789,54.7423 573.122,55.7423 567.5,57C 565.032,58.5883 564.866,60.4216 567,62.5C 569.372,64.7032 571.539,67.0365 573.5,69.5C 571.968,70.3696 570.468,70.0362 569,68.5C 554.809,69.8226 540.975,69.8226 527.5,68.5C 530.825,65.5145 532.825,61.8478 533.5,57.5C 525.625,56.5211 517.958,54.6878 510.5,52C 506.623,46.4153 503.123,40.5819 500,34.5C 498.604,32.4732 496.938,32.1398 495,33.5C 491.78,40.1192 487.947,46.2859 483.5,52C 476.677,54.2169 469.677,55.8836 462.5,57C 460.789,58.1332 460.289,59.6332 461,61.5C 463.705,64.0362 466.205,66.7029 468.5,69.5C 466.669,68.9478 465.003,68.9478 463.5,69.5C 462.808,68.9747 462.308,68.3081 462,67.5C 461.692,68.3081 461.192,68.9747 460.5,69.5C 449.302,69.4591 438.469,69.4591 428,69.5C 427.667,68.8333 427.333,68.1667 427,67.5C 425.239,69.3634 423.405,70.03 421.5,69.5C 423.075,66.4179 425.242,63.7512 428,61.5C 428.667,60.5 428.667,59.5 428,58.5C 420.495,56.4146 412.995,54.248 405.5,52C 401.041,46.253 397.207,40.0863 394,33.5C 392.062,32.1398 390.396,32.4732 389,34.5C 385.921,41.519 381.754,47.6857 376.5,53C 369.797,54.3943 363.13,55.8943 356.5,57.5C 355.386,58.723 355.219,60.0563 356,61.5C 357.842,63.8636 359.675,66.1969 361.5,68.5C 347.915,69.7779 334.415,69.7779 321,68.5C 320.333,69.1667 319.667,69.8333 319,70.5C 317.855,70.3809 316.688,70.0476 315.5,69.5C 317.795,66.7029 320.295,64.0362 323,61.5C 323.667,60.5 323.667,59.5 323,58.5C 315.564,56.2038 308.064,54.0371 300.5,52C 296.041,46.253 292.207,40.0863 289,33.5C 288.329,32.7476 287.496,32.4142 286.5,32.5C 285.504,32.4142 284.671,32.7476 284,33.5C 280.706,40.594 276.54,47.094 271.5,53C 264.092,54.079 256.926,55.9124 250,58.5C 249.333,59.5 249.333,60.5 250,61.5C 252.04,63.3702 253.873,65.3702 255.5,67.5C 254.175,68.9526 253.342,68.6192 253,66.5C 252.517,67.448 252.351,68.448 252.5,69.5C 239.585,68.883 226.918,69.5497 214.5,71.5C 214.291,70.0783 213.791,68.745 213,67.5C 204.967,58.6357 196.8,49.969 188.5,41.5C 182.805,35.4737 177.139,29.4737 171.5,23.5C 167.157,18.7918 162.824,14.1251 158.5,9.5 Z"/></g>
<g><path style="opacity:1" fill="#fbb00f" d="M 171.5,23.5 C 177.139,29.4737 182.805,35.4737 188.5,41.5C 187.854,43.8504 186.687,45.1838 185,45.5C 184.193,41.551 183.693,41.551 183.5,45.5C 169.817,45.8325 156.15,45.4992 142.5,44.5C 143.428,43.2322 143.595,41.8989 143,40.5C 141.873,43.3771 141.206,46.3771 141,49.5C 139.705,44.3948 138.038,44.3948 136,49.5C 135.536,48.9056 135.369,48.2389 135.5,47.5C 137.113,44.4534 136.446,41.9534 133.5,40C 124.5,39.3333 115.5,39.3333 106.5,40C 104.574,40.4224 103.574,41.5891 103.5,43.5C 102.778,43.9175 102.278,44.5842 102,45.5C 101.784,43.6161 101.117,41.9494 100,40.5C 98.2565,43.9567 97.2565,47.6233 97,51.5C 96.6667,47.8333 96.3333,44.1667 96,40.5C 95.5065,42.1341 95.3398,43.8008 95.5,45.5C 86.3201,45.4017 77.3201,45.4017 68.5,45.5C 61.2319,38.0162 52.5652,35.8496 42.5,39C 39.1725,40.4785 36.5058,42.6452 34.5,45.5C 34.44,44.9569 34.1067,44.6236 33.5,44.5C 24.119,44.8197 14.9523,45.8197 6,47.5C 5.66667,45.8333 5.33333,44.1667 5,42.5C 4.75083,43.624 4.25083,44.624 3.5,45.5C 1.94622,43.0671 1.27955,40.4005 1.5,37.5C 1.33449,33.4862 1.50115,29.4862 2,25.5C 3.3285,30.5626 4.3285,30.2293 5,24.5C 5.33333,26.5 5.66667,28.5 6,30.5C 59.7628,29.669 113.596,29.169 167.5,29C 167.132,27.527 167.632,26.027 169,24.5C 170.908,27.3323 171.741,26.999 171.5,23.5 Z"/></g>
<g><path style="opacity:1" fill="#585858" d="M 421.5,69.5 C 418.5,71.6676 416,74.3343 414,77.5C 413.835,84.1915 414.335,90.8581 415.5,97.5C 415.449,99.0998 415.116,100.6 414.5,102C 407.009,99.6816 399.509,97.1816 392,94.5C 384.82,96.5621 377.82,99.2288 371,102.5C 370.228,102.355 369.561,102.022 369,101.5C 368.833,99.6667 368.667,97.8333 368.5,96C 369.533,90.1833 370.033,84.3499 370,78.5C 368.052,74.3875 365.219,71.0541 361.5,68.5C 359.675,66.1969 357.842,63.8636 356,61.5C 355.219,60.0563 355.386,58.723 356.5,57.5C 363.13,55.8943 369.797,54.3943 376.5,53C 381.754,47.6857 385.921,41.519 389,34.5C 390.396,32.4732 392.062,32.1398 394,33.5C 397.207,40.0863 401.041,46.253 405.5,52C 412.995,54.248 420.495,56.4146 428,58.5C 428.667,59.5 428.667,60.5 428,61.5C 425.242,63.7512 423.075,66.4179 421.5,69.5 Z"/></g>
<g><path style="opacity:1" fill="#585858" d="M 527.5,68.5 C 523.781,71.0541 520.948,74.3875 519,78.5C 519.93,86.4305 520.43,94.4305 520.5,102.5C 512.613,99.9724 504.78,97.3057 497,94.5C 489.491,97.1816 481.991,99.6816 474.5,102C 473.903,100.938 473.57,99.7716 473.5,98.5C 475.055,91.5612 475.555,84.5612 475,77.5C 473.043,74.5402 470.876,71.8736 468.5,69.5C 466.205,66.7029 463.705,64.0362 461,61.5C 460.289,59.6332 460.789,58.1332 462.5,57C 469.677,55.8836 476.677,54.2169 483.5,52C 487.947,46.2859 491.78,40.1192 495,33.5C 496.938,32.1398 498.604,32.4732 500,34.5C 503.123,40.5819 506.623,46.4153 510.5,52C 517.958,54.6878 525.625,56.5211 533.5,57.5C 532.825,61.8478 530.825,65.5145 527.5,68.5 Z"/></g>
<g><path style="opacity:1" fill="#585858" d="M 631.5,69.5 C 629.113,71.9131 626.946,74.5798 625,77.5C 624.554,84.3849 625.054,91.2182 626.5,98C 626.896,101.939 625.229,103.272 621.5,102C 615.576,98.368 609.243,95.868 602.5,94.5C 594.718,96.8934 587.052,99.5601 579.5,102.5C 580.143,94.1696 580.31,85.8363 580,77.5C 578.726,74.0641 576.559,71.3974 573.5,69.5C 571.539,67.0365 569.372,64.7032 567,62.5C 564.866,60.4216 565.032,58.5883 567.5,57C 573.122,55.7423 578.789,54.7423 584.5,54C 586.725,53.4389 588.725,52.4389 590.5,51C 593.714,46.0739 596.548,40.9073 599,35.5C 600.415,32.7821 602.415,32.1154 605,33.5C 608.294,40.594 612.46,47.094 617.5,53C 624.839,54.3322 632.006,56.1655 639,58.5C 639.667,59.5 639.667,60.5 639,61.5C 636.295,64.0362 633.795,66.7029 631.5,69.5 Z"/></g>
<g><path style="opacity:1" fill="#5a5957" d="M 286.5,32.5 C 287.496,32.4142 288.329,32.7476 289,33.5C 292.207,40.0863 296.041,46.253 300.5,52C 308.064,54.0371 315.564,56.2038 323,58.5C 323.667,59.5 323.667,60.5 323,61.5C 320.295,64.0362 317.795,66.7029 315.5,69.5C 313.113,71.9131 310.946,74.5798 309,77.5C 308.275,84.7449 308.775,91.9116 310.5,99C 310.233,102.164 308.567,103.164 305.5,102C 299.567,98.3626 293.234,95.8626 286.5,94.5C 286.5,92.5 286.5,90.5 286.5,88.5C 286.5,84.1667 286.5,79.8333 286.5,75.5C 286.5,61.1667 286.5,46.8333 286.5,32.5 Z"/></g>
<g><path style="opacity:1" fill="#585858" d="M 737.5,69.5 C 734.5,71.6676 732,74.3343 730,77.5C 729.508,84.2248 730.008,90.8914 731.5,97.5C 731.333,98.8333 731.167,100.167 731,101.5C 730.439,102.022 729.772,102.355 729,102.5C 723.989,100.745 719.156,98.5783 714.5,96C 712.256,95.0943 709.923,94.5943 707.5,94.5C 700.201,97.327 692.868,99.827 685.5,102C 684.869,100.094 684.536,98.0937 684.5,96C 685.403,90.5017 685.903,85.0017 686,79.5C 684.819,75.1555 682.319,71.8221 678.5,69.5C 676.581,66.6806 674.415,64.014 672,61.5C 671.51,60.2068 671.343,58.8734 671.5,57.5C 677.464,56.2278 683.464,55.0612 689.5,54C 691.725,53.4389 693.725,52.4389 695.5,51C 699.066,45.7582 702.233,40.2582 705,34.5C 706.396,32.4732 708.062,32.1398 710,33.5C 713.708,39.7506 717.541,45.9173 721.5,52C 728.903,54.5382 736.403,56.7049 744,58.5C 744.667,59.5 744.667,60.5 744,61.5C 741.218,63.7705 739.051,66.4372 737.5,69.5 Z"/></g>
<g><path style="opacity:1" fill="#f8a80f" d="M 103.5,43.5 C 102.893,52.4875 102.56,61.4875 102.5,70.5C 92.1667,70.5 81.8333,70.5 71.5,70.5C 71.8168,74.7016 71.4834,78.7016 70.5,82.5C 70.6665,71.8281 70.4998,61.1615 70,50.5C 68.9914,48.9751 68.4914,47.3084 68.5,45.5C 77.3201,45.4017 86.3201,45.4017 95.5,45.5C 95.3398,43.8008 95.5065,42.1341 96,40.5C 96.3333,44.1667 96.6667,47.8333 97,51.5C 97.2565,47.6233 98.2565,43.9567 100,40.5C 101.117,41.9494 101.784,43.6161 102,45.5C 102.278,44.5842 102.778,43.9175 103.5,43.5 Z"/></g>
<g><path style="opacity:1" fill="#feb13a" d="M -0.5,-0.5 C -0.166667,-0.5 0.166667,-0.5 0.5,-0.5C 0.5,1.5 0.5,3.5 0.5,5.5C 0.172247,16.3464 0.50558,27.0131 1.5,37.5C 1.27955,40.4005 1.94622,43.0671 3.5,45.5C 4.25083,44.624 4.75083,43.624 5,42.5C 5.33333,44.1667 5.66667,45.8333 6,47.5C 14.9523,45.8197 24.119,44.8197 33.5,44.5C 34.1067,44.6236 34.44,44.9569 34.5,45.5C 31.7868,53.219 30.7868,61.219 31.5,69.5C 21.0736,70.127 10.9069,69.4604 1,67.5C 0.500035,90.4976 0.333368,113.498 0.5,136.5C 0.166667,136.5 -0.166667,136.5 -0.5,136.5C -0.5,90.8333 -0.5,45.1667 -0.5,-0.5 Z"/></g>
<g><path style="opacity:1" fill="#faa70f" d="M 188.5,41.5 C 196.8,49.969 204.967,58.6357 213,67.5C 213.791,68.745 214.291,70.0783 214.5,71.5C 214.167,71.5 213.833,71.5 213.5,71.5C 213.217,70.7109 212.717,70.0442 212,69.5C 187.458,70.4629 162.624,70.7962 137.5,70.5C 134.687,64.7444 130.02,61.4111 123.5,60.5C 120.713,59.5233 117.713,59.19 114.5,59.5C 114.5,56.1667 114.5,52.8333 114.5,49.5C 120.509,49.6662 126.509,49.4995 132.5,49C 133.527,48.4867 134.527,47.9867 135.5,47.5C 135.369,48.2389 135.536,48.9056 136,49.5C 138.038,44.3948 139.705,44.3948 141,49.5C 141.206,46.3771 141.873,43.3771 143,40.5C 143.595,41.8989 143.428,43.2322 142.5,44.5C 156.15,45.4992 169.817,45.8325 183.5,45.5C 183.693,41.551 184.193,41.551 185,45.5C 186.687,45.1838 187.854,43.8504 188.5,41.5 Z"/></g>
<g><path style="opacity:1" fill="#8f6419" d="M 114.5,49.5 C 114.5,52.8333 114.5,56.1667 114.5,59.5C 117.713,59.19 120.713,59.5233 123.5,60.5C 120.167,60.5 116.833,60.5 113.5,60.5C 113.185,56.6286 113.518,52.9619 114.5,49.5 Z"/></g>
<g><path style="opacity:1" fill="#242221" d="M 68.5,45.5 C 68.4914,47.3084 68.9914,48.9751 70,50.5C 70.4998,61.1615 70.6665,71.8281 70.5,82.5C 67.65,95.9438 59.3167,101.444 45.5,99C 33.5578,93.2809 28.8911,83.7809 31.5,70.5C 31.5,70.1667 31.5,69.8333 31.5,69.5C 30.7868,61.219 31.7868,53.219 34.5,45.5C 36.5058,42.6452 39.1725,40.4785 42.5,39C 52.5652,35.8496 61.2319,38.0162 68.5,45.5 Z"/></g>
<g><path style="opacity:1" fill="#f1a111" d="M 58.5,82.5 C 58.5,78.1667 58.5,73.8333 58.5,69.5C 53.5,69.5 48.5,69.5 43.5,69.5C 43.0845,63.0478 43.5845,56.7145 45,50.5C 50.869,45.8119 55.5357,46.8119 59,53.5C 59.8246,63.3422 59.658,73.0089 58.5,82.5 Z"/></g>
<g><path style="opacity:1" fill="#212121" d="M 811.5,68.5 C 812.167,68.8333 812.833,69.1667 813.5,69.5C 813.5,70.1667 813.5,70.8333 813.5,71.5C 794.367,91.469 775.367,111.636 756.5,132C 556.834,132.5 357.167,132.667 157.5,132.5C 162.229,127.776 166.563,122.776 170.5,117.5C 174.833,113.833 178.833,109.833 182.5,105.5C 192.805,94.1925 203.138,82.8592 213.5,71.5C 213.833,71.5 214.167,71.5 214.5,71.5C 226.918,69.5497 239.585,68.883 252.5,69.5C 252.351,68.448 252.517,67.448 253,66.5C 253.342,68.6192 254.175,68.9526 255.5,67.5C 259.241,70.2369 262.241,73.5702 264.5,77.5C 264.5,78.1667 264.5,78.8333 264.5,79.5C 263.857,87.1499 263.523,94.8166 263.5,102.5C 271.06,99.5543 278.727,96.8877 286.5,94.5C 293.234,95.8626 299.567,98.3626 305.5,102C 308.567,103.164 310.233,102.164 310.5,99C 308.775,91.9116 308.275,84.7449 309,77.5C 310.946,74.5798 313.113,71.9131 315.5,69.5C 316.688,70.0476 317.855,70.3809 319,70.5C 319.667,69.8333 320.333,69.1667 321,68.5C 334.415,69.7779 347.915,69.7779 361.5,68.5C 365.219,71.0541 368.052,74.3875 370,78.5C 370.033,84.3499 369.533,90.1833 368.5,96C 368.667,97.8333 368.833,99.6667 369,101.5C 369.561,102.022 370.228,102.355 371,102.5C 377.82,99.2288 384.82,96.5621 392,94.5C 399.509,97.1816 407.009,99.6816 414.5,102C 415.116,100.6 415.449,99.0998 415.5,97.5C 414.335,90.8581 413.835,84.1915 414,77.5C 416,74.3343 418.5,71.6676 421.5,69.5C 423.405,70.03 425.239,69.3634 427,67.5C 427.333,68.1667 427.667,68.8333 428,69.5C 438.469,69.4591 449.302,69.4591 460.5,69.5C 461.192,68.9747 461.692,68.3081 462,67.5C 462.308,68.3081 462.808,68.9747 463.5,69.5C 465.003,68.9478 466.669,68.9478 468.5,69.5C 470.876,71.8736 473.043,74.5402 475,77.5C 475.555,84.5612 475.055,91.5612 473.5,98.5C 473.57,99.7716 473.903,100.938 474.5,102C 481.991,99.6816 489.491,97.1816 497,94.5C 504.78,97.3057 512.613,99.9724 520.5,102.5C 520.43,94.4305 519.93,86.4305 519,78.5C 520.948,74.3875 523.781,71.0541 527.5,68.5C 540.975,69.8226 554.809,69.8226 569,68.5C 570.468,70.0362 571.968,70.3696 573.5,69.5C 576.559,71.3974 578.726,74.0641 580,77.5C 580.31,85.8363 580.143,94.1696 579.5,102.5C 587.052,99.5601 594.718,96.8934 602.5,94.5C 609.243,95.868 615.576,98.368 621.5,102C 625.229,103.272 626.896,101.939 626.5,98C 625.054,91.2182 624.554,84.3849 625,77.5C 626.946,74.5798 629.113,71.9131 631.5,69.5C 638.997,68.9636 647.164,68.9636 656,69.5C 661.911,69.4746 667.578,68.8079 673,67.5C 673.667,70.1667 674.333,70.1667 675,67.5C 675.71,68.9733 676.876,69.6399 678.5,69.5C 682.319,71.8221 684.819,75.1555 686,79.5C 685.903,85.0017 685.403,90.5017 684.5,96C 684.536,98.0937 684.869,100.094 685.5,102C 692.868,99.827 700.201,97.327 707.5,94.5C 709.923,94.5943 712.256,95.0943 714.5,96C 719.156,98.5783 723.989,100.745 729,102.5C 729.772,102.355 730.439,102.022 731,101.5C 731.167,100.167 731.333,98.8333 731.5,97.5C 730.008,90.8914 729.508,84.2248 730,77.5C 732,74.3343 734.5,71.6676 737.5,69.5C 757.289,69.4645 777.956,69.2978 799.5,69C 799.939,65.5349 801.105,65.7016 803,69.5C 803.471,67.7536 804.138,66.087 805,64.5C 805.5,65.5 806,66.5 806.5,67.5C 805.833,67.8333 805.167,68.1667 804.5,68.5C 805,68.8333 805.5,69.1667 806,69.5C 807.893,70.3451 809.726,70.0117 811.5,68.5 Z"/></g>
<g><path style="opacity:1" fill="#232221" d="M 135.5,47.5 C 134.527,47.9867 133.527,48.4867 132.5,49C 126.509,49.4995 120.509,49.6662 114.5,49.5C 113.518,52.9619 113.185,56.6286 113.5,60.5C 116.833,60.5 120.167,60.5 123.5,60.5C 130.02,61.4111 134.687,64.7444 137.5,70.5C 141.403,87.3973 134.903,97.064 118,99.5C 111.515,99.6343 105.848,97.6343 101,93.5C 99.5848,88.9197 101.251,86.5864 106,86.5C 109.79,87.5955 113.624,88.5955 117.5,89.5C 126.273,87.357 129.107,82.0236 126,73.5C 124.257,71.1285 121.923,69.7952 119,69.5C 115.333,70.8333 111.667,72.1667 108,73.5C 105.808,73.1373 103.974,72.1373 102.5,70.5C 102.56,61.4875 102.893,52.4875 103.5,43.5C 103.574,41.5891 104.574,40.4224 106.5,40C 115.5,39.3333 124.5,39.3333 133.5,40C 136.446,41.9534 137.113,44.4534 135.5,47.5 Z"/></g>
<g><path style="opacity:1" fill="#faaa0f" d="M 286.5,32.5 C 286.5,46.8333 286.5,61.1667 286.5,75.5C 285.178,75.67 284.011,75.3366 283,74.5C 282.851,77.2785 282.017,77.7785 280.5,76C 277.242,75.7883 274.076,75.2883 271,74.5C 270.751,75.624 270.251,76.624 269.5,77.5C 268.5,76.1667 267.5,74.8333 266.5,73.5C 265.269,74.6507 265.269,75.8173 266.5,77C 265.906,77.4643 265.239,77.631 264.5,77.5C 262.241,73.5702 259.241,70.2369 255.5,67.5C 253.873,65.3702 252.04,63.3702 250,61.5C 249.333,60.5 249.333,59.5 250,58.5C 256.926,55.9124 264.092,54.079 271.5,53C 276.54,47.094 280.706,40.594 284,33.5C 284.671,32.7476 285.504,32.4142 286.5,32.5 Z"/></g>
<g><path style="opacity:1" fill="#fdc00f" d="M 43.5,69.5 C 48.5,69.5 53.5,69.5 58.5,69.5C 58.5,73.8333 58.5,78.1667 58.5,82.5C 58.607,84.9032 57.607,86.7365 55.5,88C 52.0357,88.8166 48.7024,88.4833 45.5,87C 44.8095,85.9326 44.3095,84.7659 44,83.5C 43.5008,78.8452 43.3342,74.1785 43.5,69.5 Z"/></g>
<g><path style="opacity:1" fill="#fefefe" d="M 813.5,71.5 C 813.5,93.1667 813.5,114.833 813.5,136.5C 593.5,136.5 373.5,136.5 153.5,136.5C 155.139,135.527 156.473,134.194 157.5,132.5C 357.167,132.667 556.834,132.5 756.5,132C 775.367,111.636 794.367,91.469 813.5,71.5 Z"/></g>
<g><path style="opacity:1" fill="#f99c0f" d="M 286.5,75.5 C 286.5,79.8333 286.5,84.1667 286.5,88.5C 284.876,88.3601 283.71,89.0267 283,90.5C 282.751,89.376 282.251,88.376 281.5,87.5C 277.906,88.4259 274.24,88.7592 270.5,88.5C 270.649,87.448 270.483,86.448 270,85.5C 269.482,90.2809 268.148,90.6142 266,86.5C 265.814,83.9644 265.314,81.631 264.5,79.5C 264.5,78.8333 264.5,78.1667 264.5,77.5C 265.239,77.631 265.906,77.4643 266.5,77C 265.269,75.8173 265.269,74.6507 266.5,73.5C 267.5,74.8333 268.5,76.1667 269.5,77.5C 270.251,76.624 270.751,75.624 271,74.5C 274.076,75.2883 277.242,75.7883 280.5,76C 282.017,77.7785 282.851,77.2785 283,74.5C 284.011,75.3366 285.178,75.67 286.5,75.5 Z"/></g>
<g><path style="opacity:1" fill="#fcbe0f" d="M 137.5,70.5 C 162.624,70.7962 187.458,70.4629 212,69.5C 212.717,70.0442 213.217,70.7109 213.5,71.5C 203.138,82.8592 192.805,94.1925 182.5,105.5C 181.061,104.491 179.728,104.824 178.5,106.5C 177.667,105.5 176.833,104.5 176,103.5C 119.667,104.833 63.3333,104.833 7,103.5C 6.66667,104.167 6.33333,104.833 6,105.5C 5.33333,97.5 4.66667,97.5 4,105.5C 2.13799,94.0147 1.30465,82.348 1.5,70.5C 11.5,70.5 21.5,70.5 31.5,70.5C 28.8911,83.7809 33.5578,93.2809 45.5,99C 59.3167,101.444 67.65,95.9438 70.5,82.5C 71.4834,78.7016 71.8168,74.7016 71.5,70.5C 81.8333,70.5 92.1667,70.5 102.5,70.5C 103.974,72.1373 105.808,73.1373 108,73.5C 111.667,72.1667 115.333,70.8333 119,69.5C 121.923,69.7952 124.257,71.1285 126,73.5C 129.107,82.0236 126.273,87.357 117.5,89.5C 113.624,88.5955 109.79,87.5955 106,86.5C 101.251,86.5864 99.5848,88.9197 101,93.5C 105.848,97.6343 111.515,99.6343 118,99.5C 134.903,97.064 141.403,87.3973 137.5,70.5 Z"/></g>
<g><path style="opacity:1" fill="#f48f0f" d="M 264.5,79.5 C 265.314,81.631 265.814,83.9644 266,86.5C 268.148,90.6142 269.482,90.2809 270,85.5C 270.483,86.448 270.649,87.448 270.5,88.5C 274.24,88.7592 277.906,88.4259 281.5,87.5C 282.251,88.376 282.751,89.376 283,90.5C 283.71,89.0267 284.876,88.3601 286.5,88.5C 286.5,90.5 286.5,92.5 286.5,94.5C 278.727,96.8877 271.06,99.5543 263.5,102.5C 263.523,94.8166 263.857,87.1499 264.5,79.5 Z"/></g>
<g><path style="opacity:1" fill="#252321" d="M 81.5,86.5 C 88.1816,85.3733 91.6816,88.04 92,94.5C 91.5348,95.9308 90.7014,97.0975 89.5,98C 83.3607,100.149 79.694,98.1491 78.5,92C 78.8627,89.8077 79.8627,87.9744 81.5,86.5 Z"/></g>
<g><path style="opacity:1" fill="#fdb810" d="M 31.5,69.5 C 31.5,69.8333 31.5,70.1667 31.5,70.5C 21.5,70.5 11.5,70.5 1.5,70.5C 1.30465,82.348 2.13799,94.0147 4,105.5C 4.66667,97.5 5.33333,97.5 6,105.5C 6.33333,104.833 6.66667,104.167 7,103.5C 63.3333,104.833 119.667,104.833 176,103.5C 176.833,104.5 177.667,105.5 178.5,106.5C 179.728,104.824 181.061,104.491 182.5,105.5C 178.833,109.833 174.833,113.833 170.5,117.5C 170.265,116.903 169.765,116.57 169,116.5C 166.901,118.534 164.568,118.868 162,117.5C 136.109,118.82 110.109,119.487 84,119.5C 58.1187,119.495 32.452,118.829 7,117.5C 6.66667,118.5 6.33333,119.5 6,120.5C 5.66667,118.833 5.33333,117.167 5,115.5C 4.93505,117.883 4.10172,118.55 2.5,117.5C 1.50367,123.798 1.17033,130.132 1.5,136.5C 1.16667,136.5 0.833333,136.5 0.5,136.5C 0.333368,113.498 0.500035,90.4976 1,67.5C 10.9069,69.4604 21.0736,70.127 31.5,69.5 Z"/></g>
<g><path style="opacity:1" fill="#fcb00f" d="M 170.5,117.5 C 166.563,122.776 162.229,127.776 157.5,132.5C 156.473,134.194 155.139,135.527 153.5,136.5C 102.833,136.5 52.1667,136.5 1.5,136.5C 1.17033,130.132 1.50367,123.798 2.5,117.5C 4.10172,118.55 4.93505,117.883 5,115.5C 5.33333,117.167 5.66667,118.833 6,120.5C 6.33333,119.5 6.66667,118.5 7,117.5C 32.452,118.829 58.1187,119.495 84,119.5C 110.109,119.487 136.109,118.82 162,117.5C 164.568,118.868 166.901,118.534 169,116.5C 169.765,116.57 170.265,116.903 170.5,117.5 Z"/></g>
</svg>
