<?xml version="1.0" encoding="UTF-8"?>
<!DOCTYPE svg PUBLIC "-//W3C//DTD SVG 1.1//EN" "http://www.w3.org/Graphics/SVG/1.1/DTD/svg11.dtd">
<svg xmlns="http://www.w3.org/2000/svg" version="1.1" width="814px" height="137px" style="shape-rendering:geometricPrecision; text-rendering:geometricPrecision; image-rendering:optimizeQuality; fill-rule:evenodd; clip-rule:evenodd" xmlns:xlink="http://www.w3.org/1999/xlink">
<g><path style="opacity:1" fill="#f5f5f5" d="M 151.5,-0.5 C 372.167,-0.5 592.833,-0.5 813.5,-0.5C 813.5,22.1667 813.5,44.8333 813.5,67.5C 797.5,50.5 781.5,33.5 765.5,16.5C 762.704,13.2026 759.704,10.0359 756.5,7C 557.167,6.5 357.834,6.33333 158.5,6.5C 155.833,4.5 153.5,2.16667 151.5,-0.5 Z"/></g>
<g><path style="opacity:1" fill="#ffcb55" d="M -0.5,-0.5 C 50.1667,-0.5 100.833,-0.5 151.5,-0.5C 153.5,2.16667 155.833,4.5 158.5,6.5C 158.833,7.16667 159.167,7.83333 159.5,8.5C 159.062,8.43456 158.728,8.60123 158.5,9C 159.381,9.7083 160.047,10.5416 160.5,11.5C 159.603,12.5981 158.77,12.5981 158,11.5C 155.792,8.91986 153.959,6.08653 152.5,3C 102.168,2.50001 51.8344,2.33334 1.5,2.5C 1.5,10.1667 1.5,17.8333 1.5,25.5C 1.5,31.5 1.5,37.5 1.5,43.5C 1.5,52.5 1.5,61.5 1.5,70.5C 1.5,80.5 1.5,90.5 1.5,100.5C 1.5,105.833 1.5,111.167 1.5,116.5C 1.5,123.167 1.5,129.833 1.5,136.5C 0.833333,136.5 0.166667,136.5 -0.5,136.5C -0.5,90.8333 -0.5,45.1667 -0.5,-0.5 Z"/></g>
<g><path style="opacity:1" fill="#3e3d3c" d="M 158.5,6.5 C 357.834,6.33333 557.167,6.5 756.5,7C 759.704,10.0359 762.704,13.2026 765.5,16.5C 762.101,14.6117 759.101,12.1117 756.5,9C 557.5,8.5 358.5,8.33333 159.5,8.5C 159.167,7.83333 158.833,7.16667 158.5,6.5 Z"/></g>
<g><path style="opacity:1" fill="#fdb90e" d="M 160.5,11.5 C 163.861,13.8949 166.528,16.8949 168.5,20.5C 167.876,22.8486 167.543,25.1819 167.5,27.5C 113.837,28.4999 60.1708,28.8333 6.5,28.5C 6.64945,29.552 6.48278,30.552 6,31.5C 5.66667,29.1667 5.33333,26.8333 5,24.5C 4.37695,29.2347 3.21028,29.568 1.5,25.5C 1.5,17.8333 1.5,10.1667 1.5,2.5C 51.8344,2.33334 102.168,2.50001 152.5,3C 153.959,6.08653 155.792,8.91986 158,11.5C 158.77,12.5981 159.603,12.5981 160.5,11.5 Z"/></g>
<g><path style="opacity:1" fill="#262626" d="M 159.5,8.5 C 358.5,8.33333 557.5,8.5 756.5,9C 759.101,12.1117 762.101,14.6117 765.5,16.5C 781.5,33.5 797.5,50.5 813.5,67.5C 813.5,68.8333 813.5,70.1667 813.5,71.5C 812.833,71.8333 812.167,72.1667 811.5,72.5C 811.719,71.325 811.386,70.325 810.5,69.5C 787.711,69.1946 764.878,69.5279 742,70.5C 741.333,67.8333 740.667,67.8333 740,70.5C 739.583,69.244 738.75,68.5774 737.5,68.5C 739.461,66.0365 741.628,63.7032 744,61.5C 744.667,60.5 744.667,59.5 744,58.5C 736.476,56.4107 728.976,54.244 721.5,52C 717.019,45.5206 712.686,39.0206 708.5,32.5C 708.167,32.5 707.833,32.5 707.5,32.5C 706.542,32.9528 705.708,33.6195 705,34.5C 701.96,40.0816 698.793,45.5816 695.5,51C 693.725,52.4389 691.725,53.4389 689.5,54C 683.705,54.5922 678.039,55.7589 672.5,57.5C 671.386,58.723 671.219,60.0563 672,61.5C 673.045,62.3734 673.878,63.3734 674.5,64.5C 678.542,68.54 682.209,72.8733 685.5,77.5C 686.257,83.1539 685.923,88.8206 684.5,94.5C 683.673,89.0149 683.173,83.3482 683,77.5C 682.667,78.1667 682.333,78.8333 682,79.5C 681.5,77.6667 680.333,76.5 678.5,76C 680.007,75.1627 680.507,73.9961 680,72.5C 678.951,73.5171 677.784,73.6838 676.5,73C 675.213,71.5905 674.046,70.0905 673,68.5C 672.667,69.1667 672.333,69.8333 672,70.5C 661,69.1667 650,69.1667 639,70.5C 638.667,69.8333 638.333,69.1667 638,68.5C 636.889,73.7316 634.889,74.3983 632,70.5C 631.852,73.397 631.185,76.397 630,79.5C 629.092,77.5614 627.592,76.5614 625.5,76.5C 625.833,75.8333 626.167,75.1667 626.5,74.5C 629.138,71.5256 631.805,68.5256 634.5,65.5C 637.532,64.0009 639.032,61.6676 639,58.5C 631.492,56.4943 623.992,54.3276 616.5,52C 612.041,46.253 608.207,40.0863 605,33.5C 603.333,32.1667 601.667,32.1667 600,33.5C 597.016,40.8052 592.85,47.3052 587.5,53C 580.885,54.5473 574.218,55.8806 567.5,57C 565.229,60.0295 565.896,62.5295 569.5,64.5C 572.167,67.5 574.833,70.5 577.5,73.5C 576.07,73.4208 574.736,73.7542 573.5,74.5C 571.792,72.6379 569.792,71.1379 567.5,70C 553.455,69.2016 539.455,69.3682 525.5,70.5C 526.5,69.1667 527.5,67.8333 528.5,66.5C 532.337,64.5016 533.67,61.5016 532.5,57.5C 525.053,55.9872 517.72,54.1538 510.5,52C 506.623,46.4153 503.123,40.5819 500,34.5C 498.604,32.4732 496.938,32.1398 495,33.5C 491.793,40.0863 487.959,46.253 483.5,52C 476.639,54.1728 469.639,55.8395 462.5,57C 460.789,58.1332 460.289,59.6332 461,61.5C 462.371,63.0414 463.871,64.3747 465.5,65.5C 466.5,66.8333 467.5,68.1667 468.5,69.5C 453.288,69.404 437.955,69.5707 422.5,70C 420.91,72.7932 418.577,74.6266 415.5,75.5C 417.833,72.8333 420.167,70.1667 422.5,67.5C 424.127,65.3702 425.96,63.3702 428,61.5C 428.711,59.6332 428.211,58.1332 426.5,57C 419.28,56.0908 412.28,54.4241 405.5,52C 401.041,46.253 397.207,40.0863 394,33.5C 392.062,32.1398 390.396,32.4732 389,34.5C 385.877,40.5819 382.377,46.4153 378.5,52C 372.892,53.82 367.225,55.32 361.5,56.5C 358.677,56.0254 356.677,57.0254 355.5,59.5C 357.248,62.6615 359.248,65.6615 361.5,68.5C 347.431,69.1745 333.265,69.8412 319,70.5C 318.586,70.0426 318.086,69.7093 317.5,69.5C 315.929,71.3449 315.095,73.3449 315,75.5C 314.667,74.8333 314.333,74.1667 314,73.5C 313.329,74.2524 312.496,74.5858 311.5,74.5C 315.302,69.5289 319.302,64.6955 323.5,60C 323.18,58.3468 322.18,57.3468 320.5,57C 316.486,56.1626 312.486,55.3292 308.5,54.5C 303.771,54.2187 299.937,52.2187 297,48.5C 294.588,43.3413 291.921,38.3413 289,33.5C 287.333,32.1667 285.667,32.1667 284,33.5C 280.706,40.594 276.54,47.094 271.5,53C 264.361,54.1605 257.361,55.8272 250.5,58C 249.289,61.0101 250.289,63.1767 253.5,64.5C 256.529,67.859 259.529,71.1924 262.5,74.5C 262.5,74.8333 262.5,75.1667 262.5,75.5C 260.669,74.9478 259.003,74.9478 257.5,75.5C 256.41,74.6086 256.41,73.6086 257.5,72.5C 257.023,71.5224 256.357,70.6891 255.5,70C 248.833,69.8333 242.167,69.6667 235.5,69.5C 228.264,69.5372 221.264,70.2038 214.5,71.5C 214.5,71.1667 214.5,70.8333 214.5,70.5C 211.542,65.8744 207.876,61.8744 203.5,58.5C 200.208,53.5399 196.208,49.2066 191.5,45.5C 184.173,36.8406 176.507,28.5072 168.5,20.5C 166.528,16.8949 163.861,13.8949 160.5,11.5C 160.047,10.5416 159.381,9.7083 158.5,9C 158.728,8.60123 159.062,8.43456 159.5,8.5 Z"/></g>
<g><path style="opacity:1" fill="#fab00f" d="M 168.5,20.5 C 176.507,28.5072 184.173,36.8406 191.5,45.5C 175.5,45.5 159.5,45.5 143.5,45.5C 143.66,43.8008 143.494,42.1341 143,40.5C 142.059,42.7721 140.726,44.7721 139,46.5C 138.878,44.563 138.045,43.2297 136.5,42.5C 135.373,41.8783 134.373,41.045 133.5,40C 124.5,39.3333 115.5,39.3333 106.5,40C 104.574,40.4224 103.574,41.5891 103.5,43.5C 102.513,48.3196 101.847,53.3196 101.5,58.5C 100.5,58.5 99.5,58.5 98.5,58.5C 98.6621,56.4727 98.4955,54.4727 98,52.5C 96.7308,53.9047 96.2308,55.5714 96.5,57.5C 87.9149,57.1834 79.4149,57.5168 71,58.5C 70.4494,55.4435 68.7828,55.1101 66,57.5C 65.5172,58.448 65.3505,59.448 65.5,60.5C 62.3307,57.8881 59.1641,57.8881 56,60.5C 55.5006,65.8229 55.334,71.1563 55.5,76.5C 51.774,76.8226 48.1073,76.4892 44.5,75.5C 49.8514,64.9407 54.5181,54.1074 58.5,43C 56.842,38.0068 53.5087,36.5068 48.5,38.5C 48.0954,37.4502 47.4288,37.4502 46.5,38.5C 45.5214,41.9528 44.0214,42.2862 42,39.5C 41.3333,47.5 40.6667,47.5 40,39.5C 39.5045,41.4727 39.3379,43.4727 39.5,45.5C 28.8281,45.3335 18.1615,45.5002 7.5,46C 6.97473,46.6924 6.30806,47.1924 5.5,47.5C 4.16003,46.1335 2.82669,44.8001 1.5,43.5C 1.5,37.5 1.5,31.5 1.5,25.5C 3.21028,29.568 4.37695,29.2347 5,24.5C 5.33333,26.8333 5.66667,29.1667 6,31.5C 6.48278,30.552 6.64945,29.552 6.5,28.5C 60.1708,28.8333 113.837,28.4999 167.5,27.5C 167.543,25.1819 167.876,22.8486 168.5,20.5 Z"/></g>
<g><path style="opacity:1" fill="#585858" d="M 708.5,32.5 C 712.686,39.0206 717.019,45.5206 721.5,52C 728.976,54.244 736.476,56.4107 744,58.5C 744.667,59.5 744.667,60.5 744,61.5C 741.628,63.7032 739.461,66.0365 737.5,68.5C 734.479,71.3664 731.979,74.6997 730,78.5C 730.055,85.1664 730.555,91.833 731.5,98.5C 731.43,99.7716 731.097,100.938 730.5,102C 723.139,99.8315 715.805,97.3315 708.5,94.5C 708.5,73.8333 708.5,53.1667 708.5,32.5 Z"/></g>
<g><path style="opacity:1" fill="#faaa0f" d="M 191.5,45.5 C 196.208,49.2066 200.208,53.5399 203.5,58.5C 202.719,60.3223 201.552,60.9889 200,60.5C 200,59.1667 200,57.8333 200,56.5C 199,57.8333 198,59.1667 197,60.5C 195.649,58.981 194.149,57.6477 192.5,56.5C 170.304,57.1616 148.137,57.8282 126,58.5C 125.667,58.1667 125.333,57.8333 125,57.5C 124.722,58.4158 124.222,59.0825 123.5,59.5C 120.5,59.5 117.5,59.5 114.5,59.5C 114.5,56.1667 114.5,52.8333 114.5,49.5C 120.509,49.6662 126.509,49.4995 132.5,49C 135.693,47.9745 137.026,45.8078 136.5,42.5C 138.045,43.2297 138.878,44.563 139,46.5C 140.726,44.7721 142.059,42.7721 143,40.5C 143.494,42.1341 143.66,43.8008 143.5,45.5C 159.5,45.5 175.5,45.5 191.5,45.5 Z"/></g>
<g><path style="opacity:1" fill="#f9b10f" d="M 528.5,66.5 C 528.5,65.5 528.5,64.5 528.5,63.5C 526.876,63.6399 525.71,62.9733 525,61.5C 524.196,62.8045 523.029,63.4712 521.5,63.5C 504.859,62.3618 488.192,62.1951 471.5,63C 471,63.5 470.5,64 470,64.5C 468.758,63.1279 467.258,62.1279 465.5,61.5C 465.93,62.7117 465.93,64.045 465.5,65.5C 463.871,64.3747 462.371,63.0414 461,61.5C 460.289,59.6332 460.789,58.1332 462.5,57C 469.639,55.8395 476.639,54.1728 483.5,52C 487.959,46.253 491.793,40.0863 495,33.5C 496.938,32.1398 498.604,32.4732 500,34.5C 503.123,40.5819 506.623,46.4153 510.5,52C 517.72,54.1538 525.053,55.9872 532.5,57.5C 533.67,61.5016 532.337,64.5016 528.5,66.5 Z"/></g>
<g><path style="opacity:1" fill="#fab20f" d="M 308.5,54.5 C 310.542,56.8297 313.208,57.9964 316.5,58C 315.167,58.6667 313.833,59.3333 312.5,60C 313.167,60.3333 313.833,60.6667 314.5,61C 313.333,61.5 312.5,62.3333 312,63.5C 295.907,62.3425 279.741,62.1758 263.5,63C 261.863,64.951 260.363,64.7843 259,62.5C 259.783,64.3454 260.116,66.3454 260,68.5C 258.967,65.9673 257.133,64.3006 254.5,63.5C 253.893,63.6236 253.56,63.9569 253.5,64.5C 250.289,63.1767 249.289,61.0101 250.5,58C 257.361,55.8272 264.361,54.1605 271.5,53C 276.54,47.094 280.706,40.594 284,33.5C 285.667,32.1667 287.333,32.1667 289,33.5C 291.921,38.3413 294.588,43.3413 297,48.5C 299.937,52.2187 303.771,54.2187 308.5,54.5 Z"/></g>
<g><path style="opacity:1" fill="#f9b10f" d="M 634.5,65.5 C 633.472,64.9264 632.472,64.593 631.5,64.5C 632.09,63.2011 633.09,62.3678 634.5,62C 633.97,60.2562 633.97,58.7562 634.5,57.5C 633.354,58.1449 632.354,58.9783 631.5,60C 632.833,60.6667 632.833,61.3333 631.5,62C 622,62.1667 612.5,62.3333 603,62.5C 593.007,62.4748 583.173,61.8081 573.5,60.5C 572.201,61.09 571.368,62.09 571,63.5C 569.913,61.0684 569.413,61.4017 569.5,64.5C 565.896,62.5295 565.229,60.0295 567.5,57C 574.218,55.8806 580.885,54.5473 587.5,53C 592.85,47.3052 597.016,40.8052 600,33.5C 601.667,32.1667 603.333,32.1667 605,33.5C 608.207,40.0863 612.041,46.253 616.5,52C 623.992,54.3276 631.492,56.4943 639,58.5C 639.032,61.6676 637.532,64.0009 634.5,65.5 Z"/></g>
<g><path style="opacity:1" fill="#f9b110" d="M 707.5,32.5 C 707.5,41.8333 707.5,51.1667 707.5,60.5C 706.732,61.2625 706.232,62.2625 706,63.5C 697.277,62.2449 688.277,62.2449 679,63.5C 678.667,62.8333 678.333,62.1667 678,61.5C 677.28,63.0557 676.113,64.0557 674.5,64.5C 673.878,63.3734 673.045,62.3734 672,61.5C 671.219,60.0563 671.386,58.723 672.5,57.5C 678.039,55.7589 683.705,54.5922 689.5,54C 691.725,53.4389 693.725,52.4389 695.5,51C 698.793,45.5816 701.96,40.0816 705,34.5C 705.708,33.6195 706.542,32.9528 707.5,32.5 Z"/></g>
<g><path style="opacity:1" fill="#fab20f" d="M 422.5,67.5 C 420.559,66.5637 418.892,65.2303 417.5,63.5C 408.833,63.1667 400.167,62.8333 391.5,62.5C 382.338,62.5278 373.338,63.1945 364.5,64.5C 363.197,63.2822 362.197,63.6155 361.5,65.5C 360.34,63.9275 359.34,62.2608 358.5,60.5C 358.833,59.8333 359.167,59.1667 359.5,58.5C 362.202,59.7978 362.869,59.1312 361.5,56.5C 367.225,55.32 372.892,53.82 378.5,52C 382.377,46.4153 385.877,40.5819 389,34.5C 390.396,32.4732 392.062,32.1398 394,33.5C 397.207,40.0863 401.041,46.253 405.5,52C 412.28,54.4241 419.28,56.0908 426.5,57C 428.211,58.1332 428.711,59.6332 428,61.5C 425.96,63.3702 424.127,65.3702 422.5,67.5 Z"/></g>
<g><path style="opacity:1" fill="#f6a310" d="M 103.5,43.5 C 103.44,52.5125 103.107,61.5125 102.5,70.5C 90.8333,70.5 79.1667,70.5 67.5,70.5C 67.5,72.5 67.5,74.5 67.5,76.5C 66.8333,71.1667 66.1667,65.8333 65.5,60.5C 65.3505,59.448 65.5172,58.448 66,57.5C 68.7828,55.1101 70.4494,55.4435 71,58.5C 79.4149,57.5168 87.9149,57.1834 96.5,57.5C 96.2308,55.5714 96.7308,53.9047 98,52.5C 98.4955,54.4727 98.6621,56.4727 98.5,58.5C 99.5,58.5 100.5,58.5 101.5,58.5C 101.847,53.3196 102.513,48.3196 103.5,43.5 Z"/></g>
<g><path style="opacity:1" fill="#faa70f" d="M 48.5,38.5 C 43.848,49.1407 39.1813,59.8074 34.5,70.5C 23.5,70.5 12.5,70.5 1.5,70.5C 1.5,61.5 1.5,52.5 1.5,43.5C 2.82669,44.8001 4.16003,46.1335 5.5,47.5C 6.30806,47.1924 6.97473,46.6924 7.5,46C 18.1615,45.5002 28.8281,45.3335 39.5,45.5C 39.3379,43.4727 39.5045,41.4727 40,39.5C 40.6667,47.5 41.3333,47.5 42,39.5C 44.0214,42.2862 45.5214,41.9528 46.5,38.5C 47.4288,37.4502 48.0954,37.4502 48.5,38.5 Z"/></g>
<g><path style="opacity:1" fill="#faa50f" d="M 203.5,58.5 C 207.876,61.8744 211.542,65.8744 214.5,70.5C 188.833,70.5 163.167,70.5 137.5,70.5C 134.687,64.7444 130.02,61.4111 123.5,60.5C 123.5,60.1667 123.5,59.8333 123.5,59.5C 124.222,59.0825 124.722,58.4158 125,57.5C 125.333,57.8333 125.667,58.1667 126,58.5C 148.137,57.8282 170.304,57.1616 192.5,56.5C 194.149,57.6477 195.649,58.981 197,60.5C 198,59.1667 199,57.8333 200,56.5C 200,57.8333 200,59.1667 200,60.5C 201.552,60.9889 202.719,60.3223 203.5,58.5 Z"/></g>
<g><path style="opacity:1" fill="#7f5a1a" d="M 114.5,49.5 C 114.5,52.8333 114.5,56.1667 114.5,59.5C 117.5,59.5 120.5,59.5 123.5,59.5C 123.5,59.8333 123.5,60.1667 123.5,60.5C 120.167,60.5 116.833,60.5 113.5,60.5C 113.185,56.6286 113.518,52.9619 114.5,49.5 Z"/></g>
<g><path style="opacity:1" fill="#222220" d="M 65.5,60.5 C 66.1667,65.8333 66.8333,71.1667 67.5,76.5C 73.5058,77.5629 74.8391,80.5629 71.5,85.5C 69.9291,86.3094 68.2624,86.6427 66.5,86.5C 66.665,89.8499 66.4983,93.1832 66,96.5C 61.4766,100.895 57.9766,100.228 55.5,94.5C 55.5,91.8333 55.5,89.1667 55.5,86.5C 48.5,86.5 41.5,86.5 34.5,86.5C 32.1553,85.4877 30.822,83.6544 30.5,81C 31.7078,77.4237 33.0411,73.9237 34.5,70.5C 39.1813,59.8074 43.848,49.1407 48.5,38.5C 53.5087,36.5068 56.842,38.0068 58.5,43C 54.5181,54.1074 49.8514,64.9407 44.5,75.5C 48.1073,76.4892 51.774,76.8226 55.5,76.5C 55.334,71.1563 55.5006,65.8229 56,60.5C 59.1641,57.8881 62.3307,57.8881 65.5,60.5 Z"/></g>
<g><path style="opacity:1" fill="#faa70f" d="M 308.5,54.5 C 312.486,55.3292 316.486,56.1626 320.5,57C 322.18,57.3468 323.18,58.3468 323.5,60C 319.302,64.6955 315.302,69.5289 311.5,74.5C 310.833,74.8333 310.167,75.1667 309.5,75.5C 308.069,75.8807 307.236,76.8807 307,78.5C 292.277,77.0865 277.443,75.7532 262.5,74.5C 259.529,71.1924 256.529,67.859 253.5,64.5C 253.56,63.9569 253.893,63.6236 254.5,63.5C 257.133,64.3006 258.967,65.9673 260,68.5C 260.116,66.3454 259.783,64.3454 259,62.5C 260.363,64.7843 261.863,64.951 263.5,63C 279.741,62.1758 295.907,62.3425 312,63.5C 312.5,62.3333 313.333,61.5 314.5,61C 313.833,60.6667 313.167,60.3333 312.5,60C 313.833,59.3333 315.167,58.6667 316.5,58C 313.208,57.9964 310.542,56.8297 308.5,54.5 Z"/></g>
<g><path style="opacity:1" fill="#faa70f" d="M 707.5,60.5 C 707.946,66.0214 707.446,71.3548 706,76.5C 699.729,76.7355 693.396,76.4022 687,75.5C 686.722,76.4158 686.222,77.0825 685.5,77.5C 682.209,72.8733 678.542,68.54 674.5,64.5C 676.113,64.0557 677.28,63.0557 678,61.5C 678.333,62.1667 678.667,62.8333 679,63.5C 688.277,62.2449 697.277,62.2449 706,63.5C 706.232,62.2625 706.732,61.2625 707.5,60.5 Z"/></g>
<g><path style="opacity:1" fill="#212121" d="M 361.5,68.5 C 365.605,71.2705 368.605,74.9372 370.5,79.5C 369.592,86.8273 369.092,94.1606 369,101.5C 369.561,102.022 370.228,102.355 371,102.5C 377.705,99.3936 384.538,96.7269 391.5,94.5C 399.237,97.0488 406.904,99.5488 414.5,102C 415.393,95.1699 415.06,88.3366 413.5,81.5C 413.604,79.2972 414.27,77.2972 415.5,75.5C 418.577,74.6266 420.91,72.7932 422.5,70C 437.955,69.5707 453.288,69.404 468.5,69.5C 472.076,72.4024 474.409,76.0691 475.5,80.5C 475.4,86.068 474.733,91.568 473.5,97C 472.599,101.433 474.265,103.1 478.5,102C 484.288,98.521 490.455,96.021 497,94.5C 504.78,97.3057 512.613,99.9724 520.5,102.5C 520.66,95.4229 519.994,88.4229 518.5,81.5C 518.623,80.0755 518.957,78.7421 519.5,77.5C 520.8,74.5677 522.8,72.2344 525.5,70.5C 539.455,69.3682 553.455,69.2016 567.5,70C 569.792,71.1379 571.792,72.6379 573.5,74.5C 574.736,73.7542 576.07,73.4208 577.5,73.5C 579.025,75.2163 580.025,77.2163 580.5,79.5C 579.885,86.8581 579.385,94.1914 579,101.5C 579.725,102.059 580.558,102.392 581.5,102.5C 588.14,99.1242 594.973,96.4575 602,94.5C 608.838,96.0034 615.338,98.5034 621.5,102C 624.567,103.164 626.233,102.164 626.5,99C 625.989,95.7574 625.322,92.5907 624.5,89.5C 624.231,85.0685 624.564,80.7352 625.5,76.5C 627.592,76.5614 629.092,77.5614 630,79.5C 631.185,76.397 631.852,73.397 632,70.5C 634.889,74.3983 636.889,73.7316 638,68.5C 638.333,69.1667 638.667,69.8333 639,70.5C 650,69.1667 661,69.1667 672,70.5C 672.333,69.8333 672.667,69.1667 673,68.5C 674.046,70.0905 675.213,71.5905 676.5,73C 677.784,73.6838 678.951,73.5171 680,72.5C 680.507,73.9961 680.007,75.1627 678.5,76C 680.333,76.5 681.5,77.6667 682,79.5C 682.333,78.8333 682.667,78.1667 683,77.5C 683.173,83.3482 683.673,89.0149 684.5,94.5C 684.337,96.8568 684.503,99.1902 685,101.5C 685.561,102.022 686.228,102.355 687,102.5C 693.958,99.0968 701.125,96.4301 708.5,94.5C 715.805,97.3315 723.139,99.8315 730.5,102C 731.097,100.938 731.43,99.7716 731.5,98.5C 730.555,91.833 730.055,85.1664 730,78.5C 731.979,74.6997 734.479,71.3664 737.5,68.5C 738.75,68.5774 739.583,69.244 740,70.5C 740.667,67.8333 741.333,67.8333 742,70.5C 764.878,69.5279 787.711,69.1946 810.5,69.5C 811.386,70.325 811.719,71.325 811.5,72.5C 793.372,92.4634 775.039,112.297 756.5,132C 556.834,132.5 357.167,132.667 157.5,132.5C 161.5,128.167 165.5,123.833 169.5,119.5C 174.139,114.526 178.805,109.526 183.5,104.5C 193.495,93.172 203.828,82.172 214.5,71.5C 221.264,70.2038 228.264,69.5372 235.5,69.5C 242.167,69.6667 248.833,69.8333 255.5,70C 256.357,70.6891 257.023,71.5224 257.5,72.5C 256.41,73.6086 256.41,74.6086 257.5,75.5C 259.003,74.9478 260.669,74.9478 262.5,75.5C 264.104,76.287 264.771,77.6203 264.5,79.5C 263.93,87.154 263.596,94.8207 263.5,102.5C 271.052,99.5601 278.718,96.8934 286.5,94.5C 293.146,96.1064 299.48,98.6064 305.5,102C 309.229,103.272 310.896,101.939 310.5,98C 309.954,93.4597 309.287,88.9597 308.5,84.5C 308.264,81.3915 308.597,78.3915 309.5,75.5C 310.167,75.1667 310.833,74.8333 311.5,74.5C 312.496,74.5858 313.329,74.2524 314,73.5C 314.333,74.1667 314.667,74.8333 315,75.5C 315.095,73.3449 315.929,71.3449 317.5,69.5C 318.086,69.7093 318.586,70.0426 319,70.5C 333.265,69.8412 347.431,69.1745 361.5,68.5 Z"/></g>
<g><path style="opacity:1" fill="#faa50f" d="M 361.5,56.5 C 362.869,59.1312 362.202,59.7978 359.5,58.5C 359.167,59.1667 358.833,59.8333 358.5,60.5C 359.34,62.2608 360.34,63.9275 361.5,65.5C 362.197,63.6155 363.197,63.2822 364.5,64.5C 373.338,63.1945 382.338,62.5278 391.5,62.5C 400.167,62.8333 408.833,63.1667 417.5,63.5C 418.892,65.2303 420.559,66.5637 422.5,67.5C 420.167,70.1667 417.833,72.8333 415.5,75.5C 414.27,77.2972 413.604,79.2972 413.5,81.5C 412.21,82.0577 411.377,83.0577 411,84.5C 410.517,83.552 410.351,82.552 410.5,81.5C 397.144,80.9562 384.311,81.6229 372,83.5C 371.79,81.9419 371.29,80.6085 370.5,79.5C 368.605,74.9372 365.605,71.2705 361.5,68.5C 359.248,65.6615 357.248,62.6615 355.5,59.5C 356.677,57.0254 358.677,56.0254 361.5,56.5 Z"/></g>
<g><path style="opacity:1" fill="#faa50f" d="M 528.5,66.5 C 527.5,67.8333 526.5,69.1667 525.5,70.5C 522.8,72.2344 520.8,74.5677 519.5,77.5C 517.584,75.8843 516.084,76.2177 515,78.5C 514.667,77.8333 514.333,77.1667 514,76.5C 513.667,78.8333 513.333,81.1667 513,83.5C 512.667,82.5 512.333,81.5 512,80.5C 501,81.8333 490,81.8333 479,80.5C 478.667,81.5 478.333,82.5 478,83.5C 477.148,82.4293 476.315,81.4293 475.5,80.5C 474.409,76.0691 472.076,72.4024 468.5,69.5C 467.5,68.1667 466.5,66.8333 465.5,65.5C 465.93,64.045 465.93,62.7117 465.5,61.5C 467.258,62.1279 468.758,63.1279 470,64.5C 470.5,64 471,63.5 471.5,63C 488.192,62.1951 504.859,62.3618 521.5,63.5C 523.029,63.4712 524.196,62.8045 525,61.5C 525.71,62.9733 526.876,63.6399 528.5,63.5C 528.5,64.5 528.5,65.5 528.5,66.5 Z"/></g>
<g><path style="opacity:1" fill="#faa60f" d="M 634.5,65.5 C 631.805,68.5256 629.138,71.5256 626.5,74.5C 625.244,74.4614 624.244,74.9614 623.5,76C 609.837,76.4999 596.171,76.6666 582.5,76.5C 582.768,78.099 582.434,79.4324 581.5,80.5C 581.5,79.8333 581.167,79.5 580.5,79.5C 580.025,77.2163 579.025,75.2163 577.5,73.5C 574.833,70.5 572.167,67.5 569.5,64.5C 569.413,61.4017 569.913,61.0684 571,63.5C 571.368,62.09 572.201,61.09 573.5,60.5C 583.173,61.8081 593.007,62.4748 603,62.5C 612.5,62.3333 622,62.1667 631.5,62C 632.833,61.3333 632.833,60.6667 631.5,60C 632.354,58.9783 633.354,58.1449 634.5,57.5C 633.97,58.7562 633.97,60.2562 634.5,62C 633.09,62.3678 632.09,63.2011 631.5,64.5C 632.472,64.593 633.472,64.9264 634.5,65.5 Z"/></g>
<g><path style="opacity:1" fill="#fefefe" d="M 813.5,71.5 C 813.5,93.1667 813.5,114.833 813.5,136.5C 593.167,136.5 372.833,136.5 152.5,136.5C 154.142,135.197 155.809,133.864 157.5,132.5C 357.167,132.667 556.834,132.5 756.5,132C 775.039,112.297 793.372,92.4634 811.5,72.5C 812.167,72.1667 812.833,71.8333 813.5,71.5 Z"/></g>
<g><path style="opacity:1" fill="#fcbe0f" d="M 137.5,70.5 C 163.167,70.5 188.833,70.5 214.5,70.5C 214.5,70.8333 214.5,71.1667 214.5,71.5C 203.828,82.172 193.495,93.172 183.5,104.5C 181.771,103.883 180.271,102.883 179,101.5C 178.167,102.333 177.333,103.167 176.5,104C 120.168,104.5 63.8343,104.667 7.5,104.5C 7.31784,99.2063 6.81784,99.2063 6,104.5C 5.66667,103.167 5.33333,101.833 5,100.5C 3.5107,107.127 2.34404,107.127 1.5,100.5C 1.5,90.5 1.5,80.5 1.5,70.5C 12.5,70.5 23.5,70.5 34.5,70.5C 33.0411,73.9237 31.7078,77.4237 30.5,81C 30.822,83.6544 32.1553,85.4877 34.5,86.5C 40.979,87.4907 47.6457,87.824 54.5,87.5C 54.1984,90.0593 54.5318,92.3926 55.5,94.5C 57.9766,100.228 61.4766,100.895 66,96.5C 66.4983,93.1832 66.665,89.8499 66.5,86.5C 68.2624,86.6427 69.9291,86.3094 71.5,85.5C 74.8391,80.5629 73.5058,77.5629 67.5,76.5C 67.5,74.5 67.5,72.5 67.5,70.5C 79.1667,70.5 90.8333,70.5 102.5,70.5C 103.974,72.1373 105.808,73.1373 108,73.5C 111.667,72.1667 115.333,70.8333 119,69.5C 125.666,70.8328 128.333,74.8328 127,81.5C 125.506,86.161 122.339,88.8277 117.5,89.5C 113.624,88.5955 109.79,87.5955 106,86.5C 101.251,86.5864 99.5848,88.9197 101,93.5C 109.456,99.8763 118.622,101.043 128.5,97C 134.004,94.16 137.171,89.66 138,83.5C 138.706,79.1132 138.54,74.7799 137.5,70.5 Z"/></g>
<g><path style="opacity:1" fill="#ef9516" d="M 707.5,32.5 C 707.833,32.5 708.167,32.5 708.5,32.5C 708.5,53.1667 708.5,73.8333 708.5,94.5C 701.125,96.4301 693.958,99.0968 687,102.5C 686.228,102.355 685.561,102.022 685,101.5C 684.503,99.1902 684.337,96.8568 684.5,94.5C 685.923,88.8206 686.257,83.1539 685.5,77.5C 686.222,77.0825 686.722,76.4158 687,75.5C 693.396,76.4022 699.729,76.7355 706,76.5C 707.446,71.3548 707.946,66.0214 707.5,60.5C 707.5,51.1667 707.5,41.8333 707.5,32.5 Z"/></g>
<g><path style="opacity:1" fill="#f99b0f" d="M 262.5,75.5 C 262.5,75.1667 262.5,74.8333 262.5,74.5C 277.443,75.7532 292.277,77.0865 307,78.5C 307.236,76.8807 308.069,75.8807 309.5,75.5C 308.597,78.3915 308.264,81.3915 308.5,84.5C 307.628,86.5632 306.462,88.5632 305,90.5C 304.667,89.5 304.333,88.5 304,87.5C 292.667,88.1667 281.333,88.8333 270,89.5C 268.883,88.0506 268.216,86.3839 268,84.5C 267.333,85.8333 266.667,87.1667 266,88.5C 265.819,85.3054 265.319,82.3054 264.5,79.5C 264.771,77.6203 264.104,76.287 262.5,75.5 Z"/></g>
<g><path style="opacity:1" fill="#f99a0f" d="M 626.5,74.5 C 626.167,75.1667 625.833,75.8333 625.5,76.5C 624.564,80.7352 624.231,85.0685 624.5,89.5C 610.118,89.1837 595.785,89.5171 581.5,90.5C 581.288,87.348 581.288,84.0147 581.5,80.5C 582.434,79.4324 582.768,78.099 582.5,76.5C 596.171,76.6666 609.837,76.4999 623.5,76C 624.244,74.9614 625.244,74.4614 626.5,74.5 Z"/></g>
<g><path style="opacity:1" fill="#8e6f19" d="M 34.5,86.5 C 41.5,86.5 48.5,86.5 55.5,86.5C 55.5,89.1667 55.5,91.8333 55.5,94.5C 54.5318,92.3926 54.1984,90.0593 54.5,87.5C 47.6457,87.824 40.979,87.4907 34.5,86.5 Z"/></g>
<g><path style="opacity:1" fill="#f48e0f" d="M 264.5,79.5 C 265.319,82.3054 265.819,85.3054 266,88.5C 266.667,87.1667 267.333,85.8333 268,84.5C 268.216,86.3839 268.883,88.0506 270,89.5C 281.333,88.8333 292.667,88.1667 304,87.5C 304.333,88.5 304.667,89.5 305,90.5C 306.462,88.5632 307.628,86.5632 308.5,84.5C 309.287,88.9597 309.954,93.4597 310.5,98C 310.896,101.939 309.229,103.272 305.5,102C 299.48,98.6064 293.146,96.1064 286.5,94.5C 278.718,96.8934 271.052,99.5601 263.5,102.5C 263.596,94.8207 263.93,87.154 264.5,79.5 Z"/></g>
<g><path style="opacity:1" fill="#f5900f" d="M 370.5,79.5 C 371.29,80.6085 371.79,81.9419 372,83.5C 384.311,81.6229 397.144,80.9562 410.5,81.5C 410.351,82.552 410.517,83.552 411,84.5C 411.377,83.0577 412.21,82.0577 413.5,81.5C 415.06,88.3366 415.393,95.1699 414.5,102C 406.904,99.5488 399.237,97.0488 391.5,94.5C 384.538,96.7269 377.705,99.3936 371,102.5C 370.228,102.355 369.561,102.022 369,101.5C 369.092,94.1606 369.592,86.8273 370.5,79.5 Z"/></g>
<g><path style="opacity:1" fill="#f5900f" d="M 519.5,77.5 C 518.957,78.7421 518.623,80.0755 518.5,81.5C 519.994,88.4229 520.66,95.4229 520.5,102.5C 512.613,99.9724 504.78,97.3057 497,94.5C 490.455,96.021 484.288,98.521 478.5,102C 474.265,103.1 472.599,101.433 473.5,97C 474.733,91.568 475.4,86.068 475.5,80.5C 476.315,81.4293 477.148,82.4293 478,83.5C 478.333,82.5 478.667,81.5 479,80.5C 490,81.8333 501,81.8333 512,80.5C 512.333,81.5 512.667,82.5 513,83.5C 513.333,81.1667 513.667,78.8333 514,76.5C 514.333,77.1667 514.667,77.8333 515,78.5C 516.084,76.2177 517.584,75.8843 519.5,77.5 Z"/></g>
<g><path style="opacity:1" fill="#f18c10" d="M 580.5,79.5 C 581.167,79.5 581.5,79.8333 581.5,80.5C 581.288,84.0147 581.288,87.348 581.5,90.5C 595.785,89.5171 610.118,89.1837 624.5,89.5C 625.322,92.5907 625.989,95.7574 626.5,99C 626.233,102.164 624.567,103.164 621.5,102C 615.338,98.5034 608.838,96.0034 602,94.5C 594.973,96.4575 588.14,99.1242 581.5,102.5C 580.558,102.392 579.725,102.059 579,101.5C 579.385,94.1914 579.885,86.8581 580.5,79.5 Z"/></g>
<g><path style="opacity:1" fill="#252321" d="M 82.5,86.5 C 88.6793,85.858 91.8459,88.5247 92,94.5C 91.5348,95.9308 90.7014,97.0975 89.5,98C 81.6791,100.165 78.1791,97.3318 79,89.5C 80.1451,88.3636 81.3117,87.3636 82.5,86.5 Z"/></g>
<g><path style="opacity:1" fill="#232221" d="M 136.5,42.5 C 137.026,45.8078 135.693,47.9745 132.5,49C 126.509,49.4995 120.509,49.6662 114.5,49.5C 113.518,52.9619 113.185,56.6286 113.5,60.5C 116.833,60.5 120.167,60.5 123.5,60.5C 130.02,61.4111 134.687,64.7444 137.5,70.5C 138.54,74.7799 138.706,79.1132 138,83.5C 137.171,89.66 134.004,94.16 128.5,97C 118.622,101.043 109.456,99.8763 101,93.5C 99.5848,88.9197 101.251,86.5864 106,86.5C 109.79,87.5955 113.624,88.5955 117.5,89.5C 122.339,88.8277 125.506,86.161 127,81.5C 128.333,74.8328 125.666,70.8328 119,69.5C 115.333,70.8333 111.667,72.1667 108,73.5C 105.808,73.1373 103.974,72.1373 102.5,70.5C 103.107,61.5125 103.44,52.5125 103.5,43.5C 103.574,41.5891 104.574,40.4224 106.5,40C 115.5,39.3333 124.5,39.3333 133.5,40C 134.373,41.045 135.373,41.8783 136.5,42.5 Z"/></g>
<g><path style="opacity:1" fill="#fdb80f" d="M 1.5,100.5 C 2.34404,107.127 3.5107,107.127 5,100.5C 5.33333,101.833 5.66667,103.167 6,104.5C 6.81784,99.2063 7.31784,99.2063 7.5,104.5C 63.8343,104.667 120.168,104.5 176.5,104C 177.333,103.167 178.167,102.333 179,101.5C 180.271,102.883 181.771,103.883 183.5,104.5C 178.805,109.526 174.139,114.526 169.5,119.5C 168.448,119.649 167.448,119.483 166.5,119C 165.167,118.333 165.167,117.667 166.5,117C 164.865,116.46 163.532,116.96 162.5,118.5C 161.808,117.975 161.308,117.308 161,116.5C 160.667,117.833 160.333,119.167 160,120.5C 109.238,119.503 58.4051,119.169 7.5,119.5C 7.64945,118.448 7.48278,117.448 7,116.5C 6.66667,118.167 6.33333,119.833 6,121.5C 5.66667,119.167 5.33333,116.833 5,114.5C 4.7978,116.256 4.2978,117.922 3.5,119.5C 2.82434,118.398 2.15767,117.398 1.5,116.5C 1.5,111.167 1.5,105.833 1.5,100.5 Z"/></g>
<g><path style="opacity:1" fill="#fcb10e" d="M 169.5,119.5 C 165.5,123.833 161.5,128.167 157.5,132.5C 155.809,133.864 154.142,135.197 152.5,136.5C 102.167,136.5 51.8333,136.5 1.5,136.5C 1.5,129.833 1.5,123.167 1.5,116.5C 2.15767,117.398 2.82434,118.398 3.5,119.5C 4.2978,117.922 4.7978,116.256 5,114.5C 5.33333,116.833 5.66667,119.167 6,121.5C 6.33333,119.833 6.66667,118.167 7,116.5C 7.48278,117.448 7.64945,118.448 7.5,119.5C 58.4051,119.169 109.238,119.503 160,120.5C 160.333,119.167 160.667,117.833 161,116.5C 161.308,117.308 161.808,117.975 162.5,118.5C 163.532,116.96 164.865,116.46 166.5,117C 165.167,117.667 165.167,118.333 166.5,119C 167.448,119.483 168.448,119.649 169.5,119.5 Z"/></g>
</svg>
