<?xml version="1.0" encoding="UTF-8"?>
<!DOCTYPE svg PUBLIC "-//W3C//DTD SVG 1.1//EN" "http://www.w3.org/Graphics/SVG/1.1/DTD/svg11.dtd">
<svg xmlns="http://www.w3.org/2000/svg" version="1.1" width="814px" height="137px" style="shape-rendering:geometricPrecision; text-rendering:geometricPrecision; image-rendering:optimizeQuality; fill-rule:evenodd; clip-rule:evenodd" xmlns:xlink="http://www.w3.org/1999/xlink">
<g><path style="opacity:1" fill="#ffd67a" d="M -0.5,-0.5 C 50.1667,-0.5 100.833,-0.5 151.5,-0.5C 151.5,-0.166667 151.5,0.166667 151.5,0.5C 101.496,0.166726 51.4956,0.500059 1.5,1.5C 0.518874,14.4503 0.185541,27.4503 0.5,40.5C 0.5,50.1667 0.5,59.8333 0.5,69.5C 0.5,84.1667 0.5,98.8333 0.5,113.5C 0.5,121.167 0.5,128.833 0.5,136.5C 0.166667,136.5 -0.166667,136.5 -0.5,136.5C -0.5,90.8333 -0.5,45.1667 -0.5,-0.5 Z"/></g>
<g><path style="opacity:1" fill="#f6f5f5" d="M 151.5,0.5 C 151.5,0.166667 151.5,-0.166667 151.5,-0.5C 372.167,-0.5 592.833,-0.5 813.5,-0.5C 813.5,22.1667 813.5,44.8333 813.5,67.5C 794.367,47.531 775.367,27.3643 756.5,7C 557.167,6.5 357.834,6.33333 158.5,6.5C 156.167,4.5 153.833,2.5 151.5,0.5 Z"/></g>
<g><path style="opacity:1" fill="#fdb90f" d="M 151.5,0.5 C 153.833,2.5 156.167,4.5 158.5,6.5C 165.167,14.1667 171.833,21.8333 178.5,29.5C 177.85,29.8039 177.183,30.1373 176.5,30.5C 173.989,27.213 170.989,26.3796 167.5,28C 114.168,28.5 60.8344,28.6667 7.5,28.5C 7.30678,24.551 6.80678,24.551 6,28.5C 5.33333,23.1667 4.66667,23.1667 4,28.5C 3.75083,27.376 3.25083,26.376 2.5,25.5C 1.83316,30.6511 1.1665,35.6511 0.5,40.5C 0.185541,27.4503 0.518874,14.4503 1.5,1.5C 51.4956,0.500059 101.496,0.166726 151.5,0.5 Z"/></g>
<g><path style="opacity:1" fill="#262626" d="M 158.5,6.5 C 357.834,6.33333 557.167,6.5 756.5,7C 775.367,27.3643 794.367,47.531 813.5,67.5C 813.5,68.8333 813.5,70.1667 813.5,71.5C 810.833,73.8333 808.167,76.1667 805.5,78.5C 806.373,76.1137 807.873,74.1137 810,72.5C 810.774,70.597 810.44,68.9304 809,67.5C 784.89,68.8007 761.057,68.8007 737.5,67.5C 739.833,64.9974 741.999,62.3307 744,59.5C 744.667,58.5 744.667,57.5 744,56.5C 736.794,54.9066 729.627,53.0733 722.5,51C 717.46,45.094 713.294,38.594 710,31.5C 708.667,30.1667 707.333,30.1667 706,31.5C 702.793,38.0863 698.959,44.253 694.5,50C 687.004,52.1662 679.504,54.3328 672,56.5C 671.333,57.8333 671.333,59.1667 672,60.5C 673.707,62.0375 675.207,63.7041 676.5,65.5C 675.603,66.5981 674.77,66.5981 674,65.5C 673.626,66.4162 673.126,67.2496 672.5,68C 658.788,68.7975 645.122,68.6309 631.5,67.5C 633.795,64.7029 636.295,62.0362 639,59.5C 639.667,58.5 639.667,57.5 639,56.5C 631.004,54.9666 623.17,52.7999 615.5,50C 611.934,44.7582 608.767,39.2582 606,33.5C 604.981,32.3128 603.814,31.3128 602.5,30.5C 597.808,36.7051 593.474,43.2051 589.5,50C 581.922,52.4823 574.255,54.6489 566.5,56.5C 565.417,57.365 565.251,58.365 566,59.5C 568.705,62.0362 571.205,64.7029 573.5,67.5C 558.878,68.6334 544.211,68.8001 529.5,68C 531.929,67.5488 532.096,66.7155 530,65.5C 528.871,67.1412 527.371,68.1412 525.5,68.5C 527.795,65.7029 530.295,63.0362 533,60.5C 533.667,59.1667 533.667,57.8333 533,56.5C 525.819,54.9127 518.652,53.0794 511.5,51C 506.934,44.014 502.267,37.1807 497.5,30.5C 495.973,30.427 494.973,31.0937 494.5,32.5C 491.382,39.2347 487.382,45.4013 482.5,51C 475.19,52.4642 468.023,54.2976 461,56.5C 460.333,57.5 460.333,58.5 461,59.5C 463.415,62.014 465.581,64.6806 467.5,67.5C 452.2,68.4288 436.534,68.7622 420.5,68.5C 423.165,65.6653 425.665,62.6653 428,59.5C 428.667,58.5 428.667,57.5 428,56.5C 420.873,54.5754 413.707,52.742 406.5,51C 401.46,45.094 397.294,38.594 394,31.5C 392.062,30.1398 390.396,30.4732 389,32.5C 385.898,38.5954 382.398,44.4287 378.5,50C 370.987,52.252 363.487,54.4186 356,56.5C 355.333,57.8333 355.333,59.1667 356,60.5C 359.704,64.0357 363.204,67.7024 366.5,71.5C 365.167,71.5 363.833,71.5 362.5,71.5C 362.5,70.5 362.5,69.5 362.5,68.5C 347.588,68.176 332.755,68.5094 318,69.5C 317.283,68.9558 316.783,68.2891 316.5,67.5C 316.5,67.1667 316.5,66.8333 316.5,66.5C 318.461,64.0365 320.628,61.7032 323,59.5C 323.667,58.5 323.667,57.5 323,56.5C 316.623,54.6236 310.123,53.1236 303.5,52C 301.833,51 300.167,50 298.5,49C 295.031,42.5525 291.198,36.3858 287,30.5C 285.739,30.7591 284.739,31.4258 284,32.5C 280.96,38.0816 277.793,43.5816 274.5,49C 272.833,50 271.167,51 269.5,52C 262.821,52.8681 256.321,54.3681 250,56.5C 249.333,57.5 249.333,58.5 250,59.5C 252.733,62.0625 255.233,64.7291 257.5,67.5C 243.136,68.1501 228.803,68.8168 214.5,69.5C 214.5,69.1667 214.5,68.8333 214.5,68.5C 209.871,62.2034 204.538,56.5367 198.5,51.5C 192.196,43.8617 185.53,36.5283 178.5,29.5C 171.833,21.8333 165.167,14.1667 158.5,6.5 Z"/></g>
<g><path style="opacity:1" fill="#fbae0f" d="M 178.5,29.5 C 185.53,36.5283 192.196,43.8617 198.5,51.5C 196.621,51.3932 196.288,51.8932 197.5,53C 195.68,53.9794 194.513,55.4794 194,57.5C 193.333,56.8333 192.667,56.1667 192,55.5C 167.572,56.3282 143.072,56.8282 118.5,57C 117.263,57.2321 116.263,57.7321 115.5,58.5C 113.586,55.3157 112.92,51.649 113.5,47.5C 120.175,47.6663 126.842,47.4996 133.5,47C 137.5,44 137.5,41 133.5,38C 124.5,37.3333 115.5,37.3333 106.5,38C 104.114,39.8873 102.947,42.3873 103,45.5C 102.5,53.1594 102.334,60.8261 102.5,68.5C 101.5,68.5 100.5,68.5 99.5,68.5C 101.844,63.7372 102.011,58.7372 100,53.5C 99.3772,57.9316 98.3772,58.2649 97,54.5C 96.6667,55.5 96.3333,56.5 96,57.5C 87.919,56.5175 79.7524,56.1842 71.5,56.5C 71.7845,54.5853 71.4511,52.9187 70.5,51.5C 68.3705,40.7198 61.7039,35.3865 50.5,35.5C 43.6267,35.3987 37.7934,37.732 33,42.5C 31.9585,46.7467 33.6251,49.08 38,49.5C 43.5314,46.7533 49.3647,45.92 55.5,47C 59.0101,49.4896 60.0101,52.6562 58.5,56.5C 57.7784,56.0825 57.2784,55.4158 57,54.5C 56.6667,55.5 56.3333,56.5 56,57.5C 39.9487,57.449 23.782,57.1157 7.5,56.5C 7.64945,55.448 7.48278,54.448 7,53.5C 6.66667,56.1667 6.33333,58.8333 6,61.5C 5.66667,59.8333 5.33333,58.1667 5,56.5C 4.66667,56.8333 4.33333,57.1667 4,57.5C 3.69238,56.6919 3.19238,56.0253 2.5,55.5C 1.50776,59.7828 1.17443,64.1161 1.5,68.5C 1.5,69.1667 1.16667,69.5 0.5,69.5C 0.5,59.8333 0.5,50.1667 0.5,40.5C 1.1665,35.6511 1.83316,30.6511 2.5,25.5C 3.25083,26.376 3.75083,27.376 4,28.5C 4.66667,23.1667 5.33333,23.1667 6,28.5C 6.80678,24.551 7.30678,24.551 7.5,28.5C 60.8344,28.6667 114.168,28.5 167.5,28C 170.989,26.3796 173.989,27.213 176.5,30.5C 177.183,30.1373 177.85,29.8039 178.5,29.5 Z"/></g>
<g><path style="opacity:1" fill="#585858" d="M 631.5,67.5 C 629.167,70.0026 627.001,72.6693 625,75.5C 624.475,82.7251 624.975,89.8917 626.5,97C 626.233,100.164 624.567,101.164 621.5,100C 615.132,96.647 608.465,94.147 601.5,92.5C 594.356,95.7408 587.023,98.4075 579.5,100.5C 579.95,92.1611 580.116,83.8277 580,75.5C 577.999,72.6693 575.833,70.0026 573.5,67.5C 571.205,64.7029 568.705,62.0362 566,59.5C 565.251,58.365 565.417,57.365 566.5,56.5C 574.255,54.6489 581.922,52.4823 589.5,50C 593.474,43.2051 597.808,36.7051 602.5,30.5C 603.814,31.3128 604.981,32.3128 606,33.5C 608.767,39.2582 611.934,44.7582 615.5,50C 623.17,52.7999 631.004,54.9666 639,56.5C 639.667,57.5 639.667,58.5 639,59.5C 636.295,62.0362 633.795,64.7029 631.5,67.5 Z"/></g>
<g><path style="opacity:1" fill="#585858" d="M 737.5,67.5 C 734.111,69.7252 731.611,72.7252 730,76.5C 730.001,84.5141 730.501,92.5141 731.5,100.5C 729.801,100.66 728.134,100.494 726.5,100C 720.594,97.2119 714.594,94.7119 708.5,92.5C 701.963,94.4334 695.63,96.9334 689.5,100C 687.866,100.494 686.199,100.66 684.5,100.5C 685.117,92.4823 685.617,84.4823 686,76.5C 683.716,72.0506 680.549,68.384 676.5,65.5C 675.207,63.7041 673.707,62.0375 672,60.5C 671.333,59.1667 671.333,57.8333 672,56.5C 679.504,54.3328 687.004,52.1662 694.5,50C 698.959,44.253 702.793,38.0863 706,31.5C 707.333,30.1667 708.667,30.1667 710,31.5C 713.294,38.594 717.46,45.094 722.5,51C 729.627,53.0733 736.794,54.9066 744,56.5C 744.667,57.5 744.667,58.5 744,59.5C 741.999,62.3307 739.833,64.9974 737.5,67.5 Z"/></g>
<g><path style="opacity:1" fill="#585858" d="M 497.5,30.5 C 502.267,37.1807 506.934,44.014 511.5,51C 518.652,53.0794 525.819,54.9127 533,56.5C 533.667,57.8333 533.667,59.1667 533,60.5C 530.295,63.0362 527.795,65.7029 525.5,68.5C 521.516,71.496 519.182,75.496 518.5,80.5C 519.661,87.122 520.328,93.7887 520.5,100.5C 518.801,100.66 517.134,100.494 515.5,100C 509.586,97.198 503.586,94.698 497.5,92.5C 497.5,71.8333 497.5,51.1667 497.5,30.5 Z"/></g>
<g><path style="opacity:1" fill="#232221" d="M 70.5,51.5 C 70.7872,58.0405 68.7872,63.7071 64.5,68.5C 58.3686,74.1305 52.3686,79.9638 46.5,86C 53.8333,86.3333 61.1667,86.6667 68.5,87C 71.1667,90 71.1667,93 68.5,96C 57.1667,96.6667 45.8333,96.6667 34.5,96C 32.4062,94.745 31.4062,92.9116 31.5,90.5C 32.1825,86.8014 33.6825,83.4681 36,80.5C 40.037,76.631 43.8704,72.631 47.5,68.5C 52.5784,65.7565 56.2451,61.7565 58.5,56.5C 60.0101,52.6562 59.0101,49.4896 55.5,47C 49.3647,45.92 43.5314,46.7533 38,49.5C 33.6251,49.08 31.9585,46.7467 33,42.5C 37.7934,37.732 43.6267,35.3987 50.5,35.5C 61.7039,35.3865 68.3705,40.7198 70.5,51.5 Z"/></g>
<g><path style="opacity:1" fill="#faa40f" d="M 58.5,56.5 C 56.2451,61.7565 52.5784,65.7565 47.5,68.5C 32.1667,68.5 16.8333,68.5 1.5,68.5C 1.17443,64.1161 1.50776,59.7828 2.5,55.5C 3.19238,56.0253 3.69238,56.6919 4,57.5C 4.33333,57.1667 4.66667,56.8333 5,56.5C 5.33333,58.1667 5.66667,59.8333 6,61.5C 6.33333,58.8333 6.66667,56.1667 7,53.5C 7.48278,54.448 7.64945,55.448 7.5,56.5C 23.782,57.1157 39.9487,57.449 56,57.5C 56.3333,56.5 56.6667,55.5 57,54.5C 57.2784,55.4158 57.7784,56.0825 58.5,56.5 Z"/></g>
<g><path style="opacity:1" fill="#d29722" d="M 497.5,30.5 C 497.5,51.1667 497.5,71.8333 497.5,92.5C 497.167,92.5 496.833,92.5 496.5,92.5C 496.5,88.1667 496.5,83.8333 496.5,79.5C 497.151,63.4643 496.484,47.7977 494.5,32.5C 494.973,31.0937 495.973,30.427 497.5,30.5 Z"/></g>
<g><path style="opacity:1" fill="#f9a40f" d="M 198.5,51.5 C 204.538,56.5367 209.871,62.2034 214.5,68.5C 188.833,68.5 163.167,68.5 137.5,68.5C 132.555,60.3888 125.222,57.0555 115.5,58.5C 116.263,57.7321 117.263,57.2321 118.5,57C 143.072,56.8282 167.572,56.3282 192,55.5C 192.667,56.1667 193.333,56.8333 194,57.5C 194.513,55.4794 195.68,53.9794 197.5,53C 196.288,51.8932 196.621,51.3932 198.5,51.5 Z"/></g>
<g><path style="opacity:1" fill="#f9a40f" d="M 70.5,51.5 C 71.4511,52.9187 71.7845,54.5853 71.5,56.5C 79.7524,56.1842 87.919,56.5175 96,57.5C 96.3333,56.5 96.6667,55.5 97,54.5C 98.3772,58.2649 99.3772,57.9316 100,53.5C 102.011,58.7372 101.844,63.7372 99.5,68.5C 87.8333,68.5 76.1667,68.5 64.5,68.5C 68.7872,63.7071 70.7872,58.0405 70.5,51.5 Z"/></g>
<g><path style="opacity:1" fill="#faad0f" d="M 316.5,66.5 C 315.883,66.3893 315.383,66.056 315,65.5C 314,66.5 313,67.5 312,68.5C 311.275,66.842 310.108,66.342 308.5,67C 306.09,71.5985 305.09,71.4319 305.5,66.5C 304.749,67.376 304.249,68.376 304,69.5C 290.242,68.3441 276.408,68.1774 262.5,69C 261.584,69.2784 260.918,69.7784 260.5,70.5C 259.167,69.8333 258.167,68.8333 257.5,67.5C 255.233,64.7291 252.733,62.0625 250,59.5C 249.333,58.5 249.333,57.5 250,56.5C 256.321,54.3681 262.821,52.8681 269.5,52C 271.167,51 272.833,50 274.5,49C 277.793,43.5816 280.96,38.0816 284,32.5C 284.739,31.4258 285.739,30.7591 287,30.5C 291.198,36.3858 295.031,42.5525 298.5,49C 300.167,50 301.833,51 303.5,52C 310.123,53.1236 316.623,54.6236 323,56.5C 323.667,57.5 323.667,58.5 323,59.5C 320.628,61.7032 318.461,64.0365 316.5,66.5 Z"/></g>
<g><path style="opacity:1" fill="#faad0f" d="M 420.5,68.5 C 419.5,69.1667 418.5,69.8333 417.5,70.5C 417.082,69.7784 416.416,69.2784 415.5,69C 401.634,68.8078 387.801,68.3078 374,67.5C 373.5,67.8333 373,68.1667 372.5,68.5C 373.326,69.451 373.492,70.451 373,71.5C 370.863,69.0236 368.697,69.0236 366.5,71.5C 363.204,67.7024 359.704,64.0357 356,60.5C 355.333,59.1667 355.333,57.8333 356,56.5C 363.487,54.4186 370.987,52.252 378.5,50C 382.398,44.4287 385.898,38.5954 389,32.5C 390.396,30.4732 392.062,30.1398 394,31.5C 397.294,38.594 401.46,45.094 406.5,51C 413.707,52.742 420.873,54.5754 428,56.5C 428.667,57.5 428.667,58.5 428,59.5C 425.665,62.6653 423.165,65.6653 420.5,68.5 Z"/></g>
<g><path style="opacity:1" fill="#faab0f" d="M 494.5,32.5 C 496.484,47.7977 497.151,63.4643 496.5,79.5C 490.256,80.4578 483.923,80.7912 477.5,80.5C 477.649,79.448 477.483,78.448 477,77.5C 476.79,79.0581 476.29,80.3915 475.5,81.5C 475.421,75.3397 472.754,70.673 467.5,67.5C 465.581,64.6806 463.415,62.014 461,59.5C 460.333,58.5 460.333,57.5 461,56.5C 468.023,54.2976 475.19,52.4642 482.5,51C 487.382,45.4013 491.382,39.2347 494.5,32.5 Z"/></g>
<g><path style="opacity:1" fill="#232221" d="M 115.5,58.5 C 125.222,57.0555 132.555,60.3888 137.5,68.5C 141.015,89.366 132.348,98.866 111.5,97C 107.363,96.3487 103.863,94.5153 101,91.5C 99.5292,86.9667 101.196,84.6334 106,84.5C 110.903,87.0085 116.07,87.8418 121.5,87C 127.864,82.6604 129.031,77.1604 125,70.5C 123.093,69.0702 120.926,68.4035 118.5,68.5C 115.087,69.6119 111.587,70.6119 108,71.5C 105.297,71.8803 103.463,70.8803 102.5,68.5C 102.334,60.8261 102.5,53.1594 103,45.5C 102.947,42.3873 104.114,39.8873 106.5,38C 115.5,37.3333 124.5,37.3333 133.5,38C 137.5,41 137.5,44 133.5,47C 126.842,47.4996 120.175,47.6663 113.5,47.5C 112.92,51.649 113.586,55.3157 115.5,58.5 Z"/></g>
<g><path style="opacity:1" fill="#212121" d="M 573.5,67.5 C 575.833,70.0026 577.999,72.6693 580,75.5C 580.116,83.8277 579.95,92.1611 579.5,100.5C 587.023,98.4075 594.356,95.7408 601.5,92.5C 608.465,94.147 615.132,96.647 621.5,100C 624.567,101.164 626.233,100.164 626.5,97C 624.975,89.8917 624.475,82.7251 625,75.5C 627.001,72.6693 629.167,70.0026 631.5,67.5C 645.122,68.6309 658.788,68.7975 672.5,68C 673.126,67.2496 673.626,66.4162 674,65.5C 674.77,66.5981 675.603,66.5981 676.5,65.5C 680.549,68.384 683.716,72.0506 686,76.5C 685.617,84.4823 685.117,92.4823 684.5,100.5C 686.199,100.66 687.866,100.494 689.5,100C 695.63,96.9334 701.963,94.4334 708.5,92.5C 714.594,94.7119 720.594,97.2119 726.5,100C 728.134,100.494 729.801,100.66 731.5,100.5C 730.501,92.5141 730.001,84.5141 730,76.5C 731.611,72.7252 734.111,69.7252 737.5,67.5C 761.057,68.8007 784.89,68.8007 809,67.5C 810.44,68.9304 810.774,70.597 810,72.5C 807.873,74.1137 806.373,76.1137 805.5,78.5C 803.823,80.5398 802.156,82.5398 800.5,84.5C 796.598,86.8926 793.098,89.8926 790,93.5C 785.599,98.3925 781.432,103.393 777.5,108.5C 773.199,114.135 768.533,119.468 763.5,124.5C 760.775,125.713 758.441,127.546 756.5,130C 557.333,130.833 358.333,130.666 159.5,129.5C 164.523,123.481 169.523,117.481 174.5,111.5C 177.833,108.833 180.833,105.833 183.5,102.5C 194.065,91.6908 204.398,80.6908 214.5,69.5C 228.803,68.8168 243.136,68.1501 257.5,67.5C 258.167,68.8333 259.167,69.8333 260.5,70.5C 262.604,72.3718 263.937,74.7052 264.5,77.5C 263.857,85.1499 263.523,92.8166 263.5,100.5C 265.199,100.66 266.866,100.494 268.5,100C 274.073,96.7943 279.906,94.2943 286,92.5C 292.748,94.2879 299.248,96.7879 305.5,100C 308.567,101.164 310.233,100.164 310.5,97C 309.536,90.5273 308.869,84.0273 308.5,77.5C 310.033,73.296 312.7,69.9626 316.5,67.5C 316.783,68.2891 317.283,68.9558 318,69.5C 332.755,68.5094 347.588,68.176 362.5,68.5C 362.5,69.5 362.5,70.5 362.5,71.5C 363.833,71.5 365.167,71.5 366.5,71.5C 369.925,74.7291 371.258,78.7291 370.5,83.5C 368.883,88.916 368.216,94.5827 368.5,100.5C 370.199,100.66 371.866,100.494 373.5,100C 379.239,96.811 385.239,94.311 391.5,92.5C 398.037,94.4334 404.37,96.9334 410.5,100C 412.134,100.494 413.801,100.66 415.5,100.5C 415.271,94.1025 414.604,87.7692 413.5,81.5C 413.436,77.301 414.769,73.6343 417.5,70.5C 418.5,69.8333 419.5,69.1667 420.5,68.5C 436.534,68.7622 452.2,68.4288 467.5,67.5C 472.754,70.673 475.421,75.3397 475.5,81.5C 473.954,87.6679 473.62,93.8346 474.5,100C 475.833,100.667 477.167,100.667 478.5,100C 484.414,97.198 490.414,94.698 496.5,92.5C 496.833,92.5 497.167,92.5 497.5,92.5C 503.586,94.698 509.586,97.198 515.5,100C 517.134,100.494 518.801,100.66 520.5,100.5C 520.328,93.7887 519.661,87.122 518.5,80.5C 519.182,75.496 521.516,71.496 525.5,68.5C 527.371,68.1412 528.871,67.1412 530,65.5C 532.096,66.7155 531.929,67.5488 529.5,68C 544.211,68.8001 558.878,68.6334 573.5,67.5 Z"/></g>
<g><path style="opacity:1" fill="#f9a20f" d="M 316.5,66.5 C 316.5,66.8333 316.5,67.1667 316.5,67.5C 312.7,69.9626 310.033,73.296 308.5,77.5C 307.732,78.2625 307.232,79.2625 307,80.5C 306.667,79.5 306.333,78.5 306,77.5C 300.41,78.8088 294.577,79.4755 288.5,79.5C 282.833,79.1667 277.167,78.8333 271.5,78.5C 271.192,77.6919 270.692,77.0253 270,76.5C 269.308,79.9364 268.308,83.2698 267,86.5C 266.159,83.3718 265.325,80.3718 264.5,77.5C 263.937,74.7052 262.604,72.3718 260.5,70.5C 260.918,69.7784 261.584,69.2784 262.5,69C 276.408,68.1774 290.242,68.3441 304,69.5C 304.249,68.376 304.749,67.376 305.5,66.5C 305.09,71.4319 306.09,71.5985 308.5,67C 310.108,66.342 311.275,66.842 312,68.5C 313,67.5 314,66.5 315,65.5C 315.383,66.056 315.883,66.3893 316.5,66.5 Z"/></g>
<g><path style="opacity:1" fill="#f9a20f" d="M 417.5,70.5 C 414.769,73.6343 413.436,77.301 413.5,81.5C 412.842,82.3984 412.176,83.3984 411.5,84.5C 411.419,82.3671 410.919,80.3671 410,78.5C 398.581,79.4878 387.081,79.8211 375.5,79.5C 375.587,82.5983 375.087,82.9316 374,80.5C 373.333,83.1667 372.667,83.1667 372,80.5C 371.768,81.7375 371.268,82.7375 370.5,83.5C 371.258,78.7291 369.925,74.7291 366.5,71.5C 368.697,69.0236 370.863,69.0236 373,71.5C 373.492,70.451 373.326,69.451 372.5,68.5C 373,68.1667 373.5,67.8333 374,67.5C 387.801,68.3078 401.634,68.8078 415.5,69C 416.416,69.2784 417.082,69.7784 417.5,70.5 Z"/></g>
<g><path style="opacity:1" fill="#fefefe" d="M 813.5,71.5 C 813.5,93.1667 813.5,114.833 813.5,136.5C 593.167,136.5 372.833,136.5 152.5,136.5C 154.328,135.717 155.661,134.384 156.5,132.5C 356.5,132.667 556.5,132.5 756.5,132C 759.039,129.63 761.372,127.13 763.5,124.5C 768.533,119.468 773.199,114.135 777.5,108.5C 785.868,101.133 793.535,93.1329 800.5,84.5C 802.156,82.5398 803.823,80.5398 805.5,78.5C 808.167,76.1667 810.833,73.8333 813.5,71.5 Z"/></g>
<g><path style="opacity:1" fill="#fcbe0f" d="M 1.5,68.5 C 16.8333,68.5 32.1667,68.5 47.5,68.5C 43.8704,72.631 40.037,76.631 36,80.5C 33.6825,83.4681 32.1825,86.8014 31.5,90.5C 31.4062,92.9116 32.4062,94.745 34.5,96C 45.8333,96.6667 57.1667,96.6667 68.5,96C 71.1667,93 71.1667,90 68.5,87C 61.1667,86.6667 53.8333,86.3333 46.5,86C 52.3686,79.9638 58.3686,74.1305 64.5,68.5C 76.1667,68.5 87.8333,68.5 99.5,68.5C 100.5,68.5 101.5,68.5 102.5,68.5C 103.463,70.8803 105.297,71.8803 108,71.5C 111.587,70.6119 115.087,69.6119 118.5,68.5C 120.926,68.4035 123.093,69.0702 125,70.5C 129.031,77.1604 127.864,82.6604 121.5,87C 116.07,87.8418 110.903,87.0085 106,84.5C 101.196,84.6334 99.5292,86.9667 101,91.5C 103.863,94.5153 107.363,96.3487 111.5,97C 132.348,98.866 141.015,89.366 137.5,68.5C 163.167,68.5 188.833,68.5 214.5,68.5C 214.5,68.8333 214.5,69.1667 214.5,69.5C 204.398,80.6908 194.065,91.6908 183.5,102.5C 182.842,101.602 182.176,100.602 181.5,99.5C 180.833,99.8333 180.167,100.167 179.5,100.5C 178.719,99.2634 177.719,98.2634 176.5,97.5C 175.718,99.3293 176.384,100.829 178.5,102C 177.285,104.096 176.451,103.929 176,101.5C 119.905,102.498 63.7382,102.831 7.5,102.5C 7.32324,95.8656 6.82324,95.8656 6,102.5C 5.66667,101.167 5.33333,99.8333 5,98.5C 4.18605,105.767 3.18605,106.433 2,100.5C 1.50098,104.821 1.33432,109.154 1.5,113.5C 1.16667,113.5 0.833333,113.5 0.5,113.5C 0.5,98.8333 0.5,84.1667 0.5,69.5C 1.16667,69.5 1.5,69.1667 1.5,68.5 Z"/></g>
<g><path style="opacity:1" fill="#f4900f" d="M 496.5,79.5 C 496.5,83.8333 496.5,88.1667 496.5,92.5C 490.414,94.698 484.414,97.198 478.5,100C 477.167,100.667 475.833,100.667 474.5,100C 473.62,93.8346 473.954,87.6679 475.5,81.5C 476.29,80.3915 476.79,79.0581 477,77.5C 477.483,78.448 477.649,79.448 477.5,80.5C 483.923,80.7912 490.256,80.4578 496.5,79.5 Z"/></g>
<g><path style="opacity:1" fill="#f5910f" d="M 308.5,77.5 C 308.869,84.0273 309.536,90.5273 310.5,97C 310.233,100.164 308.567,101.164 305.5,100C 299.248,96.7879 292.748,94.2879 286,92.5C 279.906,94.2943 274.073,96.7943 268.5,100C 266.866,100.494 265.199,100.66 263.5,100.5C 263.523,92.8166 263.857,85.1499 264.5,77.5C 265.325,80.3718 266.159,83.3718 267,86.5C 268.308,83.2698 269.308,79.9364 270,76.5C 270.692,77.0253 271.192,77.6919 271.5,78.5C 277.167,78.8333 282.833,79.1667 288.5,79.5C 294.577,79.4755 300.41,78.8088 306,77.5C 306.333,78.5 306.667,79.5 307,80.5C 307.232,79.2625 307.732,78.2625 308.5,77.5 Z"/></g>
<g><path style="opacity:1" fill="#f5910f" d="M 413.5,81.5 C 414.604,87.7692 415.271,94.1025 415.5,100.5C 413.801,100.66 412.134,100.494 410.5,100C 404.37,96.9334 398.037,94.4334 391.5,92.5C 385.239,94.311 379.239,96.811 373.5,100C 371.866,100.494 370.199,100.66 368.5,100.5C 368.216,94.5827 368.883,88.916 370.5,83.5C 371.268,82.7375 371.768,81.7375 372,80.5C 372.667,83.1667 373.333,83.1667 374,80.5C 375.087,82.9316 375.587,82.5983 375.5,79.5C 387.081,79.8211 398.581,79.4878 410,78.5C 410.919,80.3671 411.419,82.3671 411.5,84.5C 412.176,83.3984 412.842,82.3984 413.5,81.5 Z"/></g>
<g><path style="opacity:1" fill="#262421" d="M 82.5,84.5 C 88.7264,83.9094 91.893,86.5761 92,92.5C 88.962,97.4023 84.962,98.4023 80,95.5C 77.5997,90.9898 78.433,87.3231 82.5,84.5 Z"/></g>
<g><path style="opacity:1" fill="#53514f" d="M 800.5,84.5 C 793.535,93.1329 785.868,101.133 777.5,108.5C 781.432,103.393 785.599,98.3925 790,93.5C 793.098,89.8926 796.598,86.8926 800.5,84.5 Z"/></g>
<g><path style="opacity:1" fill="#fdb80f" d="M 183.5,102.5 C 180.833,105.833 177.833,108.833 174.5,111.5C 172.983,111.489 171.816,110.823 171,109.5C 170.5,110 170,110.5 169.5,111C 170.973,111.71 171.64,112.876 171.5,114.5C 166.911,113.931 163.078,115.265 160,118.5C 108.855,118.166 57.8548,117.166 7,115.5C 6.66667,116.833 6.33333,118.167 6,119.5C 5.66667,117.5 5.33333,115.5 5,113.5C 2.58387,121.141 1.4172,121.141 1.5,113.5C 1.33432,109.154 1.50098,104.821 2,100.5C 3.18605,106.433 4.18605,105.767 5,98.5C 5.33333,99.8333 5.66667,101.167 6,102.5C 6.82324,95.8656 7.32324,95.8656 7.5,102.5C 63.7382,102.831 119.905,102.498 176,101.5C 176.451,103.929 177.285,104.096 178.5,102C 176.384,100.829 175.718,99.3293 176.5,97.5C 177.719,98.2634 178.719,99.2634 179.5,100.5C 180.167,100.167 180.833,99.8333 181.5,99.5C 182.176,100.602 182.842,101.602 183.5,102.5 Z"/></g>
<g><path style="opacity:1" fill="#fcb00f" d="M 174.5,111.5 C 169.523,117.481 164.523,123.481 159.5,129.5C 158.167,130.167 157.167,131.167 156.5,132.5C 155.661,134.384 154.328,135.717 152.5,136.5C 101.833,136.5 51.1667,136.5 0.5,136.5C 0.5,128.833 0.5,121.167 0.5,113.5C 0.833333,113.5 1.16667,113.5 1.5,113.5C 1.4172,121.141 2.58387,121.141 5,113.5C 5.33333,115.5 5.66667,117.5 6,119.5C 6.33333,118.167 6.66667,116.833 7,115.5C 57.8548,117.166 108.855,118.166 160,118.5C 163.078,115.265 166.911,113.931 171.5,114.5C 171.64,112.876 170.973,111.71 169.5,111C 170,110.5 170.5,110 171,109.5C 171.816,110.823 172.983,111.489 174.5,111.5 Z"/></g>
<g><path style="opacity:1" fill="#2e2d2d" d="M 763.5,124.5 C 761.372,127.13 759.039,129.63 756.5,132C 556.5,132.5 356.5,132.667 156.5,132.5C 157.167,131.167 158.167,130.167 159.5,129.5C 358.333,130.666 557.333,130.833 756.5,130C 758.441,127.546 760.775,125.713 763.5,124.5 Z"/></g>
</svg>
