<?xml version="1.0" encoding="UTF-8"?>
<!DOCTYPE svg PUBLIC "-//W3C//DTD SVG 1.1//EN" "http://www.w3.org/Graphics/SVG/1.1/DTD/svg11.dtd">
<svg xmlns="http://www.w3.org/2000/svg" version="1.1" width="814px" height="137px" style="shape-rendering:geometricPrecision; text-rendering:geometricPrecision; image-rendering:optimizeQuality; fill-rule:evenodd; clip-rule:evenodd" xmlns:xlink="http://www.w3.org/1999/xlink">
<g><path style="opacity:1" fill="#f4f4f4" d="M 151.5,-0.5 C 372.167,-0.5 592.833,-0.5 813.5,-0.5C 813.5,45.1667 813.5,90.8333 813.5,136.5C 592.5,136.5 371.5,136.5 150.5,136.5C 152.5,133.833 154.833,131.5 157.5,129.5C 357.167,129.667 556.834,129.5 756.5,129C 774.798,108.367 793.465,88.0334 812.5,68C 811.619,67.2917 810.953,66.4584 810.5,65.5C 792.706,45.87 774.706,26.37 756.5,7C 556.834,6.5 357.167,6.33333 157.5,6.5C 154.757,4.76069 152.757,2.42735 151.5,-0.5 Z"/></g>
<g><path style="opacity:1" fill="#fdb90f" d="M 0.5,-0.5 C 50.8333,-0.5 101.167,-0.5 151.5,-0.5C 152.757,2.42735 154.757,4.76069 157.5,6.5C 162.207,11.2046 166.54,16.2046 170.5,21.5C 171.218,23.1368 171.384,24.8034 171,26.5C 170.667,25.8333 170.333,25.1667 170,24.5C 169,25.5 168,26.5 167,27.5C 113.572,26.5025 60.0716,26.1692 6.5,26.5C 6.64945,25.448 6.48278,24.448 6,23.5C 5.66667,25.5 5.33333,27.5 5,29.5C 4.66667,26.8333 4.33333,24.1667 4,21.5C 3.7978,23.2556 3.2978,24.9223 2.5,26.5C 1.82434,25.3984 1.15767,24.3984 0.5,23.5C 0.5,15.5 0.5,7.5 0.5,-0.5 Z"/></g>
<g><path style="opacity:1" fill="#262626" d="M 157.5,6.5 C 357.167,6.33333 556.834,6.5 756.5,7C 774.706,26.37 792.706,45.87 810.5,65.5C 808.983,65.5106 807.816,66.1772 807,67.5C 785.239,66.6724 763.406,66.1724 741.5,66C 739.869,64.1644 739.202,64.6644 739.5,67.5C 738.167,67.5 736.833,67.5 735.5,67.5C 737.795,64.7029 740.295,62.0362 743,59.5C 743.781,58.0563 743.614,56.723 742.5,55.5C 736.939,53.8602 731.273,52.6935 725.5,52C 723.5,51 721.5,50 719.5,49C 715.873,42.9145 712.373,36.7479 709,30.5C 707.667,29.1667 706.333,29.1667 705,30.5C 701.693,37.6306 697.526,44.1306 692.5,50C 685.325,51.8884 678.158,53.7217 671,55.5C 670.333,56.8333 670.333,58.1667 671,59.5C 673.372,61.7032 675.539,64.0365 677.5,66.5C 676.603,67.5981 675.77,67.5981 675,66.5C 673.771,68.9468 672.271,69.1135 670.5,67C 659.833,66.3333 649.167,66.3333 638.5,67C 638,67.5 637.5,68 637,68.5C 635.705,67.1588 635.205,65.8255 635.5,64.5C 634.06,65.9524 632.394,66.9524 630.5,67.5C 632.811,64.853 635.144,62.1864 637.5,59.5C 638.833,58.1667 638.833,56.8333 637.5,55.5C 630.141,53.7287 622.808,51.8953 615.5,50C 611.019,43.5206 606.686,37.0206 602.5,30.5C 601.833,29.1667 601.167,29.1667 600.5,30.5C 596.314,37.0206 591.981,43.5206 587.5,50C 580.249,52.1461 572.916,53.9794 565.5,55.5C 564.674,56.451 564.508,57.451 565,58.5C 568.002,62.3338 571.169,66.0005 574.5,69.5C 571.51,69.9178 568.843,69.0845 566.5,67C 555.453,66.1895 544.453,66.3561 533.5,67.5C 531.389,64.9557 529.222,64.9557 527,67.5C 526.601,67.2716 526.435,66.9382 526.5,66.5C 527.415,64.2459 528.748,62.2459 530.5,60.5C 533.799,59.0985 534.132,57.2652 531.5,55C 524.347,53.8652 517.347,52.1985 510.5,50C 505.45,43.3897 500.783,36.5564 496.5,29.5C 495.186,30.3128 494.019,31.3128 493,32.5C 490.233,38.2582 487.066,43.7582 483.5,49C 476.064,51.7761 468.397,53.7761 460.5,55C 458.923,57.8601 459.59,60.0268 462.5,61.5C 464.167,63.5 465.833,65.5 467.5,67.5C 466.417,67.5394 465.417,67.8728 464.5,68.5C 458.84,67.2121 453.007,66.5455 447,66.5C 441.089,66.5254 435.422,67.1921 430,68.5C 429.692,67.6919 429.192,67.0253 428.5,66.5C 427.5,67.8333 426.5,67.8333 425.5,66.5C 423.528,67.3052 422.028,68.6385 421,70.5C 419.757,69.6637 418.59,69.997 417.5,71.5C 418.603,71.9976 419.603,72.3309 420.5,72.5C 419.197,76.1607 416.863,77.1607 413.5,75.5C 413.5,74.8333 413.5,74.1667 413.5,73.5C 418.139,68.5261 422.805,63.5261 427.5,58.5C 427.67,57.1779 427.337,56.0113 426.5,55C 419.836,53.667 413.169,52.3337 406.5,51C 405.672,50.0853 404.672,49.4186 403.5,49C 400.207,43.5816 397.04,38.0816 394,32.5C 391.283,29.6793 388.95,30.0126 387,33.5C 384.255,39.5581 380.755,45.0581 376.5,50C 369.319,51.8355 362.152,53.6688 355,55.5C 354.85,59.5544 356.683,62.5544 360.5,64.5C 361.11,65.391 361.443,66.391 361.5,67.5C 360.726,68.1471 359.726,68.4805 358.5,68.5C 355.821,68.0643 353.155,67.5643 350.5,67C 338.793,66.8095 327.126,66.6429 315.5,66.5C 317.58,64.4268 319.246,62.0934 320.5,59.5C 323.106,58.1501 323.106,56.6501 320.5,55C 313.35,53.8655 306.35,52.1988 299.5,50C 294.944,43.0428 290.277,36.2095 285.5,29.5C 280.723,36.2095 276.056,43.0428 271.5,50C 264.561,51.85 257.561,53.5166 250.5,55C 248.062,57.9832 248.729,60.1498 252.5,61.5C 252.733,63.0618 253.4,64.3951 254.5,65.5C 251.282,65.6509 250.949,66.4842 253.5,68C 250.737,70.2394 248.404,69.906 246.5,67C 235.839,66.5002 225.172,66.3335 214.5,66.5C 214.737,67.791 214.404,68.791 213.5,69.5C 213.5,68.8333 213.5,68.1667 213.5,67.5C 208.389,61.6007 203.056,55.934 197.5,50.5C 192.871,44.2034 187.538,38.5367 181.5,33.5C 178.542,28.8744 174.876,24.8744 170.5,21.5C 166.54,16.2046 162.207,11.2046 157.5,6.5 Z"/></g>
<g><path style="opacity:1" fill="#fcb20f" d="M 170.5,21.5 C 174.876,24.8744 178.542,28.8744 181.5,33.5C 181.511,35.0174 182.177,36.1841 183.5,37C 182.366,38.016 182.699,38.6827 184.5,39C 183.833,40 183.167,41 182.5,42C 169.171,42.4999 155.837,42.6666 142.5,42.5C 142.649,43.552 142.483,44.552 142,45.5C 141.667,43.5 141.333,41.5 141,39.5C 140.333,43.5 139.667,43.5 139,39.5C 138.641,42.5443 137.974,42.8776 137,40.5C 136.722,41.4158 136.222,42.0825 135.5,42.5C 135.439,39.2699 133.772,37.4365 130.5,37C 122.167,36.3333 113.833,36.3333 105.5,37C 104.956,37.7172 104.289,38.2172 103.5,38.5C 103.44,37.9569 103.107,37.6236 102.5,37.5C 101.749,38.376 101.249,39.376 101,40.5C 100.167,39.5 99.3333,38.5 98.5,37.5C 98.1667,37.8333 97.8333,38.1667 97.5,38.5C 96.9863,41.6443 96.153,44.6443 95,47.5C 95.3052,45.5568 95.3052,43.5568 95,41.5C 86.4796,41.845 78.1462,42.845 70,44.5C 69.3131,42.4325 69.4798,40.4325 70.5,38.5C 69.2402,37.6184 68.0736,36.6184 67,35.5C 65.6439,36.3802 64.1439,36.7135 62.5,36.5C 53.4938,36.3336 44.4938,36.5002 35.5,37C 34.2899,38.0391 33.2899,39.2058 32.5,40.5C 31.6981,41.9516 31.1981,43.6183 31,45.5C 30.5172,44.552 30.3505,43.552 30.5,42.5C 22.2476,42.8158 14.081,42.4825 6,41.5C 5.33333,42.8333 4.33333,43.8333 3,44.5C 1.80633,42.3766 1.13966,40.0432 1,37.5C 0.500847,32.8452 0.334181,28.1785 0.5,23.5C 1.15767,24.3984 1.82434,25.3984 2.5,26.5C 3.2978,24.9223 3.7978,23.2556 4,21.5C 4.33333,24.1667 4.66667,26.8333 5,29.5C 5.33333,27.5 5.66667,25.5 6,23.5C 6.48278,24.448 6.64945,25.448 6.5,26.5C 60.0716,26.1692 113.572,26.5025 167,27.5C 168,26.5 169,25.5 170,24.5C 170.333,25.1667 170.667,25.8333 171,26.5C 171.384,24.8034 171.218,23.1368 170.5,21.5 Z"/></g>
<g><path style="opacity:1" fill="#585858" d="M 735.5,67.5 C 732.365,69.7596 730.198,72.7596 729,76.5C 728.901,83.1858 729.401,89.8524 730.5,96.5C 730.812,99.6934 729.478,100.86 726.5,100C 720.28,96.4721 713.78,93.6387 707,91.5C 699.78,93.9421 692.78,96.9421 686,100.5C 685.228,100.355 684.561,100.022 684,99.5C 683.833,98.1667 683.667,96.8333 683.5,95.5C 684.555,88.8469 685.055,82.1802 685,75.5C 682.665,72.3347 680.165,69.3347 677.5,66.5C 675.539,64.0365 673.372,61.7032 671,59.5C 670.333,58.1667 670.333,56.8333 671,55.5C 678.158,53.7217 685.325,51.8884 692.5,50C 697.526,44.1306 701.693,37.6306 705,30.5C 706.333,29.1667 707.667,29.1667 709,30.5C 712.373,36.7479 715.873,42.9145 719.5,49C 721.5,50 723.5,51 725.5,52C 731.273,52.6935 736.939,53.8602 742.5,55.5C 743.614,56.723 743.781,58.0563 743,59.5C 740.295,62.0362 737.795,64.7029 735.5,67.5 Z"/></g>
<g><path style="opacity:1" fill="#585858" d="M 602.5,30.5 C 606.686,37.0206 611.019,43.5206 615.5,50C 622.808,51.8953 630.141,53.7287 637.5,55.5C 638.833,56.8333 638.833,58.1667 637.5,59.5C 635.144,62.1864 632.811,64.853 630.5,67.5C 627.832,69.3355 625.666,71.6688 624,74.5C 623.326,82.0698 623.826,89.5698 625.5,97C 625.563,99.9415 624.23,100.942 621.5,100C 615.141,97.1522 608.807,94.3189 602.5,91.5C 602.5,71.1667 602.5,50.8333 602.5,30.5 Z"/></g>
<g><path style="opacity:1" fill="#fbab0f" d="M 181.5,33.5 C 187.538,38.5367 192.871,44.2034 197.5,50.5C 198.038,52.1172 198.371,53.7839 198.5,55.5C 175.3,55.8181 152.134,55.4848 129,54.5C 127.403,56.9606 125.57,57.1272 123.5,55C 124.5,54.6667 125.5,54.3333 126.5,54C 123.833,54 121.167,54 118.5,54C 117.267,49.5057 116.1,49.6724 115,54.5C 114.221,52.1929 114.721,50.1929 116.5,48.5C 121.317,47.8331 125.983,47.1665 130.5,46.5C 133.063,46.2687 134.73,44.9354 135.5,42.5C 136.222,42.0825 136.722,41.4158 137,40.5C 137.974,42.8776 138.641,42.5443 139,39.5C 139.667,43.5 140.333,43.5 141,39.5C 141.333,41.5 141.667,43.5 142,45.5C 142.483,44.552 142.649,43.552 142.5,42.5C 155.837,42.6666 169.171,42.4999 182.5,42C 183.167,41 183.833,40 184.5,39C 182.699,38.6827 182.366,38.016 183.5,37C 182.177,36.1841 181.511,35.0174 181.5,33.5 Z"/></g>
<g><path style="opacity:1" fill="#f9b10f" d="M 320.5,59.5 C 299.701,59.72 278.867,59.3867 258,58.5C 256.13,60.3431 254.297,61.3431 252.5,61.5C 248.729,60.1498 248.062,57.9832 250.5,55C 257.561,53.5166 264.561,51.85 271.5,50C 276.056,43.0428 280.723,36.2095 285.5,29.5C 290.277,36.2095 294.944,43.0428 299.5,50C 306.35,52.1988 313.35,53.8655 320.5,55C 323.106,56.6501 323.106,58.1501 320.5,59.5 Z"/></g>
<g><path style="opacity:1" fill="#f9b10f" d="M 427.5,58.5 C 423.844,58.9073 420.344,60.2407 417,62.5C 416.5,61.3333 415.667,60.5 414.5,60C 398.259,59.1758 382.093,59.3425 366,60.5C 363.757,58.2132 361.257,58.0465 358.5,60C 360.5,60.3333 362.5,60.6667 364.5,61C 362.676,61.66 361.343,62.8267 360.5,64.5C 356.683,62.5544 354.85,59.5544 355,55.5C 362.152,53.6688 369.319,51.8355 376.5,50C 380.755,45.0581 384.255,39.5581 387,33.5C 388.95,30.0126 391.283,29.6793 394,32.5C 397.04,38.0816 400.207,43.5816 403.5,49C 404.672,49.4186 405.672,50.0853 406.5,51C 413.169,52.3337 419.836,53.667 426.5,55C 427.337,56.0113 427.67,57.1779 427.5,58.5 Z"/></g>
<g><path style="opacity:1" fill="#f9b10f" d="M 530.5,60.5 C 530.349,57.2819 529.516,56.9485 528,59.5C 508.603,59.7222 488.937,59.3888 469,58.5C 466.27,58.7056 464.103,59.7056 462.5,61.5C 459.59,60.0268 458.923,57.8601 460.5,55C 468.397,53.7761 476.064,51.7761 483.5,49C 487.066,43.7582 490.233,38.2582 493,32.5C 494.019,31.3128 495.186,30.3128 496.5,29.5C 500.783,36.5564 505.45,43.3897 510.5,50C 517.347,52.1985 524.347,53.8652 531.5,55C 534.132,57.2652 533.799,59.0985 530.5,60.5 Z"/></g>
<g><path style="opacity:1" fill="#fdaf35" d="M -0.5,-0.5 C -0.166667,-0.5 0.166667,-0.5 0.5,-0.5C 0.5,7.5 0.5,15.5 0.5,23.5C 0.334181,28.1785 0.500847,32.8452 1,37.5C 1.13966,40.0432 1.80633,42.3766 3,44.5C 4.33333,43.8333 5.33333,42.8333 6,41.5C 14.081,42.4825 22.2476,42.8158 30.5,42.5C 30.3505,43.552 30.5172,44.552 31,45.5C 31.1981,43.6183 31.6981,41.9516 32.5,40.5C 32.0807,43.3245 33.0807,45.4912 35.5,47C 40.8333,47.3333 46.1667,47.6667 51.5,48C 47.3333,52.8333 43.1667,57.6667 39,62.5C 38.5065,64.1341 38.3398,65.8008 38.5,67.5C 25.8333,67.5 13.1667,67.5 0.5,67.5C 0.5,74.5 0.5,81.5 0.5,88.5C 0.5,96.8333 0.5,105.167 0.5,113.5C 0.5,121.167 0.5,128.833 0.5,136.5C 0.166667,136.5 -0.166667,136.5 -0.5,136.5C -0.5,90.8333 -0.5,45.1667 -0.5,-0.5 Z"/></g>
<g><path style="opacity:1" fill="#232220" d="M 62.5,36.5 C 66.7028,37.5556 68.2028,40.2223 67,44.5C 63.1667,49.5 59.3333,54.5 55.5,59.5C 60.2077,61.1815 64.2077,63.8481 67.5,67.5C 70.5834,75.2494 69.75,82.5827 65,89.5C 60.1673,94.6757 54.1673,97.009 47,96.5C 41.3438,96.6723 36.3438,95.0057 32,91.5C 30.3495,86.9322 31.8495,84.2656 36.5,83.5C 42.3028,86.6429 48.3028,87.1429 54.5,85C 58.051,80.5848 58.3843,75.9181 55.5,71C 51.5623,69.2706 47.5623,69.1039 43.5,70.5C 41.5775,69.9076 39.9108,68.9076 38.5,67.5C 38.3398,65.8008 38.5065,64.1341 39,62.5C 43.1667,57.6667 47.3333,52.8333 51.5,48C 46.1667,47.6667 40.8333,47.3333 35.5,47C 33.0807,45.4912 32.0807,43.3245 32.5,40.5C 33.2899,39.2058 34.2899,38.0391 35.5,37C 44.4938,36.5002 53.4938,36.3336 62.5,36.5 Z"/></g>
<g><path style="opacity:1" fill="#f9a60f" d="M 103.5,38.5 C 101.687,47.6883 101.02,57.0217 101.5,66.5C 90.2476,67.4773 78.9143,67.8106 67.5,67.5C 64.2077,63.8481 60.2077,61.1815 55.5,59.5C 59.3333,54.5 63.1667,49.5 67,44.5C 68.2028,40.2223 66.7028,37.5556 62.5,36.5C 64.1439,36.7135 65.6439,36.3802 67,35.5C 68.0736,36.6184 69.2402,37.6184 70.5,38.5C 69.4798,40.4325 69.3131,42.4325 70,44.5C 78.1462,42.845 86.4796,41.845 95,41.5C 95.3052,43.5568 95.3052,45.5568 95,47.5C 96.153,44.6443 96.9863,41.6443 97.5,38.5C 97.8333,38.1667 98.1667,37.8333 98.5,37.5C 99.3333,38.5 100.167,39.5 101,40.5C 101.249,39.376 101.749,38.376 102.5,37.5C 103.107,37.6236 103.44,37.9569 103.5,38.5 Z"/></g>
<g><path style="opacity:1" fill="#f7a30f" d="M 130.5,46.5 C 125.983,47.1665 121.317,47.8331 116.5,48.5C 114.721,50.1929 114.221,52.1929 115,54.5C 116.1,49.6724 117.267,49.5057 118.5,54C 121.167,54 123.833,54 126.5,54C 125.5,54.3333 124.5,54.6667 123.5,55C 125.57,57.1272 127.403,56.9606 129,54.5C 152.134,55.4848 175.3,55.8181 198.5,55.5C 198.371,53.7839 198.038,52.1172 197.5,50.5C 203.056,55.934 208.389,61.6007 213.5,67.5C 188.012,67.4682 162.345,67.4682 136.5,67.5C 130.67,59.325 122.67,55.9917 112.5,57.5C 112.211,53.8936 112.544,50.3936 113.5,47C 119.157,46.5006 124.824,46.3339 130.5,46.5 Z"/></g>
<g><path style="opacity:1" fill="#faac0f" d="M 600.5,30.5 C 601.496,45.9911 601.83,61.6578 601.5,77.5C 600.59,75.9812 599.757,74.3146 599,72.5C 593.333,73.1667 587.667,73.8333 582,74.5C 581.683,72.6992 581.016,72.3659 580,73.5C 579.583,72.244 578.75,71.5774 577.5,71.5C 576.5,70.8333 575.5,70.1667 574.5,69.5C 571.169,66.0005 568.002,62.3338 565,58.5C 564.508,57.451 564.674,56.451 565.5,55.5C 572.916,53.9794 580.249,52.1461 587.5,50C 591.981,43.5206 596.314,37.0206 600.5,30.5 Z"/></g>
<g><path style="opacity:1" fill="#826d45" d="M 600.5,30.5 C 601.167,29.1667 601.833,29.1667 602.5,30.5C 602.5,50.8333 602.5,71.1667 602.5,91.5C 602.167,91.5 601.833,91.5 601.5,91.5C 601.5,86.8333 601.5,82.1667 601.5,77.5C 601.83,61.6578 601.496,45.9911 600.5,30.5 Z"/></g>
<g><path style="opacity:1" fill="#212121" d="M 677.5,66.5 C 680.165,69.3347 682.665,72.3347 685,75.5C 685.055,82.1802 684.555,88.8469 683.5,95.5C 683.667,96.8333 683.833,98.1667 684,99.5C 684.561,100.022 685.228,100.355 686,100.5C 692.78,96.9421 699.78,93.9421 707,91.5C 713.78,93.6387 720.28,96.4721 726.5,100C 729.478,100.86 730.812,99.6934 730.5,96.5C 729.401,89.8524 728.901,83.1858 729,76.5C 730.198,72.7596 732.365,69.7596 735.5,67.5C 736.833,67.5 738.167,67.5 739.5,67.5C 739.202,64.6644 739.869,64.1644 741.5,66C 763.406,66.1724 785.239,66.6724 807,67.5C 807.816,66.1772 808.983,65.5106 810.5,65.5C 810.953,66.4584 811.619,67.2917 812.5,68C 793.465,88.0334 774.798,108.367 756.5,129C 556.834,129.5 357.167,129.667 157.5,129.5C 162.207,124.795 166.54,119.795 170.5,114.5C 174.876,111.126 178.542,107.126 181.5,102.5C 192.167,91.5 202.833,80.5 213.5,69.5C 214.404,68.791 214.737,67.791 214.5,66.5C 225.172,66.3335 235.839,66.5002 246.5,67C 248.404,69.906 250.737,70.2394 253.5,68C 250.949,66.4842 251.282,65.6509 254.5,65.5C 258.628,68.2901 261.628,71.9568 263.5,76.5C 263.328,83.2113 262.661,89.878 261.5,96.5C 261.22,98.6228 262.053,99.9561 264,100.5C 270.951,97.1013 278.118,94.4346 285.5,92.5C 292.438,94.1294 299.104,96.6294 305.5,100C 308.478,100.86 309.812,99.6934 309.5,96.5C 308.421,90.2046 307.755,83.8712 307.5,77.5C 308.627,72.7077 311.293,69.041 315.5,66.5C 327.126,66.6429 338.793,66.8095 350.5,67C 353.155,67.5643 355.821,68.0643 358.5,68.5C 359.726,68.4805 360.726,68.1471 361.5,67.5C 362.833,68.5 364.167,69.5 365.5,70.5C 366.657,72.1376 367.824,73.8043 369,75.5C 369.162,81.5339 368.662,87.5339 367.5,93.5C 367.667,95.5 367.833,97.5 368,99.5C 368.561,100.022 369.228,100.355 370,100.5C 376.78,96.9421 383.78,93.9421 391,91.5C 397.617,93.9329 404.117,96.7662 410.5,100C 411.5,100.667 412.5,100.667 413.5,100C 413.533,91.7336 413.533,83.567 413.5,75.5C 416.863,77.1607 419.197,76.1607 420.5,72.5C 419.603,72.3309 418.603,71.9976 417.5,71.5C 418.59,69.997 419.757,69.6637 421,70.5C 422.028,68.6385 423.528,67.3052 425.5,66.5C 426.5,67.8333 427.5,67.8333 428.5,66.5C 429.192,67.0253 429.692,67.6919 430,68.5C 435.422,67.1921 441.089,66.5254 447,66.5C 453.007,66.5455 458.84,67.2121 464.5,68.5C 465.417,67.8728 466.417,67.5394 467.5,67.5C 472.461,70.8091 474.794,75.4758 474.5,81.5C 472.793,87.6621 472.46,93.8288 473.5,100C 480.782,97.1226 488.282,94.6226 496,92.5C 503.99,94.7472 511.824,97.4139 519.5,100.5C 519.555,94.0456 518.888,87.7122 517.5,81.5C 517.677,74.8145 520.677,69.8145 526.5,66.5C 526.435,66.9382 526.601,67.2716 527,67.5C 529.222,64.9557 531.389,64.9557 533.5,67.5C 544.453,66.3561 555.453,66.1895 566.5,67C 568.843,69.0845 571.51,69.9178 574.5,69.5C 575.5,70.1667 576.5,70.8333 577.5,71.5C 578.971,74.0624 579.638,76.8957 579.5,80C 578.746,86.814 578.412,93.6474 578.5,100.5C 586.359,97.7273 594.026,94.7273 601.5,91.5C 601.833,91.5 602.167,91.5 602.5,91.5C 608.807,94.3189 615.141,97.1522 621.5,100C 624.23,100.942 625.563,99.9415 625.5,97C 623.826,89.5698 623.326,82.0698 624,74.5C 625.666,71.6688 627.832,69.3355 630.5,67.5C 632.394,66.9524 634.06,65.9524 635.5,64.5C 635.205,65.8255 635.705,67.1588 637,68.5C 637.5,68 638,67.5 638.5,67C 649.167,66.3333 659.833,66.3333 670.5,67C 672.271,69.1135 673.771,68.9468 675,66.5C 675.77,67.5981 676.603,67.5981 677.5,66.5 Z"/></g>
<g><path style="opacity:1" fill="#faa50f" d="M 320.5,59.5 C 319.246,62.0934 317.58,64.4268 315.5,66.5C 311.293,69.041 308.627,72.7077 307.5,77.5C 306.701,79.7385 305.368,81.7385 303.5,83.5C 291.346,82.1757 279.179,82.1757 267,83.5C 265.278,83.3893 265.112,82.8893 266.5,82C 266.12,79.6742 265.12,77.8409 263.5,76.5C 261.628,71.9568 258.628,68.2901 254.5,65.5C 253.4,64.3951 252.733,63.0618 252.5,61.5C 254.297,61.3431 256.13,60.3431 258,58.5C 278.867,59.3867 299.701,59.72 320.5,59.5 Z"/></g>
<g><path style="opacity:1" fill="#faa70f" d="M 427.5,58.5 C 422.805,63.5261 418.139,68.5261 413.5,73.5C 412.115,72.3862 410.615,71.3862 409,70.5C 408.805,72.2072 408.805,73.8739 409,75.5C 408.5,75 408,74.5 407.5,74C 396.5,73.3333 385.5,73.3333 374.5,74C 373.874,74.7504 373.374,75.5838 373,76.5C 372.581,75.3279 371.915,74.3279 371,73.5C 370.333,74.8333 369.667,74.8333 369,73.5C 368.667,72.1667 368.333,70.8333 368,69.5C 367.329,70.2524 366.496,70.5858 365.5,70.5C 364.167,69.5 362.833,68.5 361.5,67.5C 361.443,66.391 361.11,65.391 360.5,64.5C 361.343,62.8267 362.676,61.66 364.5,61C 362.5,60.6667 360.5,60.3333 358.5,60C 361.257,58.0465 363.757,58.2132 366,60.5C 382.093,59.3425 398.259,59.1758 414.5,60C 415.667,60.5 416.5,61.3333 417,62.5C 420.344,60.2407 423.844,58.9073 427.5,58.5 Z"/></g>
<g><path style="opacity:1" fill="#faa50f" d="M 530.5,60.5 C 528.748,62.2459 527.415,64.2459 526.5,66.5C 520.677,69.8145 517.677,74.8145 517.5,81.5C 515.515,81.1414 514.849,80.308 515.5,79C 514.451,78.5078 513.451,78.6744 512.5,79.5C 511.808,78.9747 511.308,78.3081 511,77.5C 505.746,78.8069 500.246,79.4736 494.5,79.5C 488.921,79.4889 483.421,79.1555 478,78.5C 476.956,79.6226 476.29,80.9559 476,82.5C 475.617,81.944 475.117,81.6107 474.5,81.5C 474.794,75.4758 472.461,70.8091 467.5,67.5C 465.833,65.5 464.167,63.5 462.5,61.5C 464.103,59.7056 466.27,58.7056 469,58.5C 488.937,59.3888 508.603,59.7222 528,59.5C 529.516,56.9485 530.349,57.2819 530.5,60.5 Z"/></g>
<g><path style="opacity:1" fill="#242220" d="M 135.5,42.5 C 134.73,44.9354 133.063,46.2687 130.5,46.5C 124.824,46.3339 119.157,46.5006 113.5,47C 112.544,50.3936 112.211,53.8936 112.5,57.5C 122.67,55.9917 130.67,59.325 136.5,67.5C 140.365,89.1356 131.365,98.6356 109.5,96C 106.756,95.1965 104.089,94.1965 101.5,93C 98.258,88.4643 99.258,85.2976 104.5,83.5C 109.556,86.1173 114.889,86.9506 120.5,86C 125.035,83.0751 126.868,78.9084 126,73.5C 123.647,68.5736 119.814,66.7402 114.5,68C 112.06,69.3034 109.56,70.47 107,71.5C 104.009,71.0054 102.176,69.3388 101.5,66.5C 101.02,57.0217 101.687,47.6883 103.5,38.5C 104.289,38.2172 104.956,37.7172 105.5,37C 113.833,36.3333 122.167,36.3333 130.5,37C 133.772,37.4365 135.439,39.2699 135.5,42.5 Z"/></g>
<g><path style="opacity:1" fill="#fcbe0f" d="M 101.5,66.5 C 102.176,69.3388 104.009,71.0054 107,71.5C 109.56,70.47 112.06,69.3034 114.5,68C 119.814,66.7402 123.647,68.5736 126,73.5C 126.868,78.9084 125.035,83.0751 120.5,86C 114.889,86.9506 109.556,86.1173 104.5,83.5C 99.258,85.2976 98.258,88.4643 101.5,93C 104.089,94.1965 106.756,95.1965 109.5,96C 131.365,98.6356 140.365,89.1356 136.5,67.5C 162.345,67.4682 188.012,67.4682 213.5,67.5C 213.5,68.1667 213.5,68.8333 213.5,69.5C 202.833,80.5 192.167,91.5 181.5,102.5C 180.207,101.355 179.041,101.689 178,103.5C 177.5,103 177,102.5 176.5,102C 160.979,101.795 145.479,101.295 130,100.5C 116.783,101.285 103.283,101.618 89.5,101.5C 88.5224,101.023 87.6891,100.357 87,99.5C 86.3109,100.357 85.4776,101.023 84.5,101.5C 85.0164,100.242 84.3497,99.2418 82.5,98.5C 83.6016,97.8243 84.6016,97.1577 85.5,96.5C 91.7113,93.9329 92.7113,90.0996 88.5,85C 84.2906,82.7605 80.7906,83.5938 78,87.5C 77.0228,90.8173 77.8562,93.484 80.5,95.5C 80.472,97.5824 81.1387,99.4157 82.5,101C 81.552,101.483 80.552,101.649 79.5,101.5C 79.5408,97.7566 78.8741,97.5899 77.5,101C 74.6667,101.167 71.8333,101.333 69,101.5C 48.4635,100.524 27.6302,100.524 6.5,101.5C 6.64945,100.448 6.48278,99.448 6,98.5C 5.16322,104.837 4.49656,104.503 4,97.5C 3.66667,99.1667 3.33333,100.833 3,102.5C 2.66667,102.167 2.33333,101.833 2,101.5C 1.82474,96.9805 1.32474,92.6472 0.5,88.5C 0.5,81.5 0.5,74.5 0.5,67.5C 13.1667,67.5 25.8333,67.5 38.5,67.5C 39.9108,68.9076 41.5775,69.9076 43.5,70.5C 47.5623,69.1039 51.5623,69.2706 55.5,71C 58.3843,75.9181 58.051,80.5848 54.5,85C 48.3028,87.1429 42.3028,86.6429 36.5,83.5C 31.8495,84.2656 30.3495,86.9322 32,91.5C 36.3438,95.0057 41.3438,96.6723 47,96.5C 54.1673,97.009 60.1673,94.6757 65,89.5C 69.75,82.5827 70.5834,75.2494 67.5,67.5C 78.9143,67.8106 90.2476,67.4773 101.5,66.5 Z"/></g>
<g><path style="opacity:1" fill="#f5950f" d="M 577.5,71.5 C 578.75,71.5774 579.583,72.244 580,73.5C 581.016,72.3659 581.683,72.6992 582,74.5C 587.667,73.8333 593.333,73.1667 599,72.5C 599.757,74.3146 600.59,75.9812 601.5,77.5C 601.5,82.1667 601.5,86.8333 601.5,91.5C 594.026,94.7273 586.359,97.7273 578.5,100.5C 578.412,93.6474 578.746,86.814 579.5,80C 579.638,76.8957 578.971,74.0624 577.5,71.5 Z"/></g>
<g><path style="opacity:1" fill="#f3900f" d="M 263.5,76.5 C 265.12,77.8409 266.12,79.6742 266.5,82C 265.112,82.8893 265.278,83.3893 267,83.5C 279.179,82.1757 291.346,82.1757 303.5,83.5C 305.368,81.7385 306.701,79.7385 307.5,77.5C 307.755,83.8712 308.421,90.2046 309.5,96.5C 309.812,99.6934 308.478,100.86 305.5,100C 299.104,96.6294 292.438,94.1294 285.5,92.5C 278.118,94.4346 270.951,97.1013 264,100.5C 262.053,99.9561 261.22,98.6228 261.5,96.5C 262.661,89.878 263.328,83.2113 263.5,76.5 Z"/></g>
<g><path style="opacity:1" fill="#f7960f" d="M 413.5,73.5 C 413.5,74.1667 413.5,74.8333 413.5,75.5C 413.533,83.567 413.533,91.7336 413.5,100C 412.5,100.667 411.5,100.667 410.5,100C 404.117,96.7662 397.617,93.9329 391,91.5C 383.78,93.9421 376.78,96.9421 370,100.5C 369.228,100.355 368.561,100.022 368,99.5C 367.833,97.5 367.667,95.5 367.5,93.5C 368.662,87.5339 369.162,81.5339 369,75.5C 367.824,73.8043 366.657,72.1376 365.5,70.5C 366.496,70.5858 367.329,70.2524 368,69.5C 368.333,70.8333 368.667,72.1667 369,73.5C 369.667,74.8333 370.333,74.8333 371,73.5C 371.915,74.3279 372.581,75.3279 373,76.5C 373.374,75.5838 373.874,74.7504 374.5,74C 385.5,73.3333 396.5,73.3333 407.5,74C 408,74.5 408.5,75 409,75.5C 408.805,73.8739 408.805,72.2072 409,70.5C 410.615,71.3862 412.115,72.3862 413.5,73.5 Z"/></g>
<g><path style="opacity:1" fill="#f5930f" d="M 517.5,81.5 C 518.888,87.7122 519.555,94.0456 519.5,100.5C 511.824,97.4139 503.99,94.7472 496,92.5C 488.282,94.6226 480.782,97.1226 473.5,100C 472.46,93.8288 472.793,87.6621 474.5,81.5C 475.117,81.6107 475.617,81.944 476,82.5C 476.29,80.9559 476.956,79.6226 478,78.5C 483.421,79.1555 488.921,79.4889 494.5,79.5C 500.246,79.4736 505.746,78.8069 511,77.5C 511.308,78.3081 511.808,78.9747 512.5,79.5C 513.451,78.6744 514.451,78.5078 515.5,79C 514.849,80.308 515.515,81.1414 517.5,81.5 Z"/></g>
<g><path style="opacity:1" fill="#252420" d="M 85.5,96.5 C 83.7085,96.634 82.0418,96.3007 80.5,95.5C 77.8562,93.484 77.0228,90.8173 78,87.5C 80.7906,83.5938 84.2906,82.7605 88.5,85C 92.7113,90.0996 91.7113,93.9329 85.5,96.5 Z"/></g>
<g><path style="opacity:1" fill="#fdb80f" d="M 0.5,88.5 C 1.32474,92.6472 1.82474,96.9805 2,101.5C 2.33333,101.833 2.66667,102.167 3,102.5C 3.33333,100.833 3.66667,99.1667 4,97.5C 4.49656,104.503 5.16322,104.837 6,98.5C 6.48278,99.448 6.64945,100.448 6.5,101.5C 27.6302,100.524 48.4635,100.524 69,101.5C 71.8333,101.333 74.6667,101.167 77.5,101C 78.8741,97.5899 79.5408,97.7566 79.5,101.5C 80.552,101.649 81.552,101.483 82.5,101C 81.1387,99.4157 80.472,97.5824 80.5,95.5C 82.0418,96.3007 83.7085,96.634 85.5,96.5C 84.6016,97.1577 83.6016,97.8243 82.5,98.5C 84.3497,99.2418 85.0164,100.242 84.5,101.5C 85.4776,101.023 86.3109,100.357 87,99.5C 87.6891,100.357 88.5224,101.023 89.5,101.5C 103.283,101.618 116.783,101.285 130,100.5C 145.479,101.295 160.979,101.795 176.5,102C 177,102.5 177.5,103 178,103.5C 179.041,101.689 180.207,101.355 181.5,102.5C 178.542,107.126 174.876,111.126 170.5,114.5C 142.875,115.158 115.208,115.492 87.5,115.5C 60.1191,115.496 32.9525,114.829 6,113.5C 5.13073,118.508 4.46406,118.175 4,112.5C 3.36147,118.542 2.1948,118.875 0.5,113.5C 0.5,105.167 0.5,96.8333 0.5,88.5 Z"/></g>
<g><path style="opacity:1" fill="#fcb10f" d="M 170.5,114.5 C 166.54,119.795 162.207,124.795 157.5,129.5C 154.833,131.5 152.5,133.833 150.5,136.5C 100.5,136.5 50.5,136.5 0.5,136.5C 0.5,128.833 0.5,121.167 0.5,113.5C 2.1948,118.875 3.36147,118.542 4,112.5C 4.46406,118.175 5.13073,118.508 6,113.5C 32.9525,114.829 60.1191,115.496 87.5,115.5C 115.208,115.492 142.875,115.158 170.5,114.5 Z"/></g>
</svg>
